<svg xmlns="http://www.w3.org/2000/svg" viewBox="0 0 64 64"><path d="M54.69,14.28l8.83-8.83a1.62,1.62,0,0,0-1.14-2.77H21.15A1.63,1.63,0,0,0,19.53,4.3V59.7a1.62,1.62,0,0,0,2.78,1.13l8.83-9a1.62,1.62,0,0,0,.46-1.14V38.06a1.58,1.58,0,0,1,.48-1.14l8.81-8.83a1.62,1.62,0,0,0-1.15-2.77H33.22A1.62,1.62,0,0,1,31.6,23.7V16.37a1.63,1.63,0,0,1,1.62-1.62H53.55A1.63,1.63,0,0,0,54.69,14.28Z"/><path d="M1.62,14.75H12.36A1.62,1.62,0,0,0,14,13.13V4.3a1.63,1.63,0,0,0-1.62-1.62H7.47a1.6,1.6,0,0,0-1.35.73L.27,12.24A1.62,1.62,0,0,0,1.62,14.75Z"/></svg>