<svg xmlns="http://www.w3.org/2000/svg" viewBox="0 0 800 500"><defs><style>.a{fill:#39b54a;}.b{fill:#fff;}.c{fill:#6d6e71;}.d,.e{fill:none;stroke-miterlimit:10;}.d{stroke:#1c75bc;stroke-width:6px;}.e{stroke:#39b54a;stroke-width:2px;}.f{fill:#58595b;}</style></defs><rect class="a" x="380.97" y="1.62" width="188.98" height="52.07" rx="6" transform="translate(950.92 55.32) rotate(180)"/><path class="b" d="M407.86,21.13V18.61h11.88v2.52h-4.43V33.06h-3V21.13Z"/><path class="b" d="M425,33.28a5.52,5.52,0,0,1-2.84-.71,4.65,4.65,0,0,1-1.84-2,6.19,6.19,0,0,1-.65-2.92,6.26,6.26,0,0,1,.65-3,4.7,4.7,0,0,1,1.84-2,6.11,6.11,0,0,1,5.68,0,4.73,4.73,0,0,1,1.85,2,6.38,6.38,0,0,1,.65,3,6.31,6.31,0,0,1-.65,2.92,4.67,4.67,0,0,1-1.85,2A5.47,5.47,0,0,1,425,33.28ZM425,31a1.9,1.9,0,0,0,1.25-.43,2.74,2.74,0,0,0,.76-1.17,5.18,5.18,0,0,0,.25-1.69A5.12,5.12,0,0,0,427,26a2.78,2.78,0,0,0-.76-1.18,1.9,1.9,0,0,0-1.25-.43,1.93,1.93,0,0,0-1.27.43,2.62,2.62,0,0,0-.77,1.18,5.11,5.11,0,0,0-.26,1.68,5.17,5.17,0,0,0,.26,1.69,2.58,2.58,0,0,0,.77,1.17A1.93,1.93,0,0,0,425,31Z"/><path class="b" d="M432.26,33.06V22.22h2.92v1.89h.11a2.85,2.85,0,0,1,1-1.53,2.64,2.64,0,0,1,1.61-.51,4,4,0,0,1,.48,0,3.93,3.93,0,0,1,.46.08v2.67a3.77,3.77,0,0,0-.58-.11,4.31,4.31,0,0,0-.69-.05,2.42,2.42,0,0,0-1.18.28,2.1,2.1,0,0,0-.82.8,2.26,2.26,0,0,0-.3,1.17v6.13Z"/><path class="b" d="M440.39,33.06V22.22h2.92v1.89h.11a2.89,2.89,0,0,1,1-1.53,2.68,2.68,0,0,1,1.61-.51,4.18,4.18,0,0,1,.49,0l.46.08v2.67a3.94,3.94,0,0,0-.59-.11,4.19,4.19,0,0,0-.68-.05,2.39,2.39,0,0,0-1.18.28,2.1,2.1,0,0,0-.82.8,2.26,2.26,0,0,0-.3,1.17v6.13Z"/><path class="b" d="M453,33.28a5.79,5.79,0,0,1-2.88-.68,4.62,4.62,0,0,1-1.85-1.94,6.38,6.38,0,0,1-.65-3,6.36,6.36,0,0,1,.65-2.93,4.71,4.71,0,0,1,1.83-2,5.23,5.23,0,0,1,2.78-.71,5.72,5.72,0,0,1,2,.34,4.44,4.44,0,0,1,1.62,1,4.65,4.65,0,0,1,1.09,1.72,6.82,6.82,0,0,1,.39,2.42v.82h-9.16V26.55h6.32a2.28,2.28,0,0,0-.28-1.15,2,2,0,0,0-.78-.79,2.26,2.26,0,0,0-1.15-.29,2.31,2.31,0,0,0-2,1.16,2.54,2.54,0,0,0-.3,1.17v1.77a3,3,0,0,0,.3,1.39,2.17,2.17,0,0,0,.85.9A2.5,2.5,0,0,0,453,31a3,3,0,0,0,.92-.14,1.89,1.89,0,0,0,.71-.42,1.76,1.76,0,0,0,.45-.7l2.78.19a3.84,3.84,0,0,1-.86,1.75,4.41,4.41,0,0,1-1.68,1.15A6.26,6.26,0,0,1,453,33.28Z"/><path class="b" d="M462.9,26.8v6.26h-3V22.22h2.87v1.91h.12a3.08,3.08,0,0,1,1.21-1.5,3.67,3.67,0,0,1,2.05-.55,3.79,3.79,0,0,1,2,.49A3.37,3.37,0,0,1,469.42,24a4.77,4.77,0,0,1,.47,2.18v6.9h-3V26.7a2.22,2.22,0,0,0-.51-1.56,1.84,1.84,0,0,0-1.42-.56,2.2,2.2,0,0,0-1.07.26,1.77,1.77,0,0,0-.72.76A2.59,2.59,0,0,0,462.9,26.8Z"/><path class="b" d="M478,22.22v2.26h-6.53V22.22Zm-5-2.6h3V29.73a1.29,1.29,0,0,0,.13.65.68.68,0,0,0,.35.32,1.49,1.49,0,0,0,.54.09,2,2,0,0,0,.42,0l.32-.06.48,2.24c-.15,0-.37.1-.64.17a5.23,5.23,0,0,1-1,.11,4.42,4.42,0,0,1-1.91-.29,2.62,2.62,0,0,1-1.26-1,3.09,3.09,0,0,1-.45-1.76Z"/><path class="b" d="M489.48,33.28a5.54,5.54,0,0,1-2.86-.71,4.67,4.67,0,0,1-1.83-2,6.29,6.29,0,0,1-.64-2.9,6.33,6.33,0,0,1,.64-2.93,4.79,4.79,0,0,1,1.84-2,5.49,5.49,0,0,1,2.84-.71,5.71,5.71,0,0,1,2.49.51,4.13,4.13,0,0,1,2.37,3.64h-2.84a2.22,2.22,0,0,0-.63-1.31,1.85,1.85,0,0,0-1.34-.5,2,2,0,0,0-1.22.38,2.54,2.54,0,0,0-.81,1.1,4.73,4.73,0,0,0-.29,1.74,4.9,4.9,0,0,0,.29,1.77,2.47,2.47,0,0,0,.81,1.11,2.16,2.16,0,0,0,2.15.17,1.92,1.92,0,0,0,.68-.62,2.44,2.44,0,0,0,.36-1h2.84a4.42,4.42,0,0,1-.68,2.19A4.17,4.17,0,0,1,492,32.75,5.57,5.57,0,0,1,489.48,33.28Z"/><path class="b" d="M499.27,26.8v6.26h-3V18.61h2.93v5.52h.12a3.06,3.06,0,0,1,1.19-1.5,3.56,3.56,0,0,1,2.05-.55,3.85,3.85,0,0,1,2,.49A3.37,3.37,0,0,1,505.84,24a4.59,4.59,0,0,1,.46,2.18v6.9h-3V26.7a2.17,2.17,0,0,0-.5-1.56,1.82,1.82,0,0,0-1.43-.56,2.21,2.21,0,0,0-1.08.26,1.81,1.81,0,0,0-.74.76A2.72,2.72,0,0,0,499.27,26.8Z"/><path class="b" d="M515.63,28.45V22.22h3V33.06h-2.89v-2h-.12a3.25,3.25,0,0,1-1.21,1.53,4,4,0,0,1-4,.08,3.43,3.43,0,0,1-1.29-1.4,4.9,4.9,0,0,1-.47-2.18V22.22h3v6.37a2.24,2.24,0,0,0,.52,1.52,1.75,1.75,0,0,0,1.36.55,2.14,2.14,0,0,0,1-.25,1.86,1.86,0,0,0,.76-.74A2.32,2.32,0,0,0,515.63,28.45Z"/><path class="b" d="M524,26.8v6.26h-3V22.22h2.86v1.91H524a3,3,0,0,1,1.21-1.5,3.65,3.65,0,0,1,2-.55,3.82,3.82,0,0,1,2,.49A3.37,3.37,0,0,1,530.57,24a4.77,4.77,0,0,1,.46,2.18v6.9h-3V26.7a2.22,2.22,0,0,0-.51-1.56,1.86,1.86,0,0,0-1.42-.56,2.17,2.17,0,0,0-1.07.26,1.77,1.77,0,0,0-.72.76A2.72,2.72,0,0,0,524,26.8Z"/><path class="b" d="M533.4,33.06V18.61h3V33.06Zm2.72-3.12v-3.6h.44L540,22.22h3.45l-4.66,5.45h-.72Zm4,3.12L537,28.34l2-2.12,4.71,6.84Z"/><path class="a" d="M476.51,114.46l10.56-10.57a1.48,1.48,0,0,0-1-2.53h-5.69a1.48,1.48,0,0,1-1.48-1.48V74a1.48,1.48,0,0,0-1.48-1.48h-3.84A1.48,1.48,0,0,0,472.06,74V99.88a1.48,1.48,0,0,1-1.48,1.48h-5.69a1.48,1.48,0,0,0-1.05,2.53l10.57,10.57A1.48,1.48,0,0,0,476.51,114.46Z"/><path class="c" d="M384.42,181.17v-18h11.9v3.14h-8.1v4.28h7.31v3.14h-7.31v7.42Z"/><path class="c" d="M398.88,181.17v-18h3.8V178h7.71v3.13Z"/><path class="c" d="M428.73,172.18a10.48,10.48,0,0,1-1.11,5,7.84,7.84,0,0,1-3,3.15,9,9,0,0,1-8.59,0,7.63,7.63,0,0,1-3-3.15,11.82,11.82,0,0,1,0-10,7.63,7.63,0,0,1,3-3.15,9.08,9.08,0,0,1,8.59,0,7.72,7.72,0,0,1,3,3.15A10.41,10.41,0,0,1,428.73,172.18Zm-3.85,0a8,8,0,0,0-.57-3.21,4.41,4.41,0,0,0-1.59-2,4.61,4.61,0,0,0-4.82,0,4.41,4.41,0,0,0-1.59,2,8,8,0,0,0-.56,3.21,8.11,8.11,0,0,0,.56,3.22,4.41,4.41,0,0,0,1.59,2,4.61,4.61,0,0,0,4.82,0,4.41,4.41,0,0,0,1.59-2A8.1,8.1,0,0,0,424.88,172.18Z"/><path class="c" d="M437.27,181.17v-18H441V170h.12a5,5,0,0,1,.71-1.11,4.12,4.12,0,0,1,1.23-1,4.27,4.27,0,0,1,1.89-.38,5.12,5.12,0,0,1,2.73.77,5.36,5.36,0,0,1,2,2.31,8.79,8.79,0,0,1,.75,3.86,9,9,0,0,1-.73,3.8,5.41,5.41,0,0,1-2,2.35,5.06,5.06,0,0,1-2.78.79,4.27,4.27,0,0,1-1.85-.36,3.67,3.67,0,0,1-1.24-.91,4.13,4.13,0,0,1-.74-1.11H441v2.16Zm3.67-6.74a6.09,6.09,0,0,0,.33,2.1,3,3,0,0,0,1,1.39,2.45,2.45,0,0,0,1.54.5,2.41,2.41,0,0,0,1.55-.51,3.08,3.08,0,0,0,1-1.4,6,6,0,0,0,.33-2.08,5.84,5.84,0,0,0-.33-2.05,3,3,0,0,0-.95-1.39,2.7,2.7,0,0,0-3.1,0,3,3,0,0,0-1,1.37A6,6,0,0,0,440.94,174.43Z"/><path class="c" d="M456.65,163.19v18h-3.74v-18Z"/><path class="c" d="M465.73,181.44a6.81,6.81,0,0,1-3.54-.88,5.87,5.87,0,0,1-2.29-2.44,8.61,8.61,0,0,1,0-7.29,5.87,5.87,0,0,1,2.29-2.44,7.54,7.54,0,0,1,7.07,0,5.89,5.89,0,0,1,2.3,2.44,8.61,8.61,0,0,1,0,7.29,5.89,5.89,0,0,1-2.3,2.44A6.78,6.78,0,0,1,465.73,181.44Zm0-2.9a2.33,2.33,0,0,0,1.55-.53,3.24,3.24,0,0,0,.94-1.45,6.26,6.26,0,0,0,.32-2.1,6.18,6.18,0,0,0-.32-2.1,3.22,3.22,0,0,0-.94-1.46,2.28,2.28,0,0,0-1.55-.53,2.34,2.34,0,0,0-1.58.53,3.33,3.33,0,0,0-1,1.46,6.44,6.44,0,0,0-.32,2.1,6.52,6.52,0,0,0,.32,2.1,3.36,3.36,0,0,0,1,1.45A2.39,2.39,0,0,0,465.75,178.54Z"/><path class="c" d="M480.9,181.44a6.93,6.93,0,0,1-3.56-.88,5.89,5.89,0,0,1-2.28-2.46,8.59,8.59,0,0,1,0-7.26,5.84,5.84,0,0,1,2.28-2.44,6.78,6.78,0,0,1,3.53-.89,7.1,7.1,0,0,1,3.09.64,5.14,5.14,0,0,1,2.1,1.8,5.25,5.25,0,0,1,.85,2.73h-3.53a2.76,2.76,0,0,0-.78-1.63,2.27,2.27,0,0,0-1.67-.62,2.47,2.47,0,0,0-1.51.47,3,3,0,0,0-1,1.36,5.83,5.83,0,0,0-.36,2.17,6,6,0,0,0,.36,2.2,3,3,0,0,0,1,1.37,2.47,2.47,0,0,0,1.51.48,2.57,2.57,0,0,0,1.16-.26,2.32,2.32,0,0,0,.85-.77,2.86,2.86,0,0,0,.44-1.22h3.53a5.36,5.36,0,0,1-.84,2.72,5.09,5.09,0,0,1-2.06,1.83A6.9,6.9,0,0,1,480.9,181.44Z"/><path class="c" d="M489.33,181.17v-18h3.74v18Zm3.39-3.88v-4.48h.54l4.32-5.12h4.29l-5.8,6.78h-.89Zm5,3.88-4-5.87,2.49-2.64,5.86,8.51Z"/><path class="c" d="M509.24,181.44a6.93,6.93,0,0,1-3.56-.88,5.89,5.89,0,0,1-2.28-2.46,8.68,8.68,0,0,1,0-7.26,5.86,5.86,0,0,1,2.29-2.44,6.75,6.75,0,0,1,3.53-.89,7.17,7.17,0,0,1,3.09.64,5.27,5.27,0,0,1,2.1,1.8,5.43,5.43,0,0,1,.85,2.73h-3.53a2.71,2.71,0,0,0-.79-1.63,2.25,2.25,0,0,0-1.66-.62,2.47,2.47,0,0,0-1.52.47,3,3,0,0,0-1,1.36,5.83,5.83,0,0,0-.36,2.17,6.23,6.23,0,0,0,.35,2.2,3,3,0,0,0,1,1.37,2.48,2.48,0,0,0,1.52.48,2.56,2.56,0,0,0,1.15-.26,2.32,2.32,0,0,0,.85-.77,2.87,2.87,0,0,0,.45-1.22h3.53a5.55,5.55,0,0,1-.84,2.72,5.12,5.12,0,0,1-2.07,1.83A6.9,6.9,0,0,1,509.24,181.44Z"/><path class="c" d="M521.41,173.38v7.79h-3.74v-18h3.64v6.88h.15a3.9,3.9,0,0,1,1.48-1.88,4.54,4.54,0,0,1,2.56-.68,4.87,4.87,0,0,1,2.45.61,4.18,4.18,0,0,1,1.63,1.75,5.87,5.87,0,0,1,.58,2.72v8.58h-3.74v-7.92a2.8,2.8,0,0,0-.63-1.94,2.3,2.3,0,0,0-1.78-.69,2.7,2.7,0,0,0-1.35.33,2.23,2.23,0,0,0-.91.94A3.24,3.24,0,0,0,521.41,173.38Z"/><path class="c" d="M537,181.43a5.62,5.62,0,0,1-2.3-.45,3.61,3.61,0,0,1-1.59-1.35,4,4,0,0,1-.59-2.22,3.88,3.88,0,0,1,.42-1.89,3.32,3.32,0,0,1,1.12-1.23,5.63,5.63,0,0,1,1.62-.7,12.67,12.67,0,0,1,1.91-.34c.79-.08,1.42-.15,1.9-.23a2.48,2.48,0,0,0,1-.33.72.72,0,0,0,.33-.65v0a1.61,1.61,0,0,0-.53-1.29,2.18,2.18,0,0,0-1.48-.46,2.6,2.6,0,0,0-1.6.45,2,2,0,0,0-.79,1.11l-3.46-.28a4.63,4.63,0,0,1,1-2.13,5,5,0,0,1,2-1.39,7.58,7.58,0,0,1,2.84-.49,8.52,8.52,0,0,1,2.16.27,5.43,5.43,0,0,1,1.83.81,3.94,3.94,0,0,1,1.27,1.42,4.33,4.33,0,0,1,.47,2.07v9.09H541V179.3h-.11a3.61,3.61,0,0,1-.86,1.12,4.18,4.18,0,0,1-1.31.74A5.31,5.31,0,0,1,537,181.43Zm1.07-2.58a3.11,3.11,0,0,0,1.46-.33,2.59,2.59,0,0,0,1-.89,2.33,2.33,0,0,0,.36-1.28v-1.43a1.56,1.56,0,0,1-.48.21,6.73,6.73,0,0,1-.68.17l-.75.13-.69.1a4.59,4.59,0,0,0-1.15.31,1.94,1.94,0,0,0-.76.56,1.42,1.42,0,0,0-.27.88,1.34,1.34,0,0,0,.56,1.17A2.4,2.4,0,0,0,538,178.85Z"/><path class="c" d="M549.34,166a2,2,0,0,1-1.43-.55,1.8,1.8,0,0,1,0-2.68,2,2,0,0,1,1.42-.55,2,2,0,0,1,1.44.55,1.77,1.77,0,0,1,.59,1.33,1.79,1.79,0,0,1-.59,1.34A2,2,0,0,1,549.34,166Zm-1.89,15.22V167.69h3.74v13.48Z"/><path class="c" d="M557.92,173.38v7.79h-3.74V167.69h3.56v2.38h.16a3.79,3.79,0,0,1,1.5-1.87,4.6,4.6,0,0,1,2.56-.69,4.77,4.77,0,0,1,2.45.62,4.16,4.16,0,0,1,1.62,1.75,5.86,5.86,0,0,1,.58,2.71v8.58h-3.74v-7.92a2.68,2.68,0,0,0-.63-1.93,2.28,2.28,0,0,0-1.77-.7,2.65,2.65,0,0,0-1.33.33,2.19,2.19,0,0,0-.89.94A3.25,3.25,0,0,0,557.92,173.38Z"/><path class="d" d="M454.13,239.93V251.1a2.17,2.17,0,0,1-2.17,2.16H412.83a2.16,2.16,0,0,1-2.16-2.16V212a2.16,2.16,0,0,1,2.16-2.16h15"/><path class="d" d="M438.19,209.81H452a2.17,2.17,0,0,1,2.17,2.16v11.17"/><line class="d" x1="427.87" y1="209.81" x2="438.19" y2="209.81"/><circle class="d" cx="432.4" cy="231.53" r="9.16"/><line class="d" x1="441.56" y1="231.53" x2="496.79" y2="231.53"/><path class="d" d="M510.12,253.66H499a2.16,2.16,0,0,1-2.16-2.16V212.37A2.17,2.17,0,0,1,499,210.2h39.13a2.17,2.17,0,0,1,2.17,2.17v15"/><path class="d" d="M540.25,237.73V251.5a2.17,2.17,0,0,1-2.17,2.16H526.91"/><line class="d" x1="540.25" y1="227.4" x2="540.25" y2="237.73"/><circle class="d" cx="518.52" cy="231.93" r="9.16"/><line class="d" x1="518.52" y1="241.09" x2="518.52" y2="296.32"/><path class="d" d="M496.79,310.05V298.89a2.17,2.17,0,0,1,2.16-2.17h39.13a2.17,2.17,0,0,1,2.17,2.17V338a2.17,2.17,0,0,1-2.17,2.17h-15"/><path class="d" d="M512.72,340.18H499a2.17,2.17,0,0,1-2.16-2.17V326.85"/><line class="d" x1="523.05" y1="340.18" x2="512.72" y2="340.18"/><circle class="d" cx="518.52" cy="318.45" r="9.16"/><line class="d" x1="509.36" y1="318.45" x2="454.13" y2="318.45"/><path class="d" d="M440.79,296.32H452a2.17,2.17,0,0,1,2.17,2.17v39.13a2.17,2.17,0,0,1-2.17,2.16H412.83a2.16,2.16,0,0,1-2.16-2.16v-15"/><path class="d" d="M410.67,312.25V298.49a2.17,2.17,0,0,1,2.16-2.17H424"/><line class="d" x1="410.67" y1="322.58" x2="410.67" y2="312.25"/><circle class="d" cx="432.4" cy="318.05" r="9.16"/><line class="d" x1="432.4" y1="308.89" x2="432.4" y2="253.66"/><rect class="e" x="380.97" y="443.59" width="188.98" height="52.07" rx="6" transform="translate(950.92 939.24) rotate(180)"/><path class="a" d="M405.87,463.09v-2.52h11.87v2.52h-4.43V475h-3V463.09Z"/><path class="a" d="M418.52,475V464.18h2.91v1.9h.12a2.76,2.76,0,0,1,1-1.53,2.61,2.61,0,0,1,1.61-.52l.49,0a4.52,4.52,0,0,1,.46.07v2.67a3.94,3.94,0,0,0-.59-.11,5.89,5.89,0,0,0-.68-.05,2.44,2.44,0,0,0-1.19.29,2.12,2.12,0,0,0-.81.79,2.17,2.17,0,0,0-.3,1.17V475Z"/><path class="a" d="M429.43,475.23a4.52,4.52,0,0,1-1.85-.36,2.93,2.93,0,0,1-1.28-1.08,3.24,3.24,0,0,1-.47-1.79,3.19,3.19,0,0,1,.33-1.52,2.8,2.8,0,0,1,.91-1,4.13,4.13,0,0,1,1.3-.56,9.33,9.33,0,0,1,1.54-.27c.63-.07,1.13-.13,1.52-.19a2.07,2.07,0,0,0,.84-.26.58.58,0,0,0,.26-.52v-.05a1.33,1.33,0,0,0-.42-1,1.76,1.76,0,0,0-1.19-.36,2.17,2.17,0,0,0-1.29.35,1.66,1.66,0,0,0-.63.9l-2.79-.23a3.72,3.72,0,0,1,.84-1.71,4.16,4.16,0,0,1,1.6-1.12,6.21,6.21,0,0,1,2.29-.39,7,7,0,0,1,1.73.21,4.85,4.85,0,0,1,1.48.66,3.28,3.28,0,0,1,1,1.14,3.45,3.45,0,0,1,.37,1.66V475h-2.85v-1.51h-.09a2.88,2.88,0,0,1-.7.9,3.35,3.35,0,0,1-1,.6A4.38,4.38,0,0,1,429.43,475.23Zm.86-2.07a2.48,2.48,0,0,0,1.18-.27,2,2,0,0,0,.79-.71,1.84,1.84,0,0,0,.29-1V470a1.52,1.52,0,0,1-.38.17,5.61,5.61,0,0,1-.55.13l-.61.11-.55.08a3.33,3.33,0,0,0-.92.25,1.53,1.53,0,0,0-.62.45,1.17,1.17,0,0,0-.21.71,1.08,1.08,0,0,0,.44.93A1.88,1.88,0,0,0,430.29,473.16Z"/><path class="a" d="M440.88,468.76V475h-3V464.18h2.86v1.92h.13a3,3,0,0,1,1.21-1.5,3.65,3.65,0,0,1,2.05-.56,3.82,3.82,0,0,1,2,.5,3.35,3.35,0,0,1,1.31,1.4,4.77,4.77,0,0,1,.46,2.18V475h-3v-6.37a2.26,2.26,0,0,0-.51-1.56,1.86,1.86,0,0,0-1.42-.56,2.17,2.17,0,0,0-1.07.26,1.82,1.82,0,0,0-.72.76A2.72,2.72,0,0,0,440.88,468.76Z"/><path class="a" d="M459.26,467.28l-2.75.17a1.42,1.42,0,0,0-.31-.64,1.59,1.59,0,0,0-.61-.46,2.06,2.06,0,0,0-.9-.18,2.2,2.2,0,0,0-1.18.3.87.87,0,0,0-.48.78.83.83,0,0,0,.31.65,2.41,2.41,0,0,0,1.07.43l2,.4a4.8,4.8,0,0,1,2.36,1,2.44,2.44,0,0,1,.78,1.89,3,3,0,0,1-.63,1.87,4.06,4.06,0,0,1-1.71,1.25,6.43,6.43,0,0,1-2.49.45,5.84,5.84,0,0,1-3.43-.9,3.46,3.46,0,0,1-1.49-2.45l3-.16a1.49,1.49,0,0,0,.65,1,2.74,2.74,0,0,0,2.59,0,.92.92,0,0,0,.49-.79.82.82,0,0,0-.34-.67,2.47,2.47,0,0,0-1.05-.41l-1.88-.37a4.57,4.57,0,0,1-2.36-1.1,2.76,2.76,0,0,1-.77-2,2.89,2.89,0,0,1,.57-1.8,3.54,3.54,0,0,1,1.6-1.17,6.63,6.63,0,0,1,2.42-.41,5.37,5.37,0,0,1,3.24.87A3.35,3.35,0,0,1,459.26,467.28Z"/><path class="a" d="M464.5,475.23a4.52,4.52,0,0,1-1.85-.36,2.88,2.88,0,0,1-1.28-1.08,3.24,3.24,0,0,1-.47-1.79,3.19,3.19,0,0,1,.33-1.52,2.68,2.68,0,0,1,.9-1,4.29,4.29,0,0,1,1.31-.56,9.21,9.21,0,0,1,1.53-.27c.63-.07,1.14-.13,1.53-.19a2.19,2.19,0,0,0,.84-.26.6.6,0,0,0,.26-.52v-.05a1.33,1.33,0,0,0-.42-1,1.78,1.78,0,0,0-1.19-.36,2.17,2.17,0,0,0-1.29.35,1.73,1.73,0,0,0-.64.9l-2.78-.23a3.81,3.81,0,0,1,.83-1.71,4.2,4.2,0,0,1,1.61-1.12A6.19,6.19,0,0,1,466,464a7.09,7.09,0,0,1,1.74.21,4.69,4.69,0,0,1,1.47.66,3.28,3.28,0,0,1,1,1.14,3.45,3.45,0,0,1,.38,1.66V475h-2.86v-1.51h-.08a3,3,0,0,1-.7.9,3.35,3.35,0,0,1-1.05.6A4.38,4.38,0,0,1,464.5,475.23Zm.86-2.07a2.46,2.46,0,0,0,1.17-.27,2,2,0,0,0,.8-.71,1.93,1.93,0,0,0,.29-1V470a1.52,1.52,0,0,1-.38.17l-.55.13-.61.11-.55.08a3.33,3.33,0,0,0-.92.25,1.47,1.47,0,0,0-.62.45,1.18,1.18,0,0,0-.22.71,1.06,1.06,0,0,0,.45.93A1.88,1.88,0,0,0,465.36,473.16Z"/><path class="a" d="M477.84,475.24a5.54,5.54,0,0,1-2.86-.71,4.73,4.73,0,0,1-1.84-2,6.48,6.48,0,0,1-.63-2.91,6.35,6.35,0,0,1,.64-2.93,4.79,4.79,0,0,1,1.84-2,6.1,6.1,0,0,1,5.32-.19A4.11,4.11,0,0,1,482,466a4.33,4.33,0,0,1,.69,2.19h-2.84a2.25,2.25,0,0,0-.63-1.31,1.84,1.84,0,0,0-1.34-.49,2,2,0,0,0-1.22.37,2.44,2.44,0,0,0-.81,1.1,4.75,4.75,0,0,0-.29,1.75,4.8,4.8,0,0,0,.29,1.76,2.42,2.42,0,0,0,.81,1.11,2,2,0,0,0,1.22.38,2.05,2.05,0,0,0,.93-.21,1.83,1.83,0,0,0,.68-.62,2.44,2.44,0,0,0,.36-1h2.84a4.52,4.52,0,0,1-.68,2.19,4,4,0,0,1-1.66,1.47A5.6,5.6,0,0,1,477.84,475.24Z"/><path class="a" d="M490.39,464.18v2.26h-6.53v-2.26Zm-5.05-2.6h3V471.7a1.4,1.4,0,0,0,.12.64.74.74,0,0,0,.36.32,1.44,1.44,0,0,0,.53.09,3,3,0,0,0,.43,0l.32-.06.48,2.23c-.15.05-.37.11-.64.17a6.09,6.09,0,0,1-1,.12,4.74,4.74,0,0,1-1.91-.29,2.68,2.68,0,0,1-1.26-1,3.15,3.15,0,0,1-.45-1.77Z"/><path class="a" d="M493.86,462.79a1.62,1.62,0,0,1-1.15-.45,1.41,1.41,0,0,1-.48-1.07,1.43,1.43,0,0,1,.48-1.08,1.69,1.69,0,0,1,2.3,0,1.39,1.39,0,0,1,.48,1.07,1.43,1.43,0,0,1-.48,1.08A1.62,1.62,0,0,1,493.86,462.79ZM492.34,475V464.18h3V475Z"/><path class="a" d="M502.65,475.24a5.59,5.59,0,0,1-2.84-.7,4.82,4.82,0,0,1-1.85-2,6.93,6.93,0,0,1,0-5.86,4.82,4.82,0,0,1,1.85-2,6.11,6.11,0,0,1,5.68,0,4.75,4.75,0,0,1,1.85,2,6.93,6.93,0,0,1,0,5.86,4.75,4.75,0,0,1-1.85,2A5.56,5.56,0,0,1,502.65,475.24Zm0-2.33a1.84,1.84,0,0,0,1.25-.43,2.58,2.58,0,0,0,.75-1.17,4.86,4.86,0,0,0,.26-1.68,4.92,4.92,0,0,0-.26-1.69,2.64,2.64,0,0,0-.75-1.17,1.84,1.84,0,0,0-1.25-.43,1.88,1.88,0,0,0-1.27.43,2.58,2.58,0,0,0-.77,1.17,5.17,5.17,0,0,0-.26,1.69,5.11,5.11,0,0,0,.26,1.68,2.53,2.53,0,0,0,.77,1.17A1.88,1.88,0,0,0,502.67,472.91Z"/><path class="a" d="M513,468.76V475h-3V464.18h2.87v1.92h.12a3.08,3.08,0,0,1,1.21-1.5,3.69,3.69,0,0,1,2.06-.56,3.82,3.82,0,0,1,2,.5,3.32,3.32,0,0,1,1.3,1.4,4.77,4.77,0,0,1,.47,2.18V475h-3v-6.37a2.16,2.16,0,0,0-.51-1.56,1.83,1.83,0,0,0-1.42-.56,2.2,2.2,0,0,0-1.07.26,2,2,0,0,0-.72.76A2.59,2.59,0,0,0,513,468.76Z"/><path class="a" d="M530,460.57V475H527V460.57Z"/><path class="a" d="M537.68,475h-5.12V460.57h5.17a7.75,7.75,0,0,1,3.75.86,6,6,0,0,1,2.43,2.49,8.24,8.24,0,0,1,.85,3.86,8.39,8.39,0,0,1-.85,3.89,5.92,5.92,0,0,1-2.44,2.49A7.77,7.77,0,0,1,537.68,475Zm-2.07-2.62h1.95a4.8,4.8,0,0,0,2.28-.49,3.1,3.1,0,0,0,1.4-1.5,6.4,6.4,0,0,0,.47-2.64,6.28,6.28,0,0,0-.47-2.61,3.1,3.1,0,0,0-1.4-1.5,4.87,4.87,0,0,0-2.28-.48h-1.95Z"/><path class="a" d="M473.42,420.41,484,409.85a1.48,1.48,0,0,0-1-2.53h-5.69a1.48,1.48,0,0,1-1.48-1.48V380a1.48,1.48,0,0,0-1.48-1.48h-3.84A1.48,1.48,0,0,0,469,380v25.85a1.49,1.49,0,0,1-1.48,1.48H461.8a1.48,1.48,0,0,0-1.05,2.53l10.57,10.56A1.48,1.48,0,0,0,473.42,420.41Z"/><path class="a" d="M349.44,26.71,338.87,16.14a1.48,1.48,0,0,0-2.53,1.05v5.68a1.48,1.48,0,0,1-1.48,1.48H295.17v6.8h39.69a1.49,1.49,0,0,1,1.48,1.49v5.68a1.48,1.48,0,0,0,2.53,1L349.44,28.8A1.47,1.47,0,0,0,349.44,26.71Z"/><path class="a" d="M295.17,463h55.14a1,1,0,0,1,1,1v4.8a1,1,0,0,1-1,1H295.17a0,0,0,0,1,0,0V463A0,0,0,0,1,295.17,463Z"/><path class="a" d="M78.76,246.12H517.38a1,1,0,0,1,1,1v5.8a0,0,0,0,1,0,0H78.76a0,0,0,0,1,0,0v-6.8A0,0,0,0,1,78.76,246.12Z" transform="translate(548.09 -49.04) rotate(90)"/><path class="f" d="M248.24,392.67H232.92V387.5a6.36,6.36,0,0,1,.61-2.95,4,4,0,0,1,1.67-1.7,5.17,5.17,0,0,1,2.42-.56,5.06,5.06,0,0,1,2.4.56,3.89,3.89,0,0,1,1.64,1.69,6.31,6.31,0,0,1,.59,2.93v4.19h-1.67v-4.13a4.61,4.61,0,0,0-.36-2,2.31,2.31,0,0,0-1-1.09,3.38,3.38,0,0,0-1.58-.34,3.57,3.57,0,0,0-1.61.34,2.36,2.36,0,0,0-1.06,1.1,4.4,4.4,0,0,0-.38,2v3.26h13.67Zm-6.88-7.21,6.88-3.76v2.15l-6.88,3.71Z"/><path class="f" d="M248.48,374.76a5.39,5.39,0,0,1-.74,2.86,4.85,4.85,0,0,1-2.06,1.84,6.9,6.9,0,0,1-3.1.65,7,7,0,0,1-3.11-.65,5.05,5.05,0,0,1-2.11-1.81,4.89,4.89,0,0,1-.76-2.71,5.5,5.5,0,0,1,.3-1.78,4.4,4.4,0,0,1,1-1.59,4.67,4.67,0,0,1,1.77-1.14,7.35,7.35,0,0,1,2.7-.43h.75v8.85h-1.52V371.8a3.77,3.77,0,0,0-1.74.38,2.94,2.94,0,0,0-1.2,1.09,3,3,0,0,0-.44,1.67,3.14,3.14,0,0,0,.52,1.82,3.33,3.33,0,0,0,1.35,1.17,3.86,3.86,0,0,0,1.78.42h1a4.78,4.78,0,0,0,2.21-.46,3.14,3.14,0,0,0,1.36-1.26,3.58,3.58,0,0,0,.47-1.87,3.55,3.55,0,0,0-.2-1.26,2.52,2.52,0,0,0-.6-1,2.78,2.78,0,0,0-1-.64l.48-1.7a3.86,3.86,0,0,1,1.52.9,4.42,4.42,0,0,1,1,1.58A5.57,5.57,0,0,1,248.48,374.76Z"/><path class="f" d="M252.54,367.31H236.75V365.6h1.83v-.21c-.2-.13-.46-.31-.77-.54a3.16,3.16,0,0,1-.84-1,3.71,3.71,0,0,1-.37-1.78,4.49,4.49,0,0,1,.73-2.55,4.79,4.79,0,0,1,2-1.73,8.31,8.31,0,0,1,6.3,0,4.9,4.9,0,0,1,2.07,1.72,4.52,4.52,0,0,1,.73,2.53,3.77,3.77,0,0,1-.37,1.78,3.25,3.25,0,0,1-.85,1,9.21,9.21,0,0,1-.79.55v.15h6.07Zm-10-1.74a6.27,6.27,0,0,0,2.3-.38,3.36,3.36,0,0,0,1.54-1.11,3.18,3.18,0,0,0,0-3.65,3.62,3.62,0,0,0-1.58-1.12,6.67,6.67,0,0,0-4.41,0,3.44,3.44,0,0,0-1.55,1.12,3.31,3.31,0,0,0,0,3.67,3.27,3.27,0,0,0,1.51,1.11A6.24,6.24,0,0,0,242.49,365.57Z"/><path class="f" d="M248.48,349.66a5.36,5.36,0,0,1-.74,2.86,4.87,4.87,0,0,1-2.06,1.85,7,7,0,0,1-3.1.64,7.14,7.14,0,0,1-3.11-.64,5.13,5.13,0,0,1-2.11-1.81,4.92,4.92,0,0,1-.76-2.72,5.39,5.39,0,0,1,.3-1.77,4.32,4.32,0,0,1,1-1.59,4.81,4.81,0,0,1,1.77-1.15,7.58,7.58,0,0,1,2.7-.42h.75v8.85h-1.52V346.7a3.9,3.9,0,0,0-1.74.38,3,3,0,0,0-1.2,1.1,3,3,0,0,0-.44,1.66,3.14,3.14,0,0,0,.52,1.82,3.43,3.43,0,0,0,1.35,1.18,4,4,0,0,0,1.78.41h1a4.92,4.92,0,0,0,2.21-.45,3.14,3.14,0,0,0,1.36-1.26,4,4,0,0,0,.27-3.14,2.6,2.6,0,0,0-.6-1,2.63,2.63,0,0,0-1-.63l.48-1.71a3.89,3.89,0,0,1,1.52.91,4.38,4.38,0,0,1,1,1.57A5.57,5.57,0,0,1,248.48,349.66Z"/><path class="f" d="M248.51,338.83a4.64,4.64,0,0,1-.42,2,3.44,3.44,0,0,1-1.2,1.41,3.39,3.39,0,0,1-1.91.52,3,3,0,0,1-1.61-.39,2.77,2.77,0,0,1-1-1,5.71,5.71,0,0,1-.52-1.44c-.12-.52-.21-1.05-.28-1.58q-.14-1.05-.21-1.71a2.75,2.75,0,0,0-.24-.95.65.65,0,0,0-.6-.31h-.06a2.36,2.36,0,0,0-1.72.61,2.43,2.43,0,0,0-.61,1.82,3.17,3.17,0,0,0,.55,2,3.31,3.31,0,0,0,1.18,1l-.6,1.67a4.08,4.08,0,0,1-1.63-1.2,4.44,4.44,0,0,1-.82-1.64,6.78,6.78,0,0,1-.24-1.76,8,8,0,0,1,.13-1.28,4.23,4.23,0,0,1,.54-1.4,3.1,3.1,0,0,1,1.22-1.12,4.5,4.5,0,0,1,2.18-.45h7.57v1.76h-1.56v.09a3,3,0,0,1,.8.6,3.35,3.35,0,0,1,.73,1.12A4.26,4.26,0,0,1,248.51,338.83Zm-1.59-.27a3.55,3.55,0,0,0-.41-1.76,2.88,2.88,0,0,0-1.06-1.1,2.82,2.82,0,0,0-1.37-.37h-1.62a1,1,0,0,1,.25.49,8.28,8.28,0,0,1,.18.87c.06.33.1.64.14.95s.07.56.09.75a7.25,7.25,0,0,0,.29,1.28,2.23,2.23,0,0,0,.59.95,1.48,1.48,0,0,0,1.07.37,1.56,1.56,0,0,0,1.38-.69A2.93,2.93,0,0,0,246.92,338.56Z"/><path class="f" d="M234,329.56V327.8H245a2.33,2.33,0,0,0,1.12-.22,1.12,1.12,0,0,0,.49-.57,2.25,2.25,0,0,0,.12-.74,3.23,3.23,0,0,0,0-.48q0-.18-.06-.3l1.59-.36c0,.12.09.29.14.51a4.35,4.35,0,0,1,.07.81,3.56,3.56,0,0,1-.32,1.46,3,3,0,0,1-1,1.18,2.76,2.76,0,0,1-1.66.47Zm2.75-4.22h1.5v6h-1.5Z"/><path class="f" d="M243.54,309.52h-6.79v-1.76h11.49v1.76h-2v.12a3.74,3.74,0,0,1,1.49,1.26,3.64,3.64,0,0,1,.61,2.15,3.74,3.74,0,0,1-.48,1.91,3.23,3.23,0,0,1-1.43,1.32,5.42,5.42,0,0,1-2.43.48h-7.3V315h7.18a2.78,2.78,0,0,0,2-.71,2.37,2.37,0,0,0,.75-1.81,3.07,3.07,0,0,0-.33-1.34,2.93,2.93,0,0,0-1-1.15A3.11,3.11,0,0,0,243.54,309.52Z"/><path class="f" d="M241.33,302.76h6.91v1.77H236.75v-1.71h1.8v-.15a3.28,3.28,0,0,1-1.41-1.22,3.82,3.82,0,0,1-.54-2.13,4.16,4.16,0,0,1,.48-2,3.2,3.2,0,0,1,1.43-1.36,5.41,5.41,0,0,1,2.43-.49h7.3v1.77h-7.18a3,3,0,0,0-2.11.7,2.49,2.49,0,0,0-.76,1.93,3.12,3.12,0,0,0,.36,1.51,2.62,2.62,0,0,0,1.07,1A3.6,3.6,0,0,0,241.33,302.76Z"/><path class="f" d="M234,291.43v-1.77H245a2.22,2.22,0,0,0,1.12-.22,1.12,1.12,0,0,0,.49-.57,2.24,2.24,0,0,0,.12-.73,3,3,0,0,0,0-.48,2.6,2.6,0,0,0-.06-.3l1.59-.36c0,.12.09.29.14.5a4.43,4.43,0,0,1,.07.81,3.64,3.64,0,0,1-.32,1.47,3,3,0,0,1-1,1.18,2.83,2.83,0,0,1-1.66.47Zm2.75-4.22h1.5v6h-1.5Z"/><path class="f" d="M234.84,283.65a1.28,1.28,0,0,1-.35.89,1.17,1.17,0,0,1-.85.37,1.13,1.13,0,0,1-.84-.37,1.25,1.25,0,0,1-.36-.89,1.23,1.23,0,0,1,.36-.89,1.13,1.13,0,0,1,.84-.37,1.17,1.17,0,0,1,.85.37A1.26,1.26,0,0,1,234.84,283.65Zm13.4.9H236.75v-1.77h11.49Z"/><path class="f" d="M232.92,277.79h15.32v1.76H232.92Z"/><path class="f" d="M232.92,272.79h15.32v1.77H232.92Z"/><path class="f" d="M248.51,260.26a4.56,4.56,0,0,1-.42,2,3.44,3.44,0,0,1-1.2,1.41,3.4,3.4,0,0,1-1.91.53,3,3,0,0,1-1.61-.39,2.85,2.85,0,0,1-1-1,5.85,5.85,0,0,1-.52-1.44c-.12-.53-.21-1.06-.28-1.59-.09-.7-.16-1.26-.21-1.7a2.75,2.75,0,0,0-.24-1,.64.64,0,0,0-.6-.3h-.06a2.35,2.35,0,0,0-1.72.6,2.44,2.44,0,0,0-.61,1.82,3.17,3.17,0,0,0,.55,2,3.21,3.21,0,0,0,1.18,1l-.6,1.68a4.08,4.08,0,0,1-1.63-1.2,4.41,4.41,0,0,1-.82-1.65,6.72,6.72,0,0,1-.24-1.76,7.92,7.92,0,0,1,.13-1.27,4.23,4.23,0,0,1,.54-1.4,3.12,3.12,0,0,1,1.22-1.13,4.5,4.5,0,0,1,2.18-.45h7.57v1.77h-1.56v.09a3,3,0,0,1,.8.6,3.4,3.4,0,0,1,.73,1.11A4.31,4.31,0,0,1,248.51,260.26Zm-1.59-.27a3.56,3.56,0,0,0-.41-1.77,2.85,2.85,0,0,0-1.06-1.09,2.71,2.71,0,0,0-1.37-.37h-1.62a1,1,0,0,1,.25.49,7.33,7.33,0,0,1,.18.87c.06.32.1.64.14.95s.07.55.09.74a6.87,6.87,0,0,0,.29,1.28,2.21,2.21,0,0,0,.59,1,1.52,1.52,0,0,0,1.07.36,1.57,1.57,0,0,0,1.38-.68A3,3,0,0,0,246.92,260Z"/><path class="f" d="M232.92,250h15.32v1.76H232.92Z"/><path class="f" d="M232.92,245h15.32v1.77H232.92Z"/><path class="f" d="M248.48,231.19a5,5,0,0,1-.77,2.78,4.91,4.91,0,0,1-2.1,1.79,7.71,7.71,0,0,1-6.15,0,5.09,5.09,0,0,1-2.1-1.81,4.89,4.89,0,0,1-.76-2.71,5.17,5.17,0,0,1,.45-2.19,4.13,4.13,0,0,1,1.26-1.59,3.94,3.94,0,0,1,1.88-.77v1.76a2.8,2.8,0,0,0-1.39.9,2.69,2.69,0,0,0-.61,1.86,3.13,3.13,0,0,0,.53,1.8,3.55,3.55,0,0,0,1.5,1.21,5.71,5.71,0,0,0,2.27.42,5.9,5.9,0,0,0,2.32-.42,3.58,3.58,0,0,0,1.54-1.19,3.35,3.35,0,0,0,.3-3.07,2.61,2.61,0,0,0-1.76-1.51v-1.76A4.07,4.07,0,0,1,248,229,5,5,0,0,1,248.48,231.19Z"/><path class="f" d="M241.33,222.33h6.91v1.77H232.92v-1.77h5.63v-.15a3.22,3.22,0,0,1-1.42-1.21,3.94,3.94,0,0,1-.53-2.17,4.31,4.31,0,0,1,.47-2.05,3.24,3.24,0,0,1,1.43-1.38,5.43,5.43,0,0,1,2.44-.49h7.3v1.77h-7.18a2.94,2.94,0,0,0-2.12.71,2.55,2.55,0,0,0-.75,1.95,3.25,3.25,0,0,0,.36,1.55,2.65,2.65,0,0,0,1.07,1.08A3.49,3.49,0,0,0,241.33,222.33Z"/><path class="f" d="M243.54,204.42h-6.79v-1.77h11.49v1.77h-2v.11a3.74,3.74,0,0,1,1.49,1.26,3.66,3.66,0,0,1,.61,2.15,3.8,3.8,0,0,1-.48,1.92,3.15,3.15,0,0,1-1.43,1.31,5.42,5.42,0,0,1-2.43.48h-7.3v-1.76h7.18a2.78,2.78,0,0,0,2-.71,2.36,2.36,0,0,0,.75-1.8,3.12,3.12,0,0,0-.33-1.35,3,3,0,0,0-1-1.15A3.1,3.1,0,0,0,243.54,204.42Z"/><path class="f" d="M241.33,197.66h6.91v1.76H236.75v-1.71h1.8v-.14a3.23,3.23,0,0,1-1.41-1.23,3.81,3.81,0,0,1-.54-2.12,4.22,4.22,0,0,1,.48-2.05,3.25,3.25,0,0,1,1.43-1.36,5.42,5.42,0,0,1,2.43-.48h7.3v1.76h-7.18a3,3,0,0,0-2.11.7,2.5,2.5,0,0,0-.76,1.93,3.09,3.09,0,0,0,.36,1.51,2.62,2.62,0,0,0,1.07,1A3.49,3.49,0,0,0,241.33,197.66Z"/><path class="f" d="M248.24,187.1H232.92v-1.77h15.32Zm-4.19-1.65-2.18,0v-.36l-5.12-5v-2.19l5.42,5.36v.15Zm4.19-5.65-5.69,4.49L241.33,183l6.91-5.48Z"/><path class="f" d="M239.32,167.51l.45,1.58a3.17,3.17,0,0,0-.77.44,2.25,2.25,0,0,0-.63.78,2.89,2.89,0,0,0-.24,1.26,3,3,0,0,0,.48,1.76,1.45,1.45,0,0,0,1.22.7,1.25,1.25,0,0,0,1-.48,3.93,3.93,0,0,0,.64-1.5l.42-1.7a4.77,4.77,0,0,1,1.14-2.3,2.68,2.68,0,0,1,2-.75,2.89,2.89,0,0,1,1.76.56,3.8,3.8,0,0,1,1.23,1.58,5.68,5.68,0,0,1,.45,2.34,5.14,5.14,0,0,1-.77,2.91,3.34,3.34,0,0,1-2.22,1.46l-.42-1.67a2.38,2.38,0,0,0,1.39-.91,3,3,0,0,0,.46-1.76,3.23,3.23,0,0,0-.53-2,1.52,1.52,0,0,0-1.26-.73,1.35,1.35,0,0,0-1,.42,2.77,2.77,0,0,0-.61,1.29l-.45,1.91a4.48,4.48,0,0,1-1.16,2.31,2.77,2.77,0,0,1-2,.74,2.8,2.8,0,0,1-1.72-.55,3.61,3.61,0,0,1-1.17-1.5,5.19,5.19,0,0,1-.43-2.17,4.31,4.31,0,0,1,.75-2.68A4,4,0,0,1,239.32,167.51Z"/><path class="f" d="M248.51,155.33a4.56,4.56,0,0,1-.42,2,3.23,3.23,0,0,1-3.11,1.94,3,3,0,0,1-1.61-.39,2.77,2.77,0,0,1-1-1,5.71,5.71,0,0,1-.52-1.44c-.12-.52-.21-1-.28-1.59s-.16-1.26-.21-1.7a2.75,2.75,0,0,0-.24-1,.63.63,0,0,0-.6-.31h-.06a2.35,2.35,0,0,0-1.72.6,2.46,2.46,0,0,0-.61,1.82,3.18,3.18,0,0,0,.55,2,3.31,3.31,0,0,0,1.18,1l-.6,1.67a4.08,4.08,0,0,1-1.63-1.2,4.44,4.44,0,0,1-.82-1.64,6.83,6.83,0,0,1-.24-1.76,8,8,0,0,1,.13-1.28,4.23,4.23,0,0,1,.54-1.4,3.1,3.1,0,0,1,1.22-1.12,4.5,4.5,0,0,1,2.18-.45h7.57v1.76h-1.56v.09a3,3,0,0,1,.8.6,3.4,3.4,0,0,1,.73,1.11A4.31,4.31,0,0,1,248.51,155.33Zm-1.59-.27a3.62,3.62,0,0,0-.41-1.77,2.85,2.85,0,0,0-1.06-1.09,2.82,2.82,0,0,0-1.37-.37h-1.62a1,1,0,0,1,.25.49,7.33,7.33,0,0,1,.18.87c.06.33.1.64.14.95s.07.55.09.74a7.17,7.17,0,0,0,.29,1.29,2.23,2.23,0,0,0,.59,1,1.48,1.48,0,0,0,1.07.37,1.56,1.56,0,0,0,1.38-.69A2.93,2.93,0,0,0,246.92,155.06Z"/><path class="f" d="M248.24,146.84H236.75v-1.71h1.74V145a2.83,2.83,0,0,1-1.39-1.13,3.39,3.39,0,0,1-.53-1.86c0-.13,0-.29,0-.48s0-.35,0-.45h1.8a3.94,3.94,0,0,0-.07.41,3.64,3.64,0,0,0-.05.67,3.12,3.12,0,0,0,.34,1.49,2.83,2.83,0,0,0,1,1,2.6,2.6,0,0,0,1.39.37h7.27Z"/><path class="f" d="M248.48,134.54a5.42,5.42,0,0,1-.74,2.87,4.85,4.85,0,0,1-2.06,1.84,7,7,0,0,1-3.1.65,7.14,7.14,0,0,1-3.11-.65,5.05,5.05,0,0,1-2.11-1.81,4.9,4.9,0,0,1-.76-2.72,5.48,5.48,0,0,1,.3-1.77,4.4,4.4,0,0,1,1-1.59,4.81,4.81,0,0,1,1.77-1.15,7.58,7.58,0,0,1,2.7-.42h.75v8.85h-1.52v-7.06a3.78,3.78,0,0,0-1.74.39,2.94,2.94,0,0,0-1.2,1.09,3,3,0,0,0-.44,1.66,3.12,3.12,0,0,0,.52,1.82,3.28,3.28,0,0,0,1.35,1.18,3.85,3.85,0,0,0,1.78.41h1a4.92,4.92,0,0,0,2.21-.45,3.14,3.14,0,0,0,1.36-1.26,3.6,3.6,0,0,0,.47-1.88,3.53,3.53,0,0,0-.2-1.25,2.52,2.52,0,0,0-.6-1,2.65,2.65,0,0,0-1-.64l.48-1.7a3.86,3.86,0,0,1,1.52.9,4.47,4.47,0,0,1,1,1.57A5.65,5.65,0,0,1,248.48,134.54Z"/><path class="f" d="M234.84,120.28a1.24,1.24,0,0,1-.35.88,1.13,1.13,0,0,1-.85.37,1.09,1.09,0,0,1-.84-.37,1.21,1.21,0,0,1-.36-.88,1.23,1.23,0,0,1,.36-.89,1.09,1.09,0,0,1,.84-.37,1.13,1.13,0,0,1,.85.37A1.26,1.26,0,0,1,234.84,120.28Zm13.4.89H236.75v-1.76h11.49Z"/><path class="f" d="M241.33,114.42h6.91v1.76H236.75v-1.71h1.8v-.14a3.23,3.23,0,0,1-1.41-1.23,3.81,3.81,0,0,1-.54-2.12,4.22,4.22,0,0,1,.48-2,3.25,3.25,0,0,1,1.43-1.36,5.42,5.42,0,0,1,2.43-.48h7.3v1.76h-7.18a3,3,0,0,0-2.11.7,2.5,2.5,0,0,0-.76,1.93,3.09,3.09,0,0,0,.36,1.51,2.62,2.62,0,0,0,1.07,1A3.49,3.49,0,0,0,241.33,114.42Z"/><path class="f" d="M273.51,307.44H258.19v-1.76h5.65v-.15l-.76-.54a3.32,3.32,0,0,1-.84-1,3.53,3.53,0,0,1-.37-1.77,4.52,4.52,0,0,1,.73-2.56,4.8,4.8,0,0,1,2-1.73,8.31,8.31,0,0,1,6.3,0,5,5,0,0,1,2.07,1.72,4.56,4.56,0,0,1,.73,2.54,3.7,3.7,0,0,1-.37,1.77,3.14,3.14,0,0,1-.85,1c-.32.24-.58.43-.79.56v.21h1.77Zm-5.75-1.73a6.43,6.43,0,0,0,2.29-.38,3.43,3.43,0,0,0,1.55-1.12,3.17,3.17,0,0,0,0-3.64,3.54,3.54,0,0,0-1.58-1.12,6.67,6.67,0,0,0-4.41,0,3.37,3.37,0,0,0-1.55,1.11,3.33,3.33,0,0,0,0,3.68,3.25,3.25,0,0,0,1.51,1.1A6.2,6.2,0,0,0,267.76,305.71Z"/><path class="f" d="M258.19,292.85h15.32v1.76H258.19Z"/><path class="f" d="M273.75,285a4.87,4.87,0,0,1-2.82,4.55,6.89,6.89,0,0,1-3.11.65,7,7,0,0,1-3.13-.65,5,5,0,0,1,0-9.1,7,7,0,0,1,3.13-.65,6.89,6.89,0,0,1,3.11.65,4.87,4.87,0,0,1,2.82,4.55Zm-1.59,0a3,3,0,0,0-.61-1.94,3.49,3.49,0,0,0-1.59-1.13,6.37,6.37,0,0,0-4.28,0,3.55,3.55,0,0,0-1.61,1.13,3.39,3.39,0,0,0,0,3.88,3.55,3.55,0,0,0,1.61,1.13,6.37,6.37,0,0,0,4.28,0,3.49,3.49,0,0,0,1.59-1.13A3,3,0,0,0,272.16,285Z"/><path class="f" d="M273.75,272.39a4.82,4.82,0,0,1-2.87,4.57,7.76,7.76,0,0,1-6.15,0,5.24,5.24,0,0,1-2.1-1.81,4.86,4.86,0,0,1-.76-2.72,5.17,5.17,0,0,1,.45-2.19,4.21,4.21,0,0,1,1.26-1.59,3.9,3.9,0,0,1,1.88-.77v1.77a2.69,2.69,0,0,0-2,2.75,3,3,0,0,0,.53,1.8,3.55,3.55,0,0,0,1.5,1.21,5.71,5.71,0,0,0,2.27.43,5.9,5.9,0,0,0,2.32-.42,3.58,3.58,0,0,0,1.53-1.2,3,3,0,0,0,.55-1.82,3.13,3.13,0,0,0-.24-1.25,2.53,2.53,0,0,0-.69-.95,2.66,2.66,0,0,0-1.07-.55v-1.77a4.11,4.11,0,0,1,1.82.74,4,4,0,0,1,1.29,1.55A4.92,4.92,0,0,1,273.75,272.39Z"/><path class="f" d="M273.51,265.3H258.19v-1.77h15.32Zm-4.19-1.65-2.19,0v-.35l-5.11-5v-2.18l5.41,5.35v.15Zm4.19-5.65-5.69,4.49-1.22-1.26,6.91-5.47Z"/><path class="f" d="M273.75,249.66a5,5,0,0,1-.77,2.78,5,5,0,0,1-2.1,1.79,7.71,7.71,0,0,1-6.15,0,5.09,5.09,0,0,1-2.1-1.81,4.81,4.81,0,0,1-.76-2.71,5.17,5.17,0,0,1,.45-2.19,4.13,4.13,0,0,1,1.26-1.59,3.9,3.9,0,0,1,1.88-.77v1.76a2.8,2.8,0,0,0-1.39.9,2.69,2.69,0,0,0-.61,1.86,3.06,3.06,0,0,0,.53,1.8,3.55,3.55,0,0,0,1.5,1.21,5.71,5.71,0,0,0,2.27.42,5.9,5.9,0,0,0,2.32-.42,3.49,3.49,0,0,0,1.53-1.19,3.06,3.06,0,0,0,.55-1.82,3.13,3.13,0,0,0-.24-1.25,2.53,2.53,0,0,0-.69-.95,2.68,2.68,0,0,0-1.07-.56v-1.76a4,4,0,0,1,1.82.74,4.06,4.06,0,0,1,1.29,1.54A5,5,0,0,1,273.75,249.66Z"/><path class="f" d="M266.6,240.8h6.91v1.77H258.19V240.8h5.62v-.15a3.25,3.25,0,0,1-1.41-1.21,4,4,0,0,1-.53-2.17,4.31,4.31,0,0,1,.47-2.05,3.24,3.24,0,0,1,1.43-1.38,5.43,5.43,0,0,1,2.44-.49h7.3v1.77h-7.18a2.94,2.94,0,0,0-2.12.71,2.55,2.55,0,0,0-.75,1.95,3.25,3.25,0,0,0,.36,1.55,2.65,2.65,0,0,0,1.07,1.08A3.49,3.49,0,0,0,266.6,240.8Z"/><path class="f" d="M273.78,226.74a4.64,4.64,0,0,1-.42,2,3.44,3.44,0,0,1-1.2,1.41,3.39,3.39,0,0,1-1.91.52,3,3,0,0,1-1.61-.39,2.77,2.77,0,0,1-1-1,5.35,5.35,0,0,1-.52-1.44c-.12-.52-.21-1-.28-1.58q-.14-1.05-.21-1.71a2.75,2.75,0,0,0-.24-.95.65.65,0,0,0-.6-.31h-.06a2.36,2.36,0,0,0-1.72.61,2.43,2.43,0,0,0-.61,1.82,3.17,3.17,0,0,0,.55,2,3.31,3.31,0,0,0,1.18,1l-.6,1.67a4,4,0,0,1-1.63-1.2,4.44,4.44,0,0,1-.82-1.64,6.78,6.78,0,0,1-.24-1.76,7,7,0,0,1,.13-1.28,4.23,4.23,0,0,1,.54-1.4,3.14,3.14,0,0,1,1.21-1.12,4.57,4.57,0,0,1,2.19-.45h7.57v1.76H272v.09a3,3,0,0,1,.8.6,3.35,3.35,0,0,1,.73,1.12A4.44,4.44,0,0,1,273.78,226.74Zm-1.59-.27a3.55,3.55,0,0,0-.41-1.76,3,3,0,0,0-1.06-1.1,2.82,2.82,0,0,0-1.37-.37h-1.62a1.14,1.14,0,0,1,.25.49,8.28,8.28,0,0,1,.18.87c.06.33.1.65.14,1s.07.56.09.75a7.25,7.25,0,0,0,.29,1.28,2.33,2.33,0,0,0,.59,1,1.51,1.51,0,0,0,1.06.36,1.56,1.56,0,0,0,1.39-.69A3,3,0,0,0,272.19,226.47Z"/><path class="f" d="M260.11,217.35a1.23,1.23,0,0,1-.36.89,1.13,1.13,0,0,1-.84.37,1.17,1.17,0,0,1-.85-.37,1.26,1.26,0,0,1-.35-.89,1.24,1.24,0,0,1,.35-.88,1.13,1.13,0,0,1,.85-.37,1.09,1.09,0,0,1,.84.37A1.21,1.21,0,0,1,260.11,217.35Zm13.4.9H262v-1.77h11.49Z"/><path class="f" d="M266.6,211.49h6.91v1.76H262v-1.7h1.79v-.15a3.26,3.26,0,0,1-1.4-1.23,3.79,3.79,0,0,1-.54-2.12,4.16,4.16,0,0,1,.48-2,3.15,3.15,0,0,1,1.43-1.36,5.28,5.28,0,0,1,2.43-.49h7.3v1.77h-7.18a3,3,0,0,0-2.12.7,2.52,2.52,0,0,0-.75,1.93,3.08,3.08,0,0,0,.36,1.5,2.64,2.64,0,0,0,1.07,1.05A3.6,3.6,0,0,0,266.6,211.49Z"/></svg>