<?xml-stylesheet type="text/css" href="css/main.min.css" ?>
<svg xmlns="http://www.w3.org/2000/svg" viewBox="0 0 800 500"><defs><style>.a{fill:#39b54a;}.b{fill:#fff;}.c{fill:#6d6e71;}.d,.e{fill:none;stroke-miterlimit:10;}.d{stroke:#1c75bc;stroke-width:4px;}.e{stroke:#39b54a;stroke-width:2px;}.f{fill:#58595b;}</style></defs><rect class="a" x="21.13" y="180.69" width="179.49" height="49.46" rx="6" transform="translate(221.75 410.83) rotate(180)"/><path class="b" d="M46.67,199.21v-2.39H58v2.39h-4.2v11.34H50.88V199.21Z"/><path class="b" d="M62.92,210.75a5.25,5.25,0,0,1-2.7-.66,4.54,4.54,0,0,1-1.76-1.87,6.66,6.66,0,0,1,0-5.57,4.45,4.45,0,0,1,1.76-1.86,5.76,5.76,0,0,1,5.39,0,4.45,4.45,0,0,1,1.76,1.86,6.57,6.57,0,0,1,0,5.57,4.54,4.54,0,0,1-1.76,1.87A5.23,5.23,0,0,1,62.92,210.75Zm0-2.21a1.78,1.78,0,0,0,1.19-.4,2.68,2.68,0,0,0,.72-1.11,5,5,0,0,0,.24-1.61,4.94,4.94,0,0,0-.24-1.6,2.61,2.61,0,0,0-.72-1.11,1.95,1.95,0,0,0-2.39,0,2.47,2.47,0,0,0-.74,1.11,4.94,4.94,0,0,0-.24,1.6A5,5,0,0,0,61,207a2.53,2.53,0,0,0,.74,1.11A1.79,1.79,0,0,0,62.93,208.54Z"/><path class="b" d="M69.85,210.55v-10.3h2.77v1.8h.11a2.64,2.64,0,0,1,.94-1.45,2.48,2.48,0,0,1,1.53-.49,3.7,3.7,0,0,1,.46,0,2.48,2.48,0,0,1,.44.08v2.53a3.68,3.68,0,0,0-.56-.11,5.14,5.14,0,0,0-.65,0,2.29,2.29,0,0,0-1.12.27,2,2,0,0,0-.78.75,2.17,2.17,0,0,0-.28,1.12v5.82Z"/><path class="b" d="M77.57,210.55v-10.3h2.77v1.8h.1a2.71,2.71,0,0,1,1-1.45,2.48,2.48,0,0,1,1.53-.49,3.78,3.78,0,0,1,.46,0,2.48,2.48,0,0,1,.44.08v2.53a3.68,3.68,0,0,0-.56-.11,5.14,5.14,0,0,0-.65,0,2.26,2.26,0,0,0-1.12.27,2,2,0,0,0-.78.75,2.17,2.17,0,0,0-.29,1.12v5.82Z"/><path class="b" d="M89.5,210.75a5.52,5.52,0,0,1-2.74-.64A4.4,4.4,0,0,1,85,208.27a6.75,6.75,0,0,1,0-5.61,4.55,4.55,0,0,1,1.74-1.87,5,5,0,0,1,2.64-.67,5.57,5.57,0,0,1,1.9.32,4.49,4.49,0,0,1,1.55,1,4.36,4.36,0,0,1,1,1.63,6.45,6.45,0,0,1,.37,2.3v.78H85.53v-1.77h6a2.17,2.17,0,0,0-.26-1.09,2,2,0,0,0-.74-.75,2.21,2.21,0,0,0-1.1-.27,2.19,2.19,0,0,0-1.15.3,2.14,2.14,0,0,0-.78.8,2.19,2.19,0,0,0-.29,1.11v1.68a2.86,2.86,0,0,0,.28,1.32,2,2,0,0,0,.81.86,2.45,2.45,0,0,0,1.24.3,2.75,2.75,0,0,0,.88-.13,1.84,1.84,0,0,0,.67-.41,1.65,1.65,0,0,0,.43-.65l2.64.17a3.56,3.56,0,0,1-.82,1.66,4.08,4.08,0,0,1-1.59,1.1A6,6,0,0,1,89.5,210.75Z"/><path class="b" d="M98.94,204.6v6H96.09v-10.3h2.72v1.82h.12a2.87,2.87,0,0,1,1.15-1.42,3.39,3.39,0,0,1,2-.53,3.66,3.66,0,0,1,1.87.47,3.22,3.22,0,0,1,1.24,1.34,4.51,4.51,0,0,1,.44,2.06v6.56h-2.85V204.5a2.06,2.06,0,0,0-.49-1.47,1.7,1.7,0,0,0-1.34-.54,2.08,2.08,0,0,0-1,.25,1.75,1.75,0,0,0-.68.72A2.52,2.52,0,0,0,98.94,204.6Z"/><path class="b" d="M113.31,200.25v2.15H107.1v-2.15Zm-4.8-2.46h2.86v9.6a1.27,1.27,0,0,0,.12.61.64.64,0,0,0,.34.31,1.5,1.5,0,0,0,.5.08,2.83,2.83,0,0,0,.41,0l.3-.06.46,2.13-.61.15a4.76,4.76,0,0,1-.94.11,4.29,4.29,0,0,1-1.81-.27,2.56,2.56,0,0,1-1.21-1,3.08,3.08,0,0,1-.42-1.68Z"/><path class="b" d="M124.2,210.75a5.23,5.23,0,0,1-2.72-.67,4.51,4.51,0,0,1-1.75-1.87,6.14,6.14,0,0,1-.6-2.77,6,6,0,0,1,.61-2.78,4.57,4.57,0,0,1,1.75-1.87,5.14,5.14,0,0,1,2.69-.67,5.29,5.29,0,0,1,2.36.49,3.92,3.92,0,0,1,1.61,1.37,4.09,4.09,0,0,1,.65,2.08h-2.7a2,2,0,0,0-.6-1.24,1.72,1.72,0,0,0-1.27-.47,1.92,1.92,0,0,0-1.16.35,2.35,2.35,0,0,0-.76,1.05,4.25,4.25,0,0,0-.28,1.65,4.62,4.62,0,0,0,.27,1.68,2.29,2.29,0,0,0,.77,1,1.93,1.93,0,0,0,1.16.36,1.81,1.81,0,0,0,.88-.2,1.72,1.72,0,0,0,.65-.58,2.25,2.25,0,0,0,.34-.93h2.7a4.28,4.28,0,0,1-.64,2.07,3.9,3.9,0,0,1-1.58,1.4A5.22,5.22,0,0,1,124.2,210.75Z"/><path class="b" d="M133.49,204.6v6h-2.86V196.82h2.78v5.25h.12a2.88,2.88,0,0,1,1.13-1.43,3.42,3.42,0,0,1,2-.52,3.65,3.65,0,0,1,1.87.46,3.24,3.24,0,0,1,1.25,1.34,4.45,4.45,0,0,1,.44,2.07v6.56h-2.86V204.5a2.05,2.05,0,0,0-.48-1.48,1.74,1.74,0,0,0-1.35-.53,2.12,2.12,0,0,0-1,.25,1.8,1.8,0,0,0-.7.72A2.52,2.52,0,0,0,133.49,204.6Z"/><path class="b" d="M149,206.17v-5.92h2.85v10.3h-2.74v-1.87H149a3,3,0,0,1-1.15,1.46,3.48,3.48,0,0,1-2,.55,3.52,3.52,0,0,1-1.82-.47,3.24,3.24,0,0,1-1.22-1.34,4.65,4.65,0,0,1-.45-2.07v-6.56h2.86v6.05a2.06,2.06,0,0,0,.49,1.44,1.63,1.63,0,0,0,1.29.53,2,2,0,0,0,1-.24,1.81,1.81,0,0,0,.73-.7A2.31,2.31,0,0,0,149,206.17Z"/><path class="b" d="M157,204.6v6h-2.86v-10.3h2.73v1.82H157a2.85,2.85,0,0,1,1.14-1.42,3.43,3.43,0,0,1,1.95-.53,3.69,3.69,0,0,1,1.88.47,3.22,3.22,0,0,1,1.24,1.34,4.51,4.51,0,0,1,.44,2.06v6.56H160.8V204.5a2,2,0,0,0-.48-1.47,1.74,1.74,0,0,0-1.35-.54,2.07,2.07,0,0,0-1,.25,1.71,1.71,0,0,0-.69.72A2.52,2.52,0,0,0,157,204.6Z"/><path class="b" d="M165.9,210.55V196.82h2.86v13.73Zm2.59-3v-3.43h.42l3.29-3.91h3.28l-4.43,5.18h-.68Zm3.85,3-3-4.48,1.91-2,4.47,6.5Z"/><path class="a" d="M273.13,204.42l-10-10a1.4,1.4,0,0,0-2.4,1v5.4a1.41,1.41,0,0,1-1.41,1.41H234.73a1.4,1.4,0,0,0-1.4,1.4v3.65a1.41,1.41,0,0,0,1.4,1.41h24.55a1.41,1.41,0,0,1,1.41,1.4v5.4a1.4,1.4,0,0,0,2.4,1l10-10A1.41,1.41,0,0,0,273.13,204.42Z"/><path class="c" d="M313.53,121.31V104.23h11.31v3h-7.7v4.07h6.95v3h-6.95v7Z"/><path class="c" d="M327.27,121.31V104.23h3.61v14.1h7.32v3Z"/><path class="c" d="M355.62,112.77a9.81,9.81,0,0,1-1.06,4.75,7.25,7.25,0,0,1-2.86,3,8.6,8.6,0,0,1-8.16,0,7.37,7.37,0,0,1-2.86-3,11.17,11.17,0,0,1,0-9.5,7.25,7.25,0,0,1,2.86-3,8.6,8.6,0,0,1,8.16,0,7.25,7.25,0,0,1,2.86,3A9.81,9.81,0,0,1,355.62,112.77Zm-3.66,0a7.64,7.64,0,0,0-.54-3,4.18,4.18,0,0,0-1.51-1.89,4.4,4.4,0,0,0-4.57,0,4.2,4.2,0,0,0-1.52,1.89,9,9,0,0,0,0,6.1,4.2,4.2,0,0,0,1.52,1.89,4.4,4.4,0,0,0,4.57,0,4.18,4.18,0,0,0,1.51-1.89A7.64,7.64,0,0,0,352,112.77Z"/><path class="c" d="M363.73,121.31V104.23h3.56v6.42h.1a5.31,5.31,0,0,1,.68-1.05,3.58,3.58,0,0,1,1.17-.9,3.87,3.87,0,0,1,1.8-.37,4.89,4.89,0,0,1,2.58.73,5.17,5.17,0,0,1,1.9,2.2,8.38,8.38,0,0,1,.71,3.66,8.5,8.5,0,0,1-.69,3.62,5.1,5.1,0,0,1-1.87,2.22,4.76,4.76,0,0,1-2.64.76,4.25,4.25,0,0,1-1.76-.34,3.66,3.66,0,0,1-1.18-.87,4.68,4.68,0,0,1-.7-1h-.15v2Zm3.48-6.4a5.73,5.73,0,0,0,.32,2,2.81,2.81,0,0,0,.92,1.32,2.48,2.48,0,0,0,2.92,0,3,3,0,0,0,.92-1.33,5.94,5.94,0,0,0,.31-2,5.64,5.64,0,0,0-.31-2,2.89,2.89,0,0,0-.91-1.31,2.29,2.29,0,0,0-1.48-.48,2.32,2.32,0,0,0-1.46.46,2.86,2.86,0,0,0-.91,1.3A5.65,5.65,0,0,0,367.21,114.91Z"/><path class="c" d="M382.14,104.23v17.08h-3.55V104.23Z"/><path class="c" d="M390.76,121.56a6.57,6.57,0,0,1-3.36-.83,5.61,5.61,0,0,1-2.18-2.32,8.28,8.28,0,0,1,0-6.93,5.67,5.67,0,0,1,2.18-2.32,7.22,7.22,0,0,1,6.72,0,5.67,5.67,0,0,1,2.18,2.32,8.28,8.28,0,0,1,0,6.93,5.61,5.61,0,0,1-2.18,2.32A6.59,6.59,0,0,1,390.76,121.56Zm0-2.75a2.16,2.16,0,0,0,1.47-.51,3,3,0,0,0,.9-1.38,6.75,6.75,0,0,0,0-4,3.06,3.06,0,0,0-.9-1.39,2.16,2.16,0,0,0-1.47-.51,2.24,2.24,0,0,0-1.5.51,3.08,3.08,0,0,0-.91,1.39,6.75,6.75,0,0,0,0,4,3,3,0,0,0,.91,1.38A2.24,2.24,0,0,0,390.78,118.81Z"/><path class="c" d="M405.17,121.56a6.49,6.49,0,0,1-3.38-.84,5.55,5.55,0,0,1-2.17-2.33,7.53,7.53,0,0,1-.75-3.43,7.44,7.44,0,0,1,.76-3.46,5.67,5.67,0,0,1,2.17-2.33,6.43,6.43,0,0,1,3.35-.84,6.77,6.77,0,0,1,2.94.61,5,5,0,0,1,2,1.71,5.05,5.05,0,0,1,.81,2.59h-3.35a2.62,2.62,0,0,0-.75-1.55,2.18,2.18,0,0,0-1.58-.59,2.37,2.37,0,0,0-1.44.45,2.89,2.89,0,0,0-.95,1.3,5.45,5.45,0,0,0-.34,2.06,5.82,5.82,0,0,0,.33,2.08,2.93,2.93,0,0,0,1,1.31,2.37,2.37,0,0,0,1.44.45,2.34,2.34,0,0,0,1.1-.25,2.25,2.25,0,0,0,.81-.73,2.91,2.91,0,0,0,.42-1.16h3.35a5.31,5.31,0,0,1-.8,2.59,4.88,4.88,0,0,1-2,1.74A6.63,6.63,0,0,1,405.17,121.56Z"/><path class="c" d="M413.18,121.31V104.23h3.55v17.08Zm3.22-3.69v-4.26h.52l4.1-4.86h4.08l-5.51,6.44h-.84Zm4.78,3.69-3.77-5.58,2.37-2.51,5.56,8.09Z"/><path class="c" d="M432.09,121.56a6.49,6.49,0,0,1-3.38-.84,5.55,5.55,0,0,1-2.17-2.33,7.53,7.53,0,0,1-.75-3.43,7.44,7.44,0,0,1,.76-3.46,5.67,5.67,0,0,1,2.17-2.33,6.43,6.43,0,0,1,3.35-.84,6.77,6.77,0,0,1,2.94.61,5,5,0,0,1,2,1.71,5.05,5.05,0,0,1,.81,2.59h-3.35a2.62,2.62,0,0,0-.75-1.55,2.18,2.18,0,0,0-1.58-.59,2.37,2.37,0,0,0-1.44.45,2.89,2.89,0,0,0-.95,1.3,5.45,5.45,0,0,0-.34,2.06,5.82,5.82,0,0,0,.33,2.08,2.93,2.93,0,0,0,1,1.31,2.37,2.37,0,0,0,1.44.45,2.34,2.34,0,0,0,1.1-.25,2.25,2.25,0,0,0,.81-.73,2.91,2.91,0,0,0,.42-1.16h3.35a5.31,5.31,0,0,1-.8,2.59,4.88,4.88,0,0,1-2,1.74A6.63,6.63,0,0,1,432.09,121.56Z"/><path class="c" d="M443.65,113.9v7.41H440.1V104.23h3.45v6.53h.15a3.6,3.6,0,0,1,1.4-1.78,4.27,4.27,0,0,1,2.43-.65,4.63,4.63,0,0,1,2.33.58,4,4,0,0,1,1.55,1.66,5.46,5.46,0,0,1,.54,2.58v8.16H448.4v-7.52a2.57,2.57,0,0,0-.6-1.85,2.18,2.18,0,0,0-1.68-.65,2.53,2.53,0,0,0-1.28.31,2.13,2.13,0,0,0-.87.89A2.94,2.94,0,0,0,443.65,113.9Z"/><path class="c" d="M458.41,121.55a5.25,5.25,0,0,1-2.19-.43,3.42,3.42,0,0,1-1.51-1.27,3.8,3.8,0,0,1-.55-2.12,3.73,3.73,0,0,1,.39-1.79,3.22,3.22,0,0,1,1.06-1.17,5.65,5.65,0,0,1,1.54-.67,11.51,11.51,0,0,1,1.82-.31c.74-.08,1.34-.15,1.8-.22a2.54,2.54,0,0,0,1-.32.67.67,0,0,0,.31-.61v0a1.55,1.55,0,0,0-.5-1.23,2.06,2.06,0,0,0-1.4-.43,2.52,2.52,0,0,0-1.53.42,2,2,0,0,0-.75,1.05l-3.28-.26a4.43,4.43,0,0,1,1-2,4.76,4.76,0,0,1,1.9-1.31,7.18,7.18,0,0,1,2.69-.47,8.53,8.53,0,0,1,2.05.25,5.41,5.41,0,0,1,1.74.78,3.83,3.83,0,0,1,1.21,1.35,4.11,4.11,0,0,1,.44,2v8.64h-3.37v-1.78h-.1a3.51,3.51,0,0,1-.82,1.06,3.81,3.81,0,0,1-1.25.71A5,5,0,0,1,458.41,121.55Zm1-2.45a2.92,2.92,0,0,0,1.38-.31,2.42,2.42,0,0,0,.94-.85,2.16,2.16,0,0,0,.34-1.21v-1.36a1.93,1.93,0,0,1-.45.2c-.19.06-.41.11-.65.16l-.71.12-.65.1a4.51,4.51,0,0,0-1.1.29,1.67,1.67,0,0,0-.72.54,1.34,1.34,0,0,0-.26.84,1.27,1.27,0,0,0,.53,1.1A2.27,2.27,0,0,0,459.43,119.1Z"/><path class="c" d="M470.17,106.85a1.91,1.91,0,0,1-1.35-.53,1.65,1.65,0,0,1-.57-1.26,1.69,1.69,0,0,1,.57-1.28,1.89,1.89,0,0,1,1.35-.52,1.93,1.93,0,0,1,1.36.52,1.72,1.72,0,0,1,0,2.54A1.94,1.94,0,0,1,470.17,106.85Zm-1.79,14.46V108.5h3.55v12.81Z"/><path class="c" d="M478.32,113.9v7.41h-3.55V108.5h3.39v2.26h.14a3.66,3.66,0,0,1,1.43-1.77,4.33,4.33,0,0,1,2.43-.66,4.47,4.47,0,0,1,2.32.59,4,4,0,0,1,1.55,1.66,5.7,5.7,0,0,1,.55,2.57v8.16H483v-7.52a2.59,2.59,0,0,0-.61-1.84,2.15,2.15,0,0,0-1.67-.66,2.45,2.45,0,0,0-1.26.31,2.11,2.11,0,0,0-.86.89A3.19,3.19,0,0,0,478.32,113.9Z"/><path class="d" d="M379.74,177.12v10.6a2.06,2.06,0,0,1-2.06,2.06H340.52a2.06,2.06,0,0,1-2.06-2.06V150.56a2.06,2.06,0,0,1,2.06-2.06H354.8"/><path class="d" d="M364.61,148.5h13.07a2.06,2.06,0,0,1,2.06,2.06v10.61"/><line class="d" x1="354.8" y1="148.5" x2="364.61" y2="148.5"/><circle class="d" cx="359.1" cy="169.14" r="8.7"/><line class="d" x1="367.8" y1="169.14" x2="420.26" y2="169.14"/><path class="d" d="M432.92,190.16h-10.6a2.06,2.06,0,0,1-2.06-2.06V150.94a2.06,2.06,0,0,1,2.06-2.06h37.16a2.06,2.06,0,0,1,2.06,2.06v14.28"/><path class="d" d="M461.54,175V188.1a2.06,2.06,0,0,1-2.06,2.06H448.87"/><line class="d" x1="461.54" y1="165.22" x2="461.54" y2="175.03"/><circle class="d" cx="440.9" cy="169.52" r="8.7"/><line class="d" x1="440.9" y1="178.22" x2="440.9" y2="230.68"/><path class="d" d="M420.26,243.72V233.11a2.06,2.06,0,0,1,2.06-2.06h37.16a2.06,2.06,0,0,1,2.06,2.06v37.16a2.06,2.06,0,0,1-2.06,2.06H445.2"/><path class="d" d="M435.39,272.33H422.32a2.06,2.06,0,0,1-2.06-2.06v-10.6"/><line class="d" x1="445.2" y1="272.33" x2="435.39" y2="272.33"/><circle class="d" cx="440.9" cy="251.69" r="8.7"/><line class="d" x1="432.2" y1="251.69" x2="379.74" y2="251.69"/><path class="d" d="M367.08,230.68h10.6a2.05,2.05,0,0,1,2.06,2V269.9a2.05,2.05,0,0,1-2.06,2.05H340.52a2.06,2.06,0,0,1-2.06-2.05V255.62"/><path class="d" d="M338.46,245.81V232.73a2.06,2.06,0,0,1,2.06-2h10.61"/><line class="d" x1="338.46" y1="255.62" x2="338.46" y2="245.81"/><circle class="d" cx="359.1" cy="251.31" r="8.7"/><line class="d" x1="359.1" y1="242.61" x2="359.1" y2="190.16"/><rect class="e" x="599.38" y="180.69" width="179.49" height="49.46" rx="6" transform="translate(1378.25 410.83) rotate(180)"/><path class="a" d="M623,199.21v-2.39h11.28v2.39H630.1v11.34h-2.87V199.21Z"/><path class="a" d="M635,210.55v-10.3h2.77v1.8h.11a2.65,2.65,0,0,1,1-1.45,2.48,2.48,0,0,1,1.53-.49,3.78,3.78,0,0,1,.46,0,2.36,2.36,0,0,1,.43.08v2.53a3.51,3.51,0,0,0-.55-.11,5.25,5.25,0,0,0-.65,0,2.33,2.33,0,0,0-1.13.27,2,2,0,0,0-.77.75,2.17,2.17,0,0,0-.29,1.12v5.82Z"/><path class="a" d="M645.41,210.75a4.29,4.29,0,0,1-1.76-.35,2.75,2.75,0,0,1-1.21-1,3.44,3.44,0,0,1-.13-3.15,2.48,2.48,0,0,1,.86-.93,4,4,0,0,1,1.23-.54,9.45,9.45,0,0,1,1.46-.26c.6-.06,1.08-.12,1.45-.17a2.21,2.21,0,0,0,.8-.25.58.58,0,0,0,.24-.5v0a1.27,1.27,0,0,0-.39-1,1.7,1.7,0,0,0-1.13-.35,2,2,0,0,0-1.23.34,1.53,1.53,0,0,0-.6.85l-2.65-.21a3.71,3.71,0,0,1,.79-1.63,3.93,3.93,0,0,1,1.53-1.06,5.8,5.8,0,0,1,2.17-.37,6.9,6.9,0,0,1,1.65.2,4.33,4.33,0,0,1,1.4.62,3.17,3.17,0,0,1,1,1.09,3.35,3.35,0,0,1,.35,1.58v6.94H648.5v-1.43h-.08a2.6,2.6,0,0,1-.66.85,2.81,2.81,0,0,1-1,.57A4,4,0,0,1,645.41,210.75Zm.82-2a2.33,2.33,0,0,0,1.11-.26,1.86,1.86,0,0,0,.76-.68,1.78,1.78,0,0,0,.28-1v-1.09a1.63,1.63,0,0,1-.37.16,5.06,5.06,0,0,1-.52.12l-.58.1-.52.08a3.4,3.4,0,0,0-.88.24,1.36,1.36,0,0,0-.58.43,1.05,1.05,0,0,0-.21.67,1,1,0,0,0,.43.89A1.82,1.82,0,0,0,646.23,208.78Z"/><path class="a" d="M656.29,204.6v6h-2.86v-10.3h2.72v1.82h.12a2.87,2.87,0,0,1,1.15-1.42,3.43,3.43,0,0,1,2-.53,3.63,3.63,0,0,1,1.87.47,3.16,3.16,0,0,1,1.24,1.34,4.38,4.38,0,0,1,.45,2.06v6.56h-2.86V204.5a2.1,2.1,0,0,0-.48-1.47,1.74,1.74,0,0,0-1.35-.54,2.11,2.11,0,0,0-1,.25,1.75,1.75,0,0,0-.68.72A2.52,2.52,0,0,0,656.29,204.6Z"/><path class="a" d="M673.74,203.19l-2.61.16a1.49,1.49,0,0,0-.29-.61,1.6,1.6,0,0,0-.58-.43,2.06,2.06,0,0,0-.86-.17,2.19,2.19,0,0,0-1.12.28.84.84,0,0,0-.45.74.82.82,0,0,0,.29.63,2.49,2.49,0,0,0,1,.41l1.87.37a4.72,4.72,0,0,1,2.24,1,2.36,2.36,0,0,1,.74,1.8,2.79,2.79,0,0,1-.6,1.78,3.86,3.86,0,0,1-1.62,1.19,6.26,6.26,0,0,1-2.37.42,5.57,5.57,0,0,1-3.26-.85,3.29,3.29,0,0,1-1.41-2.33l2.81-.15a1.43,1.43,0,0,0,.61,1,2.23,2.23,0,0,0,1.26.33,2.19,2.19,0,0,0,1.21-.3.87.87,0,0,0,.46-.75.77.77,0,0,0-.33-.64,2.31,2.31,0,0,0-1-.39l-1.78-.35a4.16,4.16,0,0,1-2.24-1.05,2.59,2.59,0,0,1-.74-1.9,2.77,2.77,0,0,1,.54-1.71,3.51,3.51,0,0,1,1.52-1.1,6.28,6.28,0,0,1,2.31-.39,5.09,5.09,0,0,1,3.07.82A3.17,3.17,0,0,1,673.74,203.19Z"/><path class="a" d="M678.72,210.75a4.25,4.25,0,0,1-1.76-.35,2.83,2.83,0,0,1-1.22-1,3.11,3.11,0,0,1-.44-1.7,3,3,0,0,1,.31-1.45,2.56,2.56,0,0,1,.86-.93,4.09,4.09,0,0,1,1.24-.54,9.45,9.45,0,0,1,1.46-.26c.6-.06,1.08-.12,1.45-.17a2.09,2.09,0,0,0,.79-.25.57.57,0,0,0,.25-.5v0a1.24,1.24,0,0,0-.4-1,1.66,1.66,0,0,0-1.13-.35,2,2,0,0,0-1.22.34,1.6,1.6,0,0,0-.61.85l-2.64-.21a3.61,3.61,0,0,1,.79-1.63,3.79,3.79,0,0,1,1.53-1.06,5.77,5.77,0,0,1,2.17-.37,6.76,6.76,0,0,1,1.64.2,4.24,4.24,0,0,1,1.4.62,3.07,3.07,0,0,1,1,1.09,3.24,3.24,0,0,1,.36,1.58v6.94h-2.71v-1.43h-.08a2.94,2.94,0,0,1-1.66,1.42A4,4,0,0,1,678.72,210.75Zm.82-2a2.33,2.33,0,0,0,1.11-.26,1.92,1.92,0,0,0,.76-.68,1.77,1.77,0,0,0,.27-1v-1.09a1.54,1.54,0,0,1-.36.16c-.16,0-.33.09-.52.12l-.58.1-.52.08a3.4,3.4,0,0,0-.88.24,1.39,1.39,0,0,0-.59.43,1.11,1.11,0,0,0-.2.67,1,1,0,0,0,.42.89A1.87,1.87,0,0,0,679.54,208.78Z"/><path class="a" d="M691.39,210.75a5.23,5.23,0,0,1-2.72-.67,4.43,4.43,0,0,1-1.74-1.87,6,6,0,0,1-.61-2.77,6.15,6.15,0,0,1,.61-2.78,4.64,4.64,0,0,1,1.75-1.87,5.18,5.18,0,0,1,2.7-.67,5.32,5.32,0,0,1,2.36.49,3.89,3.89,0,0,1,1.6,1.37,4.09,4.09,0,0,1,.65,2.08h-2.7a2,2,0,0,0-.6-1.24,1.71,1.71,0,0,0-1.27-.47,1.89,1.89,0,0,0-1.15.35,2.29,2.29,0,0,0-.77,1.05,5.09,5.09,0,0,0,0,3.33,2.28,2.28,0,0,0,.76,1,1.93,1.93,0,0,0,1.16.36,1.88,1.88,0,0,0,.89-.2,1.8,1.8,0,0,0,.65-.58,2.24,2.24,0,0,0,.33-.93H696a4.18,4.18,0,0,1-.64,2.07,3.84,3.84,0,0,1-1.58,1.4A5.19,5.19,0,0,1,691.39,210.75Z"/><path class="a" d="M703.31,200.25v2.15H697.1v-2.15Zm-4.8-2.46h2.86v9.6a1.27,1.27,0,0,0,.12.61.64.64,0,0,0,.34.31,1.5,1.5,0,0,0,.5.08,2.83,2.83,0,0,0,.41,0l.3-.06.46,2.13-.61.15a4.76,4.76,0,0,1-.94.11,4.29,4.29,0,0,1-1.81-.27,2.56,2.56,0,0,1-1.21-1,3.08,3.08,0,0,1-.42-1.68Z"/><path class="a" d="M706.61,198.93a1.58,1.58,0,0,1-1.1-.43,1.34,1.34,0,0,1-.45-1,1.37,1.37,0,0,1,.45-1,1.57,1.57,0,0,1,1.09-.42,1.53,1.53,0,0,1,1.09.42,1.36,1.36,0,0,1,0,2A1.54,1.54,0,0,1,706.61,198.93Zm-1.45,11.62v-10.3H708v10.3Z"/><path class="a" d="M715,210.75a5.3,5.3,0,0,1-2.7-.66,4.58,4.58,0,0,1-1.75-1.87,6.57,6.57,0,0,1,0-5.57,4.49,4.49,0,0,1,1.75-1.86,5.78,5.78,0,0,1,5.4,0,4.45,4.45,0,0,1,1.76,1.86,6.66,6.66,0,0,1,0,5.57,4.54,4.54,0,0,1-1.76,1.87A5.25,5.25,0,0,1,715,210.75Zm0-2.21a1.74,1.74,0,0,0,1.18-.4,2.6,2.6,0,0,0,.73-1.11,5,5,0,0,0,.24-1.61,4.94,4.94,0,0,0-.24-1.6,2.54,2.54,0,0,0-.73-1.11,1.7,1.7,0,0,0-1.18-.41,1.79,1.79,0,0,0-1.21.41,2.54,2.54,0,0,0-.73,1.11,4.94,4.94,0,0,0-.24,1.6A5,5,0,0,0,713,207a2.6,2.6,0,0,0,.73,1.11A1.84,1.84,0,0,0,715,208.54Z"/><path class="a" d="M724.74,204.6v6h-2.85v-10.3h2.72v1.82h.12a2.87,2.87,0,0,1,1.15-1.42,3.39,3.39,0,0,1,2-.53,3.66,3.66,0,0,1,1.87.47,3.22,3.22,0,0,1,1.24,1.34,4.51,4.51,0,0,1,.44,2.06v6.56h-2.85V204.5A2.06,2.06,0,0,0,728,203a1.7,1.7,0,0,0-1.34-.54,2.08,2.08,0,0,0-1,.25,1.75,1.75,0,0,0-.68.72A2.52,2.52,0,0,0,724.74,204.6Z"/><path class="a" d="M741,196.82v13.73h-2.9V196.82Z"/><path class="a" d="M748.23,210.55h-4.87V196.82h4.91a7.23,7.23,0,0,1,3.56.82,5.6,5.6,0,0,1,2.31,2.36,7.77,7.77,0,0,1,.81,3.67,7.85,7.85,0,0,1-.81,3.69,5.58,5.58,0,0,1-2.32,2.37A7.35,7.35,0,0,1,748.23,210.55Zm-2-2.49h1.85a4.7,4.7,0,0,0,2.16-.45,3,3,0,0,0,1.33-1.43,6,6,0,0,0,.45-2.51,5.88,5.88,0,0,0-.45-2.48,3,3,0,0,0-1.32-1.43,4.74,4.74,0,0,0-2.17-.45h-1.85Z"/><path class="a" d="M558.92,204.42l-10-10a1.4,1.4,0,0,0-2.4,1v5.4a1.41,1.41,0,0,1-1.41,1.41H520.53a1.41,1.41,0,0,0-1.41,1.4v3.65a1.41,1.41,0,0,0,1.41,1.41h24.54a1.41,1.41,0,0,1,1.41,1.4v5.4a1.41,1.41,0,0,0,2.4,1l10-10A1.41,1.41,0,0,0,558.92,204.42Z"/><path class="a" d="M99,276.68l-10,10a1.4,1.4,0,0,0,1,2.4h5.4a1.41,1.41,0,0,1,1.41,1.41v37.7h6.46v-37.7a1.41,1.41,0,0,1,1.41-1.41h5.4a1.4,1.4,0,0,0,1-2.4l-10-10A1.41,1.41,0,0,0,99,276.68Z"/><path class="a" d="M661,298.34h52.32a1,1,0,0,1,1,1v4.46a1,1,0,0,1-1,1H661a0,0,0,0,1,0,0v-6.46A0,0,0,0,1,661,298.34Z" transform="translate(386.04 989.18) rotate(-90)"/><path class="a" d="M101.89,321.77H689.4a1,1,0,0,1,1,1v5.46a0,0,0,0,1,0,0H101.89a0,0,0,0,1,0,0v-6.46A0,0,0,0,1,101.89,321.77Z"/><path class="f" d="M264.49,378.19V363.64h4.91a5.91,5.91,0,0,1,2.8.58,3.77,3.77,0,0,1,1.62,1.59,4.89,4.89,0,0,1,.53,2.29,4.8,4.8,0,0,1-.53,2.28,3.74,3.74,0,0,1-1.61,1.56,6,6,0,0,1-2.78.57h-4v-1.59h3.92a4.3,4.3,0,0,0,1.87-.35,2.1,2.1,0,0,0,1-1,3.16,3.16,0,0,0,.33-1.5,3.31,3.31,0,0,0-.33-1.52,2.26,2.26,0,0,0-1.05-1,4.21,4.21,0,0,0-1.89-.36h-3.1v13Zm6.85-6.54,3.58,6.54h-2.05l-3.52-6.54Z"/><path class="f" d="M281.51,378.42a5.08,5.08,0,0,1-2.72-.71,4.52,4.52,0,0,1-1.75-2,6.55,6.55,0,0,1-.62-2.93,6.75,6.75,0,0,1,.62-3,4.86,4.86,0,0,1,1.71-2,4.64,4.64,0,0,1,2.59-.72,5.19,5.19,0,0,1,1.68.28,4.24,4.24,0,0,1,1.51.92,4.34,4.34,0,0,1,1.09,1.68,7.15,7.15,0,0,1,.4,2.57v.71h-8.41v-1.45h6.71a3.58,3.58,0,0,0-.37-1.65,2.84,2.84,0,0,0-1-1.14,2.94,2.94,0,0,0-1.58-.42,3,3,0,0,0-1.73.5,3.16,3.16,0,0,0-1.12,1.28,3.75,3.75,0,0,0-.39,1.69v1a4.63,4.63,0,0,0,.43,2.1,2.93,2.93,0,0,0,1.19,1.29,3.5,3.5,0,0,0,1.79.45,3.42,3.42,0,0,0,1.19-.19,2.34,2.34,0,0,0,.93-.57,2.49,2.49,0,0,0,.6-.95l1.62.46a3.43,3.43,0,0,1-.86,1.44,4.06,4.06,0,0,1-1.49,1A5.43,5.43,0,0,1,281.51,378.42Z"/><path class="f" d="M288.58,382.28v-15h1.62V369h.2c.12-.19.29-.43.51-.73a3,3,0,0,1,1-.79,3.33,3.33,0,0,1,1.68-.35,4.32,4.32,0,0,1,2.43.69,4.52,4.52,0,0,1,1.64,1.95,7.87,7.87,0,0,1,0,6,4.6,4.6,0,0,1-1.63,2,4.29,4.29,0,0,1-2.41.7,3.38,3.38,0,0,1-1.68-.36,3.08,3.08,0,0,1-1-.8c-.22-.3-.4-.55-.52-.75h-.14v5.77Zm1.65-9.55a6.07,6.07,0,0,0,.36,2.18,3.26,3.26,0,0,0,1.06,1.47,2.74,2.74,0,0,0,1.7.53,2.77,2.77,0,0,0,1.76-.56,3.41,3.41,0,0,0,1.07-1.5,6,6,0,0,0,.36-2.12,5.65,5.65,0,0,0-.36-2.07,3.2,3.2,0,0,0-1.05-1.47,2.82,2.82,0,0,0-1.78-.55,2.79,2.79,0,0,0-1.72.52,3.17,3.17,0,0,0-1.05,1.43A6.12,6.12,0,0,0,290.23,372.73Z"/><path class="f" d="M305.34,378.42a5,5,0,0,1-2.71-.71,4.54,4.54,0,0,1-1.76-2,6.55,6.55,0,0,1-.61-2.93,6.75,6.75,0,0,1,.61-3,4.81,4.81,0,0,1,1.72-2,4.63,4.63,0,0,1,2.58-.72,5.21,5.21,0,0,1,1.69.28,4.33,4.33,0,0,1,1.51.92,4.44,4.44,0,0,1,1.08,1.68,7.14,7.14,0,0,1,.41,2.57v.71h-8.41v-1.45h6.71a3.71,3.71,0,0,0-.37-1.65,2.86,2.86,0,0,0-1-1.14,2.91,2.91,0,0,0-1.58-.42,3,3,0,0,0-1.73.5,3.23,3.23,0,0,0-1.12,1.28,3.75,3.75,0,0,0-.39,1.69v1a4.76,4.76,0,0,0,.43,2.1,3,3,0,0,0,1.2,1.29,3.46,3.46,0,0,0,1.78.45,3.51,3.51,0,0,0,1.2-.19,2.34,2.34,0,0,0,.93-.57,2.49,2.49,0,0,0,.6-.95l1.62.46a3.53,3.53,0,0,1-.86,1.44,4.06,4.06,0,0,1-1.49,1A5.48,5.48,0,0,1,305.34,378.42Z"/><path class="f" d="M315.63,378.44a4.47,4.47,0,0,1-1.89-.39,3.17,3.17,0,0,1-1.34-1.14,3.24,3.24,0,0,1-.5-1.82,2.87,2.87,0,0,1,.37-1.52,2.65,2.65,0,0,1,1-.92,5,5,0,0,1,1.37-.5c.5-.11,1-.2,1.51-.27l1.61-.19a2.48,2.48,0,0,0,.91-.24.58.58,0,0,0,.29-.56v-.06a2.22,2.22,0,0,0-.57-1.63,2.32,2.32,0,0,0-1.73-.59,3,3,0,0,0-2.84,1.65l-1.59-.57a3.76,3.76,0,0,1,1.14-1.55,4.24,4.24,0,0,1,1.56-.78,6.5,6.5,0,0,1,1.67-.22,7,7,0,0,1,1.21.12,3.81,3.81,0,0,1,1.33.51,2.88,2.88,0,0,1,1.07,1.16,4.31,4.31,0,0,1,.43,2.07v7.19H319v-1.48h-.08a3.19,3.19,0,0,1-.57.76,3.36,3.36,0,0,1-1.06.69A4.07,4.07,0,0,1,315.63,378.44Zm.25-1.5a3.37,3.37,0,0,0,1.68-.39,2.73,2.73,0,0,0,1-1,2.64,2.64,0,0,0,.35-1.3V372.7a1,1,0,0,1-.47.24c-.23.06-.51.12-.82.17s-.61.1-.9.13l-.71.09a7.51,7.51,0,0,0-1.22.27,2.31,2.31,0,0,0-.91.56,1.67,1.67,0,0,0,.31,2.33A2.82,2.82,0,0,0,315.88,376.94Z"/><path class="f" d="M328.44,367.28v1.42h-5.65v-1.42Zm-4-2.61h1.68v10.39a2.08,2.08,0,0,0,.21,1.06,1,1,0,0,0,.54.47,2,2,0,0,0,.7.12,2.81,2.81,0,0,0,.45,0l.29-.06.34,1.51a3.45,3.45,0,0,1-.48.13,3.31,3.31,0,0,1-.77.07A3.24,3.24,0,0,1,326,378a2.65,2.65,0,0,1-1.12-.93,2.6,2.6,0,0,1-.45-1.57Z"/><path class="f" d="M343.47,373.73v-6.45h1.67v10.91h-1.67v-1.85h-.12a3.49,3.49,0,0,1-1.19,1.41,3.4,3.4,0,0,1-2.05.58,3.6,3.6,0,0,1-1.81-.45,3.09,3.09,0,0,1-1.25-1.37,5,5,0,0,1-.46-2.3v-6.93h1.68v6.82a2.64,2.64,0,0,0,.67,1.9,2.27,2.27,0,0,0,1.71.71,2.92,2.92,0,0,0,1.28-.32,2.75,2.75,0,0,0,1.09-1A2.92,2.92,0,0,0,343.47,373.73Z"/><path class="f" d="M349.89,371.62v6.57h-1.68V367.28h1.62V369H350a3.22,3.22,0,0,1,1.17-1.34,3.7,3.7,0,0,1,2-.5,4,4,0,0,1,1.94.45,3.06,3.06,0,0,1,1.3,1.36,5.22,5.22,0,0,1,.46,2.31v6.93h-1.68v-6.82a2.82,2.82,0,0,0-.67-2,2.36,2.36,0,0,0-1.83-.72,2.94,2.94,0,0,0-1.43.35,2.44,2.44,0,0,0-1,1A3.33,3.33,0,0,0,349.89,371.62Z"/><path class="f" d="M364.66,367.28v1.42H359v-1.42Zm-4-2.61h1.68v10.39a2.08,2.08,0,0,0,.21,1.06,1,1,0,0,0,.54.47,2,2,0,0,0,.7.12,2.81,2.81,0,0,0,.45,0l.29-.06.34,1.51a3.45,3.45,0,0,1-.48.13,3.31,3.31,0,0,1-.77.07,3.24,3.24,0,0,1-1.39-.31,2.65,2.65,0,0,1-1.12-.93,2.6,2.6,0,0,1-.45-1.57Z"/><path class="f" d="M368,365.46a1.17,1.17,0,0,1-.84-.33,1.06,1.06,0,0,1-.35-.81,1,1,0,0,1,.35-.8,1.23,1.23,0,0,1,1.68,0,1,1,0,0,1,.35.8,1.06,1.06,0,0,1-.35.81A1.17,1.17,0,0,1,368,365.46Zm-.85,12.73V367.28h1.67v10.91Z"/><path class="f" d="M373.61,363.64v14.55h-1.68V363.64Z"/><path class="f" d="M378.35,363.64v14.55h-1.67V363.64Z"/><path class="f" d="M390.26,378.44a4.47,4.47,0,0,1-1.89-.39,3.17,3.17,0,0,1-1.34-1.14,3.24,3.24,0,0,1-.5-1.82,2.87,2.87,0,0,1,.37-1.52,2.65,2.65,0,0,1,1-.92,5,5,0,0,1,1.37-.5c.5-.11,1-.2,1.51-.27l1.61-.19a2.48,2.48,0,0,0,.91-.24.58.58,0,0,0,.29-.56v-.06a2.22,2.22,0,0,0-.57-1.63,2.32,2.32,0,0,0-1.73-.59,3,3,0,0,0-2.84,1.65l-1.59-.57a3.76,3.76,0,0,1,1.14-1.55,4.24,4.24,0,0,1,1.56-.78,6.5,6.5,0,0,1,1.67-.22,7,7,0,0,1,1.21.12,3.81,3.81,0,0,1,1.33.51,2.88,2.88,0,0,1,1.07,1.16,4.31,4.31,0,0,1,.43,2.07v7.19h-1.68v-1.48h-.08a3.19,3.19,0,0,1-.57.76,3.36,3.36,0,0,1-1.06.69A4.07,4.07,0,0,1,390.26,378.44Zm.25-1.5a3.37,3.37,0,0,0,1.68-.39,2.73,2.73,0,0,0,1-1,2.64,2.64,0,0,0,.35-1.3V372.7a1,1,0,0,1-.47.24c-.23.06-.51.12-.82.17s-.61.1-.9.13l-.71.09a7.51,7.51,0,0,0-1.22.27,2.31,2.31,0,0,0-.91.56,1.67,1.67,0,0,0,.31,2.33A2.82,2.82,0,0,0,390.51,376.94Z"/><path class="f" d="M400,363.64v14.55h-1.68V363.64Z"/><path class="f" d="M404.74,363.64v14.55h-1.67V363.64Z"/><path class="f" d="M417.87,378.42a4.59,4.59,0,0,1-4.35-2.73,7.41,7.41,0,0,1,0-5.84,4.78,4.78,0,0,1,1.72-2,4.63,4.63,0,0,1,2.58-.72,5,5,0,0,1,2.08.42,4,4,0,0,1,1.51,1.2,3.76,3.76,0,0,1,.73,1.79h-1.68a2.58,2.58,0,0,0-.85-1.33,2.53,2.53,0,0,0-1.76-.58,3,3,0,0,0-1.72.51,3.28,3.28,0,0,0-1.14,1.43,5.29,5.29,0,0,0-.41,2.15,5.65,5.65,0,0,0,.4,2.2,3.37,3.37,0,0,0,1.14,1.46,2.9,2.9,0,0,0,1.73.52,3.08,3.08,0,0,0,1.19-.23,2.54,2.54,0,0,0,.9-.65,2.6,2.6,0,0,0,.52-1h1.68a3.94,3.94,0,0,1-.7,1.73A3.83,3.83,0,0,1,420,378,4.76,4.76,0,0,1,417.87,378.42Z"/><path class="f" d="M426.28,371.62v6.57H424.6V363.64h1.68V369h.14a3.08,3.08,0,0,1,1.16-1.34,3.64,3.64,0,0,1,2.05-.5,4,4,0,0,1,1.95.44,3.08,3.08,0,0,1,1.31,1.36,5.07,5.07,0,0,1,.46,2.32v6.93h-1.67v-6.82a2.79,2.79,0,0,0-.68-2,2.39,2.39,0,0,0-1.85-.72,3.14,3.14,0,0,0-1.48.35,2.5,2.5,0,0,0-1,1A3.22,3.22,0,0,0,426.28,371.62Z"/><path class="f" d="M443.29,373.73v-6.45H445v10.91h-1.68v-1.85h-.11a3.49,3.49,0,0,1-1.19,1.41,3.4,3.4,0,0,1-2.05.58,3.64,3.64,0,0,1-1.82-.45,3.15,3.15,0,0,1-1.25-1.37,5.15,5.15,0,0,1-.45-2.3v-6.93h1.68v6.82a2.64,2.64,0,0,0,.67,1.9,2.25,2.25,0,0,0,1.71.71,3,3,0,0,0,1.28-.32,2.82,2.82,0,0,0,1.09-1A2.92,2.92,0,0,0,443.29,373.73Z"/><path class="f" d="M449.71,371.62v6.57H448V367.28h1.62V369h.14a3.2,3.2,0,0,1,1.16-1.34,3.76,3.76,0,0,1,2-.5,4,4,0,0,1,1.94.45,3,3,0,0,1,1.29,1.36,5.08,5.08,0,0,1,.47,2.31v6.93H455v-6.82a2.82,2.82,0,0,0-.67-2,2.36,2.36,0,0,0-1.83-.72,2.91,2.91,0,0,0-1.43.35,2.44,2.44,0,0,0-1,1A3.33,3.33,0,0,0,449.71,371.62Z"/><path class="f" d="M459.74,378.19V363.64h1.68v14.55Zm1.57-4,0-2.07h.34l4.77-4.86h2.08l-5.09,5.14h-.14Zm5.37,4-4.27-5.4,1.2-1.17,5.2,6.57Z"/><path class="f" d="M478.35,369.72l-1.5.43a3.25,3.25,0,0,0-.42-.74,2.1,2.1,0,0,0-.74-.59,2.61,2.61,0,0,0-1.2-.24,2.91,2.91,0,0,0-1.67.46,1.38,1.38,0,0,0-.66,1.16,1.2,1.2,0,0,0,.45,1,4.06,4.06,0,0,0,1.42.61l1.62.39a4.47,4.47,0,0,1,2.18,1.09,2.54,2.54,0,0,1,.72,1.87,2.76,2.76,0,0,1-.54,1.67,3.53,3.53,0,0,1-1.49,1.17,5.51,5.51,0,0,1-2.23.43,4.9,4.9,0,0,1-2.76-.73,3.2,3.2,0,0,1-1.39-2.12l1.59-.39a2.25,2.25,0,0,0,.86,1.32,2.92,2.92,0,0,0,1.67.44,3.13,3.13,0,0,0,1.86-.5,1.46,1.46,0,0,0,.7-1.21,1.29,1.29,0,0,0-.4-1,2.57,2.57,0,0,0-1.22-.58l-1.82-.43a4.26,4.26,0,0,1-2.2-1.1,2.64,2.64,0,0,1-.7-1.88,2.71,2.71,0,0,1,.52-1.63,3.5,3.5,0,0,1,1.43-1.12,5,5,0,0,1,2.06-.4,4,4,0,0,1,2.54.71A3.83,3.83,0,0,1,478.35,369.72Z"/><path class="f" d="M489.91,378.44a4.45,4.45,0,0,1-1.88-.39,3.17,3.17,0,0,1-1.34-1.14,3.24,3.24,0,0,1-.5-1.82,2.87,2.87,0,0,1,.37-1.52,2.65,2.65,0,0,1,1-.92,5,5,0,0,1,1.37-.5c.5-.11,1-.2,1.51-.27l1.61-.19a2.48,2.48,0,0,0,.91-.24.58.58,0,0,0,.29-.56v-.06a2.22,2.22,0,0,0-.57-1.63,2.32,2.32,0,0,0-1.73-.59,2.93,2.93,0,0,0-2.84,1.65l-1.6-.57a3.87,3.87,0,0,1,1.15-1.55,4.24,4.24,0,0,1,1.56-.78,6.44,6.44,0,0,1,1.67-.22,7.14,7.14,0,0,1,1.21.12,3.81,3.81,0,0,1,1.33.51,3,3,0,0,1,1.07,1.16,4.32,4.32,0,0,1,.42,2.07v7.19h-1.67v-1.48h-.09a2.73,2.73,0,0,1-.57.76,3.19,3.19,0,0,1-1.05.69A4.09,4.09,0,0,1,489.91,378.44Zm.26-1.5a3.37,3.37,0,0,0,1.68-.39,2.73,2.73,0,0,0,1-1,2.64,2.64,0,0,0,.35-1.3V372.7a1,1,0,0,1-.47.24c-.24.06-.51.12-.82.17s-.61.1-.9.13l-.71.09a7.28,7.28,0,0,0-1.22.27,2.31,2.31,0,0,0-.91.56,1.67,1.67,0,0,0,.31,2.33A2.82,2.82,0,0,0,490.17,376.94Z"/><path class="f" d="M498,378.19V367.28h1.62v1.65h.11a2.66,2.66,0,0,1,1.08-1.32,3.26,3.26,0,0,1,1.77-.5H503l.42,0v1.7l-.39-.07a4.31,4.31,0,0,0-.64,0,2.94,2.94,0,0,0-1.41.33,2.46,2.46,0,0,0-1,.91,2.41,2.41,0,0,0-.36,1.31v6.91Z"/><path class="f" d="M509.66,378.42a5.08,5.08,0,0,1-2.72-.71,4.52,4.52,0,0,1-1.75-2,6.55,6.55,0,0,1-.62-2.93,6.75,6.75,0,0,1,.62-3,4.81,4.81,0,0,1,1.72-2,4.59,4.59,0,0,1,2.58-.72,5.11,5.11,0,0,1,1.68.28,4.24,4.24,0,0,1,1.51.92,4.34,4.34,0,0,1,1.09,1.68,7.15,7.15,0,0,1,.4,2.57v.71h-8.4v-1.45h6.7a3.58,3.58,0,0,0-.37-1.65,2.84,2.84,0,0,0-1-1.14,2.94,2.94,0,0,0-1.58-.42,3,3,0,0,0-1.73.5,3.16,3.16,0,0,0-1.12,1.28,3.75,3.75,0,0,0-.39,1.69v1a4.63,4.63,0,0,0,.43,2.1,2.89,2.89,0,0,0,1.2,1.29,3.77,3.77,0,0,0,3,.26,2.34,2.34,0,0,0,.93-.57,2.49,2.49,0,0,0,.6-.95l1.62.46a3.43,3.43,0,0,1-.86,1.44,4,4,0,0,1-1.49,1A5.43,5.43,0,0,1,509.66,378.42Z"/><path class="f" d="M523.21,365.46a1.17,1.17,0,0,1-.84-.33,1.06,1.06,0,0,1-.35-.81,1,1,0,0,1,.35-.8,1.23,1.23,0,0,1,1.68,0,1.08,1.08,0,0,1,.35.8,1.1,1.1,0,0,1-.35.81A1.17,1.17,0,0,1,523.21,365.46Zm-.85,12.73V367.28H524v10.91Z"/><path class="f" d="M528.78,371.62v6.57H527.1V367.28h1.62V369h.14a3.22,3.22,0,0,1,1.17-1.34,3.7,3.7,0,0,1,2-.5,4,4,0,0,1,1.94.45,3.06,3.06,0,0,1,1.3,1.36,5.22,5.22,0,0,1,.46,2.31v6.93h-1.68v-6.82a2.82,2.82,0,0,0-.67-2,2.36,2.36,0,0,0-1.83-.72,2.94,2.94,0,0,0-1.43.35,2.44,2.44,0,0,0-1,1A3.33,3.33,0,0,0,528.78,371.62Z"/><path class="f" d="M345.44,402.19V387.64h1.68V393h.14c.12-.19.29-.43.51-.73a3,3,0,0,1,1-.79,3.33,3.33,0,0,1,1.68-.35,4.32,4.32,0,0,1,2.43.69,4.52,4.52,0,0,1,1.64,1.95,7.87,7.87,0,0,1,0,6,4.6,4.6,0,0,1-1.63,2,4.29,4.29,0,0,1-2.41.7,3.38,3.38,0,0,1-1.68-.36,2.93,2.93,0,0,1-1-.8,8.64,8.64,0,0,1-.53-.75h-.2v1.68Zm1.65-5.46a6.07,6.07,0,0,0,.36,2.18,3.19,3.19,0,0,0,1.06,1.47,2.74,2.74,0,0,0,1.7.53,2.77,2.77,0,0,0,1.76-.56,3.41,3.41,0,0,0,1.07-1.5,6,6,0,0,0,.36-2.12,5.65,5.65,0,0,0-.36-2.07,3.2,3.2,0,0,0-1.05-1.47,2.82,2.82,0,0,0-1.78-.55,2.74,2.74,0,0,0-1.71.52,3.12,3.12,0,0,0-1.06,1.43A6.12,6.12,0,0,0,347.09,396.73Z"/><path class="f" d="M359.3,387.64v14.55h-1.67V387.64Z"/><path class="f" d="M366.8,402.42a4.65,4.65,0,0,1-4.32-2.68,6.64,6.64,0,0,1-.62-2.95,6.78,6.78,0,0,1,.62-3,4.77,4.77,0,0,1,1.74-2,5.12,5.12,0,0,1,5.17,0,4.84,4.84,0,0,1,1.74,2,6.78,6.78,0,0,1,.62,3,6.64,6.64,0,0,1-.62,2.95,4.78,4.78,0,0,1-1.74,2A4.72,4.72,0,0,1,366.8,402.42Zm0-1.51a2.84,2.84,0,0,0,1.85-.58,3.34,3.34,0,0,0,1.07-1.51,5.59,5.59,0,0,0,.35-2,5.68,5.68,0,0,0-.35-2,3.46,3.46,0,0,0-1.07-1.53,3.22,3.22,0,0,0-3.69,0,3.46,3.46,0,0,0-1.07,1.53,5.68,5.68,0,0,0-.35,2,5.59,5.59,0,0,0,.35,2,3.34,3.34,0,0,0,1.07,1.51A2.83,2.83,0,0,0,366.8,400.91Z"/><path class="f" d="M378.74,402.42a4.56,4.56,0,0,1-4.35-2.73,7.29,7.29,0,0,1,0-5.84,4.78,4.78,0,0,1,1.72-2,4.59,4.59,0,0,1,2.58-.72,4.94,4.94,0,0,1,2.07.42,3.9,3.9,0,0,1,1.51,1.2,3.68,3.68,0,0,1,.74,1.79h-1.68a2.65,2.65,0,0,0-.85-1.33,2.56,2.56,0,0,0-1.76-.58,2.93,2.93,0,0,0-1.72.51,3.28,3.28,0,0,0-1.14,1.43,5.29,5.29,0,0,0-.41,2.15,5.47,5.47,0,0,0,.4,2.2,3.37,3.37,0,0,0,1.14,1.46,2.88,2.88,0,0,0,1.73.52,3,3,0,0,0,1.18-.23,2.37,2.37,0,0,0,.9-.65,2.49,2.49,0,0,0,.53-1H383a3.86,3.86,0,0,1-2.17,2.95A4.76,4.76,0,0,1,378.74,402.42Z"/><path class="f" d="M385.47,402.19V387.64h1.67v14.55Zm1.56-4,0-2.07h.34l4.78-4.86h2.07l-5.08,5.14H389Zm5.37,4-4.26-5.4,1.19-1.17,5.2,6.57Z"/><path class="f" d="M400.33,402.42a4.56,4.56,0,0,1-4.35-2.73,7.29,7.29,0,0,1,0-5.84,4.78,4.78,0,0,1,1.72-2,4.59,4.59,0,0,1,2.58-.72,4.94,4.94,0,0,1,2.07.42,3.9,3.9,0,0,1,1.51,1.2,3.68,3.68,0,0,1,.74,1.79h-1.68a2.65,2.65,0,0,0-.85-1.33,2.56,2.56,0,0,0-1.76-.58,2.93,2.93,0,0,0-1.72.51,3.28,3.28,0,0,0-1.14,1.43,5.29,5.29,0,0,0-.41,2.15,5.47,5.47,0,0,0,.4,2.2,3.37,3.37,0,0,0,1.14,1.46,2.88,2.88,0,0,0,1.73.52,3,3,0,0,0,1.18-.23,2.37,2.37,0,0,0,.9-.65,2.49,2.49,0,0,0,.53-1h1.68a3.94,3.94,0,0,1-.7,1.73,4,4,0,0,1-1.47,1.22A4.76,4.76,0,0,1,400.33,402.42Z"/><path class="f" d="M408.74,395.62v6.57h-1.68V387.64h1.68V393h.14a3.06,3.06,0,0,1,1.15-1.34,3.7,3.7,0,0,1,2.06-.5,4.06,4.06,0,0,1,2,.44,3.06,3.06,0,0,1,1.3,1.36,5.06,5.06,0,0,1,.47,2.32v6.93h-1.68v-6.82a2.79,2.79,0,0,0-.67-2,2.41,2.41,0,0,0-1.86-.72,3.1,3.1,0,0,0-1.47.35,2.5,2.5,0,0,0-1,1A3.22,3.22,0,0,0,408.74,395.62Z"/><path class="f" d="M422.09,402.44a4.42,4.42,0,0,1-1.88-.39,3.2,3.2,0,0,1-1.35-1.14,3.24,3.24,0,0,1-.49-1.82,2.78,2.78,0,0,1,.37-1.52,2.55,2.55,0,0,1,1-.92,5,5,0,0,1,1.37-.5c.5-.11,1-.2,1.51-.27l1.61-.19a2.48,2.48,0,0,0,.91-.24.56.56,0,0,0,.29-.56v-.06a2.22,2.22,0,0,0-.57-1.63,2.32,2.32,0,0,0-1.73-.59,3,3,0,0,0-2.84,1.65l-1.59-.57a3.76,3.76,0,0,1,1.14-1.55,4.32,4.32,0,0,1,1.56-.78,6.5,6.5,0,0,1,1.67-.22,7,7,0,0,1,1.21.12,3.81,3.81,0,0,1,1.33.51,2.88,2.88,0,0,1,1.07,1.16,4.19,4.19,0,0,1,.43,2.07v7.19h-1.68v-1.48h-.08a3.19,3.19,0,0,1-.57.76,3.36,3.36,0,0,1-1.06.69A4.07,4.07,0,0,1,422.09,402.44Zm.25-1.5a3.31,3.31,0,0,0,1.68-.39,2.63,2.63,0,0,0,1.39-2.31V396.7a.91.91,0,0,1-.46.24c-.24.06-.52.12-.83.17s-.61.1-.9.13l-.71.09a7.16,7.16,0,0,0-1.21.27,2.24,2.24,0,0,0-.91.56,1.45,1.45,0,0,0-.35,1,1.48,1.48,0,0,0,.65,1.31A2.86,2.86,0,0,0,422.34,400.94Z"/><path class="f" d="M431,389.46a1.17,1.17,0,0,1-.84-.33,1.06,1.06,0,0,1-.35-.81,1,1,0,0,1,.35-.8,1.17,1.17,0,0,1,.84-.33,1.19,1.19,0,0,1,.84.33,1.08,1.08,0,0,1,.35.8,1.1,1.1,0,0,1-.35.81A1.19,1.19,0,0,1,431,389.46Zm-.85,12.73V391.28h1.67v10.91Z"/><path class="f" d="M436.58,395.62v6.57H434.9V391.28h1.62V393h.14a3.22,3.22,0,0,1,1.17-1.34,3.7,3.7,0,0,1,2-.5,4,4,0,0,1,1.94.45,3.06,3.06,0,0,1,1.3,1.36,5.22,5.22,0,0,1,.46,2.31v6.93h-1.68v-6.82a2.82,2.82,0,0,0-.67-2,2.36,2.36,0,0,0-1.83-.72,2.94,2.94,0,0,0-1.43.35,2.44,2.44,0,0,0-1,1A3.33,3.33,0,0,0,436.58,395.62Z"/></svg>