<svg xmlns="http://www.w3.org/2000/svg" viewBox="0 0 800 500"><defs><style>.a,.e{fill:#39b54a;}.b{font-size:21.01px;}.b,.d{fill:#fff;}.b,.e{font-family:Roboto-Bold, Roboto;font-weight:700;}.c{fill:#009444;}.e{font-size:14.01px;}.f{letter-spacing:-0.01em;}.g{fill:none;stroke:#39b54a;stroke-miterlimit:10;stroke-width:2px;}.h{letter-spacing:-0.01em;}.i{letter-spacing:-0.01em;}.j{letter-spacing:-0.08em;}</style></defs><rect class="a" x="31.42" y="8.88" width="132.63" height="164.85" rx="8"/><text class="b" transform="translate(58.97 64.78)">Chunk 1</text><rect class="c" x="137.58" y="72.75" width="132.63" height="164.85" rx="8"/><rect class="a" x="141.08" y="76.65" width="132.63" height="164.85" rx="8"/><rect class="d" x="150.53" y="174.79" width="113.73" height="57.7" rx="4"/><text class="b" transform="translate(168.63 132.54)">Chunk 2</text><text class="e" transform="translate(181.55 199.33)">Chunk 1<tspan x="-18.1" y="16.81">t</tspan><tspan class="f" x="-13.37" y="16.81">r</tspan><tspan x="-8.46" y="16.81">ansaction ID</tspan></text><rect class="c" x="247.7" y="137.35" width="132.63" height="164.85" rx="8"/><rect class="a" x="250.74" y="140.62" width="132.63" height="164.85" rx="8"/><rect class="d" x="260.19" y="238.76" width="113.73" height="57.7" rx="4"/><text class="b" transform="translate(278.29 196.52)">Chunk 3</text><text class="e" transform="translate(291.21 263.3)">Chunk 2<tspan x="-18.1" y="16.81">t</tspan><tspan class="f" x="-13.37" y="16.81">r</tspan><tspan x="-8.46" y="16.81">ansaction ID</tspan></text><path class="a" d="M100.07,220.14v-2.33h2.33a5.84,5.84,0,0,0,0-11.67h-2.38V203.8h2.34a8.17,8.17,0,1,1,0,16.34h-2.34Zm-4.66,0H93.07a8.17,8.17,0,0,1,0-16.34h2.34v2.34H93.07a5.84,5.84,0,1,0,0,11.67h2.39v2.33Zm8.17-9.34v2.34H91.91V210.8h11.67Z"/><line class="g" x1="97.74" y1="180.35" x2="97.74" y2="196.79"/><line class="g" x1="134.05" y1="211.83" x2="117.61" y2="211.83"/><path class="a" d="M205.71,289.87v-2.34h2.34a5.84,5.84,0,0,0,0-11.67h-2.39v-2.33h2.34a8.17,8.17,0,0,1,0,16.34h-2.34Zm-4.66,0h-2.34a8.17,8.17,0,1,1,0-16.34h2.34v2.33h-2.33a5.84,5.84,0,0,0-.05,11.68H201v2.33Zm8.16-9.34v2.34H197.54v-2.34Z"/><line class="g" x1="203.38" y1="250.07" x2="203.38" y2="266.52"/><line class="g" x1="239.69" y1="281.56" x2="223.25" y2="281.56"/><line class="g" x1="317.37" y1="319.67" x2="317.37" y2="336.11"/><rect class="a" x="311.9" y="341.17" width="10.92" height="10.92" rx="2"/><rect class="a" x="311.9" y="359.53" width="10.92" height="10.92" rx="2"/><rect class="a" x="311.9" y="377.9" width="10.92" height="10.92" rx="2"/><path class="a" d="M319.7,418V415.7H322a5.84,5.84,0,0,0,0-11.67H319.7v-2.34H322A8.17,8.17,0,0,1,322,418H319.7ZM315,418H312.7a8.17,8.17,0,0,1,0-16.34H315V404H312.7a5.84,5.84,0,1,0-.05,11.67H315V418Zm8.17-9.34V411H311.53V408.7Z"/><line class="g" x1="357.64" y1="409.86" x2="341.2" y2="409.86"/><rect class="a" x="373.92" y="326.27" width="132.63" height="164.85" rx="8"/><rect class="d" x="383.37" y="424.42" width="113.73" height="57.7" rx="4"/><text class="b" transform="translate(417.39 374.59)">Final<tspan x="-5.89" y="25.21">chunk</tspan></text><text class="e" transform="translate(403.59 448.96)">P<tspan class="h" x="9.03" y="0">r</tspan><tspan class="i" x="14.01" y="0">e</tspan><tspan class="j" x="21.49" y="0">v</tspan><tspan x="27.43" y="0">. chunk</tspan><tspan x="-7.3" y="16.81">t</tspan><tspan class="f" x="-2.57" y="16.81">r</tspan><tspan x="2.34" y="16.81">ansaction ID</tspan></text><path class="a" d="M574.61,410.16l-8.79-8.79a1.23,1.23,0,0,0-2.11.87V407a1.23,1.23,0,0,1-1.23,1.23H541a1.24,1.24,0,0,0-1.24,1.24v3.19a1.24,1.24,0,0,0,1.24,1.23h21.5a1.23,1.23,0,0,1,1.23,1.24v4.73a1.24,1.24,0,0,0,2.11.87l8.79-8.8A1.23,1.23,0,0,0,574.61,410.16Z"/><rect class="g" x="608.29" y="300.2" width="160.29" height="187.26" rx="8"/><path class="c" d="M638.16,365.1V351.42H647v2.39h-6v3.25h5.44v2.39H641v5.65Z"/><path class="c" d="M650.25,353.52a1.5,1.5,0,0,1-1.06-.42,1.33,1.33,0,0,1-.44-1,1.36,1.36,0,0,1,.44-1,1.5,1.5,0,0,1,1.06-.42,1.46,1.46,0,0,1,1.06.42,1.39,1.39,0,0,1,0,2A1.43,1.43,0,0,1,650.25,353.52Zm-1.4,11.58V354.84h2.78V365.1Z"/><path class="c" d="M656.63,359.17v5.93h-2.78V354.84h2.65v1.81h.11a2.87,2.87,0,0,1,1.12-1.42,3.31,3.31,0,0,1,1.9-.52,3.49,3.49,0,0,1,1.82.46,3.19,3.19,0,0,1,1.2,1.34,4.51,4.51,0,0,1,.43,2.06v6.53h-2.77v-6a2.18,2.18,0,0,0-.47-1.47,1.7,1.7,0,0,0-1.32-.53,1.86,1.86,0,0,0-1,.25,1.62,1.62,0,0,0-.67.72A2.45,2.45,0,0,0,656.63,359.17Z"/><path class="c" d="M668.13,365.29a4,4,0,0,1-1.71-.34,2.71,2.71,0,0,1-1.19-1,3.05,3.05,0,0,1-.43-1.69,2.94,2.94,0,0,1,.31-1.43,2.52,2.52,0,0,1,.83-.94,4.09,4.09,0,0,1,1.2-.53,9.15,9.15,0,0,1,1.42-.26c.59-.06,1.06-.12,1.41-.17a2,2,0,0,0,.78-.25.57.57,0,0,0,.24-.5v0a1.24,1.24,0,0,0-.39-1,1.6,1.6,0,0,0-1.1-.35,1.93,1.93,0,0,0-1.19.34,1.61,1.61,0,0,0-.59.85l-2.57-.22a3.56,3.56,0,0,1,2.26-2.67,5.48,5.48,0,0,1,2.11-.37,6,6,0,0,1,1.6.2,4.12,4.12,0,0,1,1.36.62,3,3,0,0,1,.94,1.08,3.31,3.31,0,0,1,.35,1.57v6.92h-2.64v-1.43h-.07a2.87,2.87,0,0,1-.65.85,3,3,0,0,1-1,.57A4.05,4.05,0,0,1,668.13,365.29Zm.79-2a2.33,2.33,0,0,0,1.08-.25,2,2,0,0,0,.74-.68,1.79,1.79,0,0,0,.27-1v-1.09a1.54,1.54,0,0,1-.36.16,5.16,5.16,0,0,1-.5.13l-.56.1-.51.07a3.36,3.36,0,0,0-.86.24,1.3,1.3,0,0,0-.56.43,1.05,1.05,0,0,0-.21.67,1,1,0,0,0,.42.88A1.68,1.68,0,0,0,668.92,363.33Z"/><path class="c" d="M678.71,351.42V365.1h-2.78V351.42Z"/><path class="c" d="M689.71,365.3a5,5,0,0,1-2.64-.67,4.4,4.4,0,0,1-1.7-1.87,6.18,6.18,0,0,1-.59-2.75,6.11,6.11,0,0,1,.6-2.77,4.43,4.43,0,0,1,1.7-1.86,4.89,4.89,0,0,1,2.62-.67,5.15,5.15,0,0,1,2.29.48,3.93,3.93,0,0,1,1.56,1.37,4,4,0,0,1,.64,2.07h-2.63a2.15,2.15,0,0,0-.58-1.24,1.69,1.69,0,0,0-1.24-.47,1.81,1.81,0,0,0-1.12.36,2.36,2.36,0,0,0-.75,1,4.45,4.45,0,0,0-.27,1.65,4.6,4.6,0,0,0,.27,1.67,2.19,2.19,0,0,0,.75,1.05,1.81,1.81,0,0,0,1.12.36,1.85,1.85,0,0,0,.86-.2,1.62,1.62,0,0,0,.63-.59,2.14,2.14,0,0,0,.33-.92h2.63a4.34,4.34,0,0,1-.63,2.06,3.84,3.84,0,0,1-1.53,1.4A5.09,5.09,0,0,1,689.71,365.3Z"/><path class="c" d="M698.75,359.17v5.93H696V351.42h2.7v5.23h.12a2.92,2.92,0,0,1,1.1-1.43,3.3,3.3,0,0,1,1.9-.51,3.49,3.49,0,0,1,1.82.46,3.13,3.13,0,0,1,1.21,1.33,4.58,4.58,0,0,1,.43,2.07v6.53h-2.78v-6a2.1,2.1,0,0,0-.47-1.47,1.67,1.67,0,0,0-1.32-.53,1.93,1.93,0,0,0-1,.25,1.69,1.69,0,0,0-.68.72A2.58,2.58,0,0,0,698.75,359.17Z"/><path class="c" d="M713.87,360.73v-5.89h2.78V365.1H714v-1.87h-.11a3,3,0,0,1-1.12,1.45,3.58,3.58,0,0,1-3.68.08,3.09,3.09,0,0,1-1.19-1.33,4.64,4.64,0,0,1-.44-2.06v-6.53h2.78v6a2.05,2.05,0,0,0,.48,1.44,1.6,1.6,0,0,0,1.26.53,1.9,1.9,0,0,0,.93-.24,1.73,1.73,0,0,0,.71-.71A2.25,2.25,0,0,0,713.87,360.73Z"/><path class="c" d="M721.64,359.17v5.93h-2.78V354.84h2.65v1.81h.12a2.85,2.85,0,0,1,1.11-1.42,3.36,3.36,0,0,1,1.9-.52,3.47,3.47,0,0,1,1.82.46,3.21,3.21,0,0,1,1.21,1.34,4.51,4.51,0,0,1,.43,2.06v6.53h-2.78v-6a2.08,2.08,0,0,0-.47-1.47,1.68,1.68,0,0,0-1.31-.53,1.92,1.92,0,0,0-1,.25,1.6,1.6,0,0,0-.66.72A2.58,2.58,0,0,0,721.64,359.17Z"/><path class="c" d="M730.29,365.1V351.42h2.77V365.1Zm2.51-3v-3.42h.4l3.21-3.89h3.19L735.3,360h-.66Zm3.75,3-2.95-4.47,1.85-2,4.35,6.48Z"/><path class="c" d="M632,377.4v2.14h-6V377.4ZM627.3,375h2.78v9.56a1.29,1.29,0,0,0,.12.61.59.59,0,0,0,.32.3,1.31,1.31,0,0,0,.5.09,1.72,1.72,0,0,0,.39,0l.3-.05.44,2.11c-.14.05-.34.1-.59.16a4.54,4.54,0,0,1-.92.11,4.06,4.06,0,0,1-1.76-.27,2.5,2.5,0,0,1-1.17-1,3,3,0,0,1-.41-1.67Z"/><path class="c" d="M633.77,387.66V377.4h2.69v1.79h.11a2.68,2.68,0,0,1,.92-1.44,2.38,2.38,0,0,1,1.49-.49l.45,0a3.51,3.51,0,0,1,.42.08v2.52a5,5,0,0,0-.54-.11,4.84,4.84,0,0,0-.63,0,2.21,2.21,0,0,0-1.1.27,1.93,1.93,0,0,0-.75.75,2.13,2.13,0,0,0-.28,1.11v5.8Z"/><path class="c" d="M643.85,387.85a4,4,0,0,1-1.7-.34,2.75,2.75,0,0,1-1.19-1,3.08,3.08,0,0,1-.43-1.69,3.13,3.13,0,0,1,.3-1.44,2.63,2.63,0,0,1,.84-.94,4.09,4.09,0,0,1,1.2-.53,9.15,9.15,0,0,1,1.42-.25c.59-.06,1.05-.12,1.41-.18a1.87,1.87,0,0,0,.78-.25.56.56,0,0,0,.24-.49v0a1.27,1.27,0,0,0-.39-1,1.59,1.59,0,0,0-1.1-.34,1.93,1.93,0,0,0-1.19.33,1.61,1.61,0,0,0-.59.85l-2.57-.21a3.59,3.59,0,0,1,.77-1.62,3.75,3.75,0,0,1,1.48-1.06,5.52,5.52,0,0,1,2.11-.37,6.57,6.57,0,0,1,1.61.2,4.12,4.12,0,0,1,1.36.62,3,3,0,0,1,.94,1.08,3.34,3.34,0,0,1,.35,1.57v6.92h-2.64v-1.42h-.08a2.76,2.76,0,0,1-.64.84,2.93,2.93,0,0,1-1,.57A3.82,3.82,0,0,1,643.85,387.85Zm.8-2a2.21,2.21,0,0,0,1.08-.25,1.87,1.87,0,0,0,.74-.68,1.77,1.77,0,0,0,.27-1v-1.08a1.56,1.56,0,0,1-.36.15,5.16,5.16,0,0,1-.5.13l-.56.1-.51.08a3.37,3.37,0,0,0-.86.23,1.48,1.48,0,0,0-.57.43,1.13,1.13,0,0,0-.2.67,1,1,0,0,0,.42.89A1.72,1.72,0,0,0,644.65,385.89Z"/><path class="c" d="M654.43,381.73v5.93h-2.77V377.4h2.64v1.81h.12a2.91,2.91,0,0,1,1.12-1.42,3.39,3.39,0,0,1,1.9-.52,3.44,3.44,0,0,1,1.81.47,3.13,3.13,0,0,1,1.21,1.33,4.54,4.54,0,0,1,.43,2.06v6.53h-2.78v-6a2,2,0,0,0-.47-1.47,1.64,1.64,0,0,0-1.31-.54,2,2,0,0,0-1,.25,1.77,1.77,0,0,0-.66.72A2.58,2.58,0,0,0,654.43,381.73Z"/><path class="c" d="M671.41,380.33l-2.54.16a1.42,1.42,0,0,0-.28-.61,1.53,1.53,0,0,0-.56-.43,2,2,0,0,0-.84-.16,2.07,2.07,0,0,0-1.09.27.86.86,0,0,0-.44.74.8.8,0,0,0,.29.62,2.21,2.21,0,0,0,1,.41l1.82.37a4.48,4.48,0,0,1,2.17,1,2.36,2.36,0,0,1,.72,1.79,2.88,2.88,0,0,1-.57,1.77,3.92,3.92,0,0,1-1.58,1.19,6,6,0,0,1-2.31.42A5.29,5.29,0,0,1,664,387a3.34,3.34,0,0,1-1.38-2.32l2.74-.15a1.42,1.42,0,0,0,.6.95,2.17,2.17,0,0,0,1.22.32,2.19,2.19,0,0,0,1.18-.29.9.9,0,0,0,.45-.75.82.82,0,0,0-.32-.64,2.27,2.27,0,0,0-1-.38l-1.73-.36a4,4,0,0,1-2.18-1,2.59,2.59,0,0,1-.72-1.89,2.8,2.8,0,0,1,.53-1.7,3.3,3.3,0,0,1,1.48-1.1,5.86,5.86,0,0,1,2.24-.39,4.87,4.87,0,0,1,3,.82A3.17,3.17,0,0,1,671.41,380.33Z"/><path class="c" d="M676.25,387.85a4,4,0,0,1-1.7-.34,2.75,2.75,0,0,1-1.19-1,3.08,3.08,0,0,1-.43-1.69,3,3,0,0,1,.31-1.44,2.52,2.52,0,0,1,.83-.94,4.09,4.09,0,0,1,1.2-.53,9.15,9.15,0,0,1,1.42-.25c.59-.06,1-.12,1.41-.18a1.87,1.87,0,0,0,.78-.25.56.56,0,0,0,.24-.49v0a1.27,1.27,0,0,0-.39-1,1.59,1.59,0,0,0-1.1-.34,1.93,1.93,0,0,0-1.19.33,1.61,1.61,0,0,0-.59.85l-2.57-.21a3.59,3.59,0,0,1,.77-1.62,3.75,3.75,0,0,1,1.48-1.06,5.52,5.52,0,0,1,2.11-.37,6.51,6.51,0,0,1,1.61.2,4.12,4.12,0,0,1,1.36.62,3,3,0,0,1,.94,1.08,3.34,3.34,0,0,1,.35,1.57v6.92h-2.64v-1.42h-.08a2.76,2.76,0,0,1-.64.84,2.93,2.93,0,0,1-1,.57A3.82,3.82,0,0,1,676.25,387.85Zm.8-2a2.21,2.21,0,0,0,1.08-.25,1.87,1.87,0,0,0,.74-.68,1.77,1.77,0,0,0,.27-1v-1.08a1.56,1.56,0,0,1-.36.15,5.16,5.16,0,0,1-.5.13l-.56.1-.51.08a3.37,3.37,0,0,0-.86.23,1.38,1.38,0,0,0-.56.43,1.07,1.07,0,0,0-.21.67,1,1,0,0,0,.42.89A1.72,1.72,0,0,0,677.05,385.89Z"/><path class="c" d="M688.58,387.86a5,5,0,0,1-2.64-.67,4.46,4.46,0,0,1-1.7-1.87,6.7,6.7,0,0,1,0-5.52,4.5,4.5,0,0,1,1.7-1.86,4.91,4.91,0,0,1,2.62-.67,5.09,5.09,0,0,1,2.3.49,3.91,3.91,0,0,1,1.56,1.37,4.08,4.08,0,0,1,.63,2.07h-2.62a2.1,2.1,0,0,0-.59-1.24,1.64,1.64,0,0,0-1.23-.47,1.9,1.9,0,0,0-1.13.35,2.36,2.36,0,0,0-.75,1,4.76,4.76,0,0,0-.26,1.65,4.58,4.58,0,0,0,.26,1.67,2.33,2.33,0,0,0,.75,1.05,1.93,1.93,0,0,0,2,.16,1.69,1.69,0,0,0,.64-.58,2.56,2.56,0,0,0,.33-.93h2.62a4.41,4.41,0,0,1-.62,2.07,3.91,3.91,0,0,1-1.54,1.39A5.09,5.09,0,0,1,688.58,387.86Z"/><path class="c" d="M700.17,377.4v2.14h-6V377.4ZM695.51,375h2.78v9.56a1.29,1.29,0,0,0,.12.61.6.6,0,0,0,.33.3,1.22,1.22,0,0,0,.49.09,1.72,1.72,0,0,0,.39,0l.3-.05.44,2.11c-.14.05-.34.1-.59.16a4.54,4.54,0,0,1-.92.11,4.06,4.06,0,0,1-1.76-.27,2.5,2.5,0,0,1-1.17-1,3.06,3.06,0,0,1-.41-1.67Z"/><path class="c" d="M703.38,376.08a1.5,1.5,0,0,1-1.06-.42,1.39,1.39,0,0,1,0-2,1.51,1.51,0,0,1,1.06-.43,1.46,1.46,0,0,1,1.06.42,1.35,1.35,0,0,1,.44,1,1.33,1.33,0,0,1-.44,1A1.46,1.46,0,0,1,703.38,376.08ZM702,387.66V377.4h2.78v10.26Z"/><path class="c" d="M711.5,387.86a5,5,0,0,1-2.62-.66,4.52,4.52,0,0,1-1.71-1.86,6.72,6.72,0,0,1,0-5.55,4.52,4.52,0,0,1,1.71-1.86,5.55,5.55,0,0,1,5.25,0,4.52,4.52,0,0,1,1.71,1.86,6.72,6.72,0,0,1,0,5.55,4.52,4.52,0,0,1-1.71,1.86A5,5,0,0,1,711.5,387.86Zm0-2.2a1.69,1.69,0,0,0,1.15-.41,2.46,2.46,0,0,0,.7-1.1,4.94,4.94,0,0,0,.24-1.6,4.87,4.87,0,0,0-.24-1.59,2.5,2.5,0,0,0-.7-1.11,1.69,1.69,0,0,0-1.15-.41,1.72,1.72,0,0,0-1.17.41,2.35,2.35,0,0,0-.71,1.11,4.87,4.87,0,0,0-.24,1.59,4.94,4.94,0,0,0,.24,1.6,2.32,2.32,0,0,0,.71,1.1A1.72,1.72,0,0,0,711.52,385.66Z"/><path class="c" d="M721,381.73v5.93h-2.78V377.4h2.65v1.81H721a2.89,2.89,0,0,1,1.11-1.42,3.42,3.42,0,0,1,1.9-.52,3.47,3.47,0,0,1,1.82.47,3.13,3.13,0,0,1,1.21,1.33,4.67,4.67,0,0,1,.43,2.06v6.53h-2.78v-6a2.1,2.1,0,0,0-.47-1.47,1.67,1.67,0,0,0-1.31-.54,2,2,0,0,0-1,.25,1.73,1.73,0,0,0-.67.72A2.58,2.58,0,0,0,721,381.73Z"/><path class="c" d="M736.81,374v13.67H734V374Z"/><path class="c" d="M743.87,387.66h-4.73V374h4.77a7,7,0,0,1,3.47.81,5.53,5.53,0,0,1,2.24,2.35,8.9,8.9,0,0,1,0,7.33,5.46,5.46,0,0,1-2.25,2.36A7,7,0,0,1,743.87,387.66ZM742,385.18h1.8a4.54,4.54,0,0,0,2.11-.45,2.92,2.92,0,0,0,1.29-1.43,7.4,7.4,0,0,0,0-5,2.87,2.87,0,0,0-1.29-1.41,4.36,4.36,0,0,0-2.11-.46H742Z"/><path class="c" d="M683.28,398.65a1.51,1.51,0,0,1-1.06-.43,1.31,1.31,0,0,1-.44-1,1.33,1.33,0,0,1,.44-1,1.5,1.5,0,0,1,1.06-.42,1.48,1.48,0,0,1,1.06.42,1.39,1.39,0,0,1,0,2A1.47,1.47,0,0,1,683.28,398.65Zm-1.4,11.57V400h2.78v10.25Z"/><path class="c" d="M695.21,402.89l-2.54.16a1.38,1.38,0,0,0-.28-.6,1.5,1.5,0,0,0-.57-.44,2.08,2.08,0,0,0-.83-.16,2,2,0,0,0-1.09.28.84.84,0,0,0-.44.74.81.81,0,0,0,.29.62,2.22,2.22,0,0,0,1,.4l1.81.38a4.3,4.3,0,0,1,2.18,1,2.34,2.34,0,0,1,.72,1.78,2.79,2.79,0,0,1-.58,1.77,3.73,3.73,0,0,1-1.57,1.19,6,6,0,0,1-2.31.42,5.29,5.29,0,0,1-3.17-.85,3.34,3.34,0,0,1-1.38-2.32l2.74-.14a1.42,1.42,0,0,0,.6.94,2.5,2.5,0,0,0,2.39,0,.89.89,0,0,0,.46-.75.82.82,0,0,0-.32-.64,2.41,2.41,0,0,0-1-.38L689.6,406a4.09,4.09,0,0,1-2.18-1,2.62,2.62,0,0,1-.72-1.89,2.83,2.83,0,0,1,.53-1.71,3.38,3.38,0,0,1,1.48-1.1,5.86,5.86,0,0,1,2.24-.39,4.87,4.87,0,0,1,3,.83A3.15,3.15,0,0,1,695.21,402.89Z"/><path class="c" d="M652.29,422.53v2.14h-6v-2.14Zm-4.67-2.46h2.78v9.57a1.29,1.29,0,0,0,.12.61.68.68,0,0,0,.33.3,1.26,1.26,0,0,0,.49.09,2.58,2.58,0,0,0,.39,0l.3-.06.44,2.12a5.61,5.61,0,0,1-.59.16,5.27,5.27,0,0,1-.92.11,4.16,4.16,0,0,1-1.75-.28,2.39,2.39,0,0,1-1.17-1,3.07,3.07,0,0,1-.42-1.67Z"/><path class="c" d="M658.52,433a5,5,0,0,1-2.63-.67,4.47,4.47,0,0,1-1.7-1.85,6.72,6.72,0,0,1,0-5.55,4.44,4.44,0,0,1,1.7-1.86,5.55,5.55,0,0,1,5.25,0,4.4,4.4,0,0,1,1.71,1.86,6.72,6.72,0,0,1,0,5.55,4.43,4.43,0,0,1-1.71,1.85A4.91,4.91,0,0,1,658.52,433Zm0-2.21a1.71,1.71,0,0,0,1.16-.4,2.61,2.61,0,0,0,.7-1.1,5.68,5.68,0,0,0,0-3.2,2.71,2.71,0,0,0-.7-1.11,1.71,1.71,0,0,0-1.16-.4,1.73,1.73,0,0,0-1.17.4,2.54,2.54,0,0,0-.71,1.11,5.45,5.45,0,0,0,0,3.2,2.45,2.45,0,0,0,.71,1.1A1.73,1.73,0,0,0,658.53,430.78Z"/><path class="c" d="M665.26,432.79V422.53H668v1.79h.1a2.6,2.6,0,0,1,.92-1.44,2.39,2.39,0,0,1,1.49-.5l.45,0a3.66,3.66,0,0,1,.42.07V425a3.35,3.35,0,0,0-.54-.11,5,5,0,0,0-.63,0,2.15,2.15,0,0,0-1.09.27,2.05,2.05,0,0,0-.76.76A2.12,2.12,0,0,0,668,427v5.81Z"/><path class="c" d="M672.77,432.79V422.53h2.69v1.79h.11a2.6,2.6,0,0,1,.92-1.44,2.39,2.39,0,0,1,1.49-.5l.45,0a3.66,3.66,0,0,1,.42.07V425a3.35,3.35,0,0,0-.54-.11,5,5,0,0,0-.63,0,2.21,2.21,0,0,0-1.1.27,2,2,0,0,0-.75.76,2.12,2.12,0,0,0-.28,1.1v5.81Z"/><path class="c" d="M684.38,433a5.19,5.19,0,0,1-2.66-.65,4.41,4.41,0,0,1-1.72-1.83,6.79,6.79,0,0,1,0-5.58,4.51,4.51,0,0,1,1.7-1.86,4.77,4.77,0,0,1,2.56-.67,5.28,5.28,0,0,1,1.85.32,4.09,4.09,0,0,1,1.5,1,4.47,4.47,0,0,1,1,1.63,6.85,6.85,0,0,1,.35,2.29v.78h-8.46v-1.77h5.85a2.21,2.21,0,0,0-.26-1.08,2,2,0,0,0-.72-.75,2.25,2.25,0,0,0-2.19,0,2.13,2.13,0,0,0-.76.79,2.4,2.4,0,0,0-.28,1.11v1.67a2.86,2.86,0,0,0,.28,1.32,2,2,0,0,0,.78.85,2.36,2.36,0,0,0,1.21.3,2.57,2.57,0,0,0,.85-.13,1.7,1.7,0,0,0,.66-.4,1.92,1.92,0,0,0,.42-.65l2.57.17a3.64,3.64,0,0,1-.8,1.65,4,4,0,0,1-1.56,1.1A5.69,5.69,0,0,1,684.38,433Z"/><path class="c" d="M693.57,426.86v5.93h-2.78V422.53h2.65v1.81h.11a2.92,2.92,0,0,1,1.12-1.42,3.31,3.31,0,0,1,1.9-.52,3.41,3.41,0,0,1,1.82.47,3.11,3.11,0,0,1,1.2,1.33,4.51,4.51,0,0,1,.43,2.06v6.53h-2.77v-6a2.18,2.18,0,0,0-.47-1.47,1.7,1.7,0,0,0-1.32-.53,1.86,1.86,0,0,0-1,.25,1.62,1.62,0,0,0-.67.72A2.45,2.45,0,0,0,693.57,426.86Z"/><path class="c" d="M707.54,422.53v2.14h-6v-2.14Zm-4.66-2.46h2.77v9.57a1.29,1.29,0,0,0,.12.61.68.68,0,0,0,.33.3,1.26,1.26,0,0,0,.49.09,2.58,2.58,0,0,0,.39,0l.3-.06.44,2.12a5.61,5.61,0,0,1-.59.16,5.27,5.27,0,0,1-.92.11,4.16,4.16,0,0,1-1.75-.28,2.39,2.39,0,0,1-1.17-1,3,3,0,0,1-.41-1.67Z"/><path class="c" d="M716.48,419.11v13.68h-2.82V419.11Z"/><path class="c" d="M723.55,432.79h-4.74V419.11h4.78a6.93,6.93,0,0,1,3.47.82,5.59,5.59,0,0,1,2.24,2.35,9,9,0,0,1,0,7.33,5.63,5.63,0,0,1-2.25,2.36A7.16,7.16,0,0,1,723.55,432.79Zm-1.92-2.48h1.8a4.39,4.39,0,0,0,2.11-.46,2.89,2.89,0,0,0,1.29-1.42,7.4,7.4,0,0,0,0-5,2.94,2.94,0,0,0-1.29-1.42,4.47,4.47,0,0,0-2.1-.45h-1.81Z"/></svg>