<svg xmlns="http://www.w3.org/2000/svg" viewBox="0 0 800 500"><defs><style>.a,.e{fill:#39b54a;}.b{font-size:20.47px;}.b,.d{fill:#fff;}.b,.e{font-family:Roboto-Bold, Roboto;font-weight:700;}.c{fill:#009444;}.e{font-size:13.65px;}.f{letter-spacing:-0.01em;}.g{fill:none;stroke:#39b54a;stroke-miterlimit:10;stroke-width:2px;}.h{letter-spacing:-0.01em;}.i{letter-spacing:-0.01em;}.j{letter-spacing:-0.08em;}.k{letter-spacing:0em;}</style></defs><rect class="a" x="23.96" y="9.55" width="129.26" height="160.65" rx="8"/><text class="b" transform="translate(50.81 64.03)">Chunk 1</text><rect class="c" x="127.42" y="71.8" width="129.26" height="160.65" rx="8"/><rect class="a" x="130.83" y="75.6" width="129.26" height="160.65" rx="8"/><rect class="d" x="140.04" y="171.24" width="110.83" height="56.24" rx="4"/><text class="b" transform="translate(157.68 130.07)">Chunk 2</text><text class="e" transform="translate(170.27 195.16)">Chunk 1<tspan x="-17.64" y="16.38">t</tspan><tspan class="f" x="-13.03" y="16.38">r</tspan><tspan x="-8.25" y="16.38">ansaction ID</tspan></text><rect class="c" x="234.73" y="134.76" width="129.26" height="160.65" rx="8"/><rect class="a" x="237.69" y="137.94" width="129.26" height="160.65" rx="8"/><rect class="d" x="246.91" y="233.59" width="110.83" height="56.24" rx="4"/><text class="b" transform="translate(264.54 192.42)">Chunk 3</text><text class="e" transform="translate(277.14 257.5)">Chunk 2<tspan x="-17.64" y="16.38">t</tspan><tspan class="f" x="-13.03" y="16.38">r</tspan><tspan x="-8.25" y="16.38">ansaction ID</tspan></text><path class="a" d="M90.86,215.44v-2.27h2.27a5.69,5.69,0,0,0,0-11.38H90.86v-2.27h2.28a8,8,0,1,1,0,15.92H90.86Zm-4.54,0H84a8,8,0,0,1,0-15.92h2.28v2.27H84A5.69,5.69,0,0,0,84,213.17h2.32v2.27Zm8-9.1v2.28H82.9v-2.28Z"/><line class="g" x1="88.59" y1="176.66" x2="88.59" y2="192.68"/><line class="g" x1="123.98" y1="207.34" x2="107.95" y2="207.34"/><path class="a" d="M193.82,283.39v-2.27h2.27a5.69,5.69,0,0,0,0-11.38h-2.32v-2.28h2.27a8,8,0,0,1,0,15.93h-2.27Zm-4.55,0H187a8,8,0,0,1,0-15.92h2.28v2.28H187a5.69,5.69,0,1,0-.05,11.37h2.32v2.28Zm8-9.1v2.28H185.85v-2.28h11.38Z"/><line class="g" x1="191.54" y1="244.61" x2="191.54" y2="260.64"/><line class="g" x1="226.93" y1="275.3" x2="210.9" y2="275.3"/><line class="g" x1="302.63" y1="312.44" x2="302.63" y2="328.46"/><rect class="a" x="297.31" y="333.39" width="10.65" height="10.65" rx="2"/><rect class="a" x="297.31" y="351.29" width="10.65" height="10.65" rx="2"/><rect class="a" x="297.31" y="369.18" width="10.65" height="10.65" rx="2"/><path class="a" d="M304.9,408.3V406h2.28a5.69,5.69,0,1,0,.05-11.37H304.9v-2.27h2.28a8,8,0,0,1,0,15.92H304.9Zm-4.55,0h-2.27a8,8,0,0,1,0-15.93h2.27v2.27h-2.27A5.69,5.69,0,0,0,298,406h2.32v2.27Zm8-9.1v2.28H296.94V399.2h11.38Z"/><line class="g" x1="341.88" y1="400.34" x2="325.86" y2="400.34"/><rect class="a" x="357.74" y="318.87" width="129.26" height="160.65" rx="8"/><rect class="d" x="366.95" y="414.52" width="110.83" height="56.24" rx="4"/><text class="b" transform="translate(400.11 365.96)">Final<tspan x="-5.74" y="24.57">chunk</tspan></text><text class="e" transform="translate(386.66 438.44)">P<tspan class="h" x="8.8" y="0">r</tspan><tspan class="i" x="13.66" y="0">e</tspan><tspan class="j" x="20.95" y="0">v</tspan><tspan class="k" x="26.73" y="0">. chunk</tspan><tspan x="-7.11" y="16.38">t</tspan><tspan class="f" x="-2.5" y="16.38">r</tspan><tspan x="2.28" y="16.38">ansaction ID</tspan></text><path class="a" d="M572.94,400.09l-14-14a2,2,0,0,0-3.34,1.39V395a2,2,0,0,1-2,2H519.47a2,2,0,0,0-2,2V404a2,2,0,0,0,2,2h34.19a2,2,0,0,1,2,2v7.52a2,2,0,0,0,3.34,1.38l14-14A2,2,0,0,0,572.94,400.09Z"/><rect class="g" x="605.43" y="307.95" width="170.61" height="182.49" rx="8"/><path class="c" d="M641.74,371.2V357.87h8.62v2.33H644.5v3.17h5.29v2.33H644.5v5.5Z"/><path class="c" d="M653.53,359.92a1.48,1.48,0,0,1-1-.41,1.33,1.33,0,0,1-.43-1,1.3,1.3,0,0,1,.43-1,1.43,1.43,0,0,1,1-.42,1.45,1.45,0,0,1,1,.41,1.35,1.35,0,0,1,0,2A1.41,1.41,0,0,1,653.53,359.92Zm-1.37,11.28v-10h2.71v10Z"/><path class="c" d="M659.74,365.42v5.78H657v-10h2.58V363h.12a2.74,2.74,0,0,1,1.08-1.38,3.27,3.27,0,0,1,1.85-.51,3.44,3.44,0,0,1,1.78.45,3.08,3.08,0,0,1,1.17,1.3,4.45,4.45,0,0,1,.42,2v6.36h-2.71v-5.87a2,2,0,0,0-.45-1.43,1.62,1.62,0,0,0-1.28-.52,1.85,1.85,0,0,0-1,.24,1.58,1.58,0,0,0-.65.7A2.32,2.32,0,0,0,659.74,365.42Z"/><path class="c" d="M671,371.39a3.86,3.86,0,0,1-1.67-.34,2.58,2.58,0,0,1-1.15-1,3,3,0,0,1-.42-1.65A3,3,0,0,1,668,367a2.4,2.4,0,0,1,.82-.91,3.9,3.9,0,0,1,1.17-.52,8.64,8.64,0,0,1,1.38-.25c.57-.06,1-.12,1.38-.17a1.91,1.91,0,0,0,.75-.25.52.52,0,0,0,.24-.48v0a1.21,1.21,0,0,0-.38-.95,1.53,1.53,0,0,0-1.07-.34,1.89,1.89,0,0,0-1.17.33,1.62,1.62,0,0,0-.57.82l-2.5-.21a3.46,3.46,0,0,1,2.2-2.6,5.4,5.4,0,0,1,2-.36,6.17,6.17,0,0,1,1.56.19,4,4,0,0,1,1.33.61,2.92,2.92,0,0,1,.92,1.05,3.26,3.26,0,0,1,.34,1.53v6.74h-2.57v-1.39h-.08a2.71,2.71,0,0,1-1.58,1.38A3.76,3.76,0,0,1,671,371.39Zm.77-1.91a2.27,2.27,0,0,0,1.06-.25,1.91,1.91,0,0,0,.72-.66,1.77,1.77,0,0,0,.26-.94v-1.06a2,2,0,0,1-.35.15,3.19,3.19,0,0,1-.49.12l-.55.1-.49.08a3.21,3.21,0,0,0-.84.22,1.49,1.49,0,0,0-.55.42,1.1,1.1,0,0,0-.2.66,1,1,0,0,0,.41.86A1.65,1.65,0,0,0,671.72,369.48Z"/><path class="c" d="M681.26,357.87V371.2h-2.71V357.87Z"/><path class="c" d="M692,371.4a4.79,4.79,0,0,1-2.57-.66,4.31,4.31,0,0,1-1.66-1.82,6.58,6.58,0,0,1,0-5.38,4.4,4.4,0,0,1,1.66-1.81,4.74,4.74,0,0,1,2.55-.65,5,5,0,0,1,2.24.47,3.85,3.85,0,0,1,1.52,1.33,4,4,0,0,1,.61,2h-2.55a2.05,2.05,0,0,0-.57-1.21,1.66,1.66,0,0,0-1.21-.45,1.77,1.77,0,0,0-1.09.34,2.26,2.26,0,0,0-.73,1,4.43,4.43,0,0,0-.26,1.6,4.6,4.6,0,0,0,.26,1.63,2.14,2.14,0,0,0,.73,1,1.91,1.91,0,0,0,1.93.16,1.69,1.69,0,0,0,.62-.57,2.24,2.24,0,0,0,.32-.9h2.55a4.16,4.16,0,0,1-.6,2,3.73,3.73,0,0,1-1.5,1.36A5,5,0,0,1,692,371.4Z"/><path class="c" d="M700.79,365.42v5.78h-2.7V357.87h2.63V363h.11a2.87,2.87,0,0,1,1.07-1.39,3.17,3.17,0,0,1,1.85-.5,3.44,3.44,0,0,1,1.78.45,3.08,3.08,0,0,1,1.18,1.29,4.47,4.47,0,0,1,.42,2v6.36h-2.71v-5.87a2.08,2.08,0,0,0-.46-1.44,1.62,1.62,0,0,0-1.28-.51,2,2,0,0,0-1,.24,1.66,1.66,0,0,0-.66.7A2.45,2.45,0,0,0,700.79,365.42Z"/><path class="c" d="M715.52,366.94v-5.73h2.71v10h-2.6v-1.82h-.1a3,3,0,0,1-1.1,1.42,3.21,3.21,0,0,1-1.86.53,3.28,3.28,0,0,1-1.73-.45,3.19,3.19,0,0,1-1.16-1.3,4.73,4.73,0,0,1-.42-2v-6.36H712v5.86a2,2,0,0,0,.46,1.4,1.56,1.56,0,0,0,1.23.52,2,2,0,0,0,.92-.23,1.9,1.9,0,0,0,.69-.69A2.17,2.17,0,0,0,715.52,366.94Z"/><path class="c" d="M723.1,365.42v5.78h-2.71v-10H723V363h.12a2.76,2.76,0,0,1,1.09-1.38,3.22,3.22,0,0,1,1.85-.51,3.43,3.43,0,0,1,1.77.45,3.11,3.11,0,0,1,1.18,1.3,4.59,4.59,0,0,1,.42,2v6.36h-2.71v-5.87a2,2,0,0,0-.46-1.43,1.62,1.62,0,0,0-1.28-.52,1.9,1.9,0,0,0-1,.24,1.58,1.58,0,0,0-.65.7A2.59,2.59,0,0,0,723.1,365.42Z"/><path class="c" d="M731.52,371.2V357.87h2.71V371.2Zm2.46-2.88V365h.4l3.13-3.79h3.11l-4.21,5h-.64Zm3.65,2.88-2.88-4.35,1.81-2,4.24,6.31Z"/><path class="c" d="M635.7,383.19v2.09h-5.88v-2.09Zm-4.54-2.39h2.71v9.32a1.22,1.22,0,0,0,.11.59.66.66,0,0,0,.32.3,1.21,1.21,0,0,0,.48.08,2.34,2.34,0,0,0,.38,0l.29-.06.43,2.07-.57.15a5.26,5.26,0,0,1-.9.11,4.16,4.16,0,0,1-1.71-.27,2.37,2.37,0,0,1-1.14-.95,2.92,2.92,0,0,1-.4-1.63Z"/><path class="c" d="M637.46,393.19v-10h2.63v1.75h.1a2.63,2.63,0,0,1,.9-1.41,2.32,2.32,0,0,1,1.45-.48l.44,0a2.33,2.33,0,0,1,.41.07v2.46a4.72,4.72,0,0,0-.53-.11,4.59,4.59,0,0,0-.62,0,2.19,2.19,0,0,0-1.06.26,2,2,0,0,0-.74.73,2.16,2.16,0,0,0-.27,1.08v5.66Z"/><path class="c" d="M647.29,393.38a3.89,3.89,0,0,1-1.67-.34,2.64,2.64,0,0,1-1.15-1,3,3,0,0,1-.42-1.65,3,3,0,0,1,.3-1.4,2.46,2.46,0,0,1,.81-.91,3.76,3.76,0,0,1,1.17-.52,8.56,8.56,0,0,1,1.39-.25c.57-.06,1-.12,1.37-.17a2,2,0,0,0,.76-.25.56.56,0,0,0,.23-.48v0a1.17,1.17,0,0,0-.38-.95,1.53,1.53,0,0,0-1.07-.34,1.86,1.86,0,0,0-1.16.33,1.51,1.51,0,0,0-.57.82l-2.51-.21a3.62,3.62,0,0,1,.75-1.58,3.86,3.86,0,0,1,1.45-1,5.45,5.45,0,0,1,2.06-.36,6.18,6.18,0,0,1,1.56.2,4.08,4.08,0,0,1,1.32.6,2.94,2.94,0,0,1,.92,1.06,3.15,3.15,0,0,1,.34,1.53v6.74h-2.57V391.8h-.07a2.85,2.85,0,0,1-.63.83,3,3,0,0,1-.95.55A3.86,3.86,0,0,1,647.29,393.38Zm.78-1.92a2.23,2.23,0,0,0,1-.24,1.77,1.77,0,0,0,1-1.6v-1.06a1.73,1.73,0,0,1-.35.15,4.4,4.4,0,0,1-.49.12l-.55.1-.49.07a3.42,3.42,0,0,0-.83.23,1.45,1.45,0,0,0-.56.42,1.09,1.09,0,0,0-.19.66,1,1,0,0,0,.4.86A1.67,1.67,0,0,0,648.07,391.46Z"/><path class="c" d="M657.6,387.41v5.78h-2.71v-10h2.59V385h.11a2.81,2.81,0,0,1,1.09-1.38,3.17,3.17,0,0,1,1.85-.52,3.38,3.38,0,0,1,1.77.46,3.11,3.11,0,0,1,1.18,1.3,4.45,4.45,0,0,1,.42,2v6.36h-2.71v-5.87a2.09,2.09,0,0,0-.46-1.44,1.64,1.64,0,0,0-1.28-.51,1.9,1.9,0,0,0-1,.24,1.64,1.64,0,0,0-.65.7A2.59,2.59,0,0,0,657.6,387.41Z"/><path class="c" d="M674.15,386l-2.48.16a1.32,1.32,0,0,0-.27-.59,1.47,1.47,0,0,0-.55-.42A1.86,1.86,0,0,0,670,385a1.94,1.94,0,0,0-1.06.27.82.82,0,0,0-.44.72.78.78,0,0,0,.28.6,2.17,2.17,0,0,0,1,.4l1.77.36a4.32,4.32,0,0,1,2.12,1,2.27,2.27,0,0,1,.7,1.74,2.76,2.76,0,0,1-.56,1.73,3.64,3.64,0,0,1-1.54,1.15,5.65,5.65,0,0,1-2.25.41,5.09,5.09,0,0,1-3.08-.83,3.18,3.18,0,0,1-1.35-2.26l2.67-.14a1.39,1.39,0,0,0,.58.92,2.09,2.09,0,0,0,1.19.32,2.06,2.06,0,0,0,1.15-.29.84.84,0,0,0,.44-.73.77.77,0,0,0-.31-.62,2.19,2.19,0,0,0-.94-.37l-1.69-.35a3.94,3.94,0,0,1-2.13-1,2.59,2.59,0,0,1-.7-1.85,2.71,2.71,0,0,1,.52-1.65,3.2,3.2,0,0,1,1.44-1.08,5.82,5.82,0,0,1,2.18-.38,4.78,4.78,0,0,1,2.92.8A3.12,3.12,0,0,1,674.15,386Z"/><path class="c" d="M678.87,393.38a3.86,3.86,0,0,1-1.67-.34,2.58,2.58,0,0,1-1.15-1,3,3,0,0,1-.43-1.65,3,3,0,0,1,.3-1.4,2.4,2.4,0,0,1,.82-.91,3.66,3.66,0,0,1,1.17-.52,8.64,8.64,0,0,1,1.38-.25c.57-.06,1-.12,1.38-.17a1.91,1.91,0,0,0,.75-.25.55.55,0,0,0,.24-.48v0a1.21,1.21,0,0,0-.38-.95,1.53,1.53,0,0,0-1.07-.34,1.89,1.89,0,0,0-1.17.33,1.62,1.62,0,0,0-.57.82L676,386a3.62,3.62,0,0,1,.75-1.58,3.71,3.71,0,0,1,1.45-1,5.4,5.4,0,0,1,2.05-.36,6.18,6.18,0,0,1,1.56.2,4.14,4.14,0,0,1,1.33.6,3,3,0,0,1,.92,1.06,3.26,3.26,0,0,1,.34,1.53v6.74H681.8V391.8h-.08a2.71,2.71,0,0,1-1.58,1.38A3.76,3.76,0,0,1,678.87,393.38Zm.77-1.92a2.27,2.27,0,0,0,1.06-.24,1.91,1.91,0,0,0,.72-.66,1.77,1.77,0,0,0,.26-.94v-1.06a2,2,0,0,1-.35.15,5,5,0,0,1-.49.12l-.55.1-.5.07a3.7,3.7,0,0,0-.83.23,1.49,1.49,0,0,0-.55.42,1.1,1.1,0,0,0-.2.66,1,1,0,0,0,.41.86A1.64,1.64,0,0,0,679.64,391.46Z"/><path class="c" d="M690.88,393.38a4.85,4.85,0,0,1-2.58-.65,4.41,4.41,0,0,1-1.65-1.82,6.58,6.58,0,0,1,0-5.38,4.38,4.38,0,0,1,1.65-1.81,4.81,4.81,0,0,1,2.56-.66,5,5,0,0,1,2.24.48,3.85,3.85,0,0,1,1.52,1.33,4,4,0,0,1,.61,2h-2.55a2.05,2.05,0,0,0-.57-1.21,1.67,1.67,0,0,0-1.21-.46,1.78,1.78,0,0,0-1.09.35,2.23,2.23,0,0,0-.73,1,4.53,4.53,0,0,0-.26,1.61,4.6,4.6,0,0,0,.26,1.63,2.19,2.19,0,0,0,.72,1,1.83,1.83,0,0,0,1.1.35,1.79,1.79,0,0,0,.84-.19,1.69,1.69,0,0,0,.62-.57,2.24,2.24,0,0,0,.32-.9h2.55a4.16,4.16,0,0,1-.6,2,3.86,3.86,0,0,1-1.5,1.36A5,5,0,0,1,690.88,393.38Z"/><path class="c" d="M702.18,383.19v2.09H696.3v-2.09Zm-4.55-2.39h2.71v9.32a1.21,1.21,0,0,0,.12.59.62.62,0,0,0,.32.3,1.21,1.21,0,0,0,.48.08l.38,0,.29-.06.43,2.07-.57.15a5.26,5.26,0,0,1-.9.11,4.16,4.16,0,0,1-1.71-.27,2.37,2.37,0,0,1-1.14-.95,2.92,2.92,0,0,1-.41-1.63Z"/><path class="c" d="M705.31,381.91a1.47,1.47,0,0,1-1-.41,1.37,1.37,0,0,1,0-2,1.51,1.51,0,0,1,2.07,0,1.35,1.35,0,0,1,0,2A1.43,1.43,0,0,1,705.31,381.91Zm-1.37,11.28v-10h2.71v10Z"/><path class="c" d="M713.22,393.38a4.89,4.89,0,0,1-2.56-.64,4.4,4.4,0,0,1-1.66-1.81,6.6,6.6,0,0,1,0-5.41,4.4,4.4,0,0,1,1.66-1.81,5.37,5.37,0,0,1,5.12,0,4.34,4.34,0,0,1,1.66,1.81,6.5,6.5,0,0,1,0,5.41,4.34,4.34,0,0,1-1.66,1.81A4.89,4.89,0,0,1,713.22,393.38Zm0-2.14a1.62,1.62,0,0,0,1.12-.4,2.38,2.38,0,0,0,.68-1.07,4.73,4.73,0,0,0,.24-1.56,4.63,4.63,0,0,0-.24-1.55,2.36,2.36,0,0,0-.68-1.08,1.62,1.62,0,0,0-1.12-.4,1.68,1.68,0,0,0-1.15.4,2.46,2.46,0,0,0-.69,1.08,4.91,4.91,0,0,0-.23,1.55,5,5,0,0,0,.23,1.56,2.48,2.48,0,0,0,.69,1.07A1.68,1.68,0,0,0,713.24,391.24Z"/><path class="c" d="M722.5,387.41v5.78h-2.71v-10h2.59V385h.11a2.81,2.81,0,0,1,1.09-1.38,3.17,3.17,0,0,1,1.85-.52,3.38,3.38,0,0,1,1.77.46,3,3,0,0,1,1.18,1.3,4.45,4.45,0,0,1,.42,2v6.36h-2.71v-5.87a2.09,2.09,0,0,0-.46-1.44,1.64,1.64,0,0,0-1.28-.51,1.9,1.9,0,0,0-1,.24,1.64,1.64,0,0,0-.65.7A2.59,2.59,0,0,0,722.5,387.41Z"/><path class="c" d="M737.88,379.86v13.33h-2.75V379.86Z"/><path class="c" d="M744.77,393.19h-4.62V379.86h4.65a6.85,6.85,0,0,1,3.39.8,5.36,5.36,0,0,1,2.18,2.29,7.7,7.7,0,0,1,.77,3.56,7.78,7.78,0,0,1-.77,3.58,5.35,5.35,0,0,1-2.19,2.3A6.91,6.91,0,0,1,744.77,393.19Zm-1.87-2.41h1.75a4.3,4.3,0,0,0,2.06-.45,2.81,2.81,0,0,0,1.26-1.39,7.18,7.18,0,0,0,0-4.84,2.75,2.75,0,0,0-1.26-1.38,4.26,4.26,0,0,0-2.05-.44H742.9Z"/><path class="c" d="M685.72,403.9a1.48,1.48,0,0,1-1-.41,1.37,1.37,0,0,1,0-2,1.51,1.51,0,0,1,2.07,0,1.35,1.35,0,0,1,0,2A1.43,1.43,0,0,1,685.72,403.9Zm-1.37,11.28v-10h2.71v10Z"/><path class="c" d="M697.34,408l-2.47.16a1.46,1.46,0,0,0-.28-.59,1.58,1.58,0,0,0-.55-.42,1.8,1.8,0,0,0-.81-.16,2,2,0,0,0-1.06.27.81.81,0,0,0-.43.72.75.75,0,0,0,.28.6,2.07,2.07,0,0,0,1,.4l1.77.37a4.41,4.41,0,0,1,2.12,1,2.3,2.3,0,0,1,.7,1.74,2.77,2.77,0,0,1-.57,1.73,3.61,3.61,0,0,1-1.53,1.15,5.64,5.64,0,0,1-2.25.42,5.14,5.14,0,0,1-3.09-.84,3.2,3.2,0,0,1-1.34-2.26l2.66-.14a1.4,1.4,0,0,0,.59.92,2.38,2.38,0,0,0,2.33,0,.84.84,0,0,0,.44-.73.74.74,0,0,0-.31-.62,2.13,2.13,0,0,0-.94-.37l-1.69-.35a3.94,3.94,0,0,1-2.12-1,2.54,2.54,0,0,1-.7-1.84,2.71,2.71,0,0,1,.51-1.66,3.2,3.2,0,0,1,1.44-1.08,5.83,5.83,0,0,1,2.19-.38,4.76,4.76,0,0,1,2.91.8A3.11,3.11,0,0,1,697.34,408Z"/><path class="c" d="M655.51,427.17v2.09h-5.88v-2.09ZM651,424.78h2.7v9.32a1.21,1.21,0,0,0,.12.59.66.66,0,0,0,.32.3,1.21,1.21,0,0,0,.48.08,2.43,2.43,0,0,0,.38,0l.29-.06.43,2.06c-.14,0-.33.1-.57.16a5.26,5.26,0,0,1-.9.11,4.16,4.16,0,0,1-1.71-.27,2.43,2.43,0,0,1-1.14-1,2.92,2.92,0,0,1-.4-1.63Z"/><path class="c" d="M661.58,437.36a4.92,4.92,0,0,1-2.56-.64,4.4,4.4,0,0,1-1.66-1.81,6.6,6.6,0,0,1,0-5.41,4.4,4.4,0,0,1,1.66-1.81,5.37,5.37,0,0,1,5.12,0,4.28,4.28,0,0,1,1.66,1.81,6.5,6.5,0,0,1,0,5.41,4.28,4.28,0,0,1-1.66,1.81A4.89,4.89,0,0,1,661.58,437.36Zm0-2.14a1.62,1.62,0,0,0,1.12-.4,2.48,2.48,0,0,0,.69-1.07,5,5,0,0,0,.23-1.56,4.91,4.91,0,0,0-.23-1.55,2.46,2.46,0,0,0-.69-1.08,1.62,1.62,0,0,0-1.12-.4,1.64,1.64,0,0,0-1.14.4,2.39,2.39,0,0,0-.7,1.08,4.91,4.91,0,0,0-.23,1.55,5,5,0,0,0,.23,1.56,2.41,2.41,0,0,0,.7,1.07A1.64,1.64,0,0,0,661.6,435.22Z"/><path class="c" d="M668.16,437.17v-10h2.62v1.75h.1a2.63,2.63,0,0,1,.9-1.41,2.32,2.32,0,0,1,1.45-.48l.44,0a2.18,2.18,0,0,1,.41.07v2.46a3,3,0,0,0-.53-.11,4.55,4.55,0,0,0-.61,0,2.2,2.2,0,0,0-1.07.26,2,2,0,0,0-.73.73,2.16,2.16,0,0,0-.27,1.08v5.66Z"/><path class="c" d="M675.47,437.17v-10h2.63v1.75h.1a2.63,2.63,0,0,1,.9-1.41,2.32,2.32,0,0,1,1.45-.48l.44,0a2.33,2.33,0,0,1,.41.07v2.46a3.19,3.19,0,0,0-.53-.11,4.59,4.59,0,0,0-.62,0,2.19,2.19,0,0,0-1.06.26,2,2,0,0,0-.74.73,2.16,2.16,0,0,0-.27,1.08v5.66Z"/><path class="c" d="M686.78,437.36a5.09,5.09,0,0,1-2.59-.62,4.25,4.25,0,0,1-1.67-1.79,6.67,6.67,0,0,1,0-5.44,4.41,4.41,0,0,1,1.65-1.82,4.75,4.75,0,0,1,2.5-.65,5.1,5.1,0,0,1,1.81.32,4,4,0,0,1,1.46.95,4.33,4.33,0,0,1,1,1.58,6.58,6.58,0,0,1,.34,2.23v.76H683v-1.72h5.7a2.16,2.16,0,0,0-.26-1.06,1.8,1.8,0,0,0-.7-.72,2,2,0,0,0-1-.27,2,2,0,0,0-1.83,1.07,2.15,2.15,0,0,0-.27,1.07v1.64a3,3,0,0,0,.26,1.28,2,2,0,0,0,.77.83,2.22,2.22,0,0,0,1.18.29,2.66,2.66,0,0,0,.82-.12,1.73,1.73,0,0,0,.65-.4,1.7,1.7,0,0,0,.4-.63l2.51.17a3.62,3.62,0,0,1-.78,1.61,4,4,0,0,1-1.51,1.06A5.49,5.49,0,0,1,686.78,437.36Z"/><path class="c" d="M695.74,431.39v5.78H693v-10h2.58v1.77h.12a2.82,2.82,0,0,1,1.08-1.39,3.27,3.27,0,0,1,1.85-.51,3.44,3.44,0,0,1,1.78.46,3.08,3.08,0,0,1,1.17,1.3,4.44,4.44,0,0,1,.42,2v6.37h-2.7V431.3a2.09,2.09,0,0,0-.46-1.44,1.65,1.65,0,0,0-1.28-.51,1.87,1.87,0,0,0-1,.24,1.58,1.58,0,0,0-.65.7A2.32,2.32,0,0,0,695.74,431.39Z"/><path class="c" d="M709.36,427.17v2.09h-5.88v-2.09Zm-4.55-2.39h2.71v9.32a1.35,1.35,0,0,0,.11.59.68.68,0,0,0,.33.3,1.15,1.15,0,0,0,.48.08l.38,0,.29-.06.43,2.06c-.14,0-.33.1-.58.16a5,5,0,0,1-.89.11,4.18,4.18,0,0,1-1.72-.27,2.43,2.43,0,0,1-1.14-1,3,3,0,0,1-.4-1.63Z"/><path class="c" d="M718.07,423.84v13.33h-2.75V423.84Z"/><path class="c" d="M725,437.17h-4.62V423.84H725a6.81,6.81,0,0,1,3.38.8,5.36,5.36,0,0,1,2.18,2.29,7.7,7.7,0,0,1,.77,3.56,7.78,7.78,0,0,1-.77,3.58,5.41,5.41,0,0,1-2.19,2.3A6.91,6.91,0,0,1,725,437.17Zm-1.86-2.42h1.74a4.3,4.3,0,0,0,2.06-.44,2.81,2.81,0,0,0,1.26-1.39,7.18,7.18,0,0,0,0-4.84,2.75,2.75,0,0,0-1.26-1.38,4.26,4.26,0,0,0-2-.44H723.1Z"/></svg>