<svg xmlns="http://www.w3.org/2000/svg" viewBox="0 0 800 500"><defs><style>.a{fill:#a7a9ac;opacity:0.15;}.b,.d{fill:#d1d3d4;}.b{opacity:0.5;}.c{fill:#2fa3dc;}.d{opacity:0.3;}.e{fill:#fff;}</style></defs><rect class="a" x="109.43" y="61.69" width="581.14" height="376.61" rx="16"/><rect class="b" x="294.04" y="243.37" width="211.92" height="26.66" rx="13.33"/><path class="c" d="M425.36,186.89l8-8a1.46,1.46,0,0,0,0-2.07,1.48,1.48,0,0,0-1-.43H395.08a1.47,1.47,0,0,0-1.46,1.46v50a1.46,1.46,0,0,0,1.46,1.46,1.49,1.49,0,0,0,1.05-.44l8-8.12a1.43,1.43,0,0,0,.41-1V208.36a1.45,1.45,0,0,1,.44-1l7.95-8a1.47,1.47,0,0,0,0-2.07,1.51,1.51,0,0,0-1.05-.43H406a1.46,1.46,0,0,1-1.47-1.46h0v-6.62a1.48,1.48,0,0,1,1.47-1.46h18.35A1.46,1.46,0,0,0,425.36,186.89Z"/><path class="c" d="M377.45,187.32h9.69a1.46,1.46,0,0,0,1.48-1.45h0v-8a1.47,1.47,0,0,0-1.46-1.46h-4.43a1.47,1.47,0,0,0-1.22.66l-5.28,8a1.46,1.46,0,0,0,.42,2A1.48,1.48,0,0,0,377.45,187.32Z"/><rect class="d" x="166.67" y="302.43" width="469.01" height="47.09" rx="4"/><rect class="d" x="166.67" y="358" width="469.01" height="47.09" rx="4"/><rect class="c" x="139.17" y="144.69" width="77.03" height="18.73" rx="4.19"/><circle class="c" cx="612.54" cy="362.24" r="40.25"/><path class="e" d="M616.3,365.44V345.55a1.4,1.4,0,0,0-1.4-1.4h-5.06a1.4,1.4,0,0,0-1.4,1.4v19.89H601a1.4,1.4,0,0,0-1,2.39l12,12a.71.71,0,0,0,1,0l12-12a1.4,1.4,0,0,0-1-2.39Z"/><path class="a" d="M125.43,61.69H674.57a16,16,0,0,1,16,16v31.63a0,0,0,0,1,0,0H109.43a0,0,0,0,1,0,0V77.69A16,16,0,0,1,125.43,61.69Z"/></svg>