<svg xmlns="http://www.w3.org/2000/svg" viewBox="0 0 800 500"><defs><style>.a{fill:#f1f2f2;}.b,.c,.i{fill:#231f20;}.b{opacity:0.1;}.c,.i{font-size:34.6px;font-family:MyriadPro-Regular, Myriad Pro;}.d{letter-spacing:0em;}.e{letter-spacing:-0.01em;}.f{letter-spacing:-0.01em;}.g{letter-spacing:-0.01em;}.h{fill:none;stroke:#a7a9ac;}.h,.r{stroke-miterlimit:10;}.i{opacity:0.6;}.j{letter-spacing:0em;}.k{letter-spacing:-0.01em;}.l{letter-spacing:-0.02em;}.m{letter-spacing:0em;}.n{letter-spacing:0em;}.o{letter-spacing:-0.01em;}.p{letter-spacing:-0.01em;}.q{letter-spacing:-0.01em;}.r{fill:#fff;stroke:#58595b;stroke-width:4px;}</style></defs><rect class="a" x="194.4" y="28.72" width="411.2" height="442.56" rx="8"/><rect class="b" x="194.4" y="158.46" width="411.2" height="87.94"/><text class="c" transform="translate(242.08 212.19)"><tspan class="d">S</tspan><tspan class="e" x="17.16" y="0">a</tspan><tspan class="f" x="33.56" y="0">v</tspan><tspan x="49.85" y="0">e a</tspan><tspan class="g" x="91.2" y="0">s</tspan><tspan x="104.52" y="0">...</tspan></text><line class="h" x1="194.4" y1="148.42" x2="605.6" y2="148.42"/><text class="i" transform="translate(243.53 108.93)"><tspan class="j">R</tspan><tspan x="18.75" y="0">ef</tspan><tspan class="k" x="46.19" y="0">r</tspan><tspan x="57.15" y="0">esh</tspan></text><text class="i" transform="translate(243.53 314.91)"><tspan class="l">P</tspan><tspan class="m" x="17.85" y="0">r</tspan><tspan x="29.3" y="0">i</tspan><tspan class="n" x="37.4" y="0">n</tspan><tspan x="56.46" y="0">t</tspan></text><text class="i" transform="translate(246.16 407.42)"><tspan class="o">C</tspan><tspan x="19.82" y="0">ast media </tspan><tspan class="p" x="166.79" y="0">t</tspan><tspan x="178.04" y="0">o devi</tspan><tspan class="q" x="265.95" y="0">c</tspan><tspan x="281.24" y="0">e</tspan></text><polygon class="r" points="441.81 257.54 433.06 268.1 412.63 292.77 412.63 207.22 484.5 254.87 459.94 256.4 450.95 256.97 441.81 257.54"/></svg>