<svg xmlns="http://www.w3.org/2000/svg" viewBox="0 0 800 500"><defs><style>.a{fill:#f1f2f2;}.b,.c{fill:#231f20;}.b{opacity:0.1;}.d{fill:none;stroke:#a7a9ac;}.d,.f{stroke-miterlimit:10;}.e{opacity:0.6;}.f{fill:#fff;stroke:#58595b;stroke-width:4px;}</style></defs><rect class="a" x="178.18" y="28.72" width="443.64" height="442.56" rx="8"/><rect class="b" x="178.18" y="158.46" width="443.64" height="87.94"/><path class="c" d="M237.34,193.64a3.59,3.59,0,0,0-1.62-2.71,6.28,6.28,0,0,0-3.59-1,6.77,6.77,0,0,0-2.67.49,4,4,0,0,0-1.75,1.33,3.09,3.09,0,0,0-.63,1.91,2.78,2.78,0,0,0,.43,1.54,3.44,3.44,0,0,0,1.12,1.09,8.24,8.24,0,0,0,1.49.73,14.85,14.85,0,0,0,1.54.47l2.45.64a16.85,16.85,0,0,1,2.47.8,10.06,10.06,0,0,1,2.35,1.32,6.5,6.5,0,0,1,1.75,2,6,6,0,0,1,.67,2.91,6.72,6.72,0,0,1-1.1,3.8,7.37,7.37,0,0,1-3.18,2.62,12,12,0,0,1-5,1,12.13,12.13,0,0,1-4.89-.9,7.18,7.18,0,0,1-4.53-6.48h3.81a3.88,3.88,0,0,0,.89,2.27,4.66,4.66,0,0,0,2,1.34,7.93,7.93,0,0,0,2.68.44,7.61,7.61,0,0,0,2.87-.51,4.7,4.7,0,0,0,2-1.43,3.31,3.31,0,0,0,.73-2.14,2.64,2.64,0,0,0-.63-1.83,4.86,4.86,0,0,0-1.71-1.18,17.66,17.66,0,0,0-2.43-.83l-3-.81a11.37,11.37,0,0,1-4.79-2.42,5.43,5.43,0,0,1-1.76-4.22,6.27,6.27,0,0,1,1.18-3.8,7.81,7.81,0,0,1,3.19-2.52,10.91,10.91,0,0,1,4.55-.91,10.76,10.76,0,0,1,4.52.9,7.76,7.76,0,0,1,3.09,2.46,6.29,6.29,0,0,1,1.17,3.6Z"/><path class="c" d="M251.08,212.61a7.77,7.77,0,0,1-3.25-.67,5.45,5.45,0,0,1-2.29-1.95,5.58,5.58,0,0,1-.84-3.13,5.07,5.07,0,0,1,.62-2.63,4.63,4.63,0,0,1,1.65-1.64,9,9,0,0,1,2.34-.91,22.94,22.94,0,0,1,2.63-.46l2.75-.33a4.06,4.06,0,0,0,1.54-.42,1,1,0,0,0,.48-1v-.09a3.34,3.34,0,0,0-.91-2.49,3.67,3.67,0,0,0-2.68-.89,4.71,4.71,0,0,0-2.92.82,4.47,4.47,0,0,0-1.47,1.81l-3.45-.78a6.58,6.58,0,0,1,1.8-2.78,7.26,7.26,0,0,1,2.73-1.55,10.63,10.63,0,0,1,3.26-.49,11.61,11.61,0,0,1,2.4.27,6.93,6.93,0,0,1,2.38,1,5.3,5.3,0,0,1,1.83,2,7,7,0,0,1,.71,3.36v12.53H256.8v-2.58h-.14a5.5,5.5,0,0,1-1.07,1.4,5.71,5.71,0,0,1-1.83,1.14A7,7,0,0,1,251.08,212.61Zm.8-3a5.35,5.35,0,0,0,2.61-.6,4.36,4.36,0,0,0,1.66-1.58,4.09,4.09,0,0,0,.57-2.1V203a1.91,1.91,0,0,1-.76.36,9,9,0,0,1-1.27.28l-1.39.21-1.13.16a9.29,9.29,0,0,0-1.95.45,3.33,3.33,0,0,0-1.4.92,2.62,2.62,0,0,0,.49,3.63A4.38,4.38,0,0,0,251.88,209.66Z"/><path class="c" d="M280.74,193.32l-6.85,18.87H270l-6.85-18.87h3.94l4.78,14.52h.2l4.76-14.52Z"/><path class="c" d="M291.66,212.57a9.19,9.19,0,0,1-4.8-1.2,7.91,7.91,0,0,1-3.09-3.38,12.52,12.52,0,0,1,0-10.22,8.34,8.34,0,0,1,3-3.46,8.47,8.47,0,0,1,4.59-1.24,9.31,9.31,0,0,1,3.1.53,7.56,7.56,0,0,1,2.69,1.66,7.84,7.84,0,0,1,1.88,2.93,12.22,12.22,0,0,1,.69,4.37v1.3h-15v-2.75h11.4a5.51,5.51,0,0,0-.59-2.58,4.54,4.54,0,0,0-1.65-1.77,4.62,4.62,0,0,0-2.49-.65,4.82,4.82,0,0,0-2.7.75,5.16,5.16,0,0,0-1.77,2,5.68,5.68,0,0,0-.62,2.62v2.15a7,7,0,0,0,.67,3.22,4.76,4.76,0,0,0,1.87,2,5.59,5.59,0,0,0,2.82.7,5.49,5.49,0,0,0,1.9-.31,4.11,4.11,0,0,0,1.49-.9,3.91,3.91,0,0,0,1-1.49l3.47.63a6.16,6.16,0,0,1-1.49,2.69,7.28,7.28,0,0,1-2.69,1.78A10.07,10.07,0,0,1,291.66,212.57Z"/><path class="c" d="M318.5,212.61a7.76,7.76,0,0,1-3.24-.67A5.39,5.39,0,0,1,313,210a5.58,5.58,0,0,1-.84-3.13,5.07,5.07,0,0,1,.61-2.63,4.58,4.58,0,0,1,1.66-1.64,9,9,0,0,1,2.34-.91,22.39,22.39,0,0,1,2.62-.46l2.76-.33a4,4,0,0,0,1.53-.42,1,1,0,0,0,.48-1v-.09a3.33,3.33,0,0,0-.9-2.49,3.7,3.7,0,0,0-2.69-.89,4.68,4.68,0,0,0-2.91.82,4.47,4.47,0,0,0-1.47,1.81l-3.45-.78a6.57,6.57,0,0,1,1.79-2.78,7.38,7.38,0,0,1,2.74-1.55,10.63,10.63,0,0,1,3.26-.49,11.61,11.61,0,0,1,2.4.27,7,7,0,0,1,2.38,1,5.28,5.28,0,0,1,1.82,2,6.86,6.86,0,0,1,.72,3.36v12.53h-3.59v-2.58h-.15A5.28,5.28,0,0,1,323,211a5.5,5.5,0,0,1-1.83,1.14A7,7,0,0,1,318.5,212.61Zm.8-3a5.3,5.3,0,0,0,2.61-.6,4.29,4.29,0,0,0,1.66-1.58,4.09,4.09,0,0,0,.57-2.1V203a1.85,1.85,0,0,1-.75.36,9.29,9.29,0,0,1-1.27.28l-1.39.21-1.13.16a9.15,9.15,0,0,0-2,.45,3.27,3.27,0,0,0-1.4.92,2.28,2.28,0,0,0-.52,1.58,2.31,2.31,0,0,0,1,2.05A4.35,4.35,0,0,0,319.3,209.66Z"/><path class="c" d="M346.85,197.92l-3.33.59a4,4,0,0,0-.66-1.21,3.33,3.33,0,0,0-1.21-1,4.44,4.44,0,0,0-1.9-.37,4.66,4.66,0,0,0-2.61.7,2.09,2.09,0,0,0-1,1.79,1.87,1.87,0,0,0,.7,1.52,5.82,5.82,0,0,0,2.26.95l3,.68a8,8,0,0,1,3.88,1.86,4.35,4.35,0,0,1,1.28,3.25,5,5,0,0,1-1,3,6.51,6.51,0,0,1-2.71,2.07,10.1,10.1,0,0,1-4,.75,9,9,0,0,1-5.17-1.36,5.65,5.65,0,0,1-2.46-3.86l3.55-.54a3.37,3.37,0,0,0,1.37,2.09,4.65,4.65,0,0,0,2.69.71,4.89,4.89,0,0,0,2.88-.76,2.22,2.22,0,0,0,1.09-1.85,1.92,1.92,0,0,0-.66-1.48,4.38,4.38,0,0,0-2-.91l-3.2-.7a7.6,7.6,0,0,1-3.9-1.92,4.6,4.6,0,0,1-1.26-3.33,4.77,4.77,0,0,1,.94-2.92,6.08,6.08,0,0,1,2.58-2,9.49,9.49,0,0,1,3.77-.71,7.86,7.86,0,0,1,4.82,1.32A6.23,6.23,0,0,1,346.85,197.92Z"/><path class="c" d="M353.67,212.42a2.4,2.4,0,0,1-1.74-.72,2.44,2.44,0,0,1,0-3.46,2.4,2.4,0,0,1,1.74-.72,2.45,2.45,0,0,1,2.12,3.68,2.7,2.7,0,0,1-.89.89A2.36,2.36,0,0,1,353.67,212.42Z"/><path class="c" d="M363.46,212.42a2.36,2.36,0,0,1-1.73-.72,2.41,2.41,0,0,1,0-3.46,2.45,2.45,0,0,1,3.85,3,2.61,2.61,0,0,1-.89.89A2.36,2.36,0,0,1,363.46,212.42Z"/><path class="c" d="M373.25,212.42a2.36,2.36,0,0,1-1.73-.72,2.41,2.41,0,0,1,0-3.46,2.44,2.44,0,0,1,3.46,0,2.32,2.32,0,0,1,.73,1.73,2.37,2.37,0,0,1-.34,1.23,2.61,2.61,0,0,1-.89.89A2.36,2.36,0,0,1,373.25,212.42Z"/><line class="d" x1="178.18" y1="148.42" x2="621.82" y2="148.42"/><g class="e"><path class="c" d="M225.07,108.93V83.77h9a10.48,10.48,0,0,1,4.86,1,6.65,6.65,0,0,1,2.89,2.78,8.47,8.47,0,0,1,1,4.1,8.32,8.32,0,0,1-1,4.06,6.6,6.6,0,0,1-2.9,2.72,10.76,10.76,0,0,1-4.86,1h-6.79V96.14h6.45a7.17,7.17,0,0,0,3-.53,3.5,3.5,0,0,0,1.7-1.53,5.06,5.06,0,0,0,.54-2.42,5.18,5.18,0,0,0-.55-2.47,3.65,3.65,0,0,0-1.7-1.61,7.12,7.12,0,0,0-3-.55h-4.77v21.9Zm12.42-11.35,6.22,11.35h-4.32l-6.1-11.35Z"/><path class="c" d="M255,109.31a9.29,9.29,0,0,1-4.8-1.19,8,8,0,0,1-3.09-3.38,12.55,12.55,0,0,1,0-10.23,8.25,8.25,0,0,1,3-3.45,8.39,8.39,0,0,1,4.59-1.25,9.31,9.31,0,0,1,3.1.53A7.7,7.7,0,0,1,260.52,92a7.92,7.92,0,0,1,1.88,2.93,12.26,12.26,0,0,1,.69,4.37v1.3h-15V97.85h11.41a5.47,5.47,0,0,0-.59-2.57,4.59,4.59,0,0,0-1.66-1.78,4.65,4.65,0,0,0-2.48-.65,4.75,4.75,0,0,0-2.7.76,5,5,0,0,0-1.77,2,5.71,5.71,0,0,0-.62,2.62v2.15a7,7,0,0,0,.67,3.22,4.7,4.7,0,0,0,1.87,2,5.49,5.49,0,0,0,2.82.7,5.74,5.74,0,0,0,1.9-.3,4,4,0,0,0,1.49-.91,4.12,4.12,0,0,0,1-1.48l3.47.62a6.27,6.27,0,0,1-1.49,2.69,7.28,7.28,0,0,1-2.69,1.78A10.07,10.07,0,0,1,255,109.31Z"/><path class="c" d="M276.16,90.06v3H265.49v-3Zm-7.74,18.87V87.87a5.27,5.27,0,0,1,.77-2.94,4.86,4.86,0,0,1,2.05-1.76,6.78,6.78,0,0,1,2.78-.58,8.53,8.53,0,0,1,1.89.18,10.6,10.6,0,0,1,1.17.32l-.86,3-.66-.18a4,4,0,0,0-1-.1,2.41,2.41,0,0,0-1.91.66,2.86,2.86,0,0,0-.57,1.92v20.56Z"/><path class="c" d="M279.94,108.93V90.06h3.55v3h.2a4.52,4.52,0,0,1,1.82-2.4,5.21,5.21,0,0,1,3-.88l.82,0,.74.06v3.52a6.77,6.77,0,0,0-.79-.14,7.08,7.08,0,0,0-1.13-.08,4.83,4.83,0,0,0-2.31.54,4.15,4.15,0,0,0-1.6,1.51,4.1,4.1,0,0,0-.59,2.2v11.52Z"/><path class="c" d="M300.68,109.31a9.29,9.29,0,0,1-4.8-1.19,8,8,0,0,1-3.09-3.38,12.55,12.55,0,0,1,0-10.23,8.25,8.25,0,0,1,3-3.45,8.39,8.39,0,0,1,4.59-1.25,9.31,9.31,0,0,1,3.1.53A7.61,7.61,0,0,1,306.21,92a7.92,7.92,0,0,1,1.88,2.93,12.26,12.26,0,0,1,.69,4.37v1.3h-15V97.85h11.4a5.47,5.47,0,0,0-.59-2.57,4.64,4.64,0,0,0-1.65-1.78,4.71,4.71,0,0,0-2.49-.65,4.77,4.77,0,0,0-2.7.76,5.06,5.06,0,0,0-1.77,2,5.71,5.71,0,0,0-.62,2.62v2.15a7,7,0,0,0,.67,3.22,4.7,4.7,0,0,0,1.87,2,5.49,5.49,0,0,0,2.82.7,5.74,5.74,0,0,0,1.9-.3,3.92,3.92,0,0,0,1.49-.91,3.87,3.87,0,0,0,1-1.48l3.47.62a6.16,6.16,0,0,1-1.49,2.69,7.28,7.28,0,0,1-2.69,1.78A10.07,10.07,0,0,1,300.68,109.31Z"/><path class="c" d="M327,94.67l-3.33.59A4,4,0,0,0,323,94a3.31,3.31,0,0,0-1.21-.94,4.29,4.29,0,0,0-1.9-.37,4.65,4.65,0,0,0-2.61.69,2.09,2.09,0,0,0-1,1.79,1.86,1.86,0,0,0,.7,1.52,5.67,5.67,0,0,0,2.26,1l3,.69a8,8,0,0,1,3.88,1.85,4.38,4.38,0,0,1,1.28,3.26,4.93,4.93,0,0,1-1,3,6.44,6.44,0,0,1-2.71,2.07,10.1,10.1,0,0,1-4,.75,9.09,9.09,0,0,1-5.17-1.35,5.76,5.76,0,0,1-2.46-3.87l3.55-.54a3.43,3.43,0,0,0,1.37,2.1,4.67,4.67,0,0,0,2.69.7,5,5,0,0,0,2.89-.75,2.22,2.22,0,0,0,1.08-1.85,1.94,1.94,0,0,0-.66-1.49,4.48,4.48,0,0,0-2-.91l-3.19-.7a7.6,7.6,0,0,1-3.9-1.92,4.59,4.59,0,0,1-1.26-3.32,4.79,4.79,0,0,1,.93-2.93,6.16,6.16,0,0,1,2.58-2,9.53,9.53,0,0,1,3.77-.71,7.86,7.86,0,0,1,4.82,1.33A6.19,6.19,0,0,1,327,94.67Z"/><path class="c" d="M335.08,97.73v11.2h-3.67V83.77H335v9.36h.24a5.43,5.43,0,0,1,2-2.42,6.38,6.38,0,0,1,3.57-.9,7,7,0,0,1,3.39.8A5.48,5.48,0,0,1,346.51,93a8.58,8.58,0,0,1,.81,3.94v12h-3.68V97.37a4.55,4.55,0,0,0-1.06-3.22,3.87,3.87,0,0,0-3-1.15,4.83,4.83,0,0,0-2.33.55,3.9,3.9,0,0,0-1.6,1.62A5.21,5.21,0,0,0,335.08,97.73Z"/></g><g class="e"><path class="c" d="M225.07,314.91V289.75h9a10,10,0,0,1,4.87,1.06,7,7,0,0,1,2.88,2.92,9.52,9.52,0,0,1,0,8.33,7.11,7.11,0,0,1-2.9,2.93,10,10,0,0,1-4.86,1.07h-6.17v-3.22h5.83a6.17,6.17,0,0,0,3-.64,4,4,0,0,0,1.69-1.77,6.22,6.22,0,0,0,0-5.07,3.89,3.89,0,0,0-1.7-1.73,6.37,6.37,0,0,0-3.05-.63h-4.77v21.91Z"/><path class="c" d="M246.89,314.91V296h3.55v3h.2a4.6,4.6,0,0,1,1.82-2.4,5.29,5.29,0,0,1,3-.88l.82,0a5.94,5.94,0,0,1,.74.06v3.51c-.15,0-.41-.08-.78-.14a8.71,8.71,0,0,0-1.13-.08,4.74,4.74,0,0,0-2.32.55,4.08,4.08,0,0,0-1.6,1.51,4,4,0,0,0-.59,2.19v11.53Z"/><path class="c" d="M262,293.12a2.3,2.3,0,0,1-1.64-.64,2.06,2.06,0,0,1-.68-1.54,2.08,2.08,0,0,1,.68-1.56,2.42,2.42,0,0,1,3.28,0,2.11,2.11,0,0,1,0,3.1A2.29,2.29,0,0,1,262,293.12Zm-1.85,21.79V296h3.67v18.87Z"/><path class="c" d="M272.47,303.7v11.21H268.8V296h3.52v3.07h.24a5.36,5.36,0,0,1,2-2.41,6.31,6.31,0,0,1,3.52-.91,6.89,6.89,0,0,1,3.38.8,5.49,5.49,0,0,1,2.25,2.39,8.72,8.72,0,0,1,.8,3.92v12h-3.67V303.35a4.6,4.6,0,0,0-1.07-3.22,3.82,3.82,0,0,0-2.94-1.16,4.57,4.57,0,0,0-2.27.56,3.85,3.85,0,0,0-1.56,1.61A5.35,5.35,0,0,0,272.47,303.7Z"/><path class="c" d="M298.27,296V299H288V296Zm-7.54-4.53h3.67v17.86a3.22,3.22,0,0,0,.32,1.6,1.56,1.56,0,0,0,.83.72,3.08,3.08,0,0,0,1.11.19,4.5,4.5,0,0,0,.78-.06l.51-.09.67,3a6.49,6.49,0,0,1-.91.25,7.51,7.51,0,0,1-1.48.14,6.43,6.43,0,0,1-2.7-.51,4.66,4.66,0,0,1-2-1.67,5,5,0,0,1-.77-2.84Z"/></g><g class="e"><path class="c" d="M248.6,390.44h-3.83a5.9,5.9,0,0,0-.83-2.16,6.19,6.19,0,0,0-1.47-1.59,6.38,6.38,0,0,0-1.95-1,7.76,7.76,0,0,0-2.28-.33,7.09,7.09,0,0,0-3.89,1.09,7.43,7.43,0,0,0-2.7,3.21,14,14,0,0,0,0,10.34,7.29,7.29,0,0,0,2.71,3.2,7.14,7.14,0,0,0,3.87,1.08,7.74,7.74,0,0,0,2.27-.33,6.18,6.18,0,0,0,1.94-1,6,6,0,0,0,2.33-3.7h3.83a10.24,10.24,0,0,1-1.19,3.41,9.34,9.34,0,0,1-2.24,2.68,10.29,10.29,0,0,1-3.13,1.74,11.52,11.52,0,0,1-3.83.61,11,11,0,0,1-5.83-1.55,10.81,10.81,0,0,1-4-4.45,17,17,0,0,1,0-13.84,10.61,10.61,0,0,1,9.85-6,12,12,0,0,1,3.74.57,9.77,9.77,0,0,1,3.12,1.67,9.17,9.17,0,0,1,2.3,2.68A10.23,10.23,0,0,1,248.6,390.44Z"/><path class="c" d="M258.34,407.84a7.6,7.6,0,0,1-3.24-.67,5.39,5.39,0,0,1-2.29-1.95,5.56,5.56,0,0,1-.84-3.13,5.07,5.07,0,0,1,.61-2.63,4.48,4.48,0,0,1,1.66-1.63,8.14,8.14,0,0,1,2.33-.91,23,23,0,0,1,2.63-.47l2.75-.33a3.83,3.83,0,0,0,1.54-.42,1,1,0,0,0,.48-1v-.08a3.34,3.34,0,0,0-.9-2.5,3.71,3.71,0,0,0-2.69-.88,4.71,4.71,0,0,0-2.92.81,4.4,4.4,0,0,0-1.46,1.82l-3.46-.79a6.65,6.65,0,0,1,1.8-2.78,7.23,7.23,0,0,1,2.74-1.55,10.88,10.88,0,0,1,3.25-.49,11.46,11.46,0,0,1,2.4.27,7.19,7.19,0,0,1,2.39,1,5.36,5.36,0,0,1,1.82,2,6.86,6.86,0,0,1,.72,3.36v12.53h-3.59v-2.58h-.15a5.13,5.13,0,0,1-1.07,1.4,5.5,5.5,0,0,1-1.83,1.14A7,7,0,0,1,258.34,407.84Zm.8-2.95a5.3,5.3,0,0,0,2.61-.6,4.22,4.22,0,0,0,1.66-1.58,4.09,4.09,0,0,0,.57-2.1v-2.43a1.85,1.85,0,0,1-.75.36,9.38,9.38,0,0,1-1.28.29l-1.38.21-1.13.15a9,9,0,0,0-1.95.45,3.36,3.36,0,0,0-1.4.92,2.3,2.3,0,0,0-.52,1.58,2.35,2.35,0,0,0,1,2.06A4.45,4.45,0,0,0,259.14,404.89Z"/><path class="c" d="M286.69,393.16l-3.33.59a4,4,0,0,0-.66-1.22,3.44,3.44,0,0,0-1.21-.95,4.46,4.46,0,0,0-1.91-.36,4.62,4.62,0,0,0-2.6.69,2.06,2.06,0,0,0-1,1.79,1.86,1.86,0,0,0,.7,1.52,5.61,5.61,0,0,0,2.26.95l3,.68a8.22,8.22,0,0,1,3.89,1.86,4.37,4.37,0,0,1,1.27,3.26,4.92,4.92,0,0,1-1,3,6.48,6.48,0,0,1-2.72,2.07,10.08,10.08,0,0,1-4,.75,9,9,0,0,1-5.17-1.36,5.65,5.65,0,0,1-2.46-3.86l3.55-.54a3.4,3.4,0,0,0,1.36,2.09,4.62,4.62,0,0,0,2.69.71,4.9,4.9,0,0,0,2.89-.76,2.2,2.2,0,0,0,1.08-1.84,1.94,1.94,0,0,0-.66-1.49,4.29,4.29,0,0,0-2-.91l-3.2-.7a7.6,7.6,0,0,1-3.9-1.92,4.6,4.6,0,0,1-1.26-3.33,4.72,4.72,0,0,1,.94-2.92,6.08,6.08,0,0,1,2.58-2,9.46,9.46,0,0,1,3.77-.71,7.83,7.83,0,0,1,4.81,1.32A6.18,6.18,0,0,1,286.69,393.16Z"/><path class="c" d="M299.89,388.55v2.95H289.58v-2.95ZM292.35,384H296v17.85a3.2,3.2,0,0,0,.32,1.6,1.62,1.62,0,0,0,.83.73,3.31,3.31,0,0,0,1.11.19,4.42,4.42,0,0,0,.78-.06l.51-.1.67,3a6.29,6.29,0,0,1-.91.26,8.36,8.36,0,0,1-1.48.14,6.6,6.6,0,0,1-2.7-.52,4.72,4.72,0,0,1-2-1.67,5,5,0,0,1-.77-2.84Z"/><path class="c" d="M313.11,407.42V388.55h3.53v3.07h.23a4.93,4.93,0,0,1,1.93-2.44,5.75,5.75,0,0,1,3.21-.88,5.44,5.44,0,0,1,3.17.89,5.19,5.19,0,0,1,1.9,2.43h.2a5.33,5.33,0,0,1,2.15-2.41,6.51,6.51,0,0,1,3.51-.91,5.75,5.75,0,0,1,4.2,1.61,6.59,6.59,0,0,1,1.63,4.86v12.65h-3.68V395.11a3.43,3.43,0,0,0-1-2.78,3.83,3.83,0,0,0-2.5-.86,3.6,3.6,0,0,0-2.79,1.1,4.08,4.08,0,0,0-1,2.82v12h-3.66V394.88a3.28,3.28,0,0,0-1-2.47,3.44,3.44,0,0,0-2.49-.94,3.64,3.64,0,0,0-1.93.55,4.06,4.06,0,0,0-1.41,1.52,4.51,4.51,0,0,0-.53,2.25v11.63Z"/><path class="c" d="M351.81,407.8a9.19,9.19,0,0,1-4.8-1.2,8,8,0,0,1-3.09-3.37,12.55,12.55,0,0,1,0-10.23,8.29,8.29,0,0,1,3.05-3.46,8.42,8.42,0,0,1,4.58-1.24,9.31,9.31,0,0,1,3.1.53,7.47,7.47,0,0,1,2.69,1.66,7.72,7.72,0,0,1,1.88,2.93,12.26,12.26,0,0,1,.69,4.37v1.3h-15v-2.75h11.4a5.51,5.51,0,0,0-.59-2.58,4.47,4.47,0,0,0-1.65-1.77,4.71,4.71,0,0,0-2.49-.65,4.85,4.85,0,0,0-2.7.75,5.24,5.24,0,0,0-1.77,2,5.71,5.71,0,0,0-.62,2.62v2.15a7.16,7.16,0,0,0,.67,3.22,4.66,4.66,0,0,0,1.88,2,5.45,5.45,0,0,0,2.81.7,5.69,5.69,0,0,0,1.9-.3,4,4,0,0,0,1.49-.91,3.87,3.87,0,0,0,1-1.48l3.48.62a6.28,6.28,0,0,1-1.5,2.69,7.2,7.2,0,0,1-2.69,1.78A10,10,0,0,1,351.81,407.8Z"/><path class="c" d="M371.06,407.79a7.27,7.27,0,0,1-4.07-1.17,7.92,7.92,0,0,1-2.8-3.36,14,14,0,0,1,0-10.47,7.88,7.88,0,0,1,2.82-3.33,7.36,7.36,0,0,1,4.07-1.16,5.92,5.92,0,0,1,2.83.59,5.15,5.15,0,0,1,1.67,1.36,11.11,11.11,0,0,1,.93,1.36h.22v-9.35h3.67v25.16h-3.58v-2.94h-.31a9.88,9.88,0,0,1-.95,1.38,5.35,5.35,0,0,1-1.7,1.35A5.92,5.92,0,0,1,371.06,407.79Zm.82-3.13a4.29,4.29,0,0,0,2.68-.84,5.28,5.28,0,0,0,1.67-2.35,10.91,10.91,0,0,0,0-6.93,5.07,5.07,0,0,0-1.66-2.29,4.85,4.85,0,0,0-5.47,0,5.22,5.22,0,0,0-1.66,2.35,9.32,9.32,0,0,0-.56,3.36,9.82,9.82,0,0,0,.56,3.4,5.4,5.4,0,0,0,1.68,2.39A4.33,4.33,0,0,0,371.88,404.66Z"/><path class="c" d="M387.5,385.64a2.31,2.31,0,0,1-1.64-.65,2.1,2.1,0,0,1,0-3.09,2.39,2.39,0,0,1,3.28,0,2,2,0,0,1,.69,1.54,2.05,2.05,0,0,1-.69,1.55A2.3,2.3,0,0,1,387.5,385.64Zm-1.85,21.78V388.55h3.67v18.87Z"/><path class="c" d="M399.75,407.84a7.6,7.6,0,0,1-3.24-.67,5.39,5.39,0,0,1-2.29-1.95,5.56,5.56,0,0,1-.84-3.13,5.07,5.07,0,0,1,.61-2.63,4.48,4.48,0,0,1,1.66-1.63,8.14,8.14,0,0,1,2.33-.91,23,23,0,0,1,2.63-.47l2.75-.33a3.83,3.83,0,0,0,1.54-.42,1,1,0,0,0,.48-1v-.08a3.34,3.34,0,0,0-.9-2.5,3.71,3.71,0,0,0-2.69-.88,4.71,4.71,0,0,0-2.92.81,4.48,4.48,0,0,0-1.46,1.82l-3.46-.79a6.65,6.65,0,0,1,1.8-2.78,7.3,7.3,0,0,1,2.74-1.55,10.88,10.88,0,0,1,3.25-.49,11.46,11.46,0,0,1,2.4.27,7.19,7.19,0,0,1,2.39,1,5.36,5.36,0,0,1,1.82,2,6.86,6.86,0,0,1,.72,3.36v12.53h-3.59v-2.58h-.15a5.13,5.13,0,0,1-1.07,1.4,5.5,5.5,0,0,1-1.83,1.14A7,7,0,0,1,399.75,407.84Zm.8-2.95a5.3,5.3,0,0,0,2.61-.6,4.22,4.22,0,0,0,1.66-1.58,4.09,4.09,0,0,0,.57-2.1v-2.43a1.85,1.85,0,0,1-.75.36,9.38,9.38,0,0,1-1.28.29L402,399l-1.13.15a9,9,0,0,0-2,.45,3.36,3.36,0,0,0-1.4.92,2.3,2.3,0,0,0-.52,1.58,2.35,2.35,0,0,0,1,2.06A4.45,4.45,0,0,0,400.55,404.89Z"/><path class="c" d="M431.93,388.55v2.95H421.62v-2.95ZM424.39,384h3.67v17.85a3.2,3.2,0,0,0,.32,1.6,1.62,1.62,0,0,0,.83.73,3.31,3.31,0,0,0,1.11.19,4.38,4.38,0,0,0,.77-.06l.52-.1.66,3a5.61,5.61,0,0,1-.91.26,8.14,8.14,0,0,1-1.47.14,6.54,6.54,0,0,1-2.7-.52,4.66,4.66,0,0,1-2-1.67,4.88,4.88,0,0,1-.77-2.84Z"/><path class="c" d="M443.74,407.8a8.7,8.7,0,0,1-4.64-1.21,8.33,8.33,0,0,1-3.07-3.41,12.57,12.57,0,0,1,0-10.24,8.23,8.23,0,0,1,3.07-3.42,9.41,9.41,0,0,1,9.27,0,8.16,8.16,0,0,1,3.07,3.42,12.57,12.57,0,0,1,0,10.24,8.26,8.26,0,0,1-3.07,3.41A8.69,8.69,0,0,1,443.74,407.8Zm0-3.08a4.41,4.41,0,0,0,2.85-.91,5.45,5.45,0,0,0,1.68-2.42,10.51,10.51,0,0,0,0-6.65,5.46,5.46,0,0,0-1.68-2.44,4.91,4.91,0,0,0-5.72,0,5.31,5.31,0,0,0-1.68,2.44,10.33,10.33,0,0,0,0,6.65,5.3,5.3,0,0,0,1.68,2.42A4.42,4.42,0,0,0,443.75,404.72Z"/><path class="c" d="M472.85,407.79a7.27,7.27,0,0,1-4.07-1.17,7.92,7.92,0,0,1-2.8-3.36,14,14,0,0,1,0-10.47,7.88,7.88,0,0,1,2.82-3.33,7.36,7.36,0,0,1,4.07-1.16,5.92,5.92,0,0,1,2.83.59,5.15,5.15,0,0,1,1.67,1.36,11.11,11.11,0,0,1,.93,1.36h.22v-9.35h3.67v25.16h-3.58v-2.94h-.31a9.88,9.88,0,0,1-.95,1.38,5.28,5.28,0,0,1-1.71,1.35A5.85,5.85,0,0,1,472.85,407.79Zm.81-3.13a4.3,4.3,0,0,0,2.69-.84,5.28,5.28,0,0,0,1.67-2.35,10.91,10.91,0,0,0,0-6.93,5.07,5.07,0,0,0-1.66-2.29,4.85,4.85,0,0,0-5.47,0,5.22,5.22,0,0,0-1.66,2.35,9.32,9.32,0,0,0-.56,3.36,9.59,9.59,0,0,0,.56,3.4,5.4,5.4,0,0,0,1.68,2.39A4.32,4.32,0,0,0,473.66,404.66Z"/><path class="c" d="M495.57,407.8a9.19,9.19,0,0,1-4.8-1.2,7.89,7.89,0,0,1-3.09-3.37,12.55,12.55,0,0,1,0-10.23,8.34,8.34,0,0,1,3-3.46,8.47,8.47,0,0,1,4.59-1.24,9.31,9.31,0,0,1,3.1.53,7.56,7.56,0,0,1,2.69,1.66,7.84,7.84,0,0,1,1.88,2.93,12.26,12.26,0,0,1,.69,4.37v1.3h-15v-2.75h11.4a5.51,5.51,0,0,0-.59-2.58,4.56,4.56,0,0,0-1.66-1.77,4.65,4.65,0,0,0-2.48-.65,4.82,4.82,0,0,0-2.7.75,5.08,5.08,0,0,0-1.77,2,5.71,5.71,0,0,0-.62,2.62v2.15a7,7,0,0,0,.67,3.22,4.7,4.7,0,0,0,1.87,2,5.49,5.49,0,0,0,2.82.7,5.74,5.74,0,0,0,1.9-.3,4.13,4.13,0,0,0,1.49-.91,4,4,0,0,0,1-1.48l3.47.62a6.27,6.27,0,0,1-1.49,2.69,7.28,7.28,0,0,1-2.69,1.78A10.07,10.07,0,0,1,495.57,407.8Z"/><path class="c" d="M523.34,388.55l-6.85,18.87h-3.93l-6.85-18.87h3.94l4.78,14.52h.19l4.77-14.52Z"/><path class="c" d="M528.64,385.64A2.31,2.31,0,0,1,527,385a2.1,2.1,0,0,1,0-3.09,2.39,2.39,0,0,1,3.28,0,2,2,0,0,1,.69,1.54,2.05,2.05,0,0,1-.69,1.55A2.3,2.3,0,0,1,528.64,385.64Zm-1.85,21.78V388.55h3.67v18.87Z"/><path class="c" d="M543.35,407.8a8.54,8.54,0,0,1-4.71-1.25,8.05,8.05,0,0,1-3-3.44,11.59,11.59,0,0,1-1.06-5,11.4,11.4,0,0,1,1.08-5.08,8.39,8.39,0,0,1,3-3.45,8.57,8.57,0,0,1,4.63-1.24,8.91,8.91,0,0,1,3.84.8,6.88,6.88,0,0,1,2.72,2.21,6.72,6.72,0,0,1,1.23,3.33h-3.57a4.34,4.34,0,0,0-1.35-2.28,4,4,0,0,0-2.8-1,4.55,4.55,0,0,0-2.69.81,5.17,5.17,0,0,0-1.79,2.28,8.89,8.89,0,0,0-.64,3.5,9.17,9.17,0,0,0,.63,3.56,5.26,5.26,0,0,0,1.78,2.32,4.49,4.49,0,0,0,2.71.82,4.66,4.66,0,0,0,1.89-.38,3.85,3.85,0,0,0,1.44-1.12,4.26,4.26,0,0,0,.82-1.74h3.57a7,7,0,0,1-1.19,3.27,6.84,6.84,0,0,1-2.66,2.26A8.68,8.68,0,0,1,543.35,407.8Z"/><path class="c" d="M563.18,407.8a9.19,9.19,0,0,1-4.8-1.2,7.89,7.89,0,0,1-3.09-3.37,12.55,12.55,0,0,1,0-10.23,8.34,8.34,0,0,1,3-3.46,8.47,8.47,0,0,1,4.59-1.24,9.31,9.31,0,0,1,3.1.53,7.56,7.56,0,0,1,2.69,1.66,7.84,7.84,0,0,1,1.88,2.93,12.26,12.26,0,0,1,.69,4.37v1.3h-15v-2.75h11.41a5.51,5.51,0,0,0-.59-2.58,4.56,4.56,0,0,0-1.66-1.77,4.68,4.68,0,0,0-2.48-.65,4.8,4.8,0,0,0-2.7.75,5.08,5.08,0,0,0-1.77,2,5.71,5.71,0,0,0-.62,2.62v2.15a7,7,0,0,0,.67,3.22,4.64,4.64,0,0,0,1.87,2,5.49,5.49,0,0,0,2.82.7,5.74,5.74,0,0,0,1.9-.3,4,4,0,0,0,2.45-2.39l3.47.62a6.27,6.27,0,0,1-1.49,2.69,7.28,7.28,0,0,1-2.69,1.78A10.11,10.11,0,0,1,563.18,407.8Z"/></g><polygon class="f" points="425.58 257.54 416.85 268.1 396.41 292.77 396.41 207.22 468.28 254.87 443.72 256.4 434.73 256.97 425.58 257.54"/></svg>