<svg xmlns="http://www.w3.org/2000/svg" xmlns:xlink="http://www.w3.org/1999/xlink" viewBox="0 0 800 500"><defs><style>.a{fill:none;}.b{fill:#e6e7e8;}.c{clip-path:url(#a);}.d{fill:#bcbec0;}.e{fill:#f05455;}.f{fill:#ee2649;}.g{fill:#1b87c9;stroke:#38a4dd;stroke-width:16px;}.g,.i{stroke-miterlimit:10;}.h{fill:#fff;}.i{fill:#f1f2f2;stroke:#a7a9ac;stroke-width:4px;}</style><clipPath id="a"><circle class="a" cx="387.95" cy="228.72" r="152.91"/></clipPath></defs><circle class="b" cx="387.95" cy="228.72" r="152.91"/><g class="c"><path class="d" d="M492.21,95.4l-40.85,14.71a14,14,0,0,0-2.64,25.12h0a14,14,0,0,1,.7,23.38l-24.32,17.2a14.06,14.06,0,0,0-5.76,9.31l-5.5,35.5a14,14,0,0,0,8.76,15.21L441,243a14,14,0,0,0,9.32.32l31-9.75a14,14,0,0,1,15.52,5.1l28.66,39.16a14.06,14.06,0,0,0,12.93,5.66l6.37-.74a14,14,0,0,0,12.1-10.93c5.78-26.42,21.23-97.34,20.88-99.88S525.25,117,506.88,98.68A14,14,0,0,0,492.21,95.4Z"/><path class="d" d="M250.05,242.29l40.76,1.35a38.17,38.17,0,0,1,36.67,33.94h0a38.15,38.15,0,0,0,5.65,16.17L350.35,321a38.21,38.21,0,0,1,4.59,30.24l-5.37,20.05a38.18,38.18,0,0,1-38,28.28l-31-.95A38.15,38.15,0,0,1,246.4,375L213.49,295A38.16,38.16,0,0,1,250.05,242.29Z"/></g><rect class="e" x="524.58" y="342.41" width="13.81" height="28.06" rx="5" transform="translate(-96.37 480.22) rotate(-45)"/><rect class="f" x="525.59" y="344.85" width="6.9" height="28.06" rx="3.45" transform="translate(-98.81 479.21) rotate(-45)"/><rect class="e" x="552.32" y="343.56" width="20.52" height="87.93" rx="5" transform="translate(1234.4 263.76) rotate(135)"/><rect class="f" x="560.87" y="340.02" width="10.26" height="87.34" rx="5" transform="translate(1237.53 254.79) rotate(135)"/><circle class="g" cx="477.81" cy="300.29" r="66.25"/><path class="h" d="M484.17,275.21c-15.58-7.33-21.22.22-22.93-5.42-2.39-7.87,11.4-19.16,30.39-12.6,17.48,6,19.85,26.52,12.6,30.4C499,290.37,501.3,283.26,484.17,275.21Z"/><path class="i" d="M363.83,177a5,5,0,0,1-5-5V172A34.15,34.15,0,0,0,315,139.29a45.71,45.71,0,1,0-87.08,27.76,7.49,7.49,0,0,1-7,10h0a20.1,20.1,0,0,0-20.09,20.1h0a20.09,20.09,0,0,0,20.09,20.09h141A20.09,20.09,0,0,0,382,197.11h0a20.1,20.1,0,0,0-20.1-20.1Z"/></svg>