<svg xmlns="http://www.w3.org/2000/svg" xmlns:xlink="http://www.w3.org/1999/xlink" viewBox="0 0 800 500"><defs><style>.a{fill:none;}.b{fill:#006838;}.c{fill:#a7a9ac;}.d{fill:#983943;}.e{isolation:isolate;}.f{clip-path:url(#a);}.g{fill:#8e1f35;}.h{fill:#912037;}.i{fill:#952238;}.j{fill:#98233a;}.k{fill:#9c243c;}.l{fill:#9f263d;}.m{clip-path:url(#b);}.n{fill:#a3273f;}.o{clip-path:url(#c);}.p{fill:#e6e7e8;}.q{fill:#39b54a;}.r{fill:#009444;}.s{fill:#d1d3d4;}.t{fill:#bcbec0;}</style><clipPath id="a"><path class="a" d="M196.36,232.6a6.09,6.09,0,0,1-2,4.29l.08-26.42a6.13,6.13,0,0,0,2-4.29C196.42,214.11,196.39,224.68,196.36,232.6Z"/></clipPath><clipPath id="b"><path class="a" d="M192.68,238.63q0-13.22.07-26.42l0,0a18.09,18.09,0,0,1,1.68-1.72l-.08,26.42a18.12,18.12,0,0,0-1.68,1.72Z"/></clipPath><clipPath id="c"><path class="a" d="M192.68,238.63a12.64,12.64,0,0,0-3.21,8.13l.07-26.41a12.77,12.77,0,0,1,3.21-8.14q0,13.11-.07,26.23h0v.1A.21.21,0,0,1,192.68,238.63Z"/></clipPath></defs><path class="b" d="M486.39,172.31c-3.11-1.75-6.81-2.19-10-3.81-7.32-3-13.27-9.87-13-16.4l-.07,26.41c-.25,9.3,9.83,16.35,19.13,18.64,3.56.93,8.1,3.74,8,7.39l.08-26.41C490.6,176,489.08,173.86,486.39,172.31Z"/><path class="c" d="M400.78,153.2c-2.81,3.18-7.27,4.27-11.37,4.52-3.71.31-7.26-.76-10.83-1.6a55.92,55.92,0,0,0-21-.11c-10.7,2.08-22.5,7.06-27.32,17.49a14.78,14.78,0,0,0-1.24,5.78l-.08,26.42c.07-6.88,5-12.56,10.49-16.23,10.55-6.94,23.89-9.12,36.29-7.42,3.24.36,6.3,1.56,9.52,1.95a22.39,22.39,0,0,0,11.31-1.44,11.23,11.23,0,0,0,4.19-2.94l24.38-29.44.07-26.42Z"/><path class="d" d="M192.64,200.24a15.85,15.85,0,0,0-1.9-.92c-.62-.25-1.27-.46-1.93-.66l-56.32-15.73-.07,26.42,56.31,15.73c3.52.82,8.17,3.89,8,7.34l.07-26.42C196.77,203.86,195.3,201.77,192.64,200.24Z"/><g class="e"><g class="f"><g class="e"><path class="g" d="M196.44,206.19l-.08,26.41v.13l.08-26.42v-.12"/><path class="h" d="M196.44,206.31l-.08,26.42a6.13,6.13,0,0,1-.09.85l.07-26.42a4.81,4.81,0,0,0,.1-.85"/><path class="i" d="M196.34,207.16l-.07,26.42a6.48,6.48,0,0,1-.24.83L196.1,208a5.19,5.19,0,0,0,.24-.83"/><path class="j" d="M196.1,208,196,234.41a6.4,6.4,0,0,1-.4.84l.08-26.41a6.42,6.42,0,0,0,.39-.85"/><path class="k" d="M195.71,208.84l-.08,26.41a5.71,5.71,0,0,1-.61.9l.08-26.41a9.52,9.52,0,0,0,.61-.9"/><path class="l" d="M195.1,209.74,195,236.15a7.33,7.33,0,0,1-.65.74l.08-26.42c.24-.24.45-.49.65-.73"/></g></g></g><g class="e"><g class="m"><g class="e"><path class="n" d="M194.45,210.47l-.08,26.42-.2.18.08-26.42.2-.18"/><path class="l" d="M194.25,210.65l-.08,26.42a19.39,19.39,0,0,0-1.48,1.54c-.1.12-.19.24-.29.35l.08-26.41.29-.36a17.76,17.76,0,0,1,1.48-1.54"/></g></g></g><g class="e"><g class="o"><g class="e"><path class="l" d="M194.25,210.65l-.08,26.42a19.39,19.39,0,0,0-1.48,1.54c-.1.12-.19.24-.29.35l.08-26.41.29-.36a17.76,17.76,0,0,1,1.48-1.54"/><path class="k" d="M192.48,212.55,192.4,239a17.58,17.58,0,0,0-1.33,2l.08-26.41a14.91,14.91,0,0,1,1.33-2"/><path class="j" d="M191.15,214.53l-.08,26.41a13.92,13.92,0,0,0-.86,1.85l.07-26.42a12.26,12.26,0,0,1,.87-1.84"/><path class="i" d="M190.28,216.37l-.07,26.42a12.14,12.14,0,0,0-.53,1.82l.08-26.42a11.31,11.31,0,0,1,.52-1.82"/><path class="h" d="M189.76,218.19l-.08,26.42a11.9,11.9,0,0,0-.21,1.87l.07-26.42a10.84,10.84,0,0,1,.22-1.87"/><path class="g" d="M189.54,220.06l-.07,26.42v.29l.07-26.42v-.29"/></g></g></g><path class="c" d="M354.77,208.76l-24.38,29.45-46.16-12.89c-.46-.13-.92-.24-1.39-.34h0l-.43-.07c-.31-.06-.62-.12-.94-.16h-.07l-.47,0-.82-.1H280c-.19,0-.38,0-.57,0l-.66,0h-.86c-.19,0-.37,0-.56,0h-.19l-.88.06-.48,0-.13,0c-.55.06-1.09.13-1.63.23H274l-.58.13-.73.16-.61.17-.69.19-.07,0-.17.07c-.46.15-.89.32-1.31.5l-.41.18a13.12,13.12,0,0,0-1.18.62L268,227l0,0-.36.23c-.19.13-.39.26-.57.4l-.35.28c-.13.11-.28.22-.4.34l-.06.06a7.33,7.33,0,0,0-.81.87h0a6.36,6.36,0,0,0-.56.83c-.19.33-.39.65-.6.95-.06.1-.14.19-.21.29s-.32.45-.49.66-.55.64-.85.95c-.1.12-.22.22-.33.33l-.59.59c-.31.28-.63.56-1,.84l-.21.16-.82.64-.4.28-.7.48-.48.3c-.21.14-.43.28-.66.41-.51.3-1,.59-1.57.87l-.37.19-1.34.64-.49.22c-.57.24-1.15.48-1.75.71h0c-.61.24-1.24.45-1.87.66l-.43.13c-.94.3-1.9.57-2.89.82l-.39.1c-1,.24-2,.46-3,.65l-.5.09c-.64.11-1.27.21-1.92.3l-.24,0c-.73.1-1.46.19-2.2.26l-.68.07-1.32.11-.74.05-1.37.07-.7,0c-.42,0-.85,0-1.28,0h-.68l-1.65,0h-.31c-1.32,0-2.65-.11-4-.22l-.68-.06-1.25-.12-.81-.1-1.17-.14-.8-.12-1.26-.2-.81-.14-1.26-.24-.78-.16-1.4-.31L215,241c-.68-.16-1.36-.34-2-.53l-.55-.16c-.79-.23-1.56-.46-2.31-.71l-.3-.1c-.78-.27-1.55-.55-2.29-.84l-.56-.22L206,238l-.64-.28-.92-.42-.59-.27c-.33-.16-.65-.32-1-.49l-.47-.24c-.47-.24-.93-.49-1.37-.75-7.38-4.26-11.54-9.82-11.53-15.34l-.07,26.42c0,5.52,4.15,11.08,11.52,15.34.45.25.91.51,1.37.75l.47.24,1,.49.58.27.93.42.64.27c.31.14.62.27.94.39l.32.14.23.08c.75.29,1.51.57,2.29.84l.31.09c.75.25,1.51.49,2.3.72l.24.08.32.08c.67.19,1.34.37,2,.53l.66.16,1.39.31.3.06.49.1,1.25.24.82.14,1.25.2.51.08.3,0,1.16.15.82.1,1.23.12.61.06h.09c1.32.11,2.65.18,4,.22h.06c1.33,0,2.65,0,3.95,0h.13l.49,0,1.36-.06.75-.06,1.31-.1.46,0,.23,0c.73-.08,1.47-.16,2.19-.26l.25,0c.64-.09,1.28-.19,1.91-.3l.29-.05.21-.05c1-.19,2-.4,3-.64l.39-.1c1-.25,1.95-.52,2.89-.82l.2-.06.22-.07c.64-.21,1.26-.43,1.87-.66h0c.6-.23,1.18-.47,1.75-.72l.49-.21c.46-.21.91-.42,1.35-.65l.37-.18c.54-.28,1.06-.57,1.57-.87l.1-.06c.19-.11.37-.23.55-.35l.48-.3.7-.48.4-.28.82-.64.22-.17c.32-.26.64-.54.94-.82h0l.63-.62.3-.3c.29-.31.57-.62.84-.95l.12-.15.37-.51.22-.29c.2-.31.4-.62.59-.95a7.76,7.76,0,0,1,.57-.84,9.16,9.16,0,0,1,.8-.86c.15-.14.31-.27.47-.4l.34-.28.58-.4.35-.24.2-.11c.38-.21.77-.42,1.19-.61l.41-.18c.41-.18.85-.35,1.3-.5l.24-.09.7-.2.61-.17c.24-.06.48-.1.73-.15a6.39,6.39,0,0,1,.63-.13c.53-.1,1.08-.17,1.63-.23l.61-.05L277,251l.76,0h.67l.85,0c.19,0,.38,0,.57,0l.94.09.48.06c.34,0,.68.11,1,.17l.41.07c.48.1.95.21,1.42.34l46.15,12.89,24.38-29.44a7,7,0,0,0,1.06-1.78,5,5,0,0,0,.31-1.67l.08-26.41A5.67,5.67,0,0,1,354.77,208.76Z"/><path class="p" d="M425.16,123.76,400.78,153.2c-3.4,4.11-11.92,5.7-19,3.69-17.48-4.88-39.12.36-48.49,11.67-7.62,9.2-4.76,19.58,5.91,25.73a36.45,36.45,0,0,0,8.54,3.51,17.8,17.8,0,0,1,4.2,1.7c4.13,2.38,5.5,6.05,2.84,9.26l-24.38,29.45-46.16-12.89c-7.61-2.13-16.7.08-19.34,4.71a15.14,15.14,0,0,1-1.3,1.9c-8.49,10.27-31.08,14-50.64,8.51a51.43,51.43,0,0,1-11.9-4.86c-11-6.32-14.82-15.5-8.46-23.19a20.35,20.35,0,0,1,1.86-1.92c3.79-3.39,2.74-7.61-1.81-10.23a16.46,16.46,0,0,0-3.83-1.58l-56.32-15.73L222.9,73.77c2.41-2.91,8.46-4.14,13.5-2.73Z"/><path class="q" d="M751.15,150.43c3,1.71,3.9,4.39,2,6.7l-90.4,109.16-51.57-14.4a16.37,16.37,0,0,1-3.82-1.57c-4.2-2.42-5.44-6.22-2.6-9.46,6.67-8.05,2.8-17.22-8.15-23.55a51.87,51.87,0,0,0-11.9-4.86c-19.56-5.46-42.14-1.75-50.44,8.27-3.55,4.53-12,6.33-19.15,4.34l-50.27-14,24.37-29.44c2.67-3.22,1.3-6.89-2.83-9.27a17.2,17.2,0,0,0-4.06-1.66,37.28,37.28,0,0,1-8.68-3.54c-10.67-6.16-13.53-16.54-5.9-25.74,9.36-11.31,31-16.55,48.34-11.71,7.23,2.05,15.75.47,19.16-3.65l24.37-29.43,188.76,52.71A12.4,12.4,0,0,1,751.15,150.43Z"/><path class="r" d="M754.09,155.12s0,.09,0,.14a3.38,3.38,0,0,1-.17.6c0,.06-.06.12-.08.18a4.11,4.11,0,0,1-.21.42l-.2.3c-.09.12-.16.25-.26.37h0l-90.4,109.16-51.57-14.4a17.83,17.83,0,0,1-3.19-1.23l0-18.08c0-5.57-4.13-11.05-11.43-15.27-16.32-9.28-45.69-11-60.63,1.61h0a20.59,20.59,0,0,0-1.71,1.79v0c-4.26,4.92-11.67,5.82-17.77,4.66-.46-.1-.92-.21-1.37-.34l-50.27-14-.07,26.42,50.27,14a17.57,17.57,0,0,0,2.06.46c5.91,1,13,0,17.07-4.79a0,0,0,0,0,0,0c14.59-16.09,54.31-13.16,69,1.66L603.15,271c0,2.16,1.47,4.25,4.13,5.79a17.75,17.75,0,0,0,3.82,1.57l51.57,14.4,90.4-109.16h0l.08-.1c.07-.09.12-.18.18-.27a2.61,2.61,0,0,0,.2-.3l0,0a3,3,0,0,0,.17-.37l.09-.18v0a4,4,0,0,0,.16-.57h0c0-.05,0-.1,0-.15a2.71,2.71,0,0,0,0-.41V181l.08-26.42A2.94,2.94,0,0,1,754.09,155.12Z"/><path class="c" d="M473.64,260.55a12.14,12.14,0,0,1-2.53,6.47,11.09,11.09,0,0,0-1.67,2.6,5.45,5.45,0,0,0-.36,1.87L469,297.91c0-3.08,3-5,3.87-7.77a11.44,11.44,0,0,0,.72-3.88l.07-26.42C473.67,260.08,473.65,260.31,473.64,260.55Z"/><path class="s" d="M462.14,244.5c11,6.32,14.83,15.5,8.46,23.19-2.89,3.47-1.5,7.43,2.87,10a17.74,17.74,0,0,0,4,1.65l50.77,14.18L444.15,395.06c-5.89,7.1-20.62,10.08-32.91,6.65L60,303.6a29.43,29.43,0,0,1-6.74-2.76c-7.24-4.18-9.51-10.7-4.85-16.33l84.12-101.57,55.78,15.57a19.7,19.7,0,0,1,3.87,1.45c5.29,2.78,6,7.18,2.35,10.46a17,17,0,0,0-1.68,1.72c-6.59,7.94-2.72,17.11,8.24,23.44a51.69,51.69,0,0,0,11.9,4.87c19.56,5.46,42.14,1.75,50.44-8.28a15,15,0,0,0,1.49-2.12c2.58-4.84,11.52-6.91,19.88-4.58L379.87,252c7.39,2.07,16.33.25,19.86-4,8.37-10.12,30.95-13.82,50.52-8.36A51.34,51.34,0,0,1,462.14,244.5Z"/><path class="t" d="M444.15,395.06c-7.87,8.53-22.24,9.43-32.91,6.65L60,303.6a33.56,33.56,0,0,1-3.38-1.15,29.67,29.67,0,0,1-3.36-1.61c-4.69-2.71-7.29-6.4-7.28-10.19l-.08,26.42c-.18,6.3,7.63,11.37,14,12.94,2.44.6,351.44,98.33,353.72,98.71a42.29,42.29,0,0,0,15.66.18c4.9-.94,9.83-2.68,13.55-6.09a15.67,15.67,0,0,0,1.26-1.33L528.19,319.9l.08-26.42Z"/></svg>