<svg xmlns="http://www.w3.org/2000/svg" viewBox="0 0 800 500"><defs><style>.a{fill:#39b54a;}.b{fill:#fff;}.c{fill:#6d6e71;}.d,.e{fill:none;stroke-miterlimit:10;}.d{stroke:#f7941d;stroke-width:6px;}.e{stroke:#39b54a;stroke-width:2px;}.f{fill:#58595b;}</style></defs><rect class="a" y="176.77" width="188.98" height="52.07" rx="6" transform="translate(188.98 405.61) rotate(180)"/><path class="b" d="M26.9,196.27v-2.52H38.77v2.52H34.34v11.94h-3V196.27Z"/><path class="b" d="M44,208.42a5.53,5.53,0,0,1-2.85-.7,4.77,4.77,0,0,1-1.84-2,7,7,0,0,1,0-5.87,4.77,4.77,0,0,1,1.84-2,6.13,6.13,0,0,1,5.69,0,4.77,4.77,0,0,1,1.84,2,7,7,0,0,1,0,5.87,4.77,4.77,0,0,1-1.84,2A5.51,5.51,0,0,1,44,208.42Zm0-2.33a1.89,1.89,0,0,0,1.25-.42A2.71,2.71,0,0,0,46,204.5a5.62,5.62,0,0,0,0-3.38,2.71,2.71,0,0,0-.76-1.17,1.9,1.9,0,0,0-1.25-.43,2,2,0,0,0-1.27.43,2.64,2.64,0,0,0-.77,1.17,5.62,5.62,0,0,0,0,3.38,2.64,2.64,0,0,0,.77,1.17A1.94,1.94,0,0,0,44,206.09Z"/><path class="b" d="M51.3,208.21V197.37h2.91v1.89h.11a2.85,2.85,0,0,1,1-1.53,2.67,2.67,0,0,1,1.61-.52l.49,0,.46.08V200a4.21,4.21,0,0,0-.59-.11,4.27,4.27,0,0,0-.68,0,2.43,2.43,0,0,0-1.19.28,2.17,2.17,0,0,0-.82.8,2.24,2.24,0,0,0-.3,1.17v6.13Z"/><path class="b" d="M59.42,208.21V197.37h2.92v1.89h.11a2.85,2.85,0,0,1,1-1.53,2.65,2.65,0,0,1,1.61-.52l.48,0a3.93,3.93,0,0,1,.46.08V200a3.77,3.77,0,0,0-.58-.11,4.31,4.31,0,0,0-.69,0,2.39,2.39,0,0,0-1.18.28,2.1,2.1,0,0,0-.82.8,2.24,2.24,0,0,0-.3,1.17v6.13Z"/><path class="b" d="M72,208.42a5.73,5.73,0,0,1-2.88-.68,4.59,4.59,0,0,1-1.85-1.93,7,7,0,0,1,0-5.91,4.77,4.77,0,0,1,1.83-2,5.34,5.34,0,0,1,2.78-.7,5.68,5.68,0,0,1,2,.34,4.57,4.57,0,0,1,1.63,1,4.68,4.68,0,0,1,1.08,1.72,6.8,6.8,0,0,1,.39,2.41v.83H67.8V201.7h6.33a2.26,2.26,0,0,0-.29-1.15,1.91,1.91,0,0,0-.78-.79,2.26,2.26,0,0,0-1.15-.29,2.28,2.28,0,0,0-2,1.16,2.43,2.43,0,0,0-.31,1.17v1.77a3,3,0,0,0,.3,1.39,2.17,2.17,0,0,0,.85.9,2.62,2.62,0,0,0,1.31.32A3,3,0,0,0,73,206a2,2,0,0,0,.71-.43,1.66,1.66,0,0,0,.45-.69l2.78.19a3.71,3.71,0,0,1-.86,1.74A4.33,4.33,0,0,1,74.35,208,6.19,6.19,0,0,1,72,208.42Z"/><path class="b" d="M81.93,201.94v6.27h-3V197.37h2.87v1.91h.13a3.06,3.06,0,0,1,1.2-1.5,3.68,3.68,0,0,1,2.06-.55,3.82,3.82,0,0,1,2,.49,3.35,3.35,0,0,1,1.3,1.41,4.77,4.77,0,0,1,.47,2.18v6.9h-3v-6.37a2.12,2.12,0,0,0-.51-1.55,1.8,1.8,0,0,0-1.42-.56,2.1,2.1,0,0,0-1.07.26,1.89,1.89,0,0,0-.72.76A2.58,2.58,0,0,0,81.93,201.94Z"/><path class="b" d="M97.05,197.37v2.26H90.52v-2.26Zm-5-2.6h3v10.11a1.31,1.31,0,0,0,.13.65.68.68,0,0,0,.35.32,1.53,1.53,0,0,0,.54.09,2,2,0,0,0,.42,0l.33-.06.47,2.24a6.51,6.51,0,0,1-.64.16,5.39,5.39,0,0,1-2.89-.17,2.6,2.6,0,0,1-1.27-1,3.17,3.17,0,0,1-.45-1.76Z"/><path class="b" d="M108.52,208.42a5.57,5.57,0,0,1-2.87-.7,4.79,4.79,0,0,1-1.83-2,6.3,6.3,0,0,1-.64-2.91,6.19,6.19,0,0,1,.65-2.92,4.73,4.73,0,0,1,1.84-2,5.36,5.36,0,0,1,2.83-.71,5.71,5.71,0,0,1,2.49.51,4.13,4.13,0,0,1,2.37,3.64h-2.84a2.22,2.22,0,0,0-.63-1.31,1.85,1.85,0,0,0-1.34-.5,2.06,2.06,0,0,0-1.22.38,2.44,2.44,0,0,0-.8,1.1,4.53,4.53,0,0,0-.29,1.74,4.91,4.91,0,0,0,.28,1.77,2.39,2.39,0,0,0,.81,1.1,2.09,2.09,0,0,0,2.15.17,1.83,1.83,0,0,0,.69-.61,2.29,2.29,0,0,0,.35-1h2.84a4.48,4.48,0,0,1-.67,2.18A4.21,4.21,0,0,1,111,207.9,5.55,5.55,0,0,1,108.52,208.42Z"/><path class="b" d="M118.3,201.94v6.27h-3V193.75h2.93v5.53h.12a3.19,3.19,0,0,1,1.19-1.51,3.67,3.67,0,0,1,2.06-.54,3.82,3.82,0,0,1,2,.49,3.35,3.35,0,0,1,1.31,1.4,4.66,4.66,0,0,1,.46,2.19v6.9h-3v-6.37a2.26,2.26,0,0,0-.51-1.56,1.85,1.85,0,0,0-1.43-.55,2.11,2.11,0,0,0-1.08.26,1.87,1.87,0,0,0-.74.76A2.71,2.71,0,0,0,118.3,201.94Z"/><path class="b" d="M134.66,203.6v-6.23h3v10.84h-2.89v-2h-.11a3.24,3.24,0,0,1-1.22,1.54,4,4,0,0,1-4,.08,3.34,3.34,0,0,1-1.28-1.4,4.78,4.78,0,0,1-.47-2.19v-6.9h3v6.37a2.19,2.19,0,0,0,.52,1.51,1.72,1.72,0,0,0,1.36.56,2.14,2.14,0,0,0,1-.25,1.86,1.86,0,0,0,.76-.74A2.23,2.23,0,0,0,134.66,203.6Z"/><path class="b" d="M143.08,201.94v6.27h-3V197.37h2.86v1.91h.13a3,3,0,0,1,1.21-1.5,3.65,3.65,0,0,1,2-.55,3.79,3.79,0,0,1,2,.49,3.37,3.37,0,0,1,1.31,1.41,4.77,4.77,0,0,1,.47,2.18v6.9h-3v-6.37a2.21,2.21,0,0,0-.51-1.55,1.81,1.81,0,0,0-1.42-.56,2.1,2.1,0,0,0-1.07.26,1.77,1.77,0,0,0-.72.76A2.58,2.58,0,0,0,143.08,201.94Z"/><path class="b" d="M152.43,208.21V193.75h3v14.46Zm2.73-3.12v-3.61h.44l3.47-4.11h3.46l-4.67,5.45h-.71Zm4.05,3.12L156,203.49l2-2.13,4.71,6.85Z"/><path class="a" d="M265.32,201.76l-10.57-10.57a1.48,1.48,0,0,0-2.53,1.05v5.68a1.49,1.49,0,0,1-1.48,1.49H224.9a1.48,1.48,0,0,0-1.48,1.48v3.84a1.48,1.48,0,0,0,1.48,1.48h25.84a1.48,1.48,0,0,1,1.48,1.48v5.68a1.48,1.48,0,0,0,2.53,1l10.57-10.57A1.47,1.47,0,0,0,265.32,201.76Z"/><path class="c" d="M307.86,114.25v-18h11.91V99.4h-8.11v4.29H319v3.13h-7.32v7.43Z"/><path class="c" d="M322.32,114.25v-18h3.8v14.85h7.71v3.13Z"/><path class="c" d="M352.17,105.26a10.48,10.48,0,0,1-1.11,5,7.69,7.69,0,0,1-3,3.14,8.45,8.45,0,0,1-4.29,1.09,8.59,8.59,0,0,1-4.3-1.09,7.82,7.82,0,0,1-3-3.15,11.82,11.82,0,0,1,0-10,7.7,7.7,0,0,1,3-3.15,9,9,0,0,1,8.59,0,7.65,7.65,0,0,1,3,3.15A10.41,10.41,0,0,1,352.17,105.26Zm-3.85,0a8,8,0,0,0-.57-3.21,4.38,4.38,0,0,0-1.59-2,4.3,4.3,0,0,0-2.41-.67,4.25,4.25,0,0,0-2.4.67,4.39,4.39,0,0,0-1.6,2,9.48,9.48,0,0,0,0,6.42,4.34,4.34,0,0,0,1.6,2,4.25,4.25,0,0,0,2.4.68,4.13,4.13,0,0,0,4-2.67A8,8,0,0,0,348.32,105.26Z"/><path class="c" d="M360.72,114.25v-18h3.74V103h.11a5.08,5.08,0,0,1,.72-1.11,3.74,3.74,0,0,1,1.23-1,4.21,4.21,0,0,1,1.89-.38,5.11,5.11,0,0,1,2.72.77,5.29,5.29,0,0,1,2,2.31,8.76,8.76,0,0,1,.75,3.86,9,9,0,0,1-.72,3.8,5.43,5.43,0,0,1-2,2.35,5.06,5.06,0,0,1-2.78.79,4.3,4.3,0,0,1-1.85-.36,3.67,3.67,0,0,1-1.24-.91,4.38,4.38,0,0,1-.74-1.11h-.16v2.16Zm3.66-6.74a6.09,6.09,0,0,0,.33,2.1,3.11,3.11,0,0,0,1,1.39,2.6,2.6,0,0,0,3.08,0,3.13,3.13,0,0,0,1-1.4,6.05,6.05,0,0,0,.33-2.08,6.19,6.19,0,0,0-.32-2.06,3.07,3.07,0,0,0-1-1.38,2.39,2.39,0,0,0-1.56-.5,2.48,2.48,0,0,0-1.54.48,3,3,0,0,0-1,1.37A6,6,0,0,0,364.38,107.51Z"/><path class="c" d="M380.09,96.27v18h-3.74v-18Z"/><path class="c" d="M389.17,114.52a6.87,6.87,0,0,1-3.53-.88,5.89,5.89,0,0,1-2.3-2.44,7.81,7.81,0,0,1-.81-3.64,7.9,7.9,0,0,1,.81-3.66,6,6,0,0,1,2.3-2.44,7.62,7.62,0,0,1,7.07,0A6,6,0,0,1,395,103.9a7.9,7.9,0,0,1,.81,3.66,7.81,7.81,0,0,1-.81,3.64,5.87,5.87,0,0,1-2.29,2.44A6.91,6.91,0,0,1,389.17,114.52Zm0-2.9a2.31,2.31,0,0,0,1.55-.53,3.32,3.32,0,0,0,.95-1.46,7,7,0,0,0,0-4.19,3.32,3.32,0,0,0-.95-1.46,2.27,2.27,0,0,0-1.55-.54,2.37,2.37,0,0,0-1.58.54,3.24,3.24,0,0,0-.95,1.46,7,7,0,0,0,0,4.19,3.24,3.24,0,0,0,.95,1.46A2.41,2.41,0,0,0,389.19,111.62Z"/><path class="c" d="M404.34,114.52a6.87,6.87,0,0,1-3.56-.89,5.86,5.86,0,0,1-2.28-2.45,8.68,8.68,0,0,1,0-7.26,6,6,0,0,1,2.29-2.45,6.75,6.75,0,0,1,3.53-.88,7,7,0,0,1,3.09.64,5.27,5.27,0,0,1,2.1,1.8,5.4,5.4,0,0,1,.85,2.72h-3.53a2.77,2.77,0,0,0-.79-1.63,2.29,2.29,0,0,0-1.66-.62,2.54,2.54,0,0,0-1.52.47,3.06,3.06,0,0,0-1,1.37,5.83,5.83,0,0,0-.36,2.17,6.13,6.13,0,0,0,.35,2.19,3,3,0,0,0,1,1.38,2.48,2.48,0,0,0,1.52.48,2.44,2.44,0,0,0,1.15-.27,2.16,2.16,0,0,0,.85-.77,2.83,2.83,0,0,0,.45-1.21h3.53a5.59,5.59,0,0,1-.84,2.72,5.12,5.12,0,0,1-2.07,1.83A6.9,6.9,0,0,1,404.34,114.52Z"/><path class="c" d="M412.77,114.25v-18h3.74v18Zm3.39-3.88v-4.49h.54l4.33-5.11h4.29l-5.81,6.77h-.88Zm5,3.88-4-5.87,2.5-2.64,5.85,8.51Z"/><path class="c" d="M432.69,114.52a6.81,6.81,0,0,1-3.56-.89,5.83,5.83,0,0,1-2.29-2.45,8.68,8.68,0,0,1,0-7.26,6,6,0,0,1,2.29-2.45,6.75,6.75,0,0,1,3.53-.88,7,7,0,0,1,3.09.64,5.09,5.09,0,0,1,2.95,4.52h-3.53a2.77,2.77,0,0,0-.79-1.63,2.27,2.27,0,0,0-1.66-.62,2.51,2.51,0,0,0-1.51.47,3.08,3.08,0,0,0-1,1.37,5.83,5.83,0,0,0-.36,2.17,5.91,5.91,0,0,0,.36,2.19,2.92,2.92,0,0,0,1,1.38,2.48,2.48,0,0,0,1.52.48,2.41,2.41,0,0,0,1.15-.27,2.19,2.19,0,0,0,.86-.77,3,3,0,0,0,.44-1.21h3.53a5.59,5.59,0,0,1-.84,2.72,5.12,5.12,0,0,1-2.07,1.83A6.83,6.83,0,0,1,432.69,114.52Z"/><path class="c" d="M444.86,106.46v7.79h-3.74v-18h3.63v6.88h.16a3.84,3.84,0,0,1,1.47-1.88,4.54,4.54,0,0,1,2.56-.68,4.74,4.74,0,0,1,2.45.61A4.21,4.21,0,0,1,453,103a5.75,5.75,0,0,1,.57,2.72v8.58h-3.74v-7.92a2.69,2.69,0,0,0-.63-1.94,2.28,2.28,0,0,0-1.77-.69,2.81,2.81,0,0,0-1.35.32,2.28,2.28,0,0,0-.92,1A3.12,3.12,0,0,0,444.86,106.46Z"/><path class="c" d="M460.4,114.51a5.43,5.43,0,0,1-2.3-.46,3.57,3.57,0,0,1-1.6-1.34,3.94,3.94,0,0,1-.58-2.22,4,4,0,0,1,.41-1.89,3.4,3.4,0,0,1,1.12-1.23,5.37,5.37,0,0,1,1.62-.7,12.9,12.9,0,0,1,1.91-.34c.79-.08,1.42-.16,1.9-.23a2.59,2.59,0,0,0,1.05-.33.75.75,0,0,0,.32-.65v-.05a1.6,1.6,0,0,0-.52-1.29,2.15,2.15,0,0,0-1.48-.46,2.69,2.69,0,0,0-1.61.44,2.1,2.1,0,0,0-.79,1.12l-3.46-.29a4.73,4.73,0,0,1,1-2.13,4.91,4.91,0,0,1,2-1.38,7.51,7.51,0,0,1,2.84-.49,8.92,8.92,0,0,1,2.15.26,5.81,5.81,0,0,1,1.84.82,4.14,4.14,0,0,1,1.27,1.42,4.28,4.28,0,0,1,.46,2.07v9.09h-3.55v-1.87h-.1a3.81,3.81,0,0,1-2.18,1.86A5.29,5.29,0,0,1,460.4,114.51Zm1.07-2.58a3.07,3.07,0,0,0,1.45-.33,2.5,2.5,0,0,0,1-.9,2.27,2.27,0,0,0,.36-1.27V108a1.81,1.81,0,0,1-.48.21c-.2.06-.43.11-.68.16l-.76.14-.68.1a4.48,4.48,0,0,0-1.15.3,1.9,1.9,0,0,0-.77.57,1.42,1.42,0,0,0-.27.88,1.36,1.36,0,0,0,.56,1.17A2.41,2.41,0,0,0,461.47,111.93Z"/><path class="c" d="M472.78,99a2,2,0,0,1-1.43-.56,1.75,1.75,0,0,1-.59-1.33,1.79,1.79,0,0,1,.59-1.34,2,2,0,0,1,1.43-.56,2,2,0,0,1,1.43.56,1.73,1.73,0,0,1,.59,1.33,1.76,1.76,0,0,1-.59,1.34A2,2,0,0,1,472.78,99Zm-1.88,15.22V100.77h3.74v13.48Z"/><path class="c" d="M481.36,106.46v7.79h-3.74V100.77h3.57v2.38h.16a3.69,3.69,0,0,1,1.5-1.87,4.54,4.54,0,0,1,2.55-.69,4.74,4.74,0,0,1,2.45.61,4.21,4.21,0,0,1,1.63,1.76,6,6,0,0,1,.57,2.71v8.58h-3.74v-7.92a2.68,2.68,0,0,0-.63-1.93,2.25,2.25,0,0,0-1.76-.7,2.7,2.7,0,0,0-1.33.32,2.24,2.24,0,0,0-.9,1A3.38,3.38,0,0,0,481.36,106.46Z"/><path class="d" d="M377.57,173v11.17a2.17,2.17,0,0,1-2.17,2.16H336.28a2.17,2.17,0,0,1-2.17-2.16V145.05a2.17,2.17,0,0,1,2.17-2.17h15"/><path class="d" d="M361.64,142.88H375.4a2.17,2.17,0,0,1,2.17,2.17v11.17"/><line class="d" x1="351.31" y1="142.88" x2="361.64" y2="142.88"/><circle class="d" cx="355.84" cy="164.61" r="9.16"/><line class="d" x1="365" y1="164.61" x2="420.23" y2="164.61"/><path class="d" d="M433.56,186.74H422.4a2.17,2.17,0,0,1-2.17-2.17V145.45a2.17,2.17,0,0,1,2.17-2.17h39.12a2.17,2.17,0,0,1,2.17,2.17v15"/><path class="d" d="M463.69,170.81v13.76a2.17,2.17,0,0,1-2.17,2.17H450.36"/><line class="d" x1="463.69" y1="160.48" x2="463.69" y2="170.81"/><circle class="d" cx="441.96" cy="165.01" r="9.16"/><line class="d" x1="441.96" y1="174.17" x2="441.96" y2="229.4"/><path class="d" d="M420.23,243.13V232a2.17,2.17,0,0,1,2.17-2.16h39.12a2.17,2.17,0,0,1,2.17,2.16v39.13a2.17,2.17,0,0,1-2.17,2.17h-15"/><path class="d" d="M436.16,273.26H422.4a2.17,2.17,0,0,1-2.17-2.17V259.92"/><line class="d" x1="446.49" y1="273.26" x2="436.16" y2="273.26"/><circle class="d" cx="441.96" cy="251.53" r="9.16"/><line class="d" x1="432.8" y1="251.53" x2="377.57" y2="251.53"/><path class="d" d="M364.24,229.4H375.4a2.17,2.17,0,0,1,2.17,2.17v39.12a2.17,2.17,0,0,1-2.17,2.17H336.28a2.17,2.17,0,0,1-2.17-2.17v-15"/><path class="d" d="M334.11,245.33V231.57a2.17,2.17,0,0,1,2.17-2.17h11.16"/><line class="d" x1="334.11" y1="255.66" x2="334.11" y2="245.33"/><circle class="d" cx="355.84" cy="251.13" r="9.16"/><line class="d" x1="355.84" y1="241.97" x2="355.84" y2="186.74"/><rect class="e" x="608.82" y="176.77" width="188.98" height="52.07" rx="6" transform="translate(1406.62 405.61) rotate(180)"/><path class="a" d="M633.72,196.27v-2.52h11.87v2.52h-4.42v11.94h-3V196.27Z"/><path class="a" d="M646.37,208.21V197.37h2.92v1.89h.11a2.89,2.89,0,0,1,1-1.53,2.69,2.69,0,0,1,1.61-.52l.49,0a3.93,3.93,0,0,1,.46.08V200a3.94,3.94,0,0,0-.59-.11,4.19,4.19,0,0,0-.68,0,2.39,2.39,0,0,0-1.18.28,2.1,2.1,0,0,0-.82.8,2.24,2.24,0,0,0-.3,1.17v6.13Z"/><path class="a" d="M657.29,208.42a4.33,4.33,0,0,1-1.85-.37,2.91,2.91,0,0,1-1.29-1.08,3.2,3.2,0,0,1-.47-1.79,3.15,3.15,0,0,1,.34-1.51,2.68,2.68,0,0,1,.9-1,4.5,4.5,0,0,1,1.3-.57,12,12,0,0,1,1.54-.27c.63-.06,1.14-.12,1.52-.18a2.05,2.05,0,0,0,.84-.27.56.56,0,0,0,.26-.52v0a1.28,1.28,0,0,0-.42-1,1.75,1.75,0,0,0-1.18-.37,2.11,2.11,0,0,0-1.3.36,1.64,1.64,0,0,0-.63.89l-2.78-.22a3.89,3.89,0,0,1,.83-1.72,4,4,0,0,1,1.61-1.11,6.12,6.12,0,0,1,2.28-.39,7,7,0,0,1,1.73.21,4.43,4.43,0,0,1,1.48.66,3.12,3.12,0,0,1,1,1.14,3.42,3.42,0,0,1,.37,1.66v7.31h-2.85v-1.5h-.08a3,3,0,0,1-.7.89,3.2,3.2,0,0,1-1,.6A4.19,4.19,0,0,1,657.29,208.42Zm.86-2.08a2.58,2.58,0,0,0,1.17-.26,2.15,2.15,0,0,0,.8-.72,1.87,1.87,0,0,0,.29-1v-1.15a1.84,1.84,0,0,1-.39.16,4.86,4.86,0,0,1-.55.14l-.6.1-.55.08a4.31,4.31,0,0,0-.93.25,1.45,1.45,0,0,0-.61.46,1.1,1.1,0,0,0-.22.71,1.07,1.07,0,0,0,.45.93A1.94,1.94,0,0,0,658.15,206.34Z"/><path class="a" d="M668.74,201.94v6.27h-3V197.37h2.86v1.91h.13a3,3,0,0,1,1.21-1.5,3.65,3.65,0,0,1,2.05-.55,3.79,3.79,0,0,1,2,.49,3.37,3.37,0,0,1,1.31,1.41,4.77,4.77,0,0,1,.47,2.18v6.9h-3v-6.37a2.21,2.21,0,0,0-.51-1.55,1.81,1.81,0,0,0-1.42-.56,2.1,2.1,0,0,0-1.07.26,1.77,1.77,0,0,0-.72.76A2.58,2.58,0,0,0,668.74,201.94Z"/><path class="a" d="M687.11,200.46l-2.75.17a1.57,1.57,0,0,0-.3-.64,1.79,1.79,0,0,0-.61-.46,2.29,2.29,0,0,0-.9-.17,2.27,2.27,0,0,0-1.18.29.89.89,0,0,0-.48.78.83.83,0,0,0,.31.66,2.42,2.42,0,0,0,1.06.43l2,.4a4.76,4.76,0,0,1,2.35,1,2.45,2.45,0,0,1,.78,1.89,3,3,0,0,1-.62,1.87A4.12,4.12,0,0,1,685,208a6.52,6.52,0,0,1-2.5.44,5.86,5.86,0,0,1-3.43-.9,3.47,3.47,0,0,1-1.49-2.45l3-.15a1.55,1.55,0,0,0,.65,1,2.39,2.39,0,0,0,1.32.34,2.36,2.36,0,0,0,1.27-.31.9.9,0,0,0,.49-.79.84.84,0,0,0-.34-.68,2.61,2.61,0,0,0-1.05-.4L681,203.7a4.52,4.52,0,0,1-2.37-1.1,2.75,2.75,0,0,1-.77-2,2.93,2.93,0,0,1,.57-1.8,3.6,3.6,0,0,1,1.6-1.16,6.44,6.44,0,0,1,2.43-.41,5.32,5.32,0,0,1,3.23.87A3.31,3.31,0,0,1,687.11,200.46Z"/><path class="a" d="M692.35,208.42a4.37,4.37,0,0,1-1.85-.37,2.88,2.88,0,0,1-1.28-1.08,3.2,3.2,0,0,1-.47-1.79,3.15,3.15,0,0,1,.33-1.51,2.71,2.71,0,0,1,.91-1,4.38,4.38,0,0,1,1.3-.57,12,12,0,0,1,1.54-.27c.63-.06,1.13-.12,1.52-.18a2.05,2.05,0,0,0,.84-.27.59.59,0,0,0,.26-.52v0a1.31,1.31,0,0,0-.42-1,1.78,1.78,0,0,0-1.19-.37,2.1,2.1,0,0,0-1.29.36,1.71,1.71,0,0,0-.64.89l-2.78-.22a3.8,3.8,0,0,1,.84-1.72,4,4,0,0,1,1.6-1.11,6.21,6.21,0,0,1,2.29-.39,7,7,0,0,1,1.73.21,4.47,4.47,0,0,1,1.47.66,3,3,0,0,1,1,1.14,3.42,3.42,0,0,1,.38,1.66v7.31h-2.85v-1.5h-.09a2.74,2.74,0,0,1-.7.89,3,3,0,0,1-1.05.6A4.11,4.11,0,0,1,692.35,208.42Zm.86-2.08a2.6,2.6,0,0,0,1.18-.26,2.11,2.11,0,0,0,.79-.72,1.79,1.79,0,0,0,.29-1v-1.15a1.55,1.55,0,0,1-.38.16,5.48,5.48,0,0,1-.55.14l-.61.1-.55.08a4.22,4.22,0,0,0-.92.25,1.49,1.49,0,0,0-.62.46,1.16,1.16,0,0,0-.22.71,1.07,1.07,0,0,0,.45.93A1.94,1.94,0,0,0,693.21,206.34Z"/><path class="a" d="M705.7,208.42a5.55,5.55,0,0,1-2.87-.7,4.79,4.79,0,0,1-1.83-2,7,7,0,0,1,0-5.83,4.79,4.79,0,0,1,1.84-2,5.4,5.4,0,0,1,2.84-.71,5.71,5.71,0,0,1,2.49.51,4.13,4.13,0,0,1,2.37,3.64H707.7a2.22,2.22,0,0,0-.63-1.31,1.85,1.85,0,0,0-1.34-.5,2,2,0,0,0-1.22.38,2.44,2.44,0,0,0-.8,1.1,4.53,4.53,0,0,0-.29,1.74,4.91,4.91,0,0,0,.28,1.77,2.39,2.39,0,0,0,.81,1.1,2,2,0,0,0,1.22.39,2.06,2.06,0,0,0,.93-.22,1.8,1.8,0,0,0,.68-.61,2.3,2.3,0,0,0,.36-1h2.84a4.38,4.38,0,0,1-.68,2.18,4.12,4.12,0,0,1-1.66,1.48A5.55,5.55,0,0,1,705.7,208.42Z"/><path class="a" d="M718.24,197.37v2.26h-6.53v-2.26Zm-5-2.6h3v10.11a1.31,1.31,0,0,0,.13.65.68.68,0,0,0,.35.32,1.49,1.49,0,0,0,.54.09,2,2,0,0,0,.42,0l.33-.06.47,2.24a6.51,6.51,0,0,1-.64.16,5.39,5.39,0,0,1-2.89-.17,2.6,2.6,0,0,1-1.27-1,3.17,3.17,0,0,1-.45-1.76Z"/><path class="a" d="M721.71,196a1.67,1.67,0,0,1-1.15-.44,1.43,1.43,0,0,1-.48-1.08,1.41,1.41,0,0,1,.48-1.07,1.62,1.62,0,0,1,1.15-.45,1.65,1.65,0,0,1,1.15.44,1.44,1.44,0,0,1,0,2.15A1.62,1.62,0,0,1,721.71,196Zm-1.51,12.24V197.37h3v10.84Z"/><path class="a" d="M730.5,208.42a5.51,5.51,0,0,1-2.84-.7,4.7,4.7,0,0,1-1.84-2,7,7,0,0,1,0-5.87,4.7,4.7,0,0,1,1.84-2,6.13,6.13,0,0,1,5.69,0,4.77,4.77,0,0,1,1.84,2,7,7,0,0,1,0,5.87,4.77,4.77,0,0,1-1.84,2A5.53,5.53,0,0,1,730.5,208.42Zm0-2.33a1.89,1.89,0,0,0,1.25-.42,2.71,2.71,0,0,0,.76-1.17,5.84,5.84,0,0,0,0-3.38,2.71,2.71,0,0,0-.76-1.17,1.9,1.9,0,0,0-1.25-.43,1.93,1.93,0,0,0-1.27.43,2.64,2.64,0,0,0-.77,1.17,5.62,5.62,0,0,0,0,3.38,2.64,2.64,0,0,0,.77,1.17A1.93,1.93,0,0,0,730.52,206.09Z"/><path class="a" d="M740.81,201.94v6.27h-3V197.37h2.87v1.91h.13a3.06,3.06,0,0,1,1.2-1.5,3.68,3.68,0,0,1,2.06-.55,3.82,3.82,0,0,1,2,.49,3.35,3.35,0,0,1,1.3,1.41,4.64,4.64,0,0,1,.47,2.18v6.9h-3v-6.37a2.16,2.16,0,0,0-.5-1.55,1.82,1.82,0,0,0-1.42-.56,2,2,0,0,0-1.07.26,1.77,1.77,0,0,0-.72.76A2.58,2.58,0,0,0,740.81,201.94Z"/><path class="a" d="M757.89,193.75v14.46h-3.06V193.75Z"/><path class="a" d="M765.54,208.21h-5.13V193.75h5.17a7.64,7.64,0,0,1,3.75.87,5.93,5.93,0,0,1,2.43,2.48,9.26,9.26,0,0,1,0,7.75,5.81,5.81,0,0,1-2.44,2.49A7.73,7.73,0,0,1,765.54,208.21Zm-2.07-2.62h1.94a4.93,4.93,0,0,0,2.28-.48,3.06,3.06,0,0,0,1.4-1.5,6.4,6.4,0,0,0,.47-2.64,6.33,6.33,0,0,0-.47-2.62,3.09,3.09,0,0,0-1.39-1.5,4.93,4.93,0,0,0-2.28-.48h-1.95Z"/><path class="a" d="M566.22,201.76l-10.57-10.57a1.48,1.48,0,0,0-2.53,1.05v5.68a1.49,1.49,0,0,1-1.48,1.49H525.8a1.48,1.48,0,0,0-1.48,1.48v3.84a1.48,1.48,0,0,0,1.48,1.48h25.84a1.48,1.48,0,0,1,1.48,1.48v5.68a1.48,1.48,0,0,0,2.53,1l10.57-10.57A1.47,1.47,0,0,0,566.22,201.76Z"/><path class="a" d="M82,277.84,71.45,288.4a1.48,1.48,0,0,0,1,2.53h5.69a1.49,1.49,0,0,1,1.48,1.49v39.69h6.8V292.42A1.49,1.49,0,0,1,88,290.93h5.69a1.48,1.48,0,0,0,1-2.53L84.12,277.84A1.48,1.48,0,0,0,82,277.84Z"/><path class="a" d="M673.65,300.64h55.14a1,1,0,0,1,1,1v4.8a1,1,0,0,1-1,1H673.65a0,0,0,0,1,0,0v-6.8A0,0,0,0,1,673.65,300.64Z" transform="translate(397.67 1005.75) rotate(-90)"/><path class="a" d="M85,325.31H703.65a1,1,0,0,1,1,1v5.8a0,0,0,0,1,0,0H85a0,0,0,0,1,0,0v-6.8A0,0,0,0,1,85,325.31Z"/><path class="f" d="M236.29,384.71V367.25h5.9a7.15,7.15,0,0,1,3.35.7,4.48,4.48,0,0,1,2,1.9,5.91,5.91,0,0,1,.63,2.76,5.76,5.76,0,0,1-.63,2.73,4.39,4.39,0,0,1-1.94,1.87,7.1,7.1,0,0,1-3.33.68h-4.77V376h4.7a5.22,5.22,0,0,0,2.26-.41,2.6,2.6,0,0,0,1.24-1.16,3.86,3.86,0,0,0,.39-1.8,4.12,4.12,0,0,0-.39-1.84,2.74,2.74,0,0,0-1.26-1.21,5,5,0,0,0-2.27-.43H238.4v15.58Zm8.21-7.84,4.3,7.84h-2.46l-4.22-7.84Z"/><path class="f" d="M256.71,385a6.11,6.11,0,0,1-3.26-.84,5.54,5.54,0,0,1-2.11-2.35,8,8,0,0,1-.73-3.52,8.1,8.1,0,0,1,.73-3.55,5.75,5.75,0,0,1,2.07-2.41,5.56,5.56,0,0,1,3.09-.86,6.12,6.12,0,0,1,2,.34,5.05,5.05,0,0,1,1.82,1.1,5.35,5.35,0,0,1,1.3,2,8.39,8.39,0,0,1,.49,3.08v.86H252v-1.74h8a4.24,4.24,0,0,0-.44-2,3.29,3.29,0,0,0-1.24-1.37,3.48,3.48,0,0,0-1.9-.51,3.56,3.56,0,0,0-2.07.6,3.91,3.91,0,0,0-1.35,1.53,4.57,4.57,0,0,0-.46,2v1.16a5.59,5.59,0,0,0,.51,2.51,3.64,3.64,0,0,0,1.44,1.56,4.12,4.12,0,0,0,2.14.53,4.29,4.29,0,0,0,1.43-.22,3.12,3.12,0,0,0,1.12-.68,3.17,3.17,0,0,0,.72-1.14l1.94.54a4.18,4.18,0,0,1-1,1.74,5,5,0,0,1-1.79,1.16A6.69,6.69,0,0,1,256.71,385Z"/><path class="f" d="M265.2,389.62v-18h1.94v2.08h.24c.15-.23.35-.52.62-.88a3.56,3.56,0,0,1,1.14-.95,4.1,4.1,0,0,1,2-.42,5.22,5.22,0,0,1,2.92.82,5.65,5.65,0,0,1,2,2.35,8.41,8.41,0,0,1,.7,3.58,8.53,8.53,0,0,1-.7,3.6,5.64,5.64,0,0,1-2,2.35,5.07,5.07,0,0,1-2.89.83,4.16,4.16,0,0,1-2-.42,3.59,3.59,0,0,1-1.17-1q-.4-.54-.63-.9h-.17v6.92Zm2-11.46a7.3,7.3,0,0,0,.44,2.62,3.88,3.88,0,0,0,1.27,1.76,3.28,3.28,0,0,0,2,.63,3.32,3.32,0,0,0,2.11-.66,4.09,4.09,0,0,0,1.28-1.81,7.65,7.65,0,0,0,0-5,3.84,3.84,0,0,0-1.27-1.76,3.36,3.36,0,0,0-2.13-.66,3.4,3.4,0,0,0-2.06.62,3.73,3.73,0,0,0-1.26,1.72A7.24,7.24,0,0,0,267.17,378.16Z"/><path class="f" d="M285.31,385a6.11,6.11,0,0,1-3.26-.84,5.51,5.51,0,0,1-2.1-2.35,7.83,7.83,0,0,1-.74-3.52,8,8,0,0,1,.74-3.55,5.73,5.73,0,0,1,2.06-2.41,5.57,5.57,0,0,1,3.1-.86,6.06,6.06,0,0,1,2,.34,5,5,0,0,1,1.82,1.1,5.36,5.36,0,0,1,1.31,2,8.62,8.62,0,0,1,.48,3.08v.86H280.64v-1.74h8a4.37,4.37,0,0,0-.43-2,3.38,3.38,0,0,0-1.25-1.37,3.47,3.47,0,0,0-1.89-.51,3.57,3.57,0,0,0-2.08.6,3.88,3.88,0,0,0-1.34,1.53,4.58,4.58,0,0,0-.47,2v1.16a5.59,5.59,0,0,0,.51,2.51,3.64,3.64,0,0,0,1.44,1.56,4.14,4.14,0,0,0,2.14.53,4.35,4.35,0,0,0,1.44-.22,3.08,3.08,0,0,0,1.11-.68,3.17,3.17,0,0,0,.72-1.14l1.95.54a4.4,4.4,0,0,1-1,1.74,5,5,0,0,1-1.79,1.16A6.75,6.75,0,0,1,285.31,385Z"/><path class="f" d="M297.65,385a5.23,5.23,0,0,1-2.26-.48,3.72,3.72,0,0,1-2.21-3.55,3.29,3.29,0,0,1,.45-1.82,3.15,3.15,0,0,1,1.18-1.11,6.16,6.16,0,0,1,1.64-.6c.6-.13,1.21-.24,1.81-.32l1.94-.23a3.07,3.07,0,0,0,1.09-.28.72.72,0,0,0,.35-.68v-.07a2.66,2.66,0,0,0-.69-2,2.76,2.76,0,0,0-2.07-.7,3.53,3.53,0,0,0-3.41,2l-1.91-.68a4.63,4.63,0,0,1,1.37-1.87,5.21,5.21,0,0,1,1.87-.93,7.83,7.83,0,0,1,2-.27,8.2,8.2,0,0,1,1.45.15,4.76,4.76,0,0,1,1.6.61,3.54,3.54,0,0,1,1.28,1.39,5.12,5.12,0,0,1,.51,2.48v8.63h-2v-1.77h-.1a3.82,3.82,0,0,1-.69.91,3.77,3.77,0,0,1-1.27.82A4.79,4.79,0,0,1,297.65,385Zm.31-1.81a4,4,0,0,0,2-.47,3.24,3.24,0,0,0,1.25-1.21,3.1,3.1,0,0,0,.42-1.56v-1.84a1.29,1.29,0,0,1-.56.28,9.42,9.42,0,0,1-1,.21l-1.08.15-.85.11a8,8,0,0,0-1.46.33,2.49,2.49,0,0,0-1.09.67,1.7,1.7,0,0,0-.41,1.22,1.8,1.8,0,0,0,.78,1.58A3.47,3.47,0,0,0,298,383.21Z"/><path class="f" d="M313,371.62v1.7h-6.79v-1.7Zm-4.81-3.14h2V381a2.5,2.5,0,0,0,.25,1.27,1.31,1.31,0,0,0,.65.57,2.55,2.55,0,0,0,.84.14,3.74,3.74,0,0,0,.54,0l.34-.07.41,1.81a5,5,0,0,1-.57.16,4.65,4.65,0,0,1-.93.08,3.93,3.93,0,0,1-1.66-.37,3.09,3.09,0,0,1-1.88-3Z"/><path class="f" d="M331.06,379.36v-7.74h2v13.09h-2v-2.22h-.14a4.13,4.13,0,0,1-1.43,1.69,4.06,4.06,0,0,1-2.45.7,4.32,4.32,0,0,1-2.18-.54,3.69,3.69,0,0,1-1.5-1.64,6.08,6.08,0,0,1-.55-2.76v-8.32h2v8.18a3.16,3.16,0,0,0,.81,2.28,2.69,2.69,0,0,0,2.05.86,3.41,3.41,0,0,0,1.53-.39,3.34,3.34,0,0,0,1.32-1.17A3.61,3.61,0,0,0,331.06,379.36Z"/><path class="f" d="M338.76,376.83v7.88h-2V371.62h1.95v2h.17a3.71,3.71,0,0,1,1.39-1.6,4.37,4.37,0,0,1,2.42-.61A4.8,4.8,0,0,1,345,372a3.71,3.71,0,0,1,1.55,1.63,6.15,6.15,0,0,1,.56,2.77v8.32h-2v-8.18a3.39,3.39,0,0,0-.81-2.41,2.82,2.82,0,0,0-2.19-.87,3.45,3.45,0,0,0-1.72.42,3,3,0,0,0-1.19,1.22A4,4,0,0,0,338.76,376.83Z"/><path class="f" d="M356.49,371.62v1.7h-6.78v-1.7Zm-4.81-3.14h2V381a2.5,2.5,0,0,0,.25,1.27,1.25,1.25,0,0,0,.64.57,2.64,2.64,0,0,0,.84.14,3.78,3.78,0,0,0,.55,0l.34-.07.41,1.81c-.14.05-.33.1-.57.16a4.8,4.8,0,0,1-.93.08,4,4,0,0,1-1.67-.37,3.2,3.2,0,0,1-1.34-1.11,3.16,3.16,0,0,1-.54-1.9Z"/><path class="f" d="M360.55,369.44a1.45,1.45,0,0,1-1-.4,1.32,1.32,0,0,1,0-1.93,1.48,1.48,0,0,1,2,0,1.32,1.32,0,0,1,0,1.93A1.45,1.45,0,0,1,360.55,369.44Zm-1,15.27V371.62h2v13.09Z"/><path class="f" d="M367.23,367.25v17.46h-2V367.25Z"/><path class="f" d="M372.92,367.25v17.46h-2V367.25Z"/><path class="f" d="M387.21,385a5.2,5.2,0,0,1-2.26-.48,3.78,3.78,0,0,1-1.61-1.37,3.83,3.83,0,0,1-.6-2.18,3.38,3.38,0,0,1,.44-1.82,3.18,3.18,0,0,1,1.19-1.11,6,6,0,0,1,1.64-.6c.6-.13,1.2-.24,1.81-.32l1.94-.23a3.07,3.07,0,0,0,1.09-.28.72.72,0,0,0,.35-.68v-.07a2.66,2.66,0,0,0-.69-2,2.78,2.78,0,0,0-2.08-.7,3.58,3.58,0,0,0-2.25.63A3.65,3.65,0,0,0,385,375.2l-1.91-.68a4.61,4.61,0,0,1,1.36-1.87,5.26,5.26,0,0,1,1.88-.93,7.83,7.83,0,0,1,2-.27,8.2,8.2,0,0,1,1.45.15,4.63,4.63,0,0,1,1.59.61,3.56,3.56,0,0,1,1.29,1.39,5.12,5.12,0,0,1,.51,2.48v8.63h-2v-1.77h-.11a3.51,3.51,0,0,1-.68.91,3.87,3.87,0,0,1-1.27.82A4.82,4.82,0,0,1,387.21,385Zm.3-1.81a4.05,4.05,0,0,0,2-.47,3.21,3.21,0,0,0,1.24-1.21,3.11,3.11,0,0,0,.43-1.56v-1.84a1.36,1.36,0,0,1-.56.28,9.42,9.42,0,0,1-1,.21l-1.08.15-.85.11a8,8,0,0,0-1.46.33,2.44,2.44,0,0,0-1.09.67,1.71,1.71,0,0,0-.42,1.22,1.8,1.8,0,0,0,.78,1.58A3.47,3.47,0,0,0,387.51,383.21Z"/><path class="f" d="M398.9,367.25v17.46h-2V367.25Z"/><path class="f" d="M404.59,367.25v17.46h-2V367.25Z"/><path class="f" d="M420.34,385a5.47,5.47,0,0,1-5.21-3.26,8.78,8.78,0,0,1,0-7,5.83,5.83,0,0,1,2.06-2.4,5.59,5.59,0,0,1,3.1-.86,5.9,5.9,0,0,1,2.49.51,4.75,4.75,0,0,1,1.81,1.43,4.43,4.43,0,0,1,.88,2.15h-2a3.08,3.08,0,0,0-1-1.59,3.11,3.11,0,0,0-2.12-.7,3.6,3.6,0,0,0-2.06.61,4.09,4.09,0,0,0-1.37,1.72,6.38,6.38,0,0,0-.49,2.58,6.74,6.74,0,0,0,.48,2.65,3.94,3.94,0,0,0,1.37,1.74,3.47,3.47,0,0,0,2.07.62,3.64,3.64,0,0,0,1.43-.27,3,3,0,0,0,1.08-.78,3.12,3.12,0,0,0,.63-1.23h2a4.54,4.54,0,0,1-.84,2.08,4.62,4.62,0,0,1-1.76,1.47A5.7,5.7,0,0,1,420.34,385Z"/><path class="f" d="M430.43,376.83v7.88h-2V367.25h2v6.41h.17a3.75,3.75,0,0,1,1.39-1.61,4.49,4.49,0,0,1,2.47-.6,4.87,4.87,0,0,1,2.34.53,3.68,3.68,0,0,1,1.56,1.63,6,6,0,0,1,.56,2.78v8.32h-2v-8.18a3.43,3.43,0,0,0-.8-2.42,2.92,2.92,0,0,0-2.23-.86,3.67,3.67,0,0,0-1.77.42,3.07,3.07,0,0,0-1.23,1.22A3.89,3.89,0,0,0,430.43,376.83Z"/><path class="f" d="M450.85,379.36v-7.74h2v13.09h-2v-2.22h-.13a4.29,4.29,0,0,1-1.43,1.69,4.09,4.09,0,0,1-2.46.7,4.35,4.35,0,0,1-2.18-.54,3.69,3.69,0,0,1-1.5-1.64,6.22,6.22,0,0,1-.55-2.76v-8.32h2v8.18a3.16,3.16,0,0,0,.8,2.28,2.71,2.71,0,0,0,2.06.86,3.41,3.41,0,0,0,1.53-.39,3.25,3.25,0,0,0,1.31-1.17A3.53,3.53,0,0,0,450.85,379.36Z"/><path class="f" d="M458.56,376.83v7.88h-2V371.62h1.94v2h.17a3.73,3.73,0,0,1,1.4-1.6,4.32,4.32,0,0,1,2.42-.61,4.83,4.83,0,0,1,2.33.54,3.76,3.76,0,0,1,1.55,1.63,6.16,6.16,0,0,1,.55,2.77v8.32h-2v-8.18a3.44,3.44,0,0,0-.8-2.41,2.85,2.85,0,0,0-2.2-.87,3.48,3.48,0,0,0-1.72.42,3,3,0,0,0-1.19,1.22A4,4,0,0,0,458.56,376.83Z"/><path class="f" d="M470.59,384.71V367.25h2v17.46Zm1.88-4.77,0-2.49h.41l5.73-5.83h2.49l-6.1,6.17h-.17Zm6.44,4.77-5.11-6.48,1.43-1.4,6.24,7.88Z"/><path class="f" d="M492.92,374.55l-1.81.51a3.68,3.68,0,0,0-.49-.88,2.55,2.55,0,0,0-.89-.71,3.21,3.21,0,0,0-1.44-.28,3.4,3.4,0,0,0-2,.55,1.61,1.61,0,0,0-.8,1.39,1.41,1.41,0,0,0,.55,1.18,4.46,4.46,0,0,0,1.7.73l1.94.48a5.29,5.29,0,0,1,2.62,1.3,3.07,3.07,0,0,1,.86,2.24,3.32,3.32,0,0,1-.64,2,4.34,4.34,0,0,1-1.8,1.4,6.52,6.52,0,0,1-2.67.51,5.9,5.9,0,0,1-3.32-.87,3.85,3.85,0,0,1-1.66-2.54l1.91-.47a2.62,2.62,0,0,0,1,1.58,3.48,3.48,0,0,0,2,.53,3.74,3.74,0,0,0,2.24-.6,1.76,1.76,0,0,0,.83-1.45,1.53,1.53,0,0,0-.48-1.14,3.06,3.06,0,0,0-1.46-.7l-2.18-.51a5.12,5.12,0,0,1-2.64-1.32,3.19,3.19,0,0,1-.84-2.26,3.27,3.27,0,0,1,.62-2,4.24,4.24,0,0,1,1.72-1.34,6,6,0,0,1,2.47-.48,4.89,4.89,0,0,1,3,.85A4.61,4.61,0,0,1,492.92,374.55Z"/><path class="f" d="M506.8,385a5.2,5.2,0,0,1-2.26-.48,3.78,3.78,0,0,1-1.61-1.37,3.83,3.83,0,0,1-.6-2.18,3.38,3.38,0,0,1,.44-1.82,3.18,3.18,0,0,1,1.19-1.11,6,6,0,0,1,1.64-.6c.6-.13,1.2-.24,1.81-.32l1.94-.23a3.07,3.07,0,0,0,1.09-.28.72.72,0,0,0,.35-.68v-.07a2.66,2.66,0,0,0-.69-2,2.78,2.78,0,0,0-2.08-.7,3.58,3.58,0,0,0-2.25.63,3.65,3.65,0,0,0-1.15,1.35l-1.91-.68a4.61,4.61,0,0,1,1.36-1.87,5.26,5.26,0,0,1,1.88-.93,7.83,7.83,0,0,1,2-.27,8.2,8.2,0,0,1,1.45.15,4.63,4.63,0,0,1,1.59.61,3.56,3.56,0,0,1,1.29,1.39,5.12,5.12,0,0,1,.51,2.48v8.63h-2v-1.77h-.11a3.51,3.51,0,0,1-.68.91,3.87,3.87,0,0,1-1.27.82A4.82,4.82,0,0,1,506.8,385Zm.3-1.81a4.05,4.05,0,0,0,2-.47,3.21,3.21,0,0,0,1.24-1.21,3.11,3.11,0,0,0,.43-1.56v-1.84a1.36,1.36,0,0,1-.56.28,9.42,9.42,0,0,1-1,.21l-1.08.15-.85.11a8,8,0,0,0-1.46.33,2.44,2.44,0,0,0-1.09.67,1.71,1.71,0,0,0-.42,1.22,1.8,1.8,0,0,0,.78,1.58A3.47,3.47,0,0,0,507.1,383.21Z"/><path class="f" d="M516.48,384.71V371.62h1.94v2h.14a3.15,3.15,0,0,1,1.29-1.58,3.86,3.86,0,0,1,2.12-.61h.55l.5,0v2l-.46-.08a6.19,6.19,0,0,0-.76-.05,3.58,3.58,0,0,0-1.7.39,3.1,3.1,0,0,0-1.18,1.09,2.93,2.93,0,0,0-.43,1.58v8.29Z"/><path class="f" d="M530.49,385a6.11,6.11,0,0,1-3.26-.84,5.6,5.6,0,0,1-2.11-2.35,8,8,0,0,1-.73-3.52,8.1,8.1,0,0,1,.73-3.55,5.82,5.82,0,0,1,2.07-2.41,5.57,5.57,0,0,1,3.1-.86,6.06,6.06,0,0,1,2,.34,5,5,0,0,1,1.82,1.1,5.23,5.23,0,0,1,1.3,2,8.39,8.39,0,0,1,.49,3.08v.86H525.82v-1.74h8a4.37,4.37,0,0,0-.43-2,3.38,3.38,0,0,0-1.25-1.37,3.47,3.47,0,0,0-1.89-.51,3.57,3.57,0,0,0-2.08.6,3.88,3.88,0,0,0-1.34,1.53,4.45,4.45,0,0,0-.47,2v1.16a5.59,5.59,0,0,0,.51,2.51,3.64,3.64,0,0,0,1.44,1.56,4.14,4.14,0,0,0,2.14.53,4.35,4.35,0,0,0,1.44-.22,3.08,3.08,0,0,0,1.11-.68,3.17,3.17,0,0,0,.72-1.14l2,.54a4.31,4.31,0,0,1-1,1.74,5,5,0,0,1-1.79,1.16A6.65,6.65,0,0,1,530.49,385Z"/><path class="f" d="M546.75,369.44a1.45,1.45,0,0,1-1-.4,1.32,1.32,0,0,1,0-1.93,1.48,1.48,0,0,1,2,0,1.32,1.32,0,0,1,0,1.93A1.45,1.45,0,0,1,546.75,369.44Zm-1,15.27V371.62h2v13.09Z"/><path class="f" d="M553.43,376.83v7.88h-2V371.62h1.94v2h.17a3.8,3.8,0,0,1,1.4-1.6,4.34,4.34,0,0,1,2.42-.61,4.83,4.83,0,0,1,2.33.54,3.76,3.76,0,0,1,1.55,1.63,6.16,6.16,0,0,1,.55,2.77v8.32h-2v-8.18a3.39,3.39,0,0,0-.8-2.41,2.83,2.83,0,0,0-2.2-.87,3.44,3.44,0,0,0-1.71.42,3,3,0,0,0-1.19,1.22A4,4,0,0,0,553.43,376.83Z"/><path class="f" d="M333.43,413.51V396.05h2v6.45h.17c.15-.23.35-.52.62-.88a3.56,3.56,0,0,1,1.14-.95,4.13,4.13,0,0,1,2-.42,5.2,5.2,0,0,1,2.92.82,5.52,5.52,0,0,1,2,2.35A8.41,8.41,0,0,1,345,407a8.53,8.53,0,0,1-.71,3.6,5.57,5.57,0,0,1-2,2.35,5.15,5.15,0,0,1-2.89.83,4.18,4.18,0,0,1-2-.42,3.59,3.59,0,0,1-1.17-1q-.4-.54-.63-.9h-.24v2Zm2-6.55a7.31,7.31,0,0,0,.43,2.62,3.88,3.88,0,0,0,1.27,1.76,3.68,3.68,0,0,0,4.16,0,4.07,4.07,0,0,0,1.27-1.81,7.65,7.65,0,0,0,0-5,3.84,3.84,0,0,0-1.27-1.76,3.33,3.33,0,0,0-2.12-.66,3.41,3.41,0,0,0-2.07.62,3.87,3.87,0,0,0-1.26,1.72A7.25,7.25,0,0,0,335.41,407Z"/><path class="f" d="M350.07,396.05v17.46h-2V396.05Z"/><path class="f" d="M359.07,413.78a5.52,5.52,0,0,1-5.19-3.2,7.93,7.93,0,0,1-.75-3.55,8,8,0,0,1,.75-3.57,5.74,5.74,0,0,1,10.37,0A8,8,0,0,1,365,407a7.93,7.93,0,0,1-.75,3.55,5.52,5.52,0,0,1-5.18,3.2Zm0-1.81a3.45,3.45,0,0,0,2.21-.69,4.07,4.07,0,0,0,1.29-1.81,7.3,7.3,0,0,0,0-4.88,4.16,4.16,0,0,0-1.29-1.84,3.85,3.85,0,0,0-4.43,0,4.16,4.16,0,0,0-1.29,1.84,7.3,7.3,0,0,0,0,4.88,4.07,4.07,0,0,0,1.29,1.81A3.46,3.46,0,0,0,359.07,412Z"/><path class="f" d="M373.38,413.78a5.68,5.68,0,0,1-3.17-.87,5.75,5.75,0,0,1-2-2.39,8.78,8.78,0,0,1,0-7,5.83,5.83,0,0,1,2.06-2.4,5.59,5.59,0,0,1,3.1-.86,5.9,5.9,0,0,1,2.49.51,4.75,4.75,0,0,1,1.81,1.43,4.43,4.43,0,0,1,.88,2.15h-2a3.08,3.08,0,0,0-3.14-2.29,3.54,3.54,0,0,0-2.05.61,4,4,0,0,0-1.38,1.72,6.38,6.38,0,0,0-.49,2.58,6.74,6.74,0,0,0,.48,2.65,4,4,0,0,0,1.37,1.74,3.47,3.47,0,0,0,2.07.62,3.64,3.64,0,0,0,1.43-.27,3,3,0,0,0,1.08-.78,3.12,3.12,0,0,0,.63-1.23h2a4.54,4.54,0,0,1-.84,2.08,4.62,4.62,0,0,1-1.76,1.47A5.7,5.7,0,0,1,373.38,413.78Z"/><path class="f" d="M381.46,413.51V396.05h2v17.46Zm1.88-4.77,0-2.49h.41l5.73-5.83h2.49l-6.1,6.17h-.17Zm6.44,4.77L384.67,407l1.43-1.4,6.24,7.88Z"/><path class="f" d="M399.29,413.78a5.47,5.47,0,0,1-5.21-3.26,8.78,8.78,0,0,1,0-7,5.83,5.83,0,0,1,2.06-2.4,5.59,5.59,0,0,1,3.1-.86,5.9,5.9,0,0,1,2.49.51,4.75,4.75,0,0,1,1.81,1.43,4.43,4.43,0,0,1,.88,2.15h-2a3.08,3.08,0,0,0-3.14-2.29,3.6,3.6,0,0,0-2.06.61,4.09,4.09,0,0,0-1.37,1.72,6.38,6.38,0,0,0-.49,2.58,6.74,6.74,0,0,0,.48,2.65,3.94,3.94,0,0,0,1.37,1.74,3.45,3.45,0,0,0,2.07.62,3.59,3.59,0,0,0,1.42-.27,3,3,0,0,0,1.09-.78,3.12,3.12,0,0,0,.63-1.23h2a4.54,4.54,0,0,1-.84,2.08,4.69,4.69,0,0,1-1.76,1.47A5.7,5.7,0,0,1,399.29,413.78Z"/><path class="f" d="M409.38,405.63v7.88h-2V396.05h2v6.41h.17a3.75,3.75,0,0,1,1.39-1.61,4.47,4.47,0,0,1,2.47-.6,4.87,4.87,0,0,1,2.34.53,3.68,3.68,0,0,1,1.56,1.63,6.14,6.14,0,0,1,.56,2.78v8.32h-2v-8.18a3.39,3.39,0,0,0-.81-2.42,2.9,2.9,0,0,0-2.22-.86,3.67,3.67,0,0,0-1.77.42,3.07,3.07,0,0,0-1.23,1.22A3.89,3.89,0,0,0,409.38,405.63Z"/><path class="f" d="M425.41,413.82a5.2,5.2,0,0,1-2.26-.48,3.72,3.72,0,0,1-1.61-1.37,3.83,3.83,0,0,1-.6-2.18,3.44,3.44,0,0,1,.44-1.83,3.23,3.23,0,0,1,1.19-1.1,6,6,0,0,1,1.64-.6c.6-.13,1.2-.24,1.81-.32l1.94-.23a3.07,3.07,0,0,0,1.09-.28.71.71,0,0,0,.34-.68v-.07a2.66,2.66,0,0,0-.68-2,2.78,2.78,0,0,0-2.08-.7,3.63,3.63,0,0,0-2.26.63,3.85,3.85,0,0,0-1.15,1.35l-1.91-.68a4.72,4.72,0,0,1,1.37-1.87,5.26,5.26,0,0,1,1.88-.93,7.82,7.82,0,0,1,2-.27,8.3,8.3,0,0,1,1.46.15,4.63,4.63,0,0,1,1.59.61,3.54,3.54,0,0,1,1.28,1.39,5.11,5.11,0,0,1,.52,2.48v8.63h-2v-1.77h-.1a3.51,3.51,0,0,1-.68.91,3.87,3.87,0,0,1-1.27.82A4.82,4.82,0,0,1,425.41,413.82Zm.3-1.81a4.05,4.05,0,0,0,2-.47,3.21,3.21,0,0,0,1.24-1.21,3.1,3.1,0,0,0,.42-1.56v-1.84a1.24,1.24,0,0,1-.55.28,9.42,9.42,0,0,1-1,.21l-1.09.15-.84.11a7.82,7.82,0,0,0-1.46.33,2.53,2.53,0,0,0-1.1.67,1.75,1.75,0,0,0-.41,1.22,1.8,1.8,0,0,0,.78,1.58A3.47,3.47,0,0,0,425.71,412Z"/><path class="f" d="M436.11,398.24a1.45,1.45,0,0,1-1-.4,1.32,1.32,0,0,1,0-1.93,1.48,1.48,0,0,1,2,0,1.32,1.32,0,0,1,0,1.93A1.45,1.45,0,0,1,436.11,398.24Zm-1,15.27V400.42h2v13.09Z"/><path class="f" d="M442.79,405.63v7.88h-2V400.42h1.94v2h.17a3.8,3.8,0,0,1,1.4-1.6,4.34,4.34,0,0,1,2.42-.61,4.83,4.83,0,0,1,2.33.54,3.76,3.76,0,0,1,1.55,1.63,6.16,6.16,0,0,1,.55,2.77v8.32h-2v-8.18a3.39,3.39,0,0,0-.8-2.41,2.84,2.84,0,0,0-2.2-.87,3.44,3.44,0,0,0-1.71.42,3,3,0,0,0-1.19,1.22A4,4,0,0,0,442.79,405.63Z"/></svg>