<svg xmlns="http://www.w3.org/2000/svg" viewBox="0 0 800 500"><defs><style>.a{fill:#39b54a;}.b{fill:#009444;}.c{fill:#fff;}.d{fill:#a7a9ac;}.e{fill:none;stroke:#39b54a;stroke-miterlimit:10;stroke-width:2px;}</style></defs><rect class="a" x="468.78" y="268.1" width="280.22" height="231.9" rx="8" transform="translate(1217.79 768.1) rotate(180)"/><path class="a" d="M260.36,293V483.25A16.74,16.74,0,0,1,243.61,500H67.74A16.75,16.75,0,0,1,51,483.25V244.57a16.76,16.76,0,0,1,16.74-16.75H195.16v48.45A16.76,16.76,0,0,0,211.91,293Z"/><path class="b" d="M260.36,293H211.91a16.76,16.76,0,0,1-16.75-16.75V227.82Z"/><path class="c" d="M106.24,354.72v-3.55H123v3.55h-6.23v16.81h-4.26V354.72Z"/><path class="c" d="M130.32,371.83a7.76,7.76,0,0,1-4-1,6.72,6.72,0,0,1-2.6-2.76,9.85,9.85,0,0,1,0-8.27,6.72,6.72,0,0,1,2.6-2.76,8.6,8.6,0,0,1,8,0,6.72,6.72,0,0,1,2.6,2.76,9.85,9.85,0,0,1,0,8.27,6.72,6.72,0,0,1-2.6,2.76A7.79,7.79,0,0,1,130.32,371.83Zm0-3.28a2.63,2.63,0,0,0,1.76-.6,3.73,3.73,0,0,0,1.07-1.65,8,8,0,0,0,0-4.75,3.68,3.68,0,0,0-1.07-1.65,2.58,2.58,0,0,0-1.76-.61,2.64,2.64,0,0,0-1.78.61,3.71,3.71,0,0,0-1.09,1.65,8,8,0,0,0,0,4.75,3.76,3.76,0,0,0,1.09,1.65A2.68,2.68,0,0,0,130.34,368.55Z"/><path class="c" d="M140.6,371.53V356.26h4.11v2.66h.16a4,4,0,0,1,1.4-2.15,3.69,3.69,0,0,1,2.27-.73,5.76,5.76,0,0,1,.69,0,3.53,3.53,0,0,1,.64.11V360a4.74,4.74,0,0,0-.82-.16,6.91,6.91,0,0,0-1-.07,3.34,3.34,0,0,0-1.66.4,3,3,0,0,0-1.16,1.12,3.21,3.21,0,0,0-.42,1.65v8.64Z"/><path class="c" d="M152.05,371.53V356.26h4.11v2.66h.16a3.9,3.9,0,0,1,1.4-2.15A3.67,3.67,0,0,1,160,356a5.49,5.49,0,0,1,.68,0,3.65,3.65,0,0,1,.65.11V360a4.89,4.89,0,0,0-.83-.16,6.78,6.78,0,0,0-1-.07,3.38,3.38,0,0,0-1.67.4,3,3,0,0,0-1.15,1.12,3.21,3.21,0,0,0-.42,1.65v8.64Z"/><path class="c" d="M169.74,371.83a8.09,8.09,0,0,1-4.05-1,6.49,6.49,0,0,1-2.61-2.73,9.84,9.84,0,0,1,0-8.31,6.73,6.73,0,0,1,2.58-2.78,7.5,7.5,0,0,1,3.91-1,8.11,8.11,0,0,1,2.82.48,6.33,6.33,0,0,1,2.29,1.45,6.54,6.54,0,0,1,1.52,2.42,9.51,9.51,0,0,1,.55,3.4V365h-12.9v-2.63h8.91a3.29,3.29,0,0,0-.39-1.62,3,3,0,0,0-1.1-1.11,3.2,3.2,0,0,0-1.63-.4,3.29,3.29,0,0,0-1.7.44,3.08,3.08,0,0,0-1.16,1.19,3.37,3.37,0,0,0-.43,1.64V365a4.29,4.29,0,0,0,.42,2,3,3,0,0,0,1.2,1.27,3.61,3.61,0,0,0,1.84.45,4.06,4.06,0,0,0,1.29-.2,2.77,2.77,0,0,0,1-.6,2.59,2.59,0,0,0,.63-1l3.92.26a5.29,5.29,0,0,1-1.22,2.46,6.12,6.12,0,0,1-2.36,1.63A9.09,9.09,0,0,1,169.74,371.83Z"/><path class="c" d="M183.75,362.7v8.83h-4.24V356.26h4V359h.18a4.31,4.31,0,0,1,1.7-2.11,5.19,5.19,0,0,1,2.9-.78,5.4,5.4,0,0,1,2.77.69,4.79,4.79,0,0,1,1.84,2,6.65,6.65,0,0,1,.65,3.07v9.72h-4.23v-9a3.05,3.05,0,0,0-.72-2.19,2.56,2.56,0,0,0-2-.79,2.93,2.93,0,0,0-1.5.37,2.55,2.55,0,0,0-1,1.06A3.8,3.8,0,0,0,183.75,362.7Z"/><path class="c" d="M205.05,356.26v3.18h-9.2v-3.18Zm-7.11-3.66h4.24v14.24a1.91,1.91,0,0,0,.18.91,1,1,0,0,0,.5.45,1.9,1.9,0,0,0,.75.13,3.05,3.05,0,0,0,.6-.06l.45-.08.67,3.15q-.32.11-.9.24a8.34,8.34,0,0,1-1.4.16,6.44,6.44,0,0,1-2.68-.41,3.7,3.7,0,0,1-1.78-1.45,4.39,4.39,0,0,1-.63-2.49Z"/><rect class="a" x="255.72" width="212.71" height="56.87" rx="8"/><path class="c" d="M297.6,21.19a6,6,0,0,1,2,.34,4.69,4.69,0,0,1,1.73,1.12,5.47,5.47,0,0,1,1.21,2.05,10,10,0,0,1,.45,3.13,12,12,0,0,1-.39,3.08,6.88,6.88,0,0,1-1.11,2.29,4.81,4.81,0,0,1-1.74,1.44,5.08,5.08,0,0,1-2.27.49,5.22,5.22,0,0,1-2.39-.52,4.41,4.41,0,0,1-2.43-3.48h2.82a1.88,1.88,0,0,0,.7,1.14,2.06,2.06,0,0,0,1.3.41,2.19,2.19,0,0,0,2-1.15,6.28,6.28,0,0,0,.7-3.17h-.09a3.31,3.31,0,0,1-.83,1,3.71,3.71,0,0,1-1.17.65,4.19,4.19,0,0,1-1.42.23,4,4,0,0,1-2.13-.56,4,4,0,0,1-1.49-1.55,4.51,4.51,0,0,1-.53-2.25,4.63,4.63,0,0,1,.62-2.45A4.48,4.48,0,0,1,295,21.79,5.37,5.37,0,0,1,297.6,21.19Zm0,2.24a2.22,2.22,0,0,0-1.18.32,2.26,2.26,0,0,0-.82.86,2.48,2.48,0,0,0-.3,1.22,2.43,2.43,0,0,0,.29,1.21,2.36,2.36,0,0,0,.81.85,2.31,2.31,0,0,0,1.18.31,2.12,2.12,0,0,0,.91-.19,2.23,2.23,0,0,0,.74-.51,2.48,2.48,0,0,0,.37-2.88,2.36,2.36,0,0,0-.82-.87A2.24,2.24,0,0,0,297.62,23.43Z"/><path class="c" d="M310.3,35.24a5.12,5.12,0,0,1-2.93-.83A5.2,5.2,0,0,1,305.49,32a9.83,9.83,0,0,1-.66-3.8,9.67,9.67,0,0,1,.66-3.77A5.22,5.22,0,0,1,307.38,22a5.16,5.16,0,0,1,2.92-.81,5.09,5.09,0,0,1,2.92.82,5.14,5.14,0,0,1,1.89,2.37,9.67,9.67,0,0,1,.66,3.77,9.85,9.85,0,0,1-.66,3.81,5.3,5.3,0,0,1-1.88,2.41A5,5,0,0,1,310.3,35.24Zm0-2.37a2.1,2.1,0,0,0,1.86-1.17,7,7,0,0,0,.68-3.51,8.86,8.86,0,0,0-.31-2.56,3.3,3.3,0,0,0-.88-1.54,1.94,1.94,0,0,0-1.35-.52,2.09,2.09,0,0,0-1.85,1.16,6.86,6.86,0,0,0-.7,3.46,9.11,9.11,0,0,0,.31,2.6,3.33,3.33,0,0,0,.89,1.56A1.92,1.92,0,0,0,310.3,32.87Z"/><path class="c" d="M323.11,35.24a5.12,5.12,0,0,1-2.93-.83A5.28,5.28,0,0,1,318.29,32a10,10,0,0,1-.65-3.8,9.67,9.67,0,0,1,.66-3.77,4.88,4.88,0,0,1,4.81-3.19,5.09,5.09,0,0,1,2.92.82,5.14,5.14,0,0,1,1.89,2.37,9.5,9.5,0,0,1,.65,3.77,9.86,9.86,0,0,1-.65,3.81A5.3,5.3,0,0,1,326,34.41,5,5,0,0,1,323.11,35.24Zm0-2.37A2.11,2.11,0,0,0,325,31.7a7,7,0,0,0,.68-3.51,8.86,8.86,0,0,0-.31-2.56,3.31,3.31,0,0,0-.89-1.54,1.91,1.91,0,0,0-1.34-.52,2.09,2.09,0,0,0-1.85,1.16,6.76,6.76,0,0,0-.7,3.46,9.11,9.11,0,0,0,.31,2.6,3.33,3.33,0,0,0,.89,1.56A1.92,1.92,0,0,0,323.11,32.87Z"/><path class="c" d="M339.54,35.15a5.2,5.2,0,0,1-2.68-.67,4.39,4.39,0,0,1-1.72-1.85,6.46,6.46,0,0,1,0-5.46,4.37,4.37,0,0,1,1.72-1.84,5,5,0,0,1,2.66-.67,5.15,5.15,0,0,1,2.32.49,3.86,3.86,0,0,1,1.58,1.35,4,4,0,0,1,.64,2.05h-2.65a2.16,2.16,0,0,0-.59-1.23,1.73,1.73,0,0,0-1.26-.46,2,2,0,0,0-1.14.35,2.32,2.32,0,0,0-.75,1,4.38,4.38,0,0,0-.27,1.63,4.47,4.47,0,0,0,.26,1.65,2.25,2.25,0,0,0,.76,1,1.87,1.87,0,0,0,1.14.36,1.92,1.92,0,0,0,.87-.2,1.62,1.62,0,0,0,.64-.58,2.3,2.3,0,0,0,.34-.91h2.65a4.09,4.09,0,0,1-.63,2,3.78,3.78,0,0,1-1.55,1.38A5.25,5.25,0,0,1,339.54,35.15Z"/><path class="c" d="M348.7,29.08V35h-2.81V21.41h2.73v5.18h.12a2.89,2.89,0,0,1,1.11-1.41,3.32,3.32,0,0,1,1.92-.52,3.68,3.68,0,0,1,1.85.46,3.14,3.14,0,0,1,1.23,1.32,4.33,4.33,0,0,1,.43,2V35h-2.81V29a2.1,2.1,0,0,0-.47-1.47,1.76,1.76,0,0,0-1.34-.52,2,2,0,0,0-1,.25A1.67,1.67,0,0,0,349,28,2.41,2.41,0,0,0,348.7,29.08Z"/><path class="c" d="M360.4,35.14a4.11,4.11,0,0,1-1.73-.34,2.77,2.77,0,0,1-1.2-1,3,3,0,0,1-.44-1.68,2.92,2.92,0,0,1,.31-1.42,2.51,2.51,0,0,1,.85-.92,3.9,3.9,0,0,1,1.21-.53,8.33,8.33,0,0,1,1.44-.25c.59-.07,1.07-.12,1.43-.18a2,2,0,0,0,.79-.25.55.55,0,0,0,.24-.49v0a1.24,1.24,0,0,0-.39-1,1.65,1.65,0,0,0-1.12-.34,2,2,0,0,0-1.21.33,1.61,1.61,0,0,0-.59.84l-2.6-.21a3.57,3.57,0,0,1,.78-1.61,3.64,3.64,0,0,1,1.5-1,5.84,5.84,0,0,1,2.14-.37,6.66,6.66,0,0,1,1.62.2,4.13,4.13,0,0,1,1.38.62,3.06,3.06,0,0,1,1,1.06,3.32,3.32,0,0,1,.35,1.56V35h-2.67V33.54h-.08a2.82,2.82,0,0,1-.66.84,3,3,0,0,1-1,.56A4.18,4.18,0,0,1,360.4,35.14Zm.81-1.94A2.37,2.37,0,0,0,362.3,33a2,2,0,0,0,.75-.67,1.74,1.74,0,0,0,.27-1V30.24a1.54,1.54,0,0,1-.36.16l-.51.12-.57.1-.52.08a3.37,3.37,0,0,0-.86.23,1.43,1.43,0,0,0-.58.42,1.11,1.11,0,0,0-.2.67,1,1,0,0,0,.42.88A1.78,1.78,0,0,0,361.21,33.2Z"/><path class="c" d="M368.3,35V24.79H371v1.78h.11a2.68,2.68,0,0,1,.93-1.43,2.44,2.44,0,0,1,1.51-.49l.46,0a2.29,2.29,0,0,1,.42.07v2.5a3.35,3.35,0,0,0-.54-.11,5.14,5.14,0,0,0-.65,0,2.21,2.21,0,0,0-1.1.26,2,2,0,0,0-.77.75,2.06,2.06,0,0,0-.28,1.09V35Z"/><path class="c" d="M378.52,35.14a4.17,4.17,0,0,1-1.73-.34,2.77,2.77,0,0,1-1.2-1,3,3,0,0,1-.44-1.68,2.92,2.92,0,0,1,.31-1.42,2.51,2.51,0,0,1,.85-.92,4,4,0,0,1,1.22-.53A8,8,0,0,1,379,29c.6-.07,1.07-.12,1.43-.18a1.92,1.92,0,0,0,.79-.25.55.55,0,0,0,.24-.49v0a1.24,1.24,0,0,0-.39-1,1.62,1.62,0,0,0-1.11-.34,2,2,0,0,0-1.21.33,1.57,1.57,0,0,0-.6.84l-2.6-.21a3.57,3.57,0,0,1,.78-1.61,3.78,3.78,0,0,1,1.5-1,5.88,5.88,0,0,1,2.14-.37,6.6,6.6,0,0,1,1.62.2,4.13,4.13,0,0,1,1.38.62,2.88,2.88,0,0,1,1,1.06,3.32,3.32,0,0,1,.35,1.56V35h-2.67V33.54h-.08a2.79,2.79,0,0,1-.65.84,3.19,3.19,0,0,1-1,.56A4.13,4.13,0,0,1,378.52,35.14Zm.81-1.94a2.44,2.44,0,0,0,1.1-.25,2,2,0,0,0,.74-.67,1.74,1.74,0,0,0,.27-1V30.24a1.23,1.23,0,0,1-.36.16l-.51.12-.57.1-.51.08a3.45,3.45,0,0,0-.87.23,1.39,1.39,0,0,0-.57.42,1.05,1.05,0,0,0-.21.67,1,1,0,0,0,.42.88A1.8,1.8,0,0,0,379.33,33.2Z"/><path class="c" d="M391,35.15a5.2,5.2,0,0,1-2.68-.67,4.46,4.46,0,0,1-1.72-1.85,6.56,6.56,0,0,1,0-5.46,4.43,4.43,0,0,1,1.72-1.84,5.05,5.05,0,0,1,2.66-.67,5.19,5.19,0,0,1,2.33.49,3.93,3.93,0,0,1,1.58,1.35,4.07,4.07,0,0,1,.64,2.05h-2.66a2,2,0,0,0-.59-1.23,1.72,1.72,0,0,0-1.25-.46,1.9,1.9,0,0,0-1.14.35,2.27,2.27,0,0,0-.76,1,4.38,4.38,0,0,0-.27,1.63,4.45,4.45,0,0,0,.27,1.65,2.23,2.23,0,0,0,.75,1,1.9,1.9,0,0,0,1.15.36,1.92,1.92,0,0,0,.87-.2,1.68,1.68,0,0,0,.64-.58,2.15,2.15,0,0,0,.33-.91h2.66a4.3,4.3,0,0,1-.63,2,3.87,3.87,0,0,1-1.56,1.38A5.19,5.19,0,0,1,391,35.15Z"/><path class="c" d="M402.76,24.79v2.12h-6.11V24.79ZM398,22.36h2.82v9.47a1.22,1.22,0,0,0,.12.6.6.6,0,0,0,.33.3,1.28,1.28,0,0,0,.5.09,1.87,1.87,0,0,0,.4,0l.3-.05.44,2.09c-.14,0-.34.1-.59.16a5.66,5.66,0,0,1-.93.11,4.27,4.27,0,0,1-1.78-.28,2.41,2.41,0,0,1-1.19-1A3,3,0,0,1,398,32.2Z"/><path class="c" d="M409.11,35.15a5.43,5.43,0,0,1-2.69-.64,4.4,4.4,0,0,1-1.74-1.81,6.06,6.06,0,0,1-.61-2.78,6,6,0,0,1,.61-2.75,4.52,4.52,0,0,1,1.72-1.85,5,5,0,0,1,2.6-.66,5.44,5.44,0,0,1,1.87.32,4.25,4.25,0,0,1,1.52,1,4.36,4.36,0,0,1,1,1.6,6.51,6.51,0,0,1,.36,2.27v.77H405.2V28.85h5.92a2.21,2.21,0,0,0-.26-1.08,2,2,0,0,0-.74-.74,2.11,2.11,0,0,0-1.08-.27,2.15,2.15,0,0,0-1.13.3,2.09,2.09,0,0,0-.77.79,2.21,2.21,0,0,0-.28,1.09V30.6a2.8,2.8,0,0,0,.28,1.3,2,2,0,0,0,.79.85,2.54,2.54,0,0,0,1.23.29,2.63,2.63,0,0,0,.86-.13,1.72,1.72,0,0,0,1.09-1l2.6.17a3.44,3.44,0,0,1-.81,1.63,4.06,4.06,0,0,1-1.57,1.09A5.87,5.87,0,0,1,409.11,35.15Z"/><path class="c" d="M415.61,35V24.79h2.73v1.78h.1a2.64,2.64,0,0,1,.94-1.43,2.39,2.39,0,0,1,1.5-.49l.46,0a2.58,2.58,0,0,1,.43.07v2.5a3.51,3.51,0,0,0-.55-.11,5,5,0,0,0-.64,0,2.22,2.22,0,0,0-1.11.26,2.05,2.05,0,0,0-.77.75,2.15,2.15,0,0,0-.28,1.09V35Z"/><path class="c" d="M431.66,27.69l-2.58.16a1.28,1.28,0,0,0-.28-.6,1.65,1.65,0,0,0-.57-.43,2,2,0,0,0-.85-.16,2.11,2.11,0,0,0-1.1.27.84.84,0,0,0-.45.73.8.8,0,0,0,.29.62,2.31,2.31,0,0,0,1,.4l1.84.37a4.55,4.55,0,0,1,2.21,1,2.31,2.31,0,0,1,.72,1.77,2.75,2.75,0,0,1-.58,1.75,3.81,3.81,0,0,1-1.6,1.18,6.1,6.1,0,0,1-2.34.42,5.5,5.5,0,0,1-3.21-.85,3.27,3.27,0,0,1-1.4-2.29l2.77-.15a1.47,1.47,0,0,0,.61.94,2.24,2.24,0,0,0,1.24.32,2.21,2.21,0,0,0,1.19-.29.87.87,0,0,0,.46-.74.79.79,0,0,0-.32-.64,2.46,2.46,0,0,0-1-.38L426,30.72a4.12,4.12,0,0,1-2.21-1,2.56,2.56,0,0,1-.72-1.87,2.68,2.68,0,0,1,.53-1.68,3.29,3.29,0,0,1,1.5-1.09,6,6,0,0,1,2.27-.39,5,5,0,0,1,3,.82A3.12,3.12,0,0,1,431.66,27.69Z"/><polygon class="d" points="373.73 79.1 364.35 79.1 364.35 69.72 359.81 69.72 359.81 79.1 350.43 79.1 350.43 83.64 359.81 83.64 359.81 93.02 364.35 93.02 364.35 83.64 373.73 83.64 373.73 79.1"/><rect class="e" x="255.72" y="105.19" width="212.71" height="58.22" rx="8"/><path class="b" d="M308.8,140.81V127.28h2.8v11.17h5.67v2.36Z"/><path class="b" d="M320.46,129.35a1.46,1.46,0,0,1-1-.42,1.29,1.29,0,0,1-.44-1,1.33,1.33,0,0,1,.44-1,1.52,1.52,0,0,1,2.1,0,1.39,1.39,0,0,1,0,2A1.46,1.46,0,0,1,320.46,129.35Zm-1.39,11.46V130.66h2.75v10.15Z"/><path class="b" d="M326.77,134.94v5.87H324V130.66h2.62v1.79h.11a2.8,2.8,0,0,1,1.11-1.4,3.25,3.25,0,0,1,1.88-.52,3.4,3.4,0,0,1,1.8.46,3.12,3.12,0,0,1,1.19,1.32,4.45,4.45,0,0,1,.43,2v6.46h-2.75v-6a2.09,2.09,0,0,0-.47-1.46,1.63,1.63,0,0,0-1.29-.52,2,2,0,0,0-1,.24,1.62,1.62,0,0,0-.66.71A2.44,2.44,0,0,0,326.77,134.94Z"/><path class="b" d="M335.32,140.81V127.28h2.75v13.53Zm2.49-2.92v-3.38h.4l3.18-3.85h3.16l-4.27,5.1h-.65Zm3.71,2.92-2.92-4.42,1.84-2,4.3,6.41Z"/><path class="b" d="M347.29,129.35a1.5,1.5,0,0,1-1.06-.42,1.33,1.33,0,0,1-.44-1,1.36,1.36,0,0,1,.44-1,1.54,1.54,0,0,1,2.11,0,1.39,1.39,0,0,1,0,2A1.46,1.46,0,0,1,347.29,129.35Zm-1.39,11.46V130.66h2.75v10.15Z"/><path class="b" d="M353.6,134.94v5.87h-2.76V130.66h2.63v1.79h.11a2.8,2.8,0,0,1,1.11-1.4,3.25,3.25,0,0,1,1.88-.52,3.44,3.44,0,0,1,1.8.46,3.12,3.12,0,0,1,1.19,1.32,4.45,4.45,0,0,1,.43,2v6.46h-2.75v-6a2.09,2.09,0,0,0-.47-1.46,1.64,1.64,0,0,0-1.3-.52,1.91,1.91,0,0,0-1,.24,1.62,1.62,0,0,0-.66.71A2.44,2.44,0,0,0,353.6,134.94Z"/><path class="b" d="M366.62,144.76a6.25,6.25,0,0,1-2.29-.37,3.79,3.79,0,0,1-1.51-1,3,3,0,0,1-.73-1.4l2.54-.35a1.65,1.65,0,0,0,.37.53,1.89,1.89,0,0,0,.67.4,2.71,2.71,0,0,0,1,.16,2.44,2.44,0,0,0,1.49-.43,1.72,1.72,0,0,0,.58-1.44V139h-.12a2.57,2.57,0,0,1-.54.8,2.75,2.75,0,0,1-.93.62,3.48,3.48,0,0,1-1.36.24,3.93,3.93,0,0,1-2-.54,3.69,3.69,0,0,1-1.45-1.63,6.29,6.29,0,0,1-.54-2.78,6.68,6.68,0,0,1,.55-2.89,4.06,4.06,0,0,1,1.46-1.73,3.73,3.73,0,0,1,2-.57,3,3,0,0,1,1.39.28,2.77,2.77,0,0,1,.91.72,3.71,3.71,0,0,1,.53.83h.11v-1.7h2.73v10.25a3.58,3.58,0,0,1-.62,2.13,3.83,3.83,0,0,1-1.72,1.29A6.74,6.74,0,0,1,366.62,144.76Zm.06-6.21a1.8,1.8,0,0,0,1.12-.34,2.08,2.08,0,0,0,.71-1,4.09,4.09,0,0,0,.25-1.53,4.55,4.55,0,0,0-.24-1.55,2.28,2.28,0,0,0-.71-1,1.8,1.8,0,0,0-1.13-.36,1.76,1.76,0,0,0-1.15.37,2.26,2.26,0,0,0-.7,1,4.41,4.41,0,0,0-.24,1.52,4.33,4.33,0,0,0,.24,1.52,2.21,2.21,0,0,0,.71,1A1.76,1.76,0,0,0,366.68,138.55Z"/><path class="b" d="M381.53,141a3.64,3.64,0,0,1-2-.6,4.09,4.09,0,0,1-1.45-1.77,6.92,6.92,0,0,1-.53-2.86,6.78,6.78,0,0,1,.55-2.91,4,4,0,0,1,1.46-1.73,3.65,3.65,0,0,1,2-.58,3,3,0,0,1,1.39.28,2.83,2.83,0,0,1,.9.72,3.71,3.71,0,0,1,.53.83h.08v-5.08h2.75v13.53h-2.71v-1.62h-.12a3.41,3.41,0,0,1-.55.83,2.58,2.58,0,0,1-.91.69A3.08,3.08,0,0,1,381.53,141Zm.88-2.24a1.71,1.71,0,0,0,1.12-.38,2.31,2.31,0,0,0,.71-1.05,4.38,4.38,0,0,0,.25-1.57,4.69,4.69,0,0,0-.24-1.58,2.32,2.32,0,0,0-.71-1,1.8,1.8,0,0,0-1.13-.36,1.76,1.76,0,0,0-1.15.37,2.34,2.34,0,0,0-.7,1.05,4.55,4.55,0,0,0-.24,1.55,4.65,4.65,0,0,0,.24,1.56,2.39,2.39,0,0,0,.71,1.06A1.72,1.72,0,0,0,382.41,138.74Z"/><path class="b" d="M392.26,141a4,4,0,0,1-1.69-.34,2.56,2.56,0,0,1-1.17-1,3.48,3.48,0,0,1-.13-3.09,2.41,2.41,0,0,1,.83-.93,4,4,0,0,1,1.19-.53,8.69,8.69,0,0,1,1.4-.25c.58-.06,1-.12,1.4-.18a1.88,1.88,0,0,0,.77-.24.58.58,0,0,0,.23-.49v0a1.22,1.22,0,0,0-.38-1,1.59,1.59,0,0,0-1.09-.35,1.86,1.86,0,0,0-1.18.34,1.55,1.55,0,0,0-.58.83l-2.54-.21a3.45,3.45,0,0,1,.76-1.6,3.8,3.8,0,0,1,1.47-1.05,5.56,5.56,0,0,1,2.08-.36,5.92,5.92,0,0,1,1.59.2,4,4,0,0,1,1.35.61,3,3,0,0,1,.93,1.07,3.25,3.25,0,0,1,.35,1.55v6.85h-2.61V139.4h-.08a2.76,2.76,0,0,1-.64.84,2.86,2.86,0,0,1-1,.56A3.74,3.74,0,0,1,392.26,141Zm.79-1.94a2.2,2.2,0,0,0,1.07-.25,1.89,1.89,0,0,0,.73-.67,1.73,1.73,0,0,0,.26-1v-1.07a1.73,1.73,0,0,1-.35.15,4.5,4.5,0,0,1-.5.13l-.55.1-.51.07a3.65,3.65,0,0,0-.84.23,1.48,1.48,0,0,0-.57.43,1.1,1.1,0,0,0-.2.66,1,1,0,0,0,.41.88A1.76,1.76,0,0,0,393.05,139.06Z"/><path class="b" d="M405.26,130.66v2.11h-6v-2.11Zm-4.62-2.43h2.75v9.46a1.29,1.29,0,0,0,.12.61.66.66,0,0,0,.32.3,1.48,1.48,0,0,0,.49.08l.39,0,.3-.06.43,2.1-.58.15a4.53,4.53,0,0,1-.91.11,3.94,3.94,0,0,1-1.74-.27,2.41,2.41,0,0,1-1.16-1,3,3,0,0,1-.41-1.65Z"/><path class="b" d="M409.87,141a4,4,0,0,1-1.69-.34,2.67,2.67,0,0,1-1.17-1,3.48,3.48,0,0,1-.13-3.09,2.49,2.49,0,0,1,.83-.93,4.15,4.15,0,0,1,1.19-.53,9,9,0,0,1,1.41-.25c.57-.06,1-.12,1.39-.18a1.88,1.88,0,0,0,.77-.24.56.56,0,0,0,.24-.49v0a1.22,1.22,0,0,0-.39-1,1.54,1.54,0,0,0-1.08-.35,1.89,1.89,0,0,0-1.19.34,1.6,1.6,0,0,0-.58.83l-2.54-.21a3.56,3.56,0,0,1,.76-1.6,3.8,3.8,0,0,1,1.47-1.05,5.61,5.61,0,0,1,2.09-.36,5.85,5.85,0,0,1,1.58.2,4,4,0,0,1,1.35.61,2.94,2.94,0,0,1,.94,1.07,3.25,3.25,0,0,1,.34,1.55v6.85h-2.61V139.4h-.08a2.76,2.76,0,0,1-.64.84,2.67,2.67,0,0,1-1,.56A3.66,3.66,0,0,1,409.87,141Zm.79-1.94a2.17,2.17,0,0,0,1.07-.25,1.82,1.82,0,0,0,.73-.67,1.74,1.74,0,0,0,.27-1v-1.07a2.44,2.44,0,0,1-.35.15,5.16,5.16,0,0,1-.5.13l-.56.1-.5.07a3.6,3.6,0,0,0-.85.23,1.38,1.38,0,0,0-.56.43,1.1,1.1,0,0,0-.2.66,1,1,0,0,0,.41.88A1.71,1.71,0,0,0,410.66,139.06Z"/><path class="a" d="M218.31,159.42H206.55a1.17,1.17,0,0,0-.83,2l3.17,3.16a1.18,1.18,0,0,1,0,1.65L194.5,180.61a1.16,1.16,0,0,0,0,1.65l2.14,2.14a1.18,1.18,0,0,0,1.65,0L212.67,170a1.18,1.18,0,0,1,1.65,0l3.17,3.17a1.17,1.17,0,0,0,2-.83V160.58A1.16,1.16,0,0,0,218.31,159.42Z"/><path class="a" d="M525.09,183.57V171.81a1.17,1.17,0,0,0-2-.83l-3.16,3.17a1.18,1.18,0,0,1-1.65,0L503.9,159.76a1.16,1.16,0,0,0-1.65,0l-2.14,2.14a1.18,1.18,0,0,0,0,1.65l14.39,14.38a1.16,1.16,0,0,1,0,1.65l-3.16,3.17a1.16,1.16,0,0,0,.82,2h11.77A1.16,1.16,0,0,0,525.09,183.57Z"/><rect class="b" x="497.56" y="295.29" width="222.66" height="59.54" rx="8"/><path class="c" d="M541.4,317.47a6.28,6.28,0,0,1,2.11.36,4.85,4.85,0,0,1,1.81,1.18,5.54,5.54,0,0,1,1.27,2.14,10,10,0,0,1,.47,3.28,11.76,11.76,0,0,1-.41,3.22,7.06,7.06,0,0,1-1.16,2.4,5.13,5.13,0,0,1-1.81,1.51,5.91,5.91,0,0,1-4.89,0,4.7,4.7,0,0,1-1.74-1.5,4.65,4.65,0,0,1-.8-2.14h3a2.07,2.07,0,0,0,.73,1.2,2.19,2.19,0,0,0,1.37.42,2.31,2.31,0,0,0,2.1-1.2,6.57,6.57,0,0,0,.73-3.31H544a3.27,3.27,0,0,1-.86,1.06,3.91,3.91,0,0,1-1.23.69,4.51,4.51,0,0,1-1.48.25,4.18,4.18,0,0,1-3.79-2.22,4.79,4.79,0,0,1-.56-2.36,4.89,4.89,0,0,1,.66-2.55,4.68,4.68,0,0,1,1.85-1.76A5.9,5.9,0,0,1,541.4,317.47Zm0,2.35a2.35,2.35,0,0,0-1.24.34,2.4,2.4,0,0,0-.86.9,2.84,2.84,0,0,0,0,2.54,2.18,2.18,0,0,0,.85.88,2.26,2.26,0,0,0,1.23.33,2.3,2.3,0,0,0,1-.19,2.33,2.33,0,0,0,.77-.54,2.5,2.5,0,0,0,.71-1.76,2.56,2.56,0,0,0-.32-1.26,2.3,2.3,0,0,0-.85-.9A2.38,2.38,0,0,0,541.42,319.82Z"/><path class="c" d="M554.69,332.19a5.38,5.38,0,0,1-3.06-.88,5.47,5.47,0,0,1-2-2.53,10.46,10.46,0,0,1-.68-4,10.09,10.09,0,0,1,.69-3.95,5.4,5.4,0,0,1,10.07,0,10.12,10.12,0,0,1,.69,3.95,10.31,10.31,0,0,1-.69,4,5.57,5.57,0,0,1-2,2.53A5.33,5.33,0,0,1,554.69,332.19Zm0-2.49a2.19,2.19,0,0,0,1.95-1.22,7.41,7.41,0,0,0,.72-3.67,9.31,9.31,0,0,0-.33-2.69,3.52,3.52,0,0,0-.93-1.61,2,2,0,0,0-1.41-.54,2.18,2.18,0,0,0-1.93,1.21,7.24,7.24,0,0,0-.74,3.63,9.58,9.58,0,0,0,.33,2.72,3.54,3.54,0,0,0,.93,1.63A2.06,2.06,0,0,0,554.69,329.7Z"/><path class="c" d="M568.1,332.19a5.43,5.43,0,0,1-3.07-.88,5.52,5.52,0,0,1-2-2.53,10.27,10.27,0,0,1-.68-4,10.09,10.09,0,0,1,.69-3.95,5.15,5.15,0,0,1,5-3.35,5.17,5.17,0,0,1,5,3.35,10,10,0,0,1,.68,3.95,10.51,10.51,0,0,1-.68,4,5.57,5.57,0,0,1-2,2.53A5.35,5.35,0,0,1,568.1,332.19Zm0-2.49a2.2,2.2,0,0,0,1.95-1.22,7.41,7.41,0,0,0,.72-3.67,9.31,9.31,0,0,0-.33-2.69,3.52,3.52,0,0,0-.93-1.61,2,2,0,0,0-1.41-.54,2.18,2.18,0,0,0-1.93,1.21,7.24,7.24,0,0,0-.74,3.63,9.58,9.58,0,0,0,.33,2.72,3.54,3.54,0,0,0,.93,1.63A2,2,0,0,0,568.1,329.7Z"/><path class="c" d="M585.3,332.08a5.41,5.41,0,0,1-2.8-.69,4.59,4.59,0,0,1-1.8-1.93,6.81,6.81,0,0,1,0-5.72,4.69,4.69,0,0,1,1.81-1.93,5.27,5.27,0,0,1,2.78-.7,5.47,5.47,0,0,1,2.43.51,4,4,0,0,1,1.66,1.42,4.17,4.17,0,0,1,.67,2.14h-2.78a2.19,2.19,0,0,0-.62-1.28,1.79,1.79,0,0,0-1.31-.49,2,2,0,0,0-1.2.37,2.39,2.39,0,0,0-.79,1.07,5.42,5.42,0,0,0,0,3.44,2.33,2.33,0,0,0,.79,1.09,2.11,2.11,0,0,0,2.11.16,1.67,1.67,0,0,0,.67-.6,2.49,2.49,0,0,0,.35-1h2.78a4.42,4.42,0,0,1-.66,2.14,4.09,4.09,0,0,1-1.63,1.45A5.51,5.51,0,0,1,585.3,332.08Z"/><path class="c" d="M594.89,325.73v6.15h-2.95V317.71h2.87v5.41h.12a3,3,0,0,1,1.16-1.47,3.56,3.56,0,0,1,2-.54,3.76,3.76,0,0,1,1.93.48,3.31,3.31,0,0,1,1.29,1.38,4.48,4.48,0,0,1,.45,2.14v6.77h-2.95v-6.24a2.14,2.14,0,0,0-.49-1.53,1.78,1.78,0,0,0-1.4-.55,2.13,2.13,0,0,0-1.06.26,1.77,1.77,0,0,0-.72.74A2.53,2.53,0,0,0,594.89,325.73Z"/><path class="c" d="M607.14,332.08a4.38,4.38,0,0,1-1.82-.36,2.88,2.88,0,0,1-1.25-1.06,3.1,3.1,0,0,1-.46-1.75,3.19,3.19,0,0,1,.32-1.49,2.77,2.77,0,0,1,.89-1,4.24,4.24,0,0,1,1.28-.55,8.86,8.86,0,0,1,1.5-.26c.62-.07,1.12-.13,1.5-.19a1.92,1.92,0,0,0,.82-.26.56.56,0,0,0,.25-.51v0a1.26,1.26,0,0,0-.41-1,1.7,1.7,0,0,0-1.16-.36,2.1,2.1,0,0,0-1.27.35,1.69,1.69,0,0,0-.62.88l-2.73-.22a3.68,3.68,0,0,1,.82-1.68,3.89,3.89,0,0,1,1.57-1.09,6,6,0,0,1,2.24-.39,6.77,6.77,0,0,1,1.7.21,4.64,4.64,0,0,1,1.45.64,3.14,3.14,0,0,1,1,1.12,3.33,3.33,0,0,1,.37,1.63v7.17h-2.79V330.4h-.09a2.93,2.93,0,0,1-.68.88,3.15,3.15,0,0,1-1,.59A4.23,4.23,0,0,1,607.14,332.08Zm.84-2a2.35,2.35,0,0,0,1.15-.26,2,2,0,0,0,.78-.7,1.8,1.8,0,0,0,.29-1V327a1.36,1.36,0,0,1-.38.16,5.25,5.25,0,0,1-.54.14l-.59.1-.54.08a3.65,3.65,0,0,0-.91.24,1.4,1.4,0,0,0-.6.45,1.12,1.12,0,0,0-.22.69,1.07,1.07,0,0,0,.44.92A1.9,1.9,0,0,0,608,330Z"/><path class="c" d="M615.41,331.88V321.25h2.86v1.85h.11a2.71,2.71,0,0,1,1-1.49,2.55,2.55,0,0,1,1.57-.51l.48,0a4.12,4.12,0,0,1,.45.08v2.62a3.85,3.85,0,0,0-.57-.11,4.15,4.15,0,0,0-.67,0,2.32,2.32,0,0,0-1.16.28,2,2,0,0,0-.81.78,2.25,2.25,0,0,0-.29,1.14v6Z"/><path class="c" d="M626.11,332.08a4.41,4.41,0,0,1-1.82-.36,2.88,2.88,0,0,1-1.25-1.06,3.1,3.1,0,0,1-.46-1.75,3.19,3.19,0,0,1,.32-1.49,2.77,2.77,0,0,1,.89-1,4.24,4.24,0,0,1,1.28-.55,8.86,8.86,0,0,1,1.5-.26c.62-.07,1.12-.13,1.5-.19a1.92,1.92,0,0,0,.82-.26.57.57,0,0,0,.26-.51v0a1.27,1.27,0,0,0-.42-1,1.7,1.7,0,0,0-1.16-.36,2.12,2.12,0,0,0-1.27.35,1.69,1.69,0,0,0-.62.88l-2.73-.22a3.68,3.68,0,0,1,.82-1.68,3.89,3.89,0,0,1,1.57-1.09,6,6,0,0,1,2.24-.39,6.77,6.77,0,0,1,1.7.21,4.64,4.64,0,0,1,1.45.64,3.26,3.26,0,0,1,1,1.12,3.44,3.44,0,0,1,.36,1.63v7.17H629.3V330.4h-.09a2.78,2.78,0,0,1-.68.88,3.15,3.15,0,0,1-1,.59A4.23,4.23,0,0,1,626.11,332.08Zm.84-2a2.35,2.35,0,0,0,1.15-.26,2,2,0,0,0,.78-.7,1.8,1.8,0,0,0,.29-1V327a1.36,1.36,0,0,1-.38.16,5.25,5.25,0,0,1-.54.14l-.59.1-.54.08a3.65,3.65,0,0,0-.91.24,1.4,1.4,0,0,0-.6.45,1.11,1.11,0,0,0-.21.69,1.06,1.06,0,0,0,.43.92A1.9,1.9,0,0,0,627,330Z"/><path class="c" d="M639.18,332.08a5.43,5.43,0,0,1-2.8-.69,4.66,4.66,0,0,1-1.8-1.93,6.76,6.76,0,0,1,0-5.72,4.6,4.6,0,0,1,1.8-1.93,5.29,5.29,0,0,1,2.78-.7,5.51,5.51,0,0,1,2.44.51,4,4,0,0,1,2.32,3.56h-2.78a2.13,2.13,0,0,0-.62-1.28,1.77,1.77,0,0,0-1.31-.49,1.94,1.94,0,0,0-1.19.37,2.4,2.4,0,0,0-.8,1.07,5.42,5.42,0,0,0,0,3.44,2.4,2.4,0,0,0,.79,1.09,2,2,0,0,0,1.2.37,1.94,1.94,0,0,0,.91-.21,1.67,1.67,0,0,0,.67-.6,2.34,2.34,0,0,0,.35-1h2.78a4.32,4.32,0,0,1-.66,2.14,4,4,0,0,1-1.63,1.45A5.51,5.51,0,0,1,639.18,332.08Z"/><path class="c" d="M651.48,321.25v2.21h-6.4v-2.21Zm-5-2.55h3v9.91a1.36,1.36,0,0,0,.12.63.72.72,0,0,0,.35.32,1.44,1.44,0,0,0,.53.09,2,2,0,0,0,.41,0l.32-.06.46,2.2-.62.16a5.11,5.11,0,0,1-1,.11,4.34,4.34,0,0,1-1.86-.28,2.59,2.59,0,0,1-1.24-1,3.09,3.09,0,0,1-.44-1.73Z"/><path class="c" d="M658.13,332.08a5.65,5.65,0,0,1-2.82-.66,4.57,4.57,0,0,1-1.82-1.9,7,7,0,0,1,0-5.79,4.72,4.72,0,0,1,1.8-1.93,5.21,5.21,0,0,1,2.72-.69,5.46,5.46,0,0,1,2,.34,4.38,4.38,0,0,1,1.59,1,4.47,4.47,0,0,1,1.06,1.69,6.54,6.54,0,0,1,.39,2.37v.81h-9v-1.83h6.2a2.23,2.23,0,0,0-.28-1.13,2.08,2.08,0,0,0-.76-.77,2.31,2.31,0,0,0-1.13-.28,2.25,2.25,0,0,0-2.29,2.28v1.73a3.07,3.07,0,0,0,.29,1.37,2.1,2.1,0,0,0,.84.88,2.48,2.48,0,0,0,1.28.31,2.92,2.92,0,0,0,.9-.13,1.86,1.86,0,0,0,.69-.42,1.69,1.69,0,0,0,.45-.68l2.72.18a3.72,3.72,0,0,1-.84,1.71,4.28,4.28,0,0,1-1.65,1.14A6.2,6.2,0,0,1,658.13,332.08Z"/><path class="c" d="M664.93,331.88V321.25h2.86v1.85h.11a2.75,2.75,0,0,1,1-1.49,2.6,2.6,0,0,1,1.58-.51l.48,0a4.12,4.12,0,0,1,.45.08v2.62a3.77,3.77,0,0,0-.58-.11,4.07,4.07,0,0,0-.67,0,2.34,2.34,0,0,0-1.16.28,2,2,0,0,0-.8.78,2.15,2.15,0,0,0-.29,1.14v6Z"/><path class="c" d="M681.73,324.28l-2.69.17a1.51,1.51,0,0,0-.9-1.08,2.16,2.16,0,0,0-.88-.17,2.22,2.22,0,0,0-1.16.29.86.86,0,0,0-.47.76.81.81,0,0,0,.31.65,2.52,2.52,0,0,0,1,.42l1.92.39a4.69,4.69,0,0,1,2.31,1,2.41,2.41,0,0,1,.77,1.85,2.92,2.92,0,0,1-.62,1.84,4,4,0,0,1-1.67,1.23,6.42,6.42,0,0,1-2.45.43,5.74,5.74,0,0,1-3.36-.88,3.41,3.41,0,0,1-1.46-2.4l2.9-.15a1.45,1.45,0,0,0,.64,1,2.21,2.21,0,0,0,1.29.34,2.31,2.31,0,0,0,1.25-.3.89.89,0,0,0,.48-.78.81.81,0,0,0-.34-.66,2.6,2.6,0,0,0-1-.4l-1.84-.36a4.45,4.45,0,0,1-2.32-1.08,2.71,2.71,0,0,1-.75-2,2.89,2.89,0,0,1,.55-1.77,3.6,3.6,0,0,1,1.57-1.14,6.63,6.63,0,0,1,2.38-.4,5.3,5.3,0,0,1,3.17.85A3.3,3.3,0,0,1,681.73,324.28Z"/><rect class="c" x="497.56" y="368.26" width="222.66" height="60.94" rx="8"/><path class="b" d="M553.13,405.54V391.37h2.92v11.7H562v2.47Z"/><path class="b" d="M565.33,393.54a1.52,1.52,0,0,1-1.1-.43,1.38,1.38,0,0,1-.46-1.05,1.4,1.4,0,0,1,.46-1.06,1.58,1.58,0,0,1,2.19,0,1.38,1.38,0,0,1,.46,1.05,1.42,1.42,0,0,1-.46,1.06A1.52,1.52,0,0,1,565.33,393.54Zm-1.46,12V394.92h2.88v10.62Z"/><path class="b" d="M571.93,399.4v6.14h-2.88V394.92h2.75v1.87h.12a3,3,0,0,1,1.15-1.47,3.48,3.48,0,0,1,2-.54,3.64,3.64,0,0,1,1.89.48,3.29,3.29,0,0,1,1.25,1.38,4.86,4.86,0,0,1,.44,2.14v6.76h-2.88V399.3a2.17,2.17,0,0,0-.48-1.52,1.74,1.74,0,0,0-1.36-.55,2,2,0,0,0-1,.25,1.8,1.8,0,0,0-.69.75A2.73,2.73,0,0,0,571.93,399.4Z"/><path class="b" d="M580.89,405.54V391.37h2.88v14.17Zm2.61-3.06V399h.42l3.33-4h3.3l-4.47,5.34h-.68Zm3.88,3.06-3.06-4.63,1.92-2.08,4.51,6.71Z"/><path class="b" d="M593.41,393.54a1.54,1.54,0,0,1-1.1-.43,1.38,1.38,0,0,1-.46-1.05,1.4,1.4,0,0,1,.46-1.06,1.59,1.59,0,0,1,2.2,0,1.42,1.42,0,0,1,.46,1.05,1.45,1.45,0,0,1-.46,1.06A1.52,1.52,0,0,1,593.41,393.54Zm-1.45,12V394.92h2.88v10.62Z"/><path class="b" d="M600,399.4v6.14h-2.87V394.92h2.74v1.87H600a3,3,0,0,1,1.16-1.47,3.45,3.45,0,0,1,2-.54,3.64,3.64,0,0,1,1.89.48,3.23,3.23,0,0,1,1.25,1.38,4.73,4.73,0,0,1,.45,2.14v6.76h-2.88V399.3a2.17,2.17,0,0,0-.49-1.52,1.72,1.72,0,0,0-1.36-.55,2,2,0,0,0-1,.25,1.68,1.68,0,0,0-.69.75A2.59,2.59,0,0,0,600,399.4Z"/><path class="b" d="M613.65,409.68a6.6,6.6,0,0,1-2.4-.39,4,4,0,0,1-1.58-1,3.19,3.19,0,0,1-.77-1.46l2.67-.37a1.76,1.76,0,0,0,.38.55,2.08,2.08,0,0,0,.7.43,3,3,0,0,0,1.06.16,2.57,2.57,0,0,0,1.56-.45,1.79,1.79,0,0,0,.61-1.51v-1.94h-.12a2.8,2.8,0,0,1-1.54,1.48,3.61,3.61,0,0,1-1.42.25,4.18,4.18,0,0,1-2.13-.56,3.87,3.87,0,0,1-1.52-1.71,6.53,6.53,0,0,1-.57-2.91,7.07,7.07,0,0,1,.58-3,4.12,4.12,0,0,1,1.53-1.81,3.89,3.89,0,0,1,2.1-.6,3.19,3.19,0,0,1,1.46.3,3,3,0,0,1,1,.74,4.15,4.15,0,0,1,.56.88h.1v-1.78h2.86v10.73a3.71,3.71,0,0,1-.64,2.22,4,4,0,0,1-1.8,1.35A6.94,6.94,0,0,1,613.65,409.68Zm.06-6.5a1.92,1.92,0,0,0,1.18-.36,2.26,2.26,0,0,0,.74-1,4.53,4.53,0,0,0,.26-1.61,4.44,4.44,0,0,0-.26-1.62,2.34,2.34,0,0,0-.74-1.07,2,2,0,0,0-2.38,0,2.34,2.34,0,0,0-.73,1.09,4.58,4.58,0,0,0-.25,1.59,4.42,4.42,0,0,0,.25,1.59,2.17,2.17,0,0,0,.74,1A1.94,1.94,0,0,0,613.71,403.18Z"/><path class="b" d="M629.26,405.71a3.8,3.8,0,0,1-2.14-.62,4.19,4.19,0,0,1-1.51-1.85,8.35,8.35,0,0,1,0-6,4.29,4.29,0,0,1,1.54-1.82,3.83,3.83,0,0,1,2.09-.6,3.19,3.19,0,0,1,1.46.3,3,3,0,0,1,.95.74,4.09,4.09,0,0,1,.55.88h.09v-5.33h2.87v14.17h-2.84v-1.7h-.12a4.06,4.06,0,0,1-.57.87,3,3,0,0,1-1,.72A3.21,3.21,0,0,1,629.26,405.71Zm.91-2.34a1.8,1.8,0,0,0,1.18-.39,2.56,2.56,0,0,0,.75-1.1,5.37,5.37,0,0,0,0-3.3,2.45,2.45,0,0,0-.74-1.08,1.9,1.9,0,0,0-1.19-.38,1.78,1.78,0,0,0-1.19.4,2.35,2.35,0,0,0-.74,1.09,5.41,5.41,0,0,0,0,3.25A2.44,2.44,0,0,0,629,403,1.78,1.78,0,0,0,630.17,403.37Z"/><path class="b" d="M640.49,405.74a4.3,4.3,0,0,1-1.77-.35,2.82,2.82,0,0,1-1.23-1.06,3.19,3.19,0,0,1-.45-1.76,3.15,3.15,0,0,1,.32-1.48,2.53,2.53,0,0,1,.86-1,4.18,4.18,0,0,1,1.25-.56,9.8,9.8,0,0,1,1.47-.26c.6-.06,1.09-.12,1.46-.18a2.19,2.19,0,0,0,.81-.26.61.61,0,0,0,.25-.51v-.05a1.29,1.29,0,0,0-.41-1,1.64,1.64,0,0,0-1.14-.36,1.93,1.93,0,0,0-1.23.35,1.61,1.61,0,0,0-.61.87l-2.66-.22a3.84,3.84,0,0,1,.79-1.68,4,4,0,0,1,1.54-1.09,5.71,5.71,0,0,1,2.19-.38,7,7,0,0,1,1.66.2,4.34,4.34,0,0,1,1.41.65,3.12,3.12,0,0,1,1,1.12,3.52,3.52,0,0,1,.35,1.62v7.17H643.6v-1.47h-.08a2.82,2.82,0,0,1-.67.87,2.85,2.85,0,0,1-1,.59A4.09,4.09,0,0,1,640.49,405.74Zm.82-2a2.34,2.34,0,0,0,1.12-.26,2,2,0,0,0,.77-.7,1.91,1.91,0,0,0,.27-1v-1.12a1.54,1.54,0,0,1-.36.16,5.15,5.15,0,0,1-.53.13l-.58.1-.53.08a3.52,3.52,0,0,0-.88.24,1.52,1.52,0,0,0-.59.45,1.14,1.14,0,0,0-.21.7,1,1,0,0,0,.43.91A1.81,1.81,0,0,0,641.31,403.71Z"/><path class="b" d="M654.09,394.92v2.21h-6.25v-2.21Zm-4.83-2.55h2.88v9.91a1.36,1.36,0,0,0,.12.63.68.68,0,0,0,.34.31,1.36,1.36,0,0,0,.51.09,2.83,2.83,0,0,0,.41,0l.31-.06.45,2.19a5.56,5.56,0,0,1-.61.16,4.7,4.7,0,0,1-.95.12,4.33,4.33,0,0,1-1.82-.29,2.5,2.5,0,0,1-1.21-1,3.15,3.15,0,0,1-.43-1.73Z"/><path class="b" d="M658.93,405.74a4.27,4.27,0,0,1-1.77-.35,2.82,2.82,0,0,1-1.23-1.06,3.19,3.19,0,0,1-.45-1.76,3.15,3.15,0,0,1,.32-1.48,2.53,2.53,0,0,1,.86-1,4.18,4.18,0,0,1,1.25-.56,9.8,9.8,0,0,1,1.47-.26c.6-.06,1.09-.12,1.46-.18a2.06,2.06,0,0,0,.8-.26.58.58,0,0,0,.25-.51v-.05a1.28,1.28,0,0,0-.4-1,1.66,1.66,0,0,0-1.14-.36,1.91,1.91,0,0,0-1.23.35,1.61,1.61,0,0,0-.61.87l-2.67-.22a3.71,3.71,0,0,1,2.34-2.77,5.71,5.71,0,0,1,2.19-.38,7,7,0,0,1,1.66.2,4.34,4.34,0,0,1,1.41.65,3.12,3.12,0,0,1,1,1.12,3.52,3.52,0,0,1,.35,1.62v7.17H662v-1.47H662a3,3,0,0,1-.67.87,2.85,2.85,0,0,1-1,.59A4.09,4.09,0,0,1,658.93,405.74Zm.82-2a2.37,2.37,0,0,0,1.12-.26,2,2,0,0,0,.77-.7,1.91,1.91,0,0,0,.27-1v-1.12a1.54,1.54,0,0,1-.36.16,5.15,5.15,0,0,1-.53.13l-.58.1-.53.08a3.52,3.52,0,0,0-.88.24,1.52,1.52,0,0,0-.59.45,1.14,1.14,0,0,0-.21.7,1,1,0,0,0,.43.91A1.81,1.81,0,0,0,659.75,403.71Z"/><path class="c" d="M542.65,463.32v-2.47h11.64v2.47H550V475h-3v-11.7Z"/><path class="c" d="M559.41,475.23a5.4,5.4,0,0,1-2.79-.69,4.72,4.72,0,0,1-1.81-1.92,6.88,6.88,0,0,1,0-5.75,4.69,4.69,0,0,1,1.81-1.93,6,6,0,0,1,5.57,0,4.62,4.62,0,0,1,1.81,1.93,6.78,6.78,0,0,1,0,5.75,4.66,4.66,0,0,1-1.81,1.92A5.38,5.38,0,0,1,559.41,475.23Zm0-2.28a1.84,1.84,0,0,0,1.23-.42,2.64,2.64,0,0,0,.74-1.15,5.57,5.57,0,0,0,0-3.3,2.64,2.64,0,0,0-.74-1.15,1.84,1.84,0,0,0-1.23-.43,1.87,1.87,0,0,0-1.24.43,2.5,2.5,0,0,0-.76,1.15,5.57,5.57,0,0,0,0,3.3,2.5,2.5,0,0,0,.76,1.15A1.86,1.86,0,0,0,559.42,473Z"/><path class="c" d="M566.56,475V464.39h2.86v1.86h.11a2.78,2.78,0,0,1,1-1.5,2.6,2.6,0,0,1,1.58-.51l.48,0a2.6,2.6,0,0,1,.45.08V467a3.77,3.77,0,0,0-.58-.11,5.43,5.43,0,0,0-.67-.05,2.46,2.46,0,0,0-1.16.28,2.21,2.21,0,0,0-.8.78,2.28,2.28,0,0,0-.29,1.15v6Z"/><path class="c" d="M574.52,475V464.39h2.86v1.86h.11a2.79,2.79,0,0,1,1-1.5,2.55,2.55,0,0,1,1.57-.51l.48,0a2.6,2.6,0,0,1,.45.08V467a3.85,3.85,0,0,0-.57-.11,5.73,5.73,0,0,0-.67-.05,2.43,2.43,0,0,0-1.16.28,2.07,2.07,0,0,0-.8.78,2.19,2.19,0,0,0-.3,1.15v6Z"/><path class="c" d="M586.83,475.23a5.6,5.6,0,0,1-2.82-.67,4.52,4.52,0,0,1-1.81-1.89,6.18,6.18,0,0,1-.64-2.91,6.12,6.12,0,0,1,.64-2.88A4.64,4.64,0,0,1,584,465a5.24,5.24,0,0,1,2.72-.69,5.74,5.74,0,0,1,2,.33,4.58,4.58,0,0,1,1.59,1,4.64,4.64,0,0,1,1.06,1.68,6.85,6.85,0,0,1,.38,2.37v.81h-9v-1.82h6.2a2.28,2.28,0,0,0-.28-1.13,2,2,0,0,0-.77-.77,2.18,2.18,0,0,0-1.13-.28,2.3,2.3,0,0,0-1.18.3,2.15,2.15,0,0,0-.81.83,2.42,2.42,0,0,0-.3,1.14v1.74a2.87,2.87,0,0,0,.3,1.36,2.1,2.1,0,0,0,.83.89,2.61,2.61,0,0,0,1.28.31,2.83,2.83,0,0,0,.9-.14,1.88,1.88,0,0,0,.7-.41,2,2,0,0,0,.44-.68l2.73.18a3.74,3.74,0,0,1-.85,1.71,4.19,4.19,0,0,1-1.65,1.13A6.16,6.16,0,0,1,586.83,475.23Z"/><path class="c" d="M596.58,468.88V475h-3V464.39h2.81v1.88h.13a3,3,0,0,1,1.18-1.47,3.59,3.59,0,0,1,2-.54,3.76,3.76,0,0,1,1.93.48,3.23,3.23,0,0,1,1.28,1.38,4.58,4.58,0,0,1,.46,2.13V475h-2.95v-6.24a2.13,2.13,0,0,0-.5-1.53,1.8,1.8,0,0,0-1.39-.54,2.08,2.08,0,0,0-1,.25,1.72,1.72,0,0,0-.71.75A2.47,2.47,0,0,0,596.58,468.88Z"/><path class="c" d="M611.4,464.39v2.22H605v-2.22Zm-4.95-2.54h2.95v9.91a1.23,1.23,0,0,0,.13.63.64.64,0,0,0,.34.31,1.44,1.44,0,0,0,.53.09,2.83,2.83,0,0,0,.41,0l.32-.06.46,2.19a5.86,5.86,0,0,1-.62.16,5,5,0,0,1-1,.12,4.54,4.54,0,0,1-1.87-.29,2.53,2.53,0,0,1-1.24-1,3.07,3.07,0,0,1-.44-1.73Z"/><path class="c" d="M622.64,475.23a5.35,5.35,0,0,1-2.81-.7,4.6,4.6,0,0,1-1.8-1.93,6.86,6.86,0,0,1,0-5.72,4.72,4.72,0,0,1,1.8-1.93,5.38,5.38,0,0,1,2.78-.69,5.51,5.51,0,0,1,2.44.5,4.15,4.15,0,0,1,1.65,1.42,4.11,4.11,0,0,1,.67,2.14H624.6A2.16,2.16,0,0,0,624,467a1.81,1.81,0,0,0-1.31-.49,2,2,0,0,0-1.19.37,2.44,2.44,0,0,0-.8,1.08,4.78,4.78,0,0,0-.28,1.71,4.9,4.9,0,0,0,.28,1.73,2.42,2.42,0,0,0,.79,1.08,2,2,0,0,0,1.2.38,1.94,1.94,0,0,0,.91-.21,1.78,1.78,0,0,0,.67-.61,2.16,2.16,0,0,0,.35-.95h2.78a4.25,4.25,0,0,1-.66,2.14,4.08,4.08,0,0,1-1.63,1.44A5.36,5.36,0,0,1,622.64,475.23Z"/><path class="c" d="M632.23,468.88V475h-3V460.85h2.86v5.42h.13a3,3,0,0,1,1.16-1.48,3.52,3.52,0,0,1,2-.53,3.8,3.8,0,0,1,1.94.48,3.26,3.26,0,0,1,1.28,1.37,4.6,4.6,0,0,1,.46,2.14V475h-3v-6.24a2.17,2.17,0,0,0-.5-1.53,1.81,1.81,0,0,0-1.4-.54,2.16,2.16,0,0,0-1.06.25,1.86,1.86,0,0,0-.72.75A2.47,2.47,0,0,0,632.23,468.88Z"/><path class="c" d="M648.26,470.5v-6.11h2.94V475h-2.83v-1.93h-.11a3.13,3.13,0,0,1-1.19,1.5,3.51,3.51,0,0,1-2,.57,3.56,3.56,0,0,1-1.87-.48,3.32,3.32,0,0,1-1.27-1.38,4.86,4.86,0,0,1-.46-2.14v-6.77h2.95v6.24a2.13,2.13,0,0,0,.5,1.49,1.72,1.72,0,0,0,1.34.55,2.06,2.06,0,0,0,1-.25,1.81,1.81,0,0,0,.75-.73A2.3,2.3,0,0,0,648.26,470.5Z"/><path class="c" d="M656.5,468.88V475h-2.94V464.39h2.81v1.88h.12a3,3,0,0,1,1.18-1.47,3.65,3.65,0,0,1,2-.54,3.79,3.79,0,0,1,1.93.48,3.29,3.29,0,0,1,1.28,1.38,4.71,4.71,0,0,1,.45,2.13V475h-2.94v-6.24a2.22,2.22,0,0,0-.5-1.53,1.82,1.82,0,0,0-1.39-.54,2.09,2.09,0,0,0-1,.25,1.78,1.78,0,0,0-.71.75A2.59,2.59,0,0,0,656.5,468.88Z"/><path class="c" d="M665.67,475V460.85h3V475Zm2.67-3.06v-3.53h.43l3.4-4h3.38L671,469.74h-.7Zm4,3.06-3.13-4.63,2-2.08,4.61,6.71Z"/></svg>