<svg xmlns="http://www.w3.org/2000/svg" viewBox="0 0 800 500"><defs><style>.a{fill:#39b54a;}.b,.f{fill:#fff;}.c{fill:#bf8f4e;}.d{fill:#a97833;}.e{fill:#cd9f61;}.f{font-size:27.91px;font-family:Roboto-Bold, Roboto;font-weight:700;}.g{letter-spacing:-0.03em;}.h{letter-spacing:-0.03em;}.i{letter-spacing:-0.1em;}.j{letter-spacing:-0.01em;}.k{letter-spacing:0em;}.l{fill:#009444;}</style></defs><rect class="a" x="265.44" y="187.17" width="196.91" height="54.25" rx="6" transform="translate(757.79 62.04) rotate(128.37)"/><path class="b" d="M314.83,265.28l-2.05-1.63,7.68-9.7,2.06,1.63-2.87,3.62,9.75,7.72-1.95,2.47-9.75-7.72Z"/><path class="b" d="M335.82,259.18a5.77,5.77,0,0,1-2.41,1.86,4.94,4.94,0,0,1-2.8.24,7.23,7.23,0,0,1-4.79-3.79,5,5,0,0,1-.41-2.78,5.71,5.71,0,0,1,1.26-2.78,5.8,5.8,0,0,1,2.42-1.86,4.91,4.91,0,0,1,2.79-.24,7.18,7.18,0,0,1,4.79,3.79,4.88,4.88,0,0,1,.41,2.78A5.75,5.75,0,0,1,335.82,259.18Zm-1.89-1.52a2,2,0,0,0,.46-1.3,2.81,2.81,0,0,0-.47-1.38,5.22,5.22,0,0,0-1.21-1.3,5.28,5.28,0,0,0-1.54-.88,2.85,2.85,0,0,0-1.45-.14,1.94,1.94,0,0,0-1.16.75,2,2,0,0,0-.47,1.31,2.73,2.73,0,0,0,.46,1.39,5.41,5.41,0,0,0,1.21,1.3,5.32,5.32,0,0,0,1.55.88,2.72,2.72,0,0,0,1.45.13A2.05,2.05,0,0,0,333.93,257.66Z"/><path class="b" d="M340.37,253.08l-8.86-7,1.89-2.38,1.54,1.22.08-.09a2.9,2.9,0,0,1-.61-1.8,2.68,2.68,0,0,1,.62-1.65,2.91,2.91,0,0,1,.34-.38,2.7,2.7,0,0,1,.36-.33l2.18,1.73a3,3,0,0,0-.47.41,4.62,4.62,0,0,0-.49.52,2.61,2.61,0,0,0-.53,1.15,2.2,2.2,0,0,0,.12,1.19,2.41,2.41,0,0,0,.76,1l5,4Z"/><path class="b" d="M345.62,246.44l-8.85-7,1.88-2.38,1.55,1.22.07-.09a2.91,2.91,0,0,1-.6-1.8,2.77,2.77,0,0,1,.61-1.65c.1-.12.21-.25.34-.38A3.2,3.2,0,0,1,341,234l2.18,1.72a5.84,5.84,0,0,0-.47.41,4.51,4.51,0,0,0-.48.53,2.37,2.37,0,0,0-.53,1.15,2.26,2.26,0,0,0,.11,1.18,2.38,2.38,0,0,0,.77,1l5,4Z"/><path class="b" d="M353.92,236.31a5.9,5.9,0,0,1-2.42,1.91,4.79,4.79,0,0,1-2.78.27,7.35,7.35,0,0,1-4.82-3.82,5,5,0,0,1-.42-2.77,5.48,5.48,0,0,1,1.22-2.73,5.78,5.78,0,0,1,1.57-1.41,4.82,4.82,0,0,1,1.89-.67,5,5,0,0,1,2.11.23,7.15,7.15,0,0,1,2.22,1.25l.68.53-5.93,7.48-1.52-1.2,4.09-5.17a2.37,2.37,0,0,0-1.12-.51,2.15,2.15,0,0,0-1.15.12,2.42,2.42,0,0,0-1,.76,2.39,2.39,0,0,0-.52,1.19,2.3,2.3,0,0,0,.15,1.22,2.45,2.45,0,0,0,.76,1l1.45,1.15a3.05,3.05,0,0,0,1.33.65,2.18,2.18,0,0,0,1.29-.11,2.68,2.68,0,0,0,1.1-.86,2.75,2.75,0,0,0,.48-.84,2,2,0,0,0,.11-.86,1.77,1.77,0,0,0-.27-.81l1.95-2.16a4.07,4.07,0,0,1,.87,1.84,4.67,4.67,0,0,1-.14,2.12A6.57,6.57,0,0,1,353.92,236.31Z"/><path class="b" d="M355.06,224l5.12,4.05-1.94,2.46-8.86-7,1.85-2.34,1.57,1.24.08-.1a3.22,3.22,0,0,1-.45-2,3.91,3.91,0,0,1,.88-2A4.1,4.1,0,0,1,355,217a3.53,3.53,0,0,1,2-.15,4.83,4.83,0,0,1,2.08,1l5.64,4.46-1.94,2.46-5.2-4.12a2.3,2.3,0,0,0-1.6-.59,1.91,1.91,0,0,0-1.38.79,2.32,2.32,0,0,0-.48,1.05,1.86,1.86,0,0,0,.15,1.08A2.93,2.93,0,0,0,355.06,224Z"/><path class="b" d="M355.72,211.13l1.94-2.46,8.26,6.54a1.41,1.41,0,0,0,.61.31.72.72,0,0,0,.5-.08,1.44,1.44,0,0,0,.41-.38,1.6,1.6,0,0,0,.25-.37l.16-.3,2.13,1.06q-.09.23-.27.63a6.39,6.39,0,0,1-.55.89,4.78,4.78,0,0,1-1.47,1.36,2.73,2.73,0,0,1-1.66.37,3.27,3.27,0,0,1-1.73-.78Zm5.39-2.45,1.84,1.47-4.22,5.33L356.88,214Z"/><path class="b" d="M377.55,206.47a5.78,5.78,0,0,1-2.43,1.88,4.94,4.94,0,0,1-2.8.22,7.23,7.23,0,0,1-4.76-3.78,4.92,4.92,0,0,1-.42-2.77,5.67,5.67,0,0,1,1.26-2.78,5.85,5.85,0,0,1,2-1.7,4.32,4.32,0,0,1,2.27-.44,4.39,4.39,0,0,1,2.23.86l-1.84,2.31a2.34,2.34,0,0,0-1.47-.33,1.94,1.94,0,0,0-1.28.77,2.08,2.08,0,0,0-.47,1.24,2.47,2.47,0,0,0,.37,1.37,4.86,4.86,0,0,0,1.24,1.37,5,5,0,0,0,1.62.91,2.6,2.6,0,0,0,1.43.05,2.25,2.25,0,0,0,1.53-1.64,2,2,0,0,0-.06-1,2.49,2.49,0,0,0-.57-.93l1.84-2.31a4.57,4.57,0,0,1,1.34,2,4.19,4.19,0,0,1,.13,2.31A5.71,5.71,0,0,1,377.55,206.47Z"/><path class="b" d="M378.59,194.28l5.12,4.06-1.95,2.46L370,191.44l1.89-2.38,4.52,3.57.08-.1a3.23,3.23,0,0,1-.46-1.95,3.74,3.74,0,0,1,.88-2,4.1,4.1,0,0,1,1.68-1.29,3.53,3.53,0,0,1,2-.17,4.94,4.94,0,0,1,2.09,1l5.64,4.46-1.95,2.46-5.2-4.12a2.3,2.3,0,0,0-1.6-.59,1.86,1.86,0,0,0-1.38.8,2.27,2.27,0,0,0-.49,1.06,1.88,1.88,0,0,0,.15,1.09A2.53,2.53,0,0,0,378.59,194.28Z"/><path class="b" d="M390.52,182l-5.09-4,1.95-2.45,8.86,7-1.87,2.36-1.61-1.28-.08.1a3.28,3.28,0,0,1,.47,2,4.14,4.14,0,0,1-2.51,3.31,3.5,3.5,0,0,1-2,.15,5.1,5.1,0,0,1-2.09-1l-5.64-4.47,1.95-2.45,5.2,4.12a2.32,2.32,0,0,0,1.57.56,1.83,1.83,0,0,0,1.34-.76,2.13,2.13,0,0,0,.45-1,2,2,0,0,0-.11-1.11A2.38,2.38,0,0,0,390.52,182Z"/><path class="b" d="M394.61,174.05l5.12,4-1.94,2.46-8.86-7,1.85-2.35,1.57,1.24.08-.1a3.22,3.22,0,0,1-.45-2,3.91,3.91,0,0,1,.88-2,4.1,4.1,0,0,1,1.68-1.29,3.53,3.53,0,0,1,2-.15,4.83,4.83,0,0,1,2.08,1l5.64,4.46-1.94,2.46-5.2-4.12a2.3,2.3,0,0,0-1.6-.59,1.89,1.89,0,0,0-1.38.8,2.24,2.24,0,0,0-.48,1,1.79,1.79,0,0,0,.16,1.08A2.67,2.67,0,0,0,394.61,174.05Z"/><path class="b" d="M405.78,170.46,394,161.11l1.95-2.46L407.73,168Zm-.78-4.24-2.95-2.34.29-.36-1.12-5.5,2.24-2.82,1.43,7.34-.46.58Zm5.17-1.3-5.92-.44-.44-3,8.64.59Z"/><rect class="a" x="202.54" y="207.32" width="179.22" height="49.38" rx="6" transform="translate(629.64 73) rotate(116.32)"/><path class="b" d="M258.17,286.71l-2.14-1,5-10.1,2.14,1.06-1.86,3.76,10.15,5L270.18,288,260,283Z"/><path class="b" d="M275.69,277.29a5.17,5.17,0,0,1-1.79,2.12,4.46,4.46,0,0,1-2.44.74,5.86,5.86,0,0,1-2.76-.68,6,6,0,0,1-2.23-1.78,4.52,4.52,0,0,1-.89-2.4,5.16,5.16,0,0,1,.59-2.71,5.27,5.27,0,0,1,1.8-2.12,4.46,4.46,0,0,1,2.44-.74,6.6,6.6,0,0,1,5,2.46,4.49,4.49,0,0,1,.89,2.4A5.17,5.17,0,0,1,275.69,277.29Zm-2-1a1.79,1.79,0,0,0,.16-1.25,2.43,2.43,0,0,0-.67-1.13,5.38,5.38,0,0,0-2.87-1.42,2.6,2.6,0,0,0-1.32.15,1.81,1.81,0,0,0-.89.88,1.88,1.88,0,0,0-.17,1.26,2.6,2.6,0,0,0,.68,1.15,5.16,5.16,0,0,0,1.32.93,5,5,0,0,0,1.55.49,2.44,2.44,0,0,0,1.31-.17A1.81,1.81,0,0,0,273.72,276.3Z"/><path class="b" d="M278.58,271l-9.22-4.56,1.23-2.47,1.61.79.05-.09a2.66,2.66,0,0,1-.88-1.49,2.52,2.52,0,0,1,.23-1.59c.07-.13.14-.26.23-.4a4.28,4.28,0,0,1,.26-.36l2.27,1.12a2.87,2.87,0,0,0-.34.45,3.85,3.85,0,0,0-.33.56,2.36,2.36,0,0,0-.26,1.13,2.09,2.09,0,0,0,.33,1,2.29,2.29,0,0,0,.87.75l5.22,2.58Z"/><path class="b" d="M282,264.09l-9.22-4.56,1.23-2.48,1.61.79,0-.09a2.68,2.68,0,0,1-.88-1.49,2.47,2.47,0,0,1,.24-1.59,3.37,3.37,0,0,1,.23-.4,2.8,2.8,0,0,1,.26-.36l2.26,1.13a3.67,3.67,0,0,0-.34.45,4.79,4.79,0,0,0-.33.56,2.28,2.28,0,0,0-.25,1.12,2,2,0,0,0,.33,1,2.07,2.07,0,0,0,.87.75l5.21,2.58Z"/><path class="b" d="M287.46,253.5a5.47,5.47,0,0,1-1.79,2.16,4.39,4.39,0,0,1-2.42.76,6.7,6.7,0,0,1-5-2.48,4.55,4.55,0,0,1-.91-2.39,5.12,5.12,0,0,1,.57-2.66,5.28,5.28,0,0,1,1.14-1.55,4.22,4.22,0,0,1,1.55-1,4.47,4.47,0,0,1,1.92-.2,6.56,6.56,0,0,1,2.22.69l.7.34L281.57,255l-1.59-.79,2.66-5.37a2.07,2.07,0,0,0-1.09-.25,2,2,0,0,0-1,.33,2.21,2.21,0,0,0-.73.86,2.25,2.25,0,0,0-.24,1.17,2.11,2.11,0,0,0,.37,1,2.33,2.33,0,0,0,.86.75l1.51.74a2.76,2.76,0,0,0,1.31.33,2,2,0,0,0,1.12-.34,2.36,2.36,0,0,0,.82-1,2.74,2.74,0,0,0,.27-.84,1.71,1.71,0,0,0-.06-.78,1.82,1.82,0,0,0-.4-.68l1.33-2.28a3.66,3.66,0,0,1,1.12,1.47,4.14,4.14,0,0,1,.28,1.91A6,6,0,0,1,287.46,253.5Z"/><path class="b" d="M286.13,242.32l5.33,2.63-1.26,2.56L281,243l1.21-2.44,1.62.81.05-.11a2.87,2.87,0,0,1-.76-1.66,3.46,3.46,0,0,1,.39-2,3.61,3.61,0,0,1,1.25-1.46,3.18,3.18,0,0,1,1.75-.52,4.5,4.5,0,0,1,2,.52l5.87,2.9-1.26,2.56-5.42-2.68a2,2,0,0,0-1.53-.22,1.74,1.74,0,0,0-1.08,1,2.11,2.11,0,0,0-.23,1,1.75,1.75,0,0,0,.35.93A2.47,2.47,0,0,0,286.13,242.32Z"/><path class="b" d="M284.27,230.74l1.27-2.56,8.59,4.25a1.38,1.38,0,0,0,.6.17.72.72,0,0,0,.43-.17,1.56,1.56,0,0,0,.3-.42,1.66,1.66,0,0,0,.14-.37l.09-.3,2.1.54c0,.14-.07.35-.13.6a4.49,4.49,0,0,1-.32.9,4.39,4.39,0,0,1-1,1.5,2.6,2.6,0,0,1-1.41.64,3,3,0,0,1-1.69-.36Zm4.33-3.2,1.92,1L287.78,234l-1.92-.95Z"/><path class="b" d="M302.82,222.44a5.28,5.28,0,0,1-1.8,2.14,4.51,4.51,0,0,1-2.45.73,6.6,6.6,0,0,1-5-2.46,4.5,4.5,0,0,1-.9-2.39,5.14,5.14,0,0,1,.59-2.71,5.35,5.35,0,0,1,1.48-1.9,4,4,0,0,1,1.94-.83,4.11,4.11,0,0,1,2.15.34l-1.2,2.41a2.14,2.14,0,0,0-1.37,0,1.73,1.73,0,0,0-1,.93,1.86,1.86,0,0,0-.19,1.19,2.35,2.35,0,0,0,.59,1.15,4.46,4.46,0,0,0,1.36,1,4.58,4.58,0,0,0,1.63.5,2.32,2.32,0,0,0,1.28-.22,2.09,2.09,0,0,0,1-1.76,1.84,1.84,0,0,0-.24-.84,2.28,2.28,0,0,0-.68-.71l1.19-2.42a4.2,4.2,0,0,1,1.57,1.5,3.89,3.89,0,0,1,.56,2A5.24,5.24,0,0,1,302.82,222.44Z"/><path class="b" d="M301.43,211.4l5.33,2.64-1.27,2.55-12.29-6.08,1.23-2.48,4.7,2.32.05-.11a2.9,2.9,0,0,1-.78-1.64,3.39,3.39,0,0,1,.4-2,3.66,3.66,0,0,1,1.25-1.48,3.15,3.15,0,0,1,1.74-.52,4.42,4.42,0,0,1,2,.52l5.87,2.91-1.26,2.55L303,207.94a2.06,2.06,0,0,0-1.53-.23,1.75,1.75,0,0,0-1.08,1,2.06,2.06,0,0,0-.23,1,1.76,1.76,0,0,0,.33.95A2.53,2.53,0,0,0,301.43,211.4Z"/><path class="b" d="M309.71,198.19l-5.29-2.62,1.26-2.56,9.22,4.56L313.68,200,312,199.2l-.05.1a3,3,0,0,1,.79,1.68,3.34,3.34,0,0,1-.38,2,3.42,3.42,0,0,1-1.22,1.42,3.14,3.14,0,0,1-1.74.5,4.45,4.45,0,0,1-2.05-.52l-5.87-2.9,1.27-2.55,5.41,2.67a2.07,2.07,0,0,0,1.51.2,1.67,1.67,0,0,0,1-.92,1.94,1.94,0,0,0,.22-1,1.88,1.88,0,0,0-.31-1A2.21,2.21,0,0,0,309.71,198.19Z"/><path class="b" d="M311.84,190.34l5.33,2.64-1.26,2.55L306.69,191l1.2-2.43,1.63.8.05-.11a2.87,2.87,0,0,1-.76-1.65,3.43,3.43,0,0,1,.39-2,3.64,3.64,0,0,1,1.25-1.47,3.18,3.18,0,0,1,1.74-.52,4.51,4.51,0,0,1,2.05.52l5.87,2.91-1.26,2.55-5.42-2.68a2.1,2.1,0,0,0-1.53-.22,1.76,1.76,0,0,0-1.08,1,2.16,2.16,0,0,0-.23,1,1.69,1.69,0,0,0,.35.93A2.47,2.47,0,0,0,311.84,190.34Z"/><path class="b" d="M321.1,185,308.81,179l1.27-2.56,12.29,6.08Zm-1.5-3.63-3.07-1.53.19-.37-2-4.68,1.45-2.94,2.67,6.26-.3.61Zm4.35-2.14-5.35.73-1-2.6,7.8-1.12Z"/><rect class="a" x="128.8" y="169.01" width="162.42" height="44.75" rx="6" transform="translate(75.64 441.74) rotate(-104.12)"/><path class="b" d="M201.29,133.68l2.1-.53,2.49,9.89-2.1.53-.93-3.69-9.95,2.51-.63-2.52,9.95-2.51Z"/><path class="b" d="M194.75,150.47a4.65,4.65,0,0,1,0-2.51,4.08,4.08,0,0,1,1.25-2,5.92,5.92,0,0,1,4.89-1.23,4,4,0,0,1,2,1.13,4.65,4.65,0,0,1,1.18,2.22,4.75,4.75,0,0,1,0,2.51,4,4,0,0,1-1.25,2,5.94,5.94,0,0,1-4.89,1.23,4.09,4.09,0,0,1-2-1.12A4.74,4.74,0,0,1,194.75,150.47Zm1.94-.47a1.63,1.63,0,0,0,.62.95,2.28,2.28,0,0,0,1.13.39,4.43,4.43,0,0,0,1.46-.14,4.16,4.16,0,0,0,1.35-.57,2.28,2.28,0,0,0,.82-.88,1.55,1.55,0,0,0,.1-1.13,1.63,1.63,0,0,0-.62-1,2.28,2.28,0,0,0-1.14-.39,4.43,4.43,0,0,0-1.46.14,4.32,4.32,0,0,0-1.36.57,2.26,2.26,0,0,0-.81.88A1.72,1.72,0,0,0,196.69,150Z"/><path class="b" d="M196.45,156.52l9-2.28.61,2.43-1.57.4,0,.09a2.48,2.48,0,0,1,1.48.51,2.22,2.22,0,0,1,.77,1.23c0,.13.06.27.08.42a3,3,0,0,1,0,.4l-2.22.55a2.5,2.5,0,0,0,0-.51,4.35,4.35,0,0,0-.1-.58,2,2,0,0,0-.49-.92,1.86,1.86,0,0,0-.83-.52,1.84,1.84,0,0,0-1,0L197.08,159Z"/><path class="b" d="M198.16,163.29l9-2.28.61,2.43-1.58.4,0,.1a2.44,2.44,0,0,1,1.49.5,2.33,2.33,0,0,1,.77,1.24c0,.12.05.26.08.41a3,3,0,0,1,0,.4l-2.23.56a2.44,2.44,0,0,0,0-.51,3.29,3.29,0,0,0-.1-.59,2,2,0,0,0-.49-.92,1.81,1.81,0,0,0-.83-.52,2,2,0,0,0-1,0l-5.11,1.28Z"/><path class="b" d="M200.61,173.8a5,5,0,0,1,0-2.54,4,4,0,0,1,1.22-1.95,6.11,6.11,0,0,1,4.93-1.24,4.17,4.17,0,0,1,2,1.12,4.49,4.49,0,0,1,1.17,2.16,5,5,0,0,1,.14,1.74,3.89,3.89,0,0,1-.52,1.57,3.84,3.84,0,0,1-1.21,1.27,6,6,0,0,1-1.93.83l-.69.17-1.92-7.63,1.56-.39,1.32,5.27a2,2,0,0,0,.9-.48,1.76,1.76,0,0,0,.5-.81,2.07,2.07,0,0,0,0-1,2.13,2.13,0,0,0-.51-1,1.91,1.91,0,0,0-.88-.51,2.11,2.11,0,0,0-1,0l-1.48.38a2.58,2.58,0,0,0-1.1.54,1.88,1.88,0,0,0-.57.9,2.14,2.14,0,0,0,0,1.15,2.36,2.36,0,0,0,.31.74,1.49,1.49,0,0,0,.5.5,1.53,1.53,0,0,0,.67.23l.43,2.36a3.39,3.39,0,0,1-1.64-.35,3.9,3.9,0,0,1-1.32-1.16A5.48,5.48,0,0,1,200.61,173.8Z"/><path class="b" d="M208.1,180.73l-5.22,1.32-.63-2.51,9-2.27.6,2.39-1.59.4,0,.1a2.62,2.62,0,0,1,1.5.7,3.1,3.1,0,0,1,.89,1.59,3.25,3.25,0,0,1,0,1.75,2.82,2.82,0,0,1-.9,1.38,4,4,0,0,1-1.71.85l-5.76,1.44-.63-2.5L209,184a1.85,1.85,0,0,0,1.19-.75,1.56,1.56,0,0,0,.17-1.3,1.78,1.78,0,0,0-.44-.84,1.59,1.59,0,0,0-.78-.44A2.4,2.4,0,0,0,208.1,180.73Z"/><path class="b" d="M216.19,187.63l.63,2.5-8.42,2.12a1.2,1.2,0,0,0-.52.24.63.63,0,0,0-.19.37,1.07,1.07,0,0,0,0,.46,2.06,2.06,0,0,0,.12.35l.12.26-1.77.86c-.07-.12-.16-.28-.27-.5a5,5,0,0,1-.31-.8,4.21,4.21,0,0,1-.16-1.65,2.32,2.32,0,0,1,.6-1.27,2.69,2.69,0,0,1,1.38-.74Zm-1.11,4.75-1.88.47-1.37-5.44,1.89-.47Z"/><path class="b" d="M208.27,204.25a4.82,4.82,0,0,1,0-2.53,4.08,4.08,0,0,1,1.27-1.95,5.43,5.43,0,0,1,2.29-1.14,5.49,5.49,0,0,1,2.57-.07,4,4,0,0,1,2,1.12,4.66,4.66,0,0,1,1.18,2.21,5,5,0,0,1,.1,2.18,3.56,3.56,0,0,1-.86,1.71,3.6,3.6,0,0,1-1.68,1l-.59-2.36a2,2,0,0,0,1-.8,1.59,1.59,0,0,0,.13-1.22,1.78,1.78,0,0,0-.57-.94,2.12,2.12,0,0,0-1.08-.44,4.11,4.11,0,0,0-1.52.12,4.28,4.28,0,0,0-1.41.61,2,2,0,0,0-.75.91,1.78,1.78,0,0,0,.31,1.82,1.48,1.48,0,0,0,.65.44,2,2,0,0,0,.89.1l.6,2.36a3.79,3.79,0,0,1-2-.1,3.46,3.46,0,0,1-1.58-1.08A4.83,4.83,0,0,1,208.27,204.25Z"/><path class="b" d="M215.73,211.05l-5.23,1.32-.63-2.51,12-3,.62,2.43-4.61,1.16,0,.11a2.65,2.65,0,0,1,1.51.67,3.16,3.16,0,0,1,.89,1.6,3.35,3.35,0,0,1,0,1.75,2.9,2.9,0,0,1-.89,1.39,4.12,4.12,0,0,1-1.73.84L212,218.23l-.63-2.51,5.3-1.34a1.88,1.88,0,0,0,1.2-.74,1.58,1.58,0,0,0,.16-1.31,1.82,1.82,0,0,0-.44-.85,1.5,1.5,0,0,0-.79-.45A2.21,2.21,0,0,0,215.73,211.05Z"/><path class="b" d="M217.78,225l5.19-1.3.63,2.5-9,2.28-.6-2.41,1.64-.41,0-.1a2.75,2.75,0,0,1-1.54-.69,3.39,3.39,0,0,1-.9-3.31,2.84,2.84,0,0,1,.9-1.36,4,4,0,0,1,1.72-.85l5.75-1.45.63,2.51-5.31,1.33a1.89,1.89,0,0,0-1.15.75,1.5,1.5,0,0,0-.18,1.25,2,2,0,0,0,.42.8,1.74,1.74,0,0,0,.78.48A2,2,0,0,0,217.78,225Z"/><path class="b" d="M220.92,231.7,215.7,233l-.63-2.5,9-2.28.6,2.39-1.59.4,0,.11a2.67,2.67,0,0,1,1.5.69,3.14,3.14,0,0,1,.89,1.6,3.21,3.21,0,0,1,0,1.74,2.8,2.8,0,0,1-.9,1.39,4,4,0,0,1-1.71.84l-5.76,1.45-.63-2.51,5.31-1.33a1.93,1.93,0,0,0,1.19-.75,1.56,1.56,0,0,0,.17-1.3,1.78,1.78,0,0,0-.44-.84,1.51,1.51,0,0,0-.79-.44A2.35,2.35,0,0,0,220.92,231.7Z"/><path class="b" d="M217.66,240.81l12.05-3,.63,2.51-12.05,3Zm1.42,5.65,3.27-3.65,2.19,1.23-4.72,5.36Zm1.75-4,3-.75.09.36,4.16,2,.72,2.88-5.52-2.75-.15-.59Z"/><rect class="a" x="35.81" y="195.79" width="180.58" height="49.75" rx="6" transform="translate(59.23 465.86) rotate(-135)"/><path class="b" d="M84.84,170.58l1.7-1.7,8,8-1.71,1.7-3-3-8.06,8.07-2-2,8.07-8.07Z"/><path class="b" d="M88.18,190.34A5.2,5.2,0,0,1,86.74,188a4.5,4.5,0,0,1,.08-2.57,6.66,6.66,0,0,1,4-4,4.59,4.59,0,0,1,2.57-.08,5.87,5.87,0,0,1,3.85,3.84,4.63,4.63,0,0,1-.08,2.58,6.19,6.19,0,0,1-1.55,2.42,6.1,6.1,0,0,1-2.42,1.54,4.51,4.51,0,0,1-2.57.08A5.22,5.22,0,0,1,88.18,190.34Zm1.59-1.56a1.71,1.71,0,0,0,1.13.55,2.41,2.41,0,0,0,1.3-.27,5.37,5.37,0,0,0,2.28-2.28,2.55,2.55,0,0,0,.28-1.31,1.76,1.76,0,0,0-.55-1.13,1.83,1.83,0,0,0-1.15-.57,2.64,2.64,0,0,0-1.31.27,4.77,4.77,0,0,0-1.31,1,4.92,4.92,0,0,0-1,1.31,2.44,2.44,0,0,0-.27,1.31A1.83,1.83,0,0,0,89.77,188.78Z"/><path class="b" d="M93.26,195.13l7.33-7.32,2,2-1.28,1.27.07.08a2.72,2.72,0,0,1,1.71-.36,2.51,2.51,0,0,1,1.44.74c.1.1.2.22.31.35s.19.25.26.36l-1.81,1.8a3,3,0,0,0-.32-.47,4.44,4.44,0,0,0-.43-.5,2.25,2.25,0,0,0-1-.6,2,2,0,0,0-1.09,0,2.13,2.13,0,0,0-1,.59l-4.15,4.15Z"/><path class="b" d="M98.75,200.62l7.33-7.32,2,2-1.28,1.27.07.08a2.72,2.72,0,0,1,1.71-.36A2.51,2.51,0,0,1,110,197c.1.1.2.22.31.35s.19.25.26.36l-1.81,1.8a3,3,0,0,0-.32-.47,4.44,4.44,0,0,0-.43-.5,2.25,2.25,0,0,0-1-.6,2,2,0,0,0-1.09,0,2.22,2.22,0,0,0-1,.59l-4.15,4.15Z"/><path class="b" d="M107.09,209.25a5.43,5.43,0,0,1-1.48-2.4,4.38,4.38,0,0,1,0-2.56,6.26,6.26,0,0,1,1.57-2.45,6.06,6.06,0,0,1,2.43-1.54,4.47,4.47,0,0,1,2.56-.09,5.06,5.06,0,0,1,2.36,1.4,5.64,5.64,0,0,1,1.12,1.58,4.29,4.29,0,0,1,.4,1.79,4.4,4.4,0,0,1-.43,1.89,6.45,6.45,0,0,1-1.37,1.9l-.56.56-6.19-6.19,1.26-1.26,4.28,4.28a2.31,2.31,0,0,0,.59-1,2,2,0,0,0,0-1.06,2.16,2.16,0,0,0-.59-1,2.2,2.2,0,0,0-1-.61,2.24,2.24,0,0,0-1.12,0,2.3,2.3,0,0,0-1,.59l-1.2,1.19a3,3,0,0,0-.74,1.15,2,2,0,0,0,0,1.18,2.41,2.41,0,0,0,.66,1.1,2.62,2.62,0,0,0,.72.52,1.8,1.8,0,0,0,.77.2,1.75,1.75,0,0,0,.77-.16l1.75,2a3.53,3.53,0,0,1-1.76.6,4.15,4.15,0,0,1-1.92-.36A5.88,5.88,0,0,1,107.09,209.25Z"/><path class="b" d="M118.19,211.59,114,215.83l-2-2,7.33-7.33,1.94,1.94-1.29,1.29.08.09a2.89,2.89,0,0,1,1.83-.2,3.5,3.5,0,0,1,1.76,1,3.62,3.62,0,0,1,1,1.67,3.18,3.18,0,0,1-.07,1.83,4.54,4.54,0,0,1-1.16,1.79l-4.66,4.66-2-2,4.3-4.3a2.11,2.11,0,0,0,.71-1.4,1.76,1.76,0,0,0-.58-1.34,2.07,2.07,0,0,0-.9-.54,1.79,1.79,0,0,0-1,0A2.58,2.58,0,0,0,118.19,211.59Z"/><path class="b" d="M129.85,213.55l2,2-6.83,6.83a1.22,1.22,0,0,0-.35.52.66.66,0,0,0,0,.46,1.37,1.37,0,0,0,.3.42,2.51,2.51,0,0,0,.31.26l.26.18-1.19,1.83a4.61,4.61,0,0,1-.54-.32,4.35,4.35,0,0,1-.75-.59A4.19,4.19,0,0,1,122,223.7a2.53,2.53,0,0,1-.16-1.55,3,3,0,0,1,.89-1.5Zm1.65,5.17L130,220.25l-4.42-4.42,1.53-1.52Z"/><path class="b" d="M131.78,233.94a5.3,5.3,0,0,1-1.46-2.42,4.43,4.43,0,0,1,.1-2.57,6.62,6.62,0,0,1,3.94-3.94,4.72,4.72,0,0,1,2.58-.09,5.25,5.25,0,0,1,2.39,1.44,5.47,5.47,0,0,1,1.34,2,3.91,3.91,0,0,1-.86,4.06l-1.92-1.92a2,2,0,0,0,.46-1.31,1.75,1.75,0,0,0-.57-1.24,2,2,0,0,0-1.07-.57,2.31,2.31,0,0,0-1.29.2,4.47,4.47,0,0,0-1.38,1,4.78,4.78,0,0,0-1,1.39,2.4,2.4,0,0,0-.2,1.29,1.91,1.91,0,0,0,.57,1.08,1.84,1.84,0,0,0,.77.49,1.74,1.74,0,0,0,.88,0,2.17,2.17,0,0,0,.9-.42l1.92,1.92a4.22,4.22,0,0,1-1.93,1,3.85,3.85,0,0,1-2.12-.13A5.16,5.16,0,0,1,131.78,233.94Z"/><path class="b" d="M142.77,236.17l-4.24,4.24-2-2,9.77-9.77,2,2-3.74,3.73.09.09a2.94,2.94,0,0,1,1.82-.22,3.54,3.54,0,0,1,1.75,1,3.62,3.62,0,0,1,1,1.67,3.18,3.18,0,0,1-.06,1.83,4.47,4.47,0,0,1-1.16,1.79l-4.67,4.67-2-2,4.3-4.31a2.08,2.08,0,0,0,.72-1.39,1.77,1.77,0,0,0-.59-1.34,2.06,2.06,0,0,0-.91-.56,1.74,1.74,0,0,0-1,0A2.44,2.44,0,0,0,142.77,236.17Z"/><path class="b" d="M152.71,248.34l4.2-4.21,2,2-7.33,7.32-2-2,1.33-1.33-.08-.08a3,3,0,0,1-1.86.22,3.8,3.8,0,0,1-2.75-2.64,3.24,3.24,0,0,1,.08-1.82,4.54,4.54,0,0,1,1.16-1.79l4.66-4.67,2,2-4.31,4.3a2.05,2.05,0,0,0-.67,1.37,1.64,1.64,0,0,0,.54,1.3,2.05,2.05,0,0,0,.86.52,1.86,1.86,0,0,0,1,0A2.26,2.26,0,0,0,152.71,248.34Z"/><path class="b" d="M159.51,252.91l-4.24,4.24-2-2,7.33-7.32,1.93,1.93L161.21,251l.09.09a3,3,0,0,1,1.83-.2,3.56,3.56,0,0,1,1.76,1,3.67,3.67,0,0,1,1,1.66,3.31,3.31,0,0,1-.07,1.84,4.62,4.62,0,0,1-1.16,1.78L160,261.87l-2-2,4.3-4.31a2,2,0,0,0,.71-1.39,1.74,1.74,0,0,0-.58-1.34,2.06,2.06,0,0,0-.89-.55,1.71,1.71,0,0,0-1,0A2.51,2.51,0,0,0,159.51,252.91Z"/><path class="b" d="M161.59,263.47l9.77-9.77,2,2-9.77,9.77Zm3.95-.27,2.44-2.43.3.29,5.13-.43,2.33,2.33-6.83.53-.49-.48Zm.63,4.85,1-5.35,2.79-.08-1.45,7.81Z"/><path class="c" d="M111.95,242.24H379.5a0,0,0,0,1,0,0V459.08a8,8,0,0,1-8,8H119.95a8,8,0,0,1-8-8V242.24A0,0,0,0,1,111.95,242.24Z"/><path class="d" d="M111.95,242.24H379.5a0,0,0,0,1,0,0V343a6,6,0,0,1-6,6H117.95a6,6,0,0,1-6-6V242.24A0,0,0,0,1,111.95,242.24Z"/><path class="e" d="M393.25,316h-295A7,7,0,0,1,91.55,307L112,242.24H379.5L399.9,307A7,7,0,0,1,393.25,316Z"/><text class="f" transform="translate(173.02 378.48)">F<tspan class="g" x="15.29" y="0">L</tspan><tspan x="29.54" y="0">O</tspan><tspan class="h" x="48.81" y="0"> </tspan><tspan class="i" x="54.94" y="0">T</tspan><tspan x="69.38" y="0">or</tspan><tspan class="j" x="95.34" y="0">r</tspan><tspan class="k" x="105.26" y="0">ent</tspan><tspan x="20.38" y="33.5">web app</tspan></text><rect class="a" x="38.87" y="117.86" width="174.45" height="48.07" rx="6" transform="translate(61.6 320.42) rotate(-118.51)"/><path class="b" d="M101.61,84.18l2-1.11,5.23,9.64-2,1.11-1.95-3.59-9.69,5.26L93.88,93l9.68-5.26Z"/><path class="b" d="M99.29,103.41a5.11,5.11,0,0,1-.68-2.62,4.4,4.4,0,0,1,.78-2.36,5.86,5.86,0,0,1,2.09-1.82,5.77,5.77,0,0,1,2.67-.76,4.36,4.36,0,0,1,2.4.63,5.58,5.58,0,0,1,2.51,4.61,4.4,4.4,0,0,1-.78,2.36,6.47,6.47,0,0,1-4.76,2.59,4.51,4.51,0,0,1-2.41-.64A5.12,5.12,0,0,1,99.29,103.41Zm1.9-1a1.72,1.72,0,0,0,.9.83,2.45,2.45,0,0,0,1.28.1,4.77,4.77,0,0,0,1.48-.54,4.43,4.43,0,0,0,1.25-1,2.36,2.36,0,0,0,.62-1.13,1.67,1.67,0,0,0-.2-1.2,1.72,1.72,0,0,0-.91-.84,2.39,2.39,0,0,0-1.29-.11,4.77,4.77,0,0,0-1.48.54,4.63,4.63,0,0,0-1.26,1,2.34,2.34,0,0,0-.6,1.14A1.76,1.76,0,0,0,101.19,102.39Z"/><path class="b" d="M102.68,109.24l8.8-4.78,1.28,2.36-1.53.84,0,.09a2.62,2.62,0,0,1,1.68.13,2.51,2.51,0,0,1,1.13,1.08c.06.12.13.26.19.41a3.24,3.24,0,0,1,.14.4L112.25,111a4.59,4.59,0,0,0-.16-.53,4.35,4.35,0,0,0-.27-.57,2.19,2.19,0,0,0-.75-.84,2,2,0,0,0-1-.31A2.17,2.17,0,0,0,109,109l-5,2.71Z"/><path class="b" d="M106.26,115.83l8.8-4.78,1.28,2.36-1.53.84,0,.09a2.62,2.62,0,0,1,1.68.13,2.51,2.51,0,0,1,1.13,1.08c.06.12.13.26.19.41a2.85,2.85,0,0,1,.14.41l-2.17,1.17a2.87,2.87,0,0,0-.16-.52,4.52,4.52,0,0,0-.27-.58,2.09,2.09,0,0,0-.75-.83,1.91,1.91,0,0,0-1-.32,2.17,2.17,0,0,0-1.09.27l-5,2.71Z"/><path class="b" d="M111.62,126.11a5.24,5.24,0,0,1-.71-2.63,4.18,4.18,0,0,1,.75-2.36,5.91,5.91,0,0,1,2.12-1.83,5.79,5.79,0,0,1,2.67-.77,4.37,4.37,0,0,1,2.41.62,4.83,4.83,0,0,1,1.79,1.94,5.26,5.26,0,0,1,.61,1.77,4.06,4.06,0,0,1-.12,1.77,4.28,4.28,0,0,1-.92,1.64,6.37,6.37,0,0,1-1.79,1.38l-.67.36-4-7.42,1.51-.83,2.79,5.14a2.16,2.16,0,0,0,.81-.74,2,2,0,0,0,0-2,2.22,2.22,0,0,0-.78-.85,2.08,2.08,0,0,0-1-.29,2.11,2.11,0,0,0-1.08.27l-1.44.78a2.78,2.78,0,0,0-1,.85,2,2,0,0,0-.36,1.09,2.69,2.69,0,0,0,.84,1.88,1.51,1.51,0,0,0,.65.39,1.76,1.76,0,0,0,.76.07l1.08,2.33a3.44,3.44,0,0,1-1.8.07,4.06,4.06,0,0,1-1.68-.85A6,6,0,0,1,111.62,126.11Z"/><path class="b" d="M121.26,131.32l-5.08,2.77-1.33-2.44,8.8-4.78,1.26,2.32-1.55.85.06.1a2.82,2.82,0,0,1,1.75.32,3.32,3.32,0,0,1,1.35,1.42,3.55,3.55,0,0,1,.47,1.81,3.14,3.14,0,0,1-.57,1.69,4.4,4.4,0,0,1-1.56,1.33l-5.6,3-1.33-2.44,5.17-2.81a2,2,0,0,0,1-1.1A1.72,1.72,0,0,0,124,132a2,2,0,0,0-.68-.75,1.68,1.68,0,0,0-.94-.25A2.55,2.55,0,0,0,121.26,131.32Z"/><path class="b" d="M131.52,136.33l1.33,2.44-8.2,4.46a1.12,1.12,0,0,0-.47.39.66.66,0,0,0-.11.43,1.34,1.34,0,0,0,.17.47,3,3,0,0,0,.21.33l.2.23L123,146.45c-.11-.1-.24-.25-.42-.44a4.3,4.3,0,0,1-.53-.76,4.18,4.18,0,0,1-.6-1.67,2.5,2.5,0,0,1,.27-1.48A3,3,0,0,1,123,141Zm.12,5.24-1.83,1-2.88-5.3,1.83-1Z"/><path class="b" d="M127.72,155.75a5,5,0,0,1-.68-2.64,4.33,4.33,0,0,1,.79-2.36,6,6,0,0,1,2.08-1.8,5.78,5.78,0,0,1,2.65-.76,4.37,4.37,0,0,1,2.41.62,5,5,0,0,1,1.83,2,5.28,5.28,0,0,1,.68,2.24,3.9,3.9,0,0,1-.43,2,4,4,0,0,1-1.48,1.52l-1.25-2.3a2,2,0,0,0,.78-1.09,1.71,1.71,0,0,0-.18-1.31,2,2,0,0,0-.84-.82,2.32,2.32,0,0,0-1.25-.17,4.42,4.42,0,0,0-1.54.53,4.75,4.75,0,0,0-1.31,1,2.21,2.21,0,0,0-.54,1.15,2,2,0,0,0,.81,1.82,1.71,1.71,0,0,0,.8.28,2.16,2.16,0,0,0,.95-.14l1.25,2.3a4.17,4.17,0,0,1-2.07.42,3.76,3.76,0,0,1-1.92-.71A5.08,5.08,0,0,1,127.72,155.75Z"/><path class="b" d="M137.29,160.83l-5.08,2.76-1.33-2.44,11.73-6.37,1.29,2.37-4.49,2.44.06.1a2.86,2.86,0,0,1,1.74.3,3.33,3.33,0,0,1,1.35,1.42,3.57,3.57,0,0,1,.48,1.82,3.14,3.14,0,0,1-.57,1.69,4.32,4.32,0,0,1-1.56,1.33l-5.6,3.05L134,166.85l5.17-2.8a2,2,0,0,0,1-1.1,1.69,1.69,0,0,0-.18-1.4,2,2,0,0,0-.69-.77,1.77,1.77,0,0,0-.94-.26A2.38,2.38,0,0,0,137.29,160.83Z"/><path class="b" d="M143.16,174.83l5.05-2.75,1.33,2.44-8.8,4.78L139.47,177l1.6-.87L141,176a3,3,0,0,1-1.77-.32,3.29,3.29,0,0,1-1.39-1.42,3.42,3.42,0,0,1-.44-1.77,3.25,3.25,0,0,1,.57-1.67,4.58,4.58,0,0,1,1.57-1.34l5.6-3,1.32,2.44-5.16,2.81a2,2,0,0,0-1,1.08,1.63,1.63,0,0,0,.15,1.35,2,2,0,0,0,.65.72,1.8,1.8,0,0,0,.94.29A2.12,2.12,0,0,0,143.16,174.83Z"/><path class="b" d="M148.21,180.92l-5.09,2.77-1.32-2.44,8.79-4.78,1.27,2.32-1.55.85.05.1a2.8,2.8,0,0,1,1.75.32,3.32,3.32,0,0,1,1.35,1.42,3.46,3.46,0,0,1,.47,1.82,3.11,3.11,0,0,1-.57,1.68,4.23,4.23,0,0,1-1.56,1.33l-5.6,3.05-1.32-2.44,5.16-2.81a2,2,0,0,0,1-1.1,1.69,1.69,0,0,0-.17-1.4,2.15,2.15,0,0,0-.68-.75,1.67,1.67,0,0,0-.93-.25A2.48,2.48,0,0,0,148.21,180.92Z"/><path class="b" d="M147.25,191.27,159,184.9l1.33,2.44-11.73,6.38Zm3,5.5,2.43-4.67,2.6.69-3.48,6.84Zm.75-4.66,2.93-1.58.19.35,4.87,1,1.52,2.8L154,193.3l-.31-.58Z"/><rect class="a" x="198.54" y="94.41" width="171.01" height="47.12" rx="6" transform="translate(515.71 -84.33) rotate(116.32)"/><path class="b" d="M251.62,170.16l-2.05-1,4.77-9.63,2,1-1.77,3.59,9.68,4.79-1.21,2.45-9.68-4.79Z"/><path class="b" d="M268.33,161.17a5,5,0,0,1-1.71,2,4.23,4.23,0,0,1-2.33.71,5.58,5.58,0,0,1-2.63-.65,5.64,5.64,0,0,1-2.13-1.7,4.37,4.37,0,0,1-.85-2.29,5.54,5.54,0,0,1,2.28-4.61,4.34,4.34,0,0,1,2.33-.71,5.8,5.8,0,0,1,2.65.66,5.57,5.57,0,0,1,2.11,1.7,4.28,4.28,0,0,1,.85,2.28A5,5,0,0,1,268.33,161.17Zm-1.88-.95a1.71,1.71,0,0,0,.16-1.18A2.44,2.44,0,0,0,266,158a4.69,4.69,0,0,0-1.26-.88,4.53,4.53,0,0,0-1.48-.47,2.33,2.33,0,0,0-1.25.15,1.62,1.62,0,0,0-.85.84,1.7,1.7,0,0,0-.16,1.2,2.42,2.42,0,0,0,.64,1.09,4.77,4.77,0,0,0,1.27.89,4.44,4.44,0,0,0,1.47.46,2.37,2.37,0,0,0,1.26-.15A1.73,1.73,0,0,0,266.45,160.22Z"/><path class="b" d="M271.09,155.16l-8.79-4.35,1.17-2.36,1.53.76,0-.1a2.53,2.53,0,0,1-.83-1.42,2.35,2.35,0,0,1,.22-1.51,3.07,3.07,0,0,1,.22-.38,2,2,0,0,1,.25-.34l2.16,1.07a3.3,3.3,0,0,0-.33.43,5.14,5.14,0,0,0-.31.53,2.12,2.12,0,0,0-.24,1.08,1.92,1.92,0,0,0,.31,1,2.07,2.07,0,0,0,.83.71l5,2.46Z"/><path class="b" d="M274.35,148.57l-8.79-4.35,1.17-2.36,1.53.76,0-.1a2.61,2.61,0,0,1-.84-1.42,2.42,2.42,0,0,1,.23-1.51,3.07,3.07,0,0,1,.22-.38,2.65,2.65,0,0,1,.25-.35l2.16,1.08a3.3,3.3,0,0,0-.33.43,4.26,4.26,0,0,0-.31.53,2.11,2.11,0,0,0-.24,1.07,1.93,1.93,0,0,0,.31,1,2.07,2.07,0,0,0,.83.71l5,2.46Z"/><path class="b" d="M279.56,138.47a5.34,5.34,0,0,1-1.7,2.06,4.25,4.25,0,0,1-2.32.73,5.85,5.85,0,0,1-2.67-.67,5.68,5.68,0,0,1-2.12-1.7,4.38,4.38,0,0,1-.86-2.28,4.71,4.71,0,0,1,.54-2.53,5.33,5.33,0,0,1,1.08-1.49,4,4,0,0,1,3.32-1.09,6.05,6.05,0,0,1,2.11.65l.67.33-3.67,7.43-1.51-.75L275,134a2.07,2.07,0,0,0-1-.23,1.85,1.85,0,0,0-.95.31,2.13,2.13,0,0,0-.7.83,2.06,2.06,0,0,0,.12,2.11,2.13,2.13,0,0,0,.83.71l1.44.71a2.72,2.72,0,0,0,1.24.32,2,2,0,0,0,1.08-.33,2.26,2.26,0,0,0,.78-.93,2.55,2.55,0,0,0,.25-.8A1.72,1.72,0,0,0,278,136a1.68,1.68,0,0,0-.38-.64l1.26-2.19a3.43,3.43,0,0,1,1.07,1.41,3.9,3.9,0,0,1,.27,1.82A5.89,5.89,0,0,1,279.56,138.47Z"/><path class="b" d="M278.3,127.8l5.08,2.52-1.21,2.44-8.79-4.35,1.15-2.33,1.55.77.05-.1a2.79,2.79,0,0,1-.73-1.59,3.34,3.34,0,0,1,.37-1.88,3.52,3.52,0,0,1,1.19-1.4,3,3,0,0,1,1.67-.5,4.22,4.22,0,0,1,1.95.5l5.6,2.77-1.2,2.44-5.17-2.56a2,2,0,0,0-1.46-.21,1.67,1.67,0,0,0-1,.93,2,2,0,0,0-.22,1,1.68,1.68,0,0,0,.33.89A2.38,2.38,0,0,0,278.3,127.8Z"/><path class="b" d="M276.52,116.75l1.21-2.44,8.2,4.06a1.3,1.3,0,0,0,.57.16.63.63,0,0,0,.4-.17,1.08,1.08,0,0,0,.29-.39,1.58,1.58,0,0,0,.14-.36c0-.12.06-.22.08-.29l2,.52c0,.14-.06.33-.12.58a4.49,4.49,0,0,1-.31.85,4.1,4.1,0,0,1-1,1.43,2.33,2.33,0,0,1-1.34.61A2.8,2.8,0,0,1,285,121Zm4.13-3,1.83.91-2.62,5.29L278,119Z"/><path class="b" d="M294.22,108.84a5,5,0,0,1-1.72,2,4.31,4.31,0,0,1-2.34.7,6.3,6.3,0,0,1-4.73-2.34,4.3,4.3,0,0,1-.86-2.29,4.86,4.86,0,0,1,.56-2.58,5.05,5.05,0,0,1,1.42-1.81,3.76,3.76,0,0,1,1.85-.79,3.84,3.84,0,0,1,2.05.32l-1.14,2.3a2.06,2.06,0,0,0-1.32,0,1.66,1.66,0,0,0-.94.89,1.82,1.82,0,0,0-.18,1.14,2.18,2.18,0,0,0,.57,1.09,4.31,4.31,0,0,0,1.29.94,4.59,4.59,0,0,0,1.55.47,2.18,2.18,0,0,0,1.22-.21,1.77,1.77,0,0,0,.8-.84,1.67,1.67,0,0,0,.2-.83,1.7,1.7,0,0,0-.22-.81,2.19,2.19,0,0,0-.65-.68l1.14-2.3a4,4,0,0,1,1.5,1.42,3.79,3.79,0,0,1,.53,1.94A5.05,5.05,0,0,1,294.22,108.84Z"/><path class="b" d="M292.89,98.3l5.08,2.51-1.2,2.44L285,97.45l1.17-2.37,4.49,2.22.05-.1a2.85,2.85,0,0,1-.75-1.57,3.22,3.22,0,0,1,.38-1.88,3.47,3.47,0,0,1,1.19-1.41,3.09,3.09,0,0,1,1.67-.5,4.22,4.22,0,0,1,1.95.5l5.6,2.77-1.2,2.44L294.42,95a1.93,1.93,0,0,0-1.46-.22,1.66,1.66,0,0,0-1,.94,1.87,1.87,0,0,0-.22,1,1.62,1.62,0,0,0,.32.9A2.19,2.19,0,0,0,292.89,98.3Z"/><path class="b" d="M300.79,85.69l-5.05-2.49L297,80.76l8.79,4.35-1.16,2.34L303,86.66l-.05.09a3,3,0,0,1,.76,1.6,3.61,3.61,0,0,1-1.54,3.27,3,3,0,0,1-1.65.48,4.39,4.39,0,0,1-2-.49L293,88.84l1.21-2.44L299.32,89a1.93,1.93,0,0,0,1.44.19,1.57,1.57,0,0,0,1-.88,2,2,0,0,0,.2-.92,1.72,1.72,0,0,0-.29-.92A2.17,2.17,0,0,0,300.79,85.69Z"/><path class="b" d="M302.83,78.21l5.08,2.51-1.2,2.44-8.8-4.35,1.15-2.32,1.55.76.05-.1a2.76,2.76,0,0,1-.73-1.58,3.36,3.36,0,0,1,.37-1.89,3.46,3.46,0,0,1,1.2-1.4,3,3,0,0,1,1.66-.49,4.27,4.27,0,0,1,2,.49l5.6,2.77-1.21,2.44-5.17-2.55a2,2,0,0,0-1.46-.21,1.65,1.65,0,0,0-1,.92,1.92,1.92,0,0,0-.21,1,1.56,1.56,0,0,0,.32.89A2.4,2.4,0,0,0,302.83,78.21Z"/><path class="b" d="M311.66,73.13l-11.72-5.8,1.2-2.44,11.73,5.81Zm-1.43-3.46-2.93-1.45.18-.36-2-4.46,1.39-2.8,2.55,6-.29.58Zm4.15-2-5.11.69-.92-2.48,7.45-1.07Z"/><path class="a" d="M490.84,332.11l-12.29-12.29a1.72,1.72,0,0,0-2.94,1.22v6.61a1.72,1.72,0,0,1-1.72,1.72H443.83a1.72,1.72,0,0,0-1.72,1.73v4.46a1.72,1.72,0,0,0,1.72,1.72h30.06a1.72,1.72,0,0,1,1.72,1.73v6.61a1.73,1.73,0,0,0,2.94,1.22l12.29-12.29A1.71,1.71,0,0,0,490.84,332.11Z"/><path class="a" d="M752.85,270.45V451.17a15.91,15.91,0,0,1-15.91,15.91H569.86A15.91,15.91,0,0,1,554,451.17V224.42a15.92,15.92,0,0,1,15.91-15.91H690.92v46a15.91,15.91,0,0,0,15.91,15.91Z"/><path class="l" d="M690.92,208.51l61.93,61.94h-46a15.91,15.91,0,0,1-15.91-15.91Z"/><path class="b" d="M621.76,335.36a11.32,11.32,0,0,1-1.19,5.39,8.28,8.28,0,0,1-3.25,3.38,9.73,9.73,0,0,1-9.25,0,8.41,8.41,0,0,1-3.24-3.39,12.76,12.76,0,0,1,0-10.76,8.41,8.41,0,0,1,3.24-3.39,9.73,9.73,0,0,1,9.25,0,8.37,8.37,0,0,1,3.25,3.39A11.28,11.28,0,0,1,621.76,335.36Zm-4.14,0a8.85,8.85,0,0,0-.61-3.46,4.73,4.73,0,0,0-1.72-2.13,4.57,4.57,0,0,0-2.59-.73,4.52,4.52,0,0,0-2.58.73,4.73,4.73,0,0,0-1.72,2.13,10.12,10.12,0,0,0,0,6.92,4.67,4.67,0,0,0,1.72,2.13,4.52,4.52,0,0,0,2.58.73,4.57,4.57,0,0,0,2.59-.73,4.67,4.67,0,0,0,1.72-2.13A8.82,8.82,0,0,0,617.62,335.36Z"/><path class="b" d="M624.71,345V330.53h3.9v2.53h.15a3.82,3.82,0,0,1,1.33-2.05,3.57,3.57,0,0,1,2.16-.69,5,5,0,0,1,.65,0,4.31,4.31,0,0,1,.61.1V334a4.31,4.31,0,0,0-.78-.15,6.16,6.16,0,0,0-.92-.07,3.16,3.16,0,0,0-1.58.39,2.8,2.8,0,0,0-1.1,1.06,3.08,3.08,0,0,0-.4,1.57V345Z"/><path class="b" d="M637.61,328.65a2.17,2.17,0,0,1-1.54-.59,1.94,1.94,0,0,1,0-2.88,2.28,2.28,0,0,1,3.08,0,1.93,1.93,0,0,1,0,2.87A2.14,2.14,0,0,1,637.61,328.65Zm-2,16.39V330.53h4V345Z"/><path class="b" d="M649.35,350.68a9.45,9.45,0,0,1-3.34-.52,5.76,5.76,0,0,1-2.22-1.43,4.37,4.37,0,0,1-1.07-2l3.73-.5a2.41,2.41,0,0,0,.53.75,3,3,0,0,0,1,.58,4.34,4.34,0,0,0,1.49.22,3.57,3.57,0,0,0,2.17-.62,2.37,2.37,0,0,0,.85-2.05v-2.65h-.17a3.78,3.78,0,0,1-.79,1.14,4,4,0,0,1-1.36.88,5.4,5.4,0,0,1-2,.34,6,6,0,0,1-3-.76,5.33,5.33,0,0,1-2.12-2.34,8.79,8.79,0,0,1-.79-4,9.51,9.51,0,0,1,.8-4.12,5.81,5.81,0,0,1,2.14-2.47,5.48,5.48,0,0,1,2.94-.82,4.47,4.47,0,0,1,2,.41,3.92,3.92,0,0,1,1.32,1,5.27,5.27,0,0,1,.78,1.19h.15v-2.43h4v14.65a4.89,4.89,0,0,1-.91,3,5.43,5.43,0,0,1-2.51,1.85A10,10,0,0,1,649.35,350.68Zm.09-8.88a2.77,2.77,0,0,0,1.65-.48,3.15,3.15,0,0,0,1-1.4,6,6,0,0,0,.36-2.19,6.13,6.13,0,0,0-.36-2.21,3.14,3.14,0,0,0-1-1.46,2.6,2.6,0,0,0-1.65-.52,2.65,2.65,0,0,0-1.67.53,3.22,3.22,0,0,0-1,1.48,6.93,6.93,0,0,0,0,4.35,3.09,3.09,0,0,0,1,1.41A2.75,2.75,0,0,0,649.44,341.8Z"/><path class="b" d="M661.69,328.65a2.17,2.17,0,0,1-1.54-.59,1.94,1.94,0,0,1,0-2.88,2.28,2.28,0,0,1,3.08,0,1.93,1.93,0,0,1,0,2.87A2.14,2.14,0,0,1,661.69,328.65Zm-2,16.39V330.53h4V345Z"/><path class="b" d="M670.92,336.65V345h-4V330.53h3.83v2.55h.17a4,4,0,0,1,1.62-2,4.85,4.85,0,0,1,2.75-.74,5.11,5.11,0,0,1,2.63.66,4.55,4.55,0,0,1,1.75,1.88,6.32,6.32,0,0,1,.62,2.92V345h-4v-8.53a3,3,0,0,0-.68-2.08,2.45,2.45,0,0,0-1.9-.75,2.88,2.88,0,0,0-1.43.35,2.34,2.34,0,0,0-1,1A3.61,3.61,0,0,0,670.92,336.65Z"/><path class="b" d="M687.58,345.31a5.9,5.9,0,0,1-2.48-.49,3.83,3.83,0,0,1-1.71-1.44,4.89,4.89,0,0,1-.19-4.43,3.58,3.58,0,0,1,1.21-1.32,5.71,5.71,0,0,1,1.74-.76,13.41,13.41,0,0,1,2.06-.36c.84-.08,1.52-.17,2-.25a2.63,2.63,0,0,0,1.12-.35.78.78,0,0,0,.35-.7v-.06a1.71,1.71,0,0,0-.56-1.38,2.33,2.33,0,0,0-1.59-.5,2.82,2.82,0,0,0-1.73.48A2.25,2.25,0,0,0,687,335l-3.72-.31a5.17,5.17,0,0,1,1.11-2.29,5.5,5.5,0,0,1,2.15-1.49,8.24,8.24,0,0,1,3.06-.52,9.33,9.33,0,0,1,2.32.28,6.08,6.08,0,0,1,2,.88,4.26,4.26,0,0,1,1.37,1.52,4.71,4.71,0,0,1,.5,2.23V345h-3.82v-2h-.11a4.07,4.07,0,0,1-.94,1.2,4.22,4.22,0,0,1-1.41.8A5.73,5.73,0,0,1,687.58,345.31Zm1.15-2.78a3.46,3.46,0,0,0,1.57-.35,2.74,2.74,0,0,0,1.06-1,2.47,2.47,0,0,0,.39-1.37v-1.54a2.5,2.5,0,0,1-.51.22,6.18,6.18,0,0,1-.74.18l-.81.14L689,339a5,5,0,0,0-1.24.33,1.94,1.94,0,0,0-.82.61,1.5,1.5,0,0,0-.3,1,1.43,1.43,0,0,0,.6,1.25A2.54,2.54,0,0,0,688.73,342.53Z"/><path class="b" d="M702.9,325.69V345h-4V325.69Z"/><path class="b" d="M594.16,362.45v3h-8.74v-3ZM587.4,359h4V372.5a1.82,1.82,0,0,0,.17.86,1,1,0,0,0,.48.43,2,2,0,0,0,.72.13,2.74,2.74,0,0,0,.56-.06l.44-.08.63,3-.85.22a7.69,7.69,0,0,1-1.33.16,6.34,6.34,0,0,1-2.55-.39,3.56,3.56,0,0,1-1.69-1.38,4.12,4.12,0,0,1-.6-2.36Z"/><path class="b" d="M603.18,377.24a7.37,7.37,0,0,1-3.81-.94,6.4,6.4,0,0,1-2.47-2.63,8.38,8.38,0,0,1-.86-3.91,8.5,8.5,0,0,1,.86-3.94,6.43,6.43,0,0,1,2.47-2.62,8.17,8.17,0,0,1,7.61,0,6.37,6.37,0,0,1,2.47,2.62,8.5,8.5,0,0,1,.87,3.94,8.38,8.38,0,0,1-.87,3.91A6.33,6.33,0,0,1,607,376.3,7.36,7.36,0,0,1,603.18,377.24Zm0-3.12a2.51,2.51,0,0,0,1.67-.57,3.56,3.56,0,0,0,1-1.56,7.47,7.47,0,0,0,0-4.52,3.65,3.65,0,0,0-1-1.57,2.51,2.51,0,0,0-1.67-.57,2.57,2.57,0,0,0-1.7.57,3.51,3.51,0,0,0-1,1.57,7.47,7.47,0,0,0,0,4.52,3.42,3.42,0,0,0,1,1.56A2.57,2.57,0,0,0,603.2,374.12Z"/><path class="b" d="M612.94,377V362.45h3.91V365H617a3.8,3.8,0,0,1,1.33-2.05,3.52,3.52,0,0,1,2.15-.69,5,5,0,0,1,.65,0,4.47,4.47,0,0,1,.62.1V366a5.6,5.6,0,0,0-.79-.15,7.7,7.7,0,0,0-.91-.07,3.16,3.16,0,0,0-1.58.39,2.8,2.8,0,0,0-1.1,1.06,3,3,0,0,0-.4,1.57V377Z"/><path class="b" d="M623.82,377V362.45h3.9V365h.15a3.8,3.8,0,0,1,1.33-2.05,3.55,3.55,0,0,1,2.16-.69,5.14,5.14,0,0,1,.65,0,4.57,4.57,0,0,1,.61.1V366a5.71,5.71,0,0,0-.78-.15,8,8,0,0,0-.92-.07,3.16,3.16,0,0,0-1.58.39,2.87,2.87,0,0,0-1.1,1.06,3,3,0,0,0-.4,1.57V377Z"/><path class="b" d="M640.62,377.24a7.69,7.69,0,0,1-3.85-.91,6.2,6.2,0,0,1-2.48-2.59,9.4,9.4,0,0,1,0-7.9,6.44,6.44,0,0,1,2.45-2.64,7.14,7.14,0,0,1,3.72-.94,7.58,7.58,0,0,1,2.68.46,5.94,5.94,0,0,1,2.17,1.37,6.2,6.2,0,0,1,1.45,2.3,9.1,9.1,0,0,1,.52,3.24v1.1H635v-2.49h8.46a3.11,3.11,0,0,0-.37-1.54,2.81,2.81,0,0,0-1-1.06,3.32,3.32,0,0,0-3.16,0,3,3,0,0,0-1.1,1.13,3.18,3.18,0,0,0-.41,1.56v2.37a4,4,0,0,0,.4,1.86,2.9,2.9,0,0,0,1.14,1.21,3.46,3.46,0,0,0,1.75.43,4.06,4.06,0,0,0,1.23-.19,2.59,2.59,0,0,0,1-.57,2.37,2.37,0,0,0,.6-.93l3.73.25a5.12,5.12,0,0,1-1.16,2.34,5.84,5.84,0,0,1-2.25,1.55A8.39,8.39,0,0,1,640.62,377.24Z"/><path class="b" d="M653.93,368.57V377h-4V362.45h3.83V365h.17a4.07,4.07,0,0,1,1.62-2,4.87,4.87,0,0,1,2.75-.74,5.09,5.09,0,0,1,2.63.66,4.48,4.48,0,0,1,1.75,1.88,6.32,6.32,0,0,1,.63,2.92V377h-4v-8.52a2.93,2.93,0,0,0-.68-2.09,2.45,2.45,0,0,0-1.9-.75,2.88,2.88,0,0,0-1.43.35,2.37,2.37,0,0,0-1,1A3.56,3.56,0,0,0,653.93,368.57Z"/><path class="b" d="M674.17,362.45v3h-8.74v-3ZM667.41,359h4V372.5a1.7,1.7,0,0,0,.17.86.89.89,0,0,0,.47.43,2,2,0,0,0,.72.13,2.67,2.67,0,0,0,.56-.06l.44-.08.63,3-.85.22a7.56,7.56,0,0,1-1.33.16,6.34,6.34,0,0,1-2.55-.39,3.61,3.61,0,0,1-1.69-1.38,4.2,4.2,0,0,1-.6-2.36Z"/><path class="b" d="M690.75,362.45v3h-9v-3ZM683.85,377V361.4a5.08,5.08,0,0,1,.62-2.62,4,4,0,0,1,1.69-1.56,5.68,5.68,0,0,1,2.45-.52,9.91,9.91,0,0,1,1.7.14,11.58,11.58,0,0,1,1.14.26l-.71,3c-.16-.05-.36-.09-.59-.14a4,4,0,0,0-.7-.06,1.56,1.56,0,0,0-1.24.41,1.71,1.71,0,0,0-.35,1.14V377Z"/><path class="b" d="M695.24,360.58a2.18,2.18,0,0,1-1.54-.6,1.87,1.87,0,0,1-.64-1.43,1.91,1.91,0,0,1,.64-1.45,2.21,2.21,0,0,1,1.53-.6,2.18,2.18,0,0,1,1.55.6,1.94,1.94,0,0,1,0,2.88A2.18,2.18,0,0,1,695.24,360.58Zm-2,16.38V362.45h4V377Z"/><path class="b" d="M704.47,357.61V377h-4V357.61Z"/><path class="b" d="M714.29,377.24a7.63,7.63,0,0,1-3.84-.91,6.08,6.08,0,0,1-2.48-2.59,9.4,9.4,0,0,1,0-7.9,6.31,6.31,0,0,1,2.45-2.64,7.08,7.08,0,0,1,3.71-.94,7.58,7.58,0,0,1,2.68.46,6.06,6.06,0,0,1,2.18,1.37,6.18,6.18,0,0,1,1.44,2.3,9.09,9.09,0,0,1,.53,3.24v1.1H708.7v-2.49h8.47a3.11,3.11,0,0,0-.38-1.54,2.79,2.79,0,0,0-1-1.06,3.34,3.34,0,0,0-3.17,0,3,3,0,0,0-1.1,1.13,3.18,3.18,0,0,0-.41,1.56v2.37a4.12,4.12,0,0,0,.4,1.86,2.9,2.9,0,0,0,1.14,1.21,3.49,3.49,0,0,0,1.75.43,4,4,0,0,0,1.23-.19,2.59,2.59,0,0,0,.95-.57,2.39,2.39,0,0,0,.61-.93l3.72.25a5.12,5.12,0,0,1-1.16,2.34,5.84,5.84,0,0,1-2.25,1.55A8.39,8.39,0,0,1,714.29,377.24Z"/></svg>