<svg xmlns="http://www.w3.org/2000/svg" viewBox="0 0 800 500"><defs><style>.a{fill:#39b54a;}.b,.f{fill:#fff;}.c{fill:#bf8f4e;}.d{fill:#a97833;}.e{fill:#cd9f61;}.f{font-size:27.91px;font-family:Roboto-Bold, Roboto;font-weight:700;}.g{letter-spacing:-0.03em;}.h{letter-spacing:-0.03em;}.i{letter-spacing:-0.1em;}.j{letter-spacing:-0.01em;}.k{letter-spacing:0em;}.l{fill:#009444;}</style></defs><rect class="a" x="262.76" y="183.46" width="196.91" height="54.25" rx="6" transform="translate(750.55 58.13) rotate(128.37)"/><path class="b" d="M312.16,261.58,310.1,260l7.68-9.7,2.06,1.63L317,255.49l9.75,7.72-2,2.47L315,258Z"/><path class="b" d="M333.14,255.47a5.63,5.63,0,0,1-2.41,1.86,4.91,4.91,0,0,1-2.79.24,7.21,7.21,0,0,1-4.8-3.79,5,5,0,0,1-.41-2.78,5.79,5.79,0,0,1,1.27-2.77,5.72,5.72,0,0,1,2.41-1.87,4.94,4.94,0,0,1,2.8-.24,7.24,7.24,0,0,1,4.79,3.79,5,5,0,0,1,.41,2.78A5.73,5.73,0,0,1,333.14,255.47ZM331.25,254a1.94,1.94,0,0,0,.46-1.3,2.79,2.79,0,0,0-.46-1.37,5.8,5.8,0,0,0-2.76-2.19A2.73,2.73,0,0,0,327,249a1.88,1.88,0,0,0-1.16.74,2,2,0,0,0-.46,1.31,2.69,2.69,0,0,0,.45,1.39,5.62,5.62,0,0,0,1.21,1.3,5.45,5.45,0,0,0,1.55.88,2.73,2.73,0,0,0,1.45.13A2,2,0,0,0,331.25,254Z"/><path class="b" d="M337.69,249.37l-8.85-7,1.88-2.38,1.55,1.23.07-.1a2.91,2.91,0,0,1-.6-1.8,2.71,2.71,0,0,1,.61-1.65c.1-.12.21-.25.34-.38a3.2,3.2,0,0,1,.36-.32l2.18,1.72a5.84,5.84,0,0,0-.47.41,4.51,4.51,0,0,0-.48.53,2.37,2.37,0,0,0-.53,1.15,2.26,2.26,0,0,0,.11,1.18,2.38,2.38,0,0,0,.77,1l5,4Z"/><path class="b" d="M343,242.73l-8.86-7,1.89-2.39,1.54,1.23.08-.09a2.9,2.9,0,0,1-.61-1.81,2.79,2.79,0,0,1,.62-1.65c.1-.12.21-.25.34-.38a2.59,2.59,0,0,1,.36-.32l2.18,1.73a2.87,2.87,0,0,0-.47.4,5.8,5.8,0,0,0-.49.53,2.56,2.56,0,0,0-.53,1.15,2.15,2.15,0,0,0,.12,1.18,2.44,2.44,0,0,0,.76,1l5,4Z"/><path class="b" d="M351.25,232.61a6.07,6.07,0,0,1-2.42,1.91,4.79,4.79,0,0,1-2.78.26,6.65,6.65,0,0,1-2.84-1.39,6.42,6.42,0,0,1-2-2.43,5,5,0,0,1-.43-2.77,5.57,5.57,0,0,1,1.22-2.73,6.17,6.17,0,0,1,1.58-1.41,4.55,4.55,0,0,1,1.89-.66,4.82,4.82,0,0,1,2.1.22,7.31,7.31,0,0,1,2.23,1.25l.67.54-5.92,7.48-1.52-1.21,4.09-5.17A2.37,2.37,0,0,0,346,226a2.15,2.15,0,0,0-1.15.13,2.33,2.33,0,0,0-1,.75,2.48,2.48,0,0,0-.53,1.2,2.38,2.38,0,0,0,.16,1.21,2.53,2.53,0,0,0,.75,1l1.45,1.14a3.13,3.13,0,0,0,1.33.66,2.26,2.26,0,0,0,1.29-.11,2.79,2.79,0,0,0,1.11-.86,3.13,3.13,0,0,0,.47-.85,1.93,1.93,0,0,0,.12-.85,2,2,0,0,0-.27-.82l1.94-2.15a3.88,3.88,0,0,1,.87,1.83,4.46,4.46,0,0,1-.14,2.13A6.63,6.63,0,0,1,351.25,232.61Z"/><path class="b" d="M352.39,220.29l5.12,4.05-1.95,2.46-8.86-7,1.86-2.34,1.56,1.23.08-.1a3.2,3.2,0,0,1-.44-2,3.75,3.75,0,0,1,.87-2,3.93,3.93,0,0,1,1.68-1.29,3.48,3.48,0,0,1,2-.16,4.88,4.88,0,0,1,2.08,1l5.64,4.46-1.95,2.46-5.2-4.12a2.29,2.29,0,0,0-1.6-.59,1.89,1.89,0,0,0-1.37.8,2.1,2.1,0,0,0-.48,1,1.86,1.86,0,0,0,.15,1.08A2.81,2.81,0,0,0,352.39,220.29Z"/><path class="b" d="M353,207.42,355,205l8.26,6.54a1.39,1.39,0,0,0,.61.32.69.69,0,0,0,.49-.09,1.44,1.44,0,0,0,.42-.37A2.92,2.92,0,0,0,365,211c.07-.14.13-.24.16-.31l2.14,1.06c-.06.16-.15.36-.28.63a5.56,5.56,0,0,1-.55.89,4.65,4.65,0,0,1-1.46,1.36,2.71,2.71,0,0,1-1.67.37,3.28,3.28,0,0,1-1.73-.77Zm5.39-2.44,1.85,1.46-4.23,5.33-1.84-1.46Z"/><path class="b" d="M374.88,202.76a5.7,5.7,0,0,1-2.43,1.88,5,5,0,0,1-2.8.23,6.71,6.71,0,0,1-2.79-1.36,6.54,6.54,0,0,1-2-2.42,5,5,0,0,1-.42-2.78,5.6,5.6,0,0,1,1.25-2.78,5.79,5.79,0,0,1,2-1.69,4.35,4.35,0,0,1,2.27-.45,4.45,4.45,0,0,1,2.23.86l-1.83,2.32a2.24,2.24,0,0,0-1.48-.33,1.91,1.91,0,0,0-1.27.77,2.11,2.11,0,0,0-.48,1.24,2.6,2.6,0,0,0,.37,1.37A5,5,0,0,0,368.8,201a5.09,5.09,0,0,0,1.63.91,2.52,2.52,0,0,0,1.43.06,2.07,2.07,0,0,0,1.1-.76,2,2,0,0,0,.42-.89,1.75,1.75,0,0,0-.06-1,2.34,2.34,0,0,0-.57-.92l1.84-2.32a4.57,4.57,0,0,1,1.35,2,4.3,4.3,0,0,1,.13,2.31A5.83,5.83,0,0,1,374.88,202.76Z"/><path class="b" d="M375.91,190.58l5.12,4-1.94,2.46-11.81-9.35,1.89-2.39,4.51,3.57.09-.1a3.21,3.21,0,0,1-.47-1.94,3.88,3.88,0,0,1,.88-2,4.1,4.1,0,0,1,1.68-1.29,3.48,3.48,0,0,1,2-.16,4.88,4.88,0,0,1,2.08,1l5.64,4.47-1.94,2.45-5.21-4.11a2.25,2.25,0,0,0-1.6-.6,2,2,0,0,0-1.38.81,2.27,2.27,0,0,0-.48,1.05,1.88,1.88,0,0,0,.14,1.09A2.83,2.83,0,0,0,375.91,190.58Z"/><path class="b" d="M387.84,178.28l-5.08-4,1.94-2.46,8.86,7-1.87,2.36-1.61-1.27L390,180a3.29,3.29,0,0,1,.46,2,3.74,3.74,0,0,1-.86,2.06,3.82,3.82,0,0,1-1.64,1.25,3.62,3.62,0,0,1-2,.14,4.94,4.94,0,0,1-2.08-1l-5.64-4.46,1.94-2.46,5.21,4.12a2.26,2.26,0,0,0,1.57.56,1.87,1.87,0,0,0,1.34-.75,2.33,2.33,0,0,0,.45-1,2,2,0,0,0-.11-1.1A2.45,2.45,0,0,0,387.84,178.28Z"/><path class="b" d="M391.94,170.34l5.12,4.06-1.95,2.45-8.86-7,1.86-2.34,1.56,1.23.08-.1a3.2,3.2,0,0,1-.44-2,3.75,3.75,0,0,1,.87-2,3.93,3.93,0,0,1,1.68-1.29,3.48,3.48,0,0,1,2-.16,4.88,4.88,0,0,1,2.08,1l5.64,4.47-1.95,2.45-5.2-4.12a2.29,2.29,0,0,0-1.6-.59,1.89,1.89,0,0,0-1.37.8,2.1,2.1,0,0,0-.48,1,1.84,1.84,0,0,0,.15,1.08A2.65,2.65,0,0,0,391.94,170.34Z"/><path class="b" d="M403.11,166.75,391.3,157.4l1.94-2.45,11.81,9.35Zm-.79-4.24-2.94-2.34.28-.36-1.11-5.5,2.23-2.82,1.43,7.34-.46.58Zm5.17-1.29-5.92-.45-.44-3,8.64.58Z"/><rect class="a" x="199.87" y="203.61" width="179.22" height="49.38" rx="6" transform="translate(622.46 70.05) rotate(116.32)"/><path class="b" d="M255.5,283,253.36,282l5-10.1,2.14,1.06-1.86,3.77,10.15,5-1.27,2.56-10.15-5Z"/><path class="b" d="M273,273.58a5.25,5.25,0,0,1-1.79,2.12,4.59,4.59,0,0,1-2.45.75,6.61,6.61,0,0,1-5-2.47,4.58,4.58,0,0,1-.89-2.4,5.8,5.8,0,0,1,2.39-4.83,4.49,4.49,0,0,1,2.45-.74,6.52,6.52,0,0,1,5,2.47,4.5,4.5,0,0,1,.9,2.39A5.25,5.25,0,0,1,273,273.58Zm-2-1a1.77,1.77,0,0,0,.17-1.24,2.57,2.57,0,0,0-.68-1.14,5.16,5.16,0,0,0-1.32-.93,5,5,0,0,0-1.55-.49,2.55,2.55,0,0,0-1.31.15,1.75,1.75,0,0,0-.89.89,1.79,1.79,0,0,0-.17,1.25,2.48,2.48,0,0,0,.67,1.15,5.05,5.05,0,0,0,1.33.93,5,5,0,0,0,1.54.49,2.48,2.48,0,0,0,1.32-.16A1.81,1.81,0,0,0,271,272.59Z"/><path class="b" d="M275.91,267.29l-9.22-4.56,1.23-2.48,1.61.79,0-.09a2.68,2.68,0,0,1-.88-1.49,2.47,2.47,0,0,1,.24-1.59,3.37,3.37,0,0,1,.23-.4,4.37,4.37,0,0,1,.25-.36l2.27,1.13a3.67,3.67,0,0,0-.34.45,4.79,4.79,0,0,0-.33.56,2.28,2.28,0,0,0-.25,1.12,1.88,1.88,0,0,0,.33,1,2.07,2.07,0,0,0,.87.75l5.21,2.58Z"/><path class="b" d="M279.32,260.38l-9.21-4.56,1.22-2.48,1.61.8.05-.1a2.68,2.68,0,0,1-.88-1.49,2.53,2.53,0,0,1,.23-1.59c.07-.12.14-.26.23-.4a2.89,2.89,0,0,1,.26-.35l2.27,1.12a2.87,2.87,0,0,0-.34.45,3.39,3.39,0,0,0-.33.56,2.32,2.32,0,0,0-.26,1.12,2.13,2.13,0,0,0,.33,1,2.18,2.18,0,0,0,.87.74l5.22,2.58Z"/><path class="b" d="M284.79,249.79A5.47,5.47,0,0,1,283,252a4.37,4.37,0,0,1-2.43.76,6,6,0,0,1-2.79-.69,6.11,6.11,0,0,1-2.23-1.79,4.59,4.59,0,0,1-.9-2.39,5,5,0,0,1,.57-2.65,5.49,5.49,0,0,1,1.13-1.56,4.18,4.18,0,0,1,1.56-.95,4.44,4.44,0,0,1,1.91-.2,6.43,6.43,0,0,1,2.22.69l.7.35-3.85,7.78-1.58-.78,2.66-5.38a2.32,2.32,0,0,0-1.1-.25,1.93,1.93,0,0,0-1,.34,2.4,2.4,0,0,0-1,2,2.2,2.2,0,0,0,1.24,1.8l1.5.75a3.05,3.05,0,0,0,1.31.33,2,2,0,0,0,1.13-.35,2.47,2.47,0,0,0,.82-1,2.61,2.61,0,0,0,.26-.84,1.74,1.74,0,0,0-.06-.79,1.69,1.69,0,0,0-.39-.67l1.32-2.29a3.58,3.58,0,0,1,1.12,1.47,4.16,4.16,0,0,1,.28,1.91A6,6,0,0,1,284.79,249.79Z"/><path class="b" d="M283.46,238.61l5.33,2.64-1.27,2.55-9.22-4.56,1.21-2.43,1.63.8.05-.11a2.94,2.94,0,0,1-.77-1.65,3.52,3.52,0,0,1,.4-2,3.62,3.62,0,0,1,1.24-1.47,3.21,3.21,0,0,1,1.75-.52,4.68,4.68,0,0,1,2.05.52l5.87,2.91-1.27,2.55-5.41-2.68a2.12,2.12,0,0,0-1.54-.22,1.75,1.75,0,0,0-1.07,1,2,2,0,0,0-.23,1,1.68,1.68,0,0,0,.34.93A2.43,2.43,0,0,0,283.46,238.61Z"/><path class="b" d="M281.6,227l1.26-2.56,8.6,4.26a1.28,1.28,0,0,0,.6.16.63.63,0,0,0,.42-.17,1.18,1.18,0,0,0,.3-.41,2.5,2.5,0,0,0,.15-.38c0-.13.06-.23.08-.3l2.11.54c0,.15-.07.35-.13.61a5.15,5.15,0,0,1-.32.89,4.27,4.27,0,0,1-1.05,1.5,2.47,2.47,0,0,1-1.41.64,3,3,0,0,1-1.68-.36Zm4.33-3.2,1.92.95-2.75,5.55-1.92-1Z"/><path class="b" d="M300.15,218.74a5.25,5.25,0,0,1-1.81,2.13,4.48,4.48,0,0,1-2.45.73,6,6,0,0,1-2.74-.68,6.13,6.13,0,0,1-2.22-1.78,4.59,4.59,0,0,1-.9-2.39,5.16,5.16,0,0,1,.59-2.71,5.37,5.37,0,0,1,1.49-1.9,3.89,3.89,0,0,1,1.94-.82,4,4,0,0,1,2.14.34L295,214.07a2,2,0,0,0-1.38,0,1.72,1.72,0,0,0-1,.92,1.89,1.89,0,0,0-.19,1.2,2.23,2.23,0,0,0,.59,1.15,4.44,4.44,0,0,0,1.36,1,4.39,4.39,0,0,0,1.62.5,2.22,2.22,0,0,0,1.28-.22,1.94,1.94,0,0,0,.84-.88,2,2,0,0,0,.21-.87,1.73,1.73,0,0,0-.24-.85,2.28,2.28,0,0,0-.68-.71l1.19-2.41a4.21,4.21,0,0,1,1.58,1.49,3.91,3.91,0,0,1,.55,2A5.39,5.39,0,0,1,300.15,218.74Z"/><path class="b" d="M298.75,207.69l5.33,2.64-1.26,2.55-12.29-6.07,1.22-2.49,4.7,2.33.06-.11a3,3,0,0,1-.79-1.64,3.5,3.5,0,0,1,.4-2,3.72,3.72,0,0,1,1.25-1.47,3.19,3.19,0,0,1,1.75-.53,4.44,4.44,0,0,1,2.05.53l5.87,2.9-1.27,2.56-5.41-2.68a2.09,2.09,0,0,0-1.54-.23,1.74,1.74,0,0,0-1.07,1,2.11,2.11,0,0,0-.24,1,1.77,1.77,0,0,0,.34.94A2.47,2.47,0,0,0,298.75,207.69Z"/><path class="b" d="M307,194.48l-5.29-2.62,1.26-2.55,9.22,4.56L311,196.32l-1.68-.83,0,.1a3.06,3.06,0,0,1,.79,1.68,3.76,3.76,0,0,1-1.61,3.42,3.22,3.22,0,0,1-1.73.51,4.68,4.68,0,0,1-2.05-.52l-5.87-2.91,1.26-2.55,5.41,2.68a2.12,2.12,0,0,0,1.51.2,1.68,1.68,0,0,0,1.05-.93,2,2,0,0,0,.21-1,1.79,1.79,0,0,0-.31-1A2.14,2.14,0,0,0,307,194.48Z"/><path class="b" d="M309.17,186.63l5.33,2.64-1.27,2.56L304,187.27l1.21-2.44,1.63.8,0-.1a2.88,2.88,0,0,1-.77-1.66,3.59,3.59,0,0,1,.39-2,3.72,3.72,0,0,1,1.25-1.47,3.2,3.2,0,0,1,1.75-.51,4.42,4.42,0,0,1,2.05.52l5.87,2.9-1.27,2.56-5.41-2.68a2,2,0,0,0-1.54-.22,1.69,1.69,0,0,0-1.07,1,2,2,0,0,0-.23,1,1.74,1.74,0,0,0,.34.94A2.51,2.51,0,0,0,309.17,186.63Z"/><path class="b" d="M318.43,181.32l-12.29-6.08,1.26-2.56,12.29,6.08Zm-1.51-3.63-3.06-1.52.18-.38-2-4.68,1.45-2.93,2.67,6.26-.3.6Zm4.36-2.13-5.36.72-1-2.59,7.8-1.13Z"/><rect class="a" x="126.13" y="165.3" width="162.42" height="44.75" rx="6" transform="translate(75.91 434.53) rotate(-104.12)"/><path class="b" d="M198.61,130l2.1-.53,2.5,9.9-2.11.53-.92-3.69-10,2.5-.64-2.52,9.95-2.5Z"/><path class="b" d="M192.07,146.77a4.79,4.79,0,0,1,0-2.52,4.16,4.16,0,0,1,1.25-1.95,5.37,5.37,0,0,1,2.3-1.15,5.46,5.46,0,0,1,2.59-.08,4.06,4.06,0,0,1,2,1.13,5.21,5.21,0,0,1,1.2,4.74,4.16,4.16,0,0,1-1.25,1.95,5.45,5.45,0,0,1-2.32,1.15,5.37,5.37,0,0,1-2.57.08,4.14,4.14,0,0,1-2-1.13A4.84,4.84,0,0,1,192.07,146.77Zm2-.48a1.59,1.59,0,0,0,.61,1,2.28,2.28,0,0,0,1.14.39,4.46,4.46,0,0,0,1.46-.14,4.36,4.36,0,0,0,1.35-.57,2.26,2.26,0,0,0,.82-.87,1.75,1.75,0,0,0-.53-2.1,2.19,2.19,0,0,0-1.14-.4,4.46,4.46,0,0,0-1.46.14,4.36,4.36,0,0,0-1.35.57,2.14,2.14,0,0,0-.81.89A1.58,1.58,0,0,0,194,146.29Z"/><path class="b" d="M193.78,152.81l9-2.28.61,2.44-1.58.39,0,.1a2.38,2.38,0,0,1,1.48.51,2.27,2.27,0,0,1,.77,1.23,3.73,3.73,0,0,1,.08.41,3,3,0,0,1,0,.4l-2.23.56a3.19,3.19,0,0,0,0-.51,4,4,0,0,0-.11-.58,2.07,2.07,0,0,0-.48-.93,1.84,1.84,0,0,0-.84-.52,2,2,0,0,0-1,0l-5.11,1.28Z"/><path class="b" d="M195.48,159.58l9-2.27.61,2.43-1.57.39,0,.1a2.36,2.36,0,0,1,1.48.51,2.16,2.16,0,0,1,.77,1.23c0,.13.06.26.08.41a3,3,0,0,1,0,.4l-2.22.56q0-.19,0-.51c0-.22-.06-.41-.1-.58a2.18,2.18,0,0,0-.49-.93,1.76,1.76,0,0,0-.83-.51,1.93,1.93,0,0,0-1,0l-5.12,1.29Z"/><path class="b" d="M197.94,170.09a5,5,0,0,1,0-2.54,4,4,0,0,1,1.23-2,5.48,5.48,0,0,1,2.34-1.16,5.4,5.4,0,0,1,2.58-.07,4.1,4.1,0,0,1,2,1.11,4.7,4.7,0,0,1,1.17,2.17,4.92,4.92,0,0,1,.13,1.74,4,4,0,0,1-.51,1.57,4.13,4.13,0,0,1-1.21,1.26,5.8,5.8,0,0,1-1.93.83l-.69.17-1.92-7.63,1.55-.39,1.33,5.27a2,2,0,0,0,.9-.47,1.77,1.77,0,0,0,.49-.82,2.09,2.09,0,0,0-.52-2,2,2,0,0,0-1.91-.52l-1.48.37a2.54,2.54,0,0,0-1.09.54,1.83,1.83,0,0,0-.58.9,2.24,2.24,0,0,0,0,1.15,2.36,2.36,0,0,0,.31.74,1.87,1.87,0,0,0,.5.51,1.72,1.72,0,0,0,.67.23l.44,2.35a3.16,3.16,0,0,1-1.64-.35,3.63,3.63,0,0,1-1.32-1.16A5.48,5.48,0,0,1,197.94,170.09Z"/><path class="b" d="M205.43,177l-5.23,1.31-.63-2.51,9-2.27.6,2.39-1.59.4,0,.11a2.6,2.6,0,0,1,1.51.69,3.18,3.18,0,0,1,.89,1.59,3.25,3.25,0,0,1,0,1.75,2.87,2.87,0,0,1-.9,1.38,4.09,4.09,0,0,1-1.72.85l-5.75,1.45-.63-2.51,5.3-1.33a1.93,1.93,0,0,0,1.2-.76,1.59,1.59,0,0,0,.17-1.3,1.91,1.91,0,0,0-.45-.83,1.52,1.52,0,0,0-.78-.44A2.1,2.1,0,0,0,205.43,177Z"/><path class="b" d="M213.52,183.92l.63,2.51-8.43,2.12a1.1,1.1,0,0,0-.51.24.58.58,0,0,0-.19.36,1.28,1.28,0,0,0,0,.47,2.3,2.3,0,0,0,.12.34l.12.26-1.76.86a4.43,4.43,0,0,1-.28-.49,4.63,4.63,0,0,1-.3-.81,3.82,3.82,0,0,1-.16-1.64,2.34,2.34,0,0,1,.59-1.28,2.78,2.78,0,0,1,1.38-.74Zm-1.11,4.75-1.88.48-1.37-5.45,1.88-.47Z"/><path class="b" d="M205.6,200.55a4.76,4.76,0,0,1,0-2.54,4.1,4.1,0,0,1,1.26-1.94,5.49,5.49,0,0,1,2.29-1.14,5.37,5.37,0,0,1,2.57-.08,4.08,4.08,0,0,1,2,1.12,4.66,4.66,0,0,1,1.19,2.22,4.79,4.79,0,0,1,.09,2.18,3.64,3.64,0,0,1-.85,1.71,3.68,3.68,0,0,1-1.68,1l-.6-2.37a1.88,1.88,0,0,0,1-.8,1.58,1.58,0,0,0,.14-1.22,1.78,1.78,0,0,0-.57-.94,2.19,2.19,0,0,0-1.09-.44,3.88,3.88,0,0,0-1.51.13,4,4,0,0,0-1.41.6,2.09,2.09,0,0,0-.76.91,1.71,1.71,0,0,0-.06,1.1,1.8,1.8,0,0,0,.37.73,1.67,1.67,0,0,0,.66.44,2.13,2.13,0,0,0,.89.09l.59,2.37a3.79,3.79,0,0,1-2-.11,3.43,3.43,0,0,1-1.57-1.08A4.62,4.62,0,0,1,205.6,200.55Z"/><path class="b" d="M213.05,207.34l-5.22,1.32-.63-2.51,12.05-3,.61,2.44-4.61,1.16,0,.1a2.75,2.75,0,0,1,1.51.67,3.19,3.19,0,0,1,.88,1.6,3.35,3.35,0,0,1,0,1.75,3,3,0,0,1-.9,1.39,4,4,0,0,1-1.72.84l-5.76,1.45-.63-2.51,5.31-1.33a1.9,1.9,0,0,0,1.19-.75,1.57,1.57,0,0,0,.17-1.31,2,2,0,0,0-.45-.85,1.61,1.61,0,0,0-.78-.45A2.25,2.25,0,0,0,213.05,207.34Z"/><path class="b" d="M215.11,221.32l5.18-1.3.64,2.51-9,2.27-.61-2.41,1.64-.41,0-.09a2.84,2.84,0,0,1-1.53-.7,3.1,3.1,0,0,1-.92-1.6,3.16,3.16,0,0,1,0-1.7,2.89,2.89,0,0,1,.9-1.37,4.09,4.09,0,0,1,1.72-.85l5.76-1.45.63,2.51-5.31,1.33a1.91,1.91,0,0,0-1.16.75,1.53,1.53,0,0,0-.18,1.25,1.83,1.83,0,0,0,.43.8,1.57,1.57,0,0,0,.78.48A1.9,1.9,0,0,0,215.11,221.32Z"/><path class="b" d="M218.25,228,213,229.31l-.63-2.51,9-2.27.6,2.39-1.59.4,0,.1a2.61,2.61,0,0,1,1.5.69,3.19,3.19,0,0,1,.9,1.6,3.25,3.25,0,0,1,0,1.75,3,3,0,0,1-.9,1.38,4.09,4.09,0,0,1-1.72.85l-5.75,1.44-.63-2.5,5.3-1.34a1.83,1.83,0,0,0,1.19-.75,1.59,1.59,0,0,0,.18-1.3,1.89,1.89,0,0,0-.45-.84,1.59,1.59,0,0,0-.78-.44A2.35,2.35,0,0,0,218.25,228Z"/><path class="b" d="M215,237.1l12.05-3,.63,2.51-12,3Zm1.42,5.65,3.27-3.65,2.19,1.23-4.72,5.36Zm1.75-4,3-.75.09.36,4.16,2,.73,2.88-5.52-2.75-.15-.6Z"/><rect class="a" x="39.07" y="193.72" width="168.71" height="46.49" rx="6" transform="translate(57.28 457.64) rotate(-135)"/><path class="b" d="M84.88,170.16l1.59-1.59,7.49,7.5-1.59,1.59-2.79-2.79L82,182.4l-1.91-1.9L87.67,173Z"/><path class="b" d="M88,188.63a5,5,0,0,1-1.35-2.24,4.27,4.27,0,0,1,.07-2.4,6.22,6.22,0,0,1,3.71-3.71,4.27,4.27,0,0,1,2.4-.07,5.43,5.43,0,0,1,3.59,3.59,4.27,4.27,0,0,1-.07,2.4,6.22,6.22,0,0,1-3.71,3.71,4.27,4.27,0,0,1-2.4.07A5,5,0,0,1,88,188.63Zm1.48-1.46a1.67,1.67,0,0,0,1.06.52,2.43,2.43,0,0,0,1.22-.26,4.91,4.91,0,0,0,1.22-.9,4.76,4.76,0,0,0,.91-1.23,2.41,2.41,0,0,0,.26-1.22,1.85,1.85,0,0,0-1.59-1.59,2.41,2.41,0,0,0-1.23.25,5.13,5.13,0,0,0-2.13,2.13A2.41,2.41,0,0,0,89,186.1,1.74,1.74,0,0,0,89.48,187.17Z"/><path class="b" d="M92.74,193.1l6.85-6.84,1.84,1.84-1.2,1.19.08.07a2.48,2.48,0,0,1,1.59-.33,2.73,2.73,0,0,1,1.63,1,2.72,2.72,0,0,1,.24.34l-1.68,1.69a2.89,2.89,0,0,0-.3-.45c-.14-.17-.27-.33-.4-.46a2.18,2.18,0,0,0-.93-.57,2,2,0,0,0-1,0,2,2,0,0,0-.93.55L94.64,195Z"/><path class="b" d="M97.87,198.23l6.85-6.84,1.84,1.84-1.2,1.19.08.07a2.48,2.48,0,0,1,1.59-.33,2.27,2.27,0,0,1,1.34.69,3.09,3.09,0,0,1,.29.32,2.72,2.72,0,0,1,.24.34l-1.68,1.68a3.48,3.48,0,0,0-.3-.44c-.14-.17-.27-.33-.4-.46a2.18,2.18,0,0,0-.93-.57,2,2,0,0,0-1,0,2,2,0,0,0-.93.55l-3.87,3.87Z"/><path class="b" d="M105.67,206.3a5.15,5.15,0,0,1-1.39-2.25,4.14,4.14,0,0,1,0-2.39,5.76,5.76,0,0,1,1.47-2.29,5.64,5.64,0,0,1,2.26-1.44,4.28,4.28,0,0,1,2.4-.09,4.78,4.78,0,0,1,2.2,1.31,5.28,5.28,0,0,1,1,1.48,4.07,4.07,0,0,1,.37,1.68,3.92,3.92,0,0,1-.4,1.76,6.25,6.25,0,0,1-1.28,1.78l-.52.52-5.78-5.78,1.18-1.18,4,4a2,2,0,0,0,.55-.9,1.85,1.85,0,0,0,0-1,2,2,0,0,0-.55-.91,2,2,0,0,0-1-.57,2,2,0,0,0-1,0,2.11,2.11,0,0,0-.93.54l-1.12,1.12a2.62,2.62,0,0,0-.68,1.07,1.8,1.8,0,0,0,0,1.1,2.31,2.31,0,0,0,.63,1,2.69,2.69,0,0,0,.66.49,1.6,1.6,0,0,0,.72.18,1.51,1.51,0,0,0,.72-.15l1.64,1.87a3.32,3.32,0,0,1-1.65.56,3.86,3.86,0,0,1-1.79-.33A5.72,5.72,0,0,1,105.67,206.3Z"/><path class="b" d="M116,208.48l-4,4-1.9-1.9L117,203.7l1.81,1.81-1.21,1.2.08.08a2.79,2.79,0,0,1,1.71-.18,3.26,3.26,0,0,1,1.65.95,3.45,3.45,0,0,1,.93,1.55,3.06,3.06,0,0,1-.07,1.72,4.23,4.23,0,0,1-1.08,1.66l-4.36,4.36-1.9-1.89,4-4a2,2,0,0,0,.67-1.31,1.65,1.65,0,0,0-.55-1.25,2,2,0,0,0-.84-.51,1.56,1.56,0,0,0-.93,0A2.26,2.26,0,0,0,116,208.48Z"/><path class="b" d="M126.93,210.32l1.9,1.89-6.39,6.39a1.21,1.21,0,0,0-.32.48.58.58,0,0,0,0,.43,1.27,1.27,0,0,0,.28.4,1.37,1.37,0,0,0,.29.24l.24.17L121.84,222l-.51-.3a4.26,4.26,0,0,1-.7-.55,3.92,3.92,0,0,1-1-1.39,2.42,2.42,0,0,1-.15-1.45,2.84,2.84,0,0,1,.83-1.39Zm1.54,4.82-1.42,1.43-4.13-4.12,1.43-1.43Z"/><path class="b" d="M128.73,229.36a5,5,0,0,1-1.36-2.26,4.27,4.27,0,0,1,.09-2.4,6.18,6.18,0,0,1,3.69-3.68,4.27,4.27,0,0,1,2.4-.08,4.84,4.84,0,0,1,2.24,1.34,5,5,0,0,1,1.24,1.9,3.61,3.61,0,0,1,.16,2,3.91,3.91,0,0,1-.95,1.82l-1.8-1.79a1.91,1.91,0,0,0,.43-1.23,1.62,1.62,0,0,0-.53-1.16,1.81,1.81,0,0,0-1-.53,2.11,2.11,0,0,0-1.2.19,4.17,4.17,0,0,0-1.28.91,4.38,4.38,0,0,0-.94,1.3,2.19,2.19,0,0,0-.18,1.21,1.7,1.7,0,0,0,.53,1,1.67,1.67,0,0,0,1.54.5,2.15,2.15,0,0,0,.84-.4l1.79,1.79a4,4,0,0,1-1.8,1,3.73,3.73,0,0,1-2-.12A5,5,0,0,1,128.73,229.36Z"/><path class="b" d="M139,231.45l-4,4-1.9-1.9,9.13-9.12,1.85,1.84-3.49,3.49.08.08a2.77,2.77,0,0,1,1.7-.2,3.21,3.21,0,0,1,1.64.95,3.39,3.39,0,0,1,.93,1.56,3,3,0,0,1,0,1.71,4.18,4.18,0,0,1-1.09,1.67l-4.36,4.36-1.9-1.9,4-4a1.94,1.94,0,0,0,.67-1.3,1.68,1.68,0,0,0-.55-1.26,1.94,1.94,0,0,0-.85-.51,1.59,1.59,0,0,0-.94,0A2.28,2.28,0,0,0,139,231.45Z"/><path class="b" d="M148.28,242.81l3.93-3.93,1.9,1.9-6.84,6.85-1.83-1.83,1.25-1.24-.07-.07a2.89,2.89,0,0,1-1.74.2,3.25,3.25,0,0,1-1.67-.94,3.29,3.29,0,0,1-.9-1.52,3.08,3.08,0,0,1,.07-1.7,4.37,4.37,0,0,1,1.08-1.68l4.36-4.36,1.9,1.9-4,4a2,2,0,0,0-.63,1.29,1.56,1.56,0,0,0,.51,1.21,1.83,1.83,0,0,0,.8.48,1.8,1.8,0,0,0,1,0A2.11,2.11,0,0,0,148.28,242.81Z"/><path class="b" d="M154.64,247.08l-4,4-1.9-1.9,6.85-6.84,1.81,1.81-1.21,1.2.08.08a2.79,2.79,0,0,1,1.71-.18,3.26,3.26,0,0,1,1.65.95,3.45,3.45,0,0,1,.93,1.55,3.07,3.07,0,0,1-.07,1.72,4.23,4.23,0,0,1-1.08,1.66l-4.36,4.36-1.9-1.89,4-4a2,2,0,0,0,.67-1.31,1.65,1.65,0,0,0-.55-1.25,2,2,0,0,0-.84-.51,1.64,1.64,0,0,0-.93,0A2.26,2.26,0,0,0,154.64,247.08Z"/><path class="b" d="M156.58,257l9.13-9.13,1.9,1.9-9.13,9.13Zm3.7-.25,2.28-2.28.27.28,4.79-.4,2.18,2.18-6.38.49-.45-.45Zm.58,4.53,1-5,2.61-.08-1.35,7.3Z"/><path class="c" d="M109.27,238.53H376.83a0,0,0,0,1,0,0V455.38a8,8,0,0,1-8,8H117.27a8,8,0,0,1-8-8V238.53A0,0,0,0,1,109.27,238.53Z"/><path class="d" d="M109.27,238.53H376.83a0,0,0,0,1,0,0V339.3a6,6,0,0,1-6,6H115.27a6,6,0,0,1-6-6V238.53A0,0,0,0,1,109.27,238.53Z"/><path class="e" d="M390.57,312.32h-295a7,7,0,0,1-6.66-9.08l20.4-64.71H376.83l20.4,64.71A7,7,0,0,1,390.57,312.32Z"/><text class="f" transform="translate(170.34 374.77)">F<tspan class="g" x="15.29" y="0">L</tspan><tspan x="29.54" y="0">O</tspan><tspan class="h" x="48.81" y="0"> </tspan><tspan class="i" x="54.94" y="0">T</tspan><tspan x="69.38" y="0">or</tspan><tspan class="j" x="95.34" y="0">r</tspan><tspan class="k" x="105.26" y="0">ent</tspan><tspan x="20.38" y="33.5">web app</tspan></text><rect class="a" x="45.06" y="116.59" width="156.72" height="43.18" rx="6" transform="translate(60.91 312.6) rotate(-118.51)"/><path class="b" d="M101.43,86.34l1.83-1L108,94l-1.83,1-1.75-3.23-8.7,4.73-1.2-2.2,8.7-4.73Z"/><path class="b" d="M99.34,103.61a4.56,4.56,0,0,1-.61-2.35,3.92,3.92,0,0,1,.7-2.12,5.18,5.18,0,0,1,1.87-1.63,5.36,5.36,0,0,1,2.4-.69,3.9,3.9,0,0,1,2.17.57,4.53,4.53,0,0,1,1.63,1.79,4.58,4.58,0,0,1,.62,2.35,4,4,0,0,1-.7,2.12,5.27,5.27,0,0,1-1.89,1.64,5.14,5.14,0,0,1-2.39.68,4,4,0,0,1-2.16-.56A4.65,4.65,0,0,1,99.34,103.61Zm1.7-.91a1.57,1.57,0,0,0,.81.74,2.19,2.19,0,0,0,1.15.09,4.12,4.12,0,0,0,1.33-.48,4.23,4.23,0,0,0,1.13-.85,2.25,2.25,0,0,0,.56-1,1.56,1.56,0,0,0-.19-1.08,1.51,1.51,0,0,0-.81-.75,2.12,2.12,0,0,0-1.16-.1,4.75,4.75,0,0,0-2.46,1.33,2.19,2.19,0,0,0-.54,1A1.58,1.58,0,0,0,101,102.7Z"/><path class="b" d="M102.39,108.85l7.9-4.29,1.15,2.12-1.38.75,0,.08a2.38,2.38,0,0,1,1.51.12,2.2,2.2,0,0,1,1,1,2.56,2.56,0,0,1,.17.37,2.28,2.28,0,0,1,.13.36l-2,1.06a2.23,2.23,0,0,0-.15-.47,3.66,3.66,0,0,0-.23-.52,2.06,2.06,0,0,0-.68-.75,1.68,1.68,0,0,0-.9-.28,1.82,1.82,0,0,0-1,.24L103.58,111Z"/><path class="b" d="M105.6,114.77l7.9-4.29,1.16,2.12-1.38.75,0,.08a2.37,2.37,0,0,1,1.51.12,2.23,2.23,0,0,1,1,1c.06.11.11.23.17.37a2.28,2.28,0,0,1,.13.36l-2,1.06a2.23,2.23,0,0,0-.15-.47,3.66,3.66,0,0,0-.23-.52,2.06,2.06,0,0,0-.68-.75,1.73,1.73,0,0,0-.9-.28,2,2,0,0,0-1,.24L106.79,117Z"/><path class="b" d="M110.42,124a4.76,4.76,0,0,1-.64-2.37,3.86,3.86,0,0,1,.67-2.12,5.37,5.37,0,0,1,1.91-1.64,5.05,5.05,0,0,1,2.4-.69,4,4,0,0,1,2.16.55,4.42,4.42,0,0,1,1.61,1.75,4.86,4.86,0,0,1,.55,1.59,3.72,3.72,0,0,1-.94,3.06,5.48,5.48,0,0,1-1.6,1.24l-.6.33L112.31,119l1.36-.74,2.5,4.61a2,2,0,0,0,.73-.66,1.64,1.64,0,0,0,.26-.88,1.9,1.9,0,0,0-.24-1,2.09,2.09,0,0,0-.71-.76,1.85,1.85,0,0,0-.94-.26,1.89,1.89,0,0,0-1,.24l-1.29.7a2.55,2.55,0,0,0-.9.77,1.84,1.84,0,0,0-.32,1,2.08,2.08,0,0,0,.29,1.07,2.28,2.28,0,0,0,.46.62,1.71,1.71,0,0,0,.59.35,1.46,1.46,0,0,0,.69,0l1,2.1a3,3,0,0,1-1.61.07,3.68,3.68,0,0,1-1.51-.77A5.21,5.21,0,0,1,110.42,124Z"/><path class="b" d="M119.08,128.69l-4.57,2.48L113.32,129l7.9-4.29,1.14,2.09-1.4.75.05.1a2.51,2.51,0,0,1,1.57.28,3,3,0,0,1,1.22,1.28,3.13,3.13,0,0,1,.42,1.63,2.82,2.82,0,0,1-.51,1.51,3.89,3.89,0,0,1-1.4,1.2l-5,2.74-1.19-2.2,4.64-2.52a1.83,1.83,0,0,0,.93-1,1.51,1.51,0,0,0-.15-1.26,1.84,1.84,0,0,0-.61-.68,1.51,1.51,0,0,0-.84-.22A2.25,2.25,0,0,0,119.08,128.69Z"/><path class="b" d="M128.29,133.19l1.2,2.19-7.37,4a1.17,1.17,0,0,0-.42.34.55.55,0,0,0-.09.39,1.08,1.08,0,0,0,.14.43,1.87,1.87,0,0,0,.2.29l.17.21-1.45,1.23-.37-.39a6.46,6.46,0,0,1-.48-.68,3.85,3.85,0,0,1-.54-1.5,2.26,2.26,0,0,1,.25-1.34,2.64,2.64,0,0,1,1.11-1Zm.11,4.71-1.65.89L124.17,134l1.65-.89Z"/><path class="b" d="M124.88,150.63a4.56,4.56,0,0,1-.61-2.37,3.82,3.82,0,0,1,.71-2.12,5.18,5.18,0,0,1,1.86-1.61,5.28,5.28,0,0,1,2.39-.69,3.94,3.94,0,0,1,2.16.56,4.57,4.57,0,0,1,1.65,1.79,4.71,4.71,0,0,1,.6,2,3.38,3.38,0,0,1-1.71,3.17l-1.12-2.07a1.8,1.8,0,0,0,.7-1,1.49,1.49,0,0,0-.16-1.17,1.69,1.69,0,0,0-.76-.74,2,2,0,0,0-1.12-.15,3.91,3.91,0,0,0-1.39.48,4,4,0,0,0-1.17.9,2.08,2.08,0,0,0-.49,1,1.75,1.75,0,0,0,.21,1,1.8,1.8,0,0,0,.52.6,1.48,1.48,0,0,0,.72.25,1.9,1.9,0,0,0,.86-.13l1.12,2.07a3.67,3.67,0,0,1-1.86.38,3.51,3.51,0,0,1-1.73-.63A4.64,4.64,0,0,1,124.88,150.63Z"/><path class="b" d="M133.48,155.2l-4.57,2.48-1.19-2.19,10.54-5.73,1.15,2.13-4,2.19.05.09a2.62,2.62,0,0,1,1.57.27,3,3,0,0,1,1.21,1.28,3.24,3.24,0,0,1,.43,1.63,2.77,2.77,0,0,1-.51,1.52,3.84,3.84,0,0,1-1.41,1.2l-5,2.73-1.19-2.19,4.64-2.52a1.79,1.79,0,0,0,.94-1,1.52,1.52,0,0,0-.16-1.26,1.81,1.81,0,0,0-.62-.69,1.6,1.6,0,0,0-.84-.23A2.12,2.12,0,0,0,133.48,155.2Z"/><path class="b" d="M138.75,167.77l4.54-2.46,1.19,2.19-7.9,4.29-1.15-2.11,1.44-.78-.05-.08a2.62,2.62,0,0,1-1.6-.28,3.27,3.27,0,0,1-1.63-2.87,2.75,2.75,0,0,1,.51-1.49,4,4,0,0,1,1.4-1.21l5-2.73,1.19,2.19L137.08,165a1.84,1.84,0,0,0-.9,1,1.46,1.46,0,0,0,.13,1.21,1.81,1.81,0,0,0,.59.64,1.64,1.64,0,0,0,.85.26A1.89,1.89,0,0,0,138.75,167.77Z"/><path class="b" d="M143.29,173.25l-4.57,2.48-1.19-2.19,7.9-4.29,1.13,2.08-1.39.76.05.09a2.6,2.6,0,0,1,1.57.29,3.09,3.09,0,0,1,1.22,1.28,3.33,3.33,0,0,1,.42,1.63,2.82,2.82,0,0,1-.51,1.51,3.84,3.84,0,0,1-1.41,1.2l-5,2.73-1.19-2.19,4.64-2.52a1.83,1.83,0,0,0,.94-1,1.53,1.53,0,0,0-.16-1.25,1.76,1.76,0,0,0-.61-.68,1.51,1.51,0,0,0-.84-.22A2.06,2.06,0,0,0,143.29,173.25Z"/><path class="b" d="M142.42,182.55,153,176.82l1.19,2.19-10.54,5.73Zm2.68,4.94,2.18-4.2,2.34.62-3.12,6.14Zm.67-4.19,2.63-1.43.18.32,4.37.9,1.37,2.52-5.82-1.24-.28-.52Z"/><rect class="a" x="203.14" y="92.71" width="156.45" height="43.11" rx="6" transform="translate(508.52 -87.28) rotate(116.32)"/><path class="b" d="M251.7,162l-1.87-.92,4.36-8.81,1.87.92-1.62,3.28,8.86,4.39-1.11,2.24-8.86-4.38Z"/><path class="b" d="M267,153.78a4.59,4.59,0,0,1-1.57,1.85,3.9,3.9,0,0,1-2.13.65,5.1,5.1,0,0,1-2.41-.59,5.31,5.31,0,0,1-1.95-1.56,3.93,3.93,0,0,1-.77-2.09,4.47,4.47,0,0,1,.52-2.37,4.56,4.56,0,0,1,1.56-1.85,4,4,0,0,1,2.13-.65,5.78,5.78,0,0,1,4.36,2.16,4,4,0,0,1,.78,2.09A4.61,4.61,0,0,1,267,153.78Zm-1.73-.86a1.51,1.51,0,0,0,.14-1.09,2.12,2.12,0,0,0-.58-1,4.27,4.27,0,0,0-1.16-.81,4.48,4.48,0,0,0-1.35-.43,2.17,2.17,0,0,0-1.15.14,1.72,1.72,0,0,0-.92,1.86,2.08,2.08,0,0,0,.59,1,4.45,4.45,0,0,0,1.15.82,4.18,4.18,0,0,0,1.35.42,2.08,2.08,0,0,0,1.15-.14A1.56,1.56,0,0,0,265.27,152.92Z"/><path class="b" d="M269.52,148.29l-8-4,1.07-2.16,1.41.69,0-.08a2.32,2.32,0,0,1-.77-1.3,2.17,2.17,0,0,1,.2-1.39l.2-.35a3.13,3.13,0,0,1,.23-.31l2,1a4.65,4.65,0,0,0-.3.39c-.11.17-.21.34-.29.49a2.08,2.08,0,0,0-.22,1,1.78,1.78,0,0,0,.29.9,1.89,1.89,0,0,0,.76.66l4.55,2.25Z"/><path class="b" d="M272.5,142.26l-8.05-4,1.07-2.16,1.41.69,0-.08a2.37,2.37,0,0,1-.77-1.3,2.18,2.18,0,0,1,.21-1.39,2.57,2.57,0,0,1,.2-.35,2.08,2.08,0,0,1,.22-.31l2,1a4.65,4.65,0,0,0-.3.39c-.11.17-.21.34-.29.49a2.08,2.08,0,0,0-.22,1,1.78,1.78,0,0,0,.29.9,1.89,1.89,0,0,0,.76.66L273.6,140Z"/><path class="b" d="M277.27,133a4.75,4.75,0,0,1-1.56,1.88,3.86,3.86,0,0,1-2.12.67,5.33,5.33,0,0,1-2.44-.61,5.19,5.19,0,0,1-1.94-1.56,4,4,0,0,1-.79-2.08,4.39,4.39,0,0,1,.49-2.32,5,5,0,0,1,1-1.36,3.75,3.75,0,0,1,1.36-.83,3.69,3.69,0,0,1,1.67-.17,5.6,5.6,0,0,1,1.94.6l.61.3-3.36,6.79-1.38-.68,2.32-4.69a2,2,0,0,0-1-.22,1.84,1.84,0,0,0-.87.29,2,2,0,0,0-.63.75,1.88,1.88,0,0,0-.21,1,1.82,1.82,0,0,0,.32.92,2.06,2.06,0,0,0,.75.65l1.32.65a2.53,2.53,0,0,0,1.14.29,1.83,1.83,0,0,0,1-.3,2.17,2.17,0,0,0,.72-.85,2.42,2.42,0,0,0,.23-.74,1.54,1.54,0,0,0-.05-.68,1.49,1.49,0,0,0-.35-.59l1.16-2a3.18,3.18,0,0,1,1,1.29,3.52,3.52,0,0,1,.24,1.67A5.28,5.28,0,0,1,277.27,133Z"/><path class="b" d="M276.11,123.26l4.65,2.3-1.1,2.23-8.05-4,1.05-2.13,1.42.7.05-.09a2.53,2.53,0,0,1-.67-1.45,3,3,0,0,1,.34-1.72,3.15,3.15,0,0,1,1.09-1.28,2.78,2.78,0,0,1,1.53-.46,4,4,0,0,1,1.78.46l5.13,2.53-1.11,2.23-4.72-2.33a1.79,1.79,0,0,0-1.34-.2,1.51,1.51,0,0,0-.94.85,1.72,1.72,0,0,0-.2.89,1.55,1.55,0,0,0,.3.81A2.16,2.16,0,0,0,276.11,123.26Z"/><path class="b" d="M274.49,113.15l1.1-2.23,7.5,3.71a1.1,1.1,0,0,0,.53.14.64.64,0,0,0,.37-.15,1.28,1.28,0,0,0,.26-.36,2.52,2.52,0,0,0,.13-.33c0-.11.05-.2.07-.26l1.83.47a4.6,4.6,0,0,1-.11.53,4,4,0,0,1-.27.78,3.74,3.74,0,0,1-.92,1.31,2.17,2.17,0,0,1-1.23.56,2.59,2.59,0,0,1-1.47-.32Zm3.77-2.79,1.68.83-2.4,4.84-1.67-.83Z"/><path class="b" d="M290.68,105.91a4.64,4.64,0,0,1-1.58,1.86,3.92,3.92,0,0,1-2.14.64,5.13,5.13,0,0,1-2.39-.6,5.23,5.23,0,0,1-1.94-1.55,4,4,0,0,1-.78-2.09,4.5,4.5,0,0,1,.51-2.36,4.61,4.61,0,0,1,1.3-1.66,3.43,3.43,0,0,1,1.69-.72,3.51,3.51,0,0,1,1.88.3l-1,2.1a1.86,1.86,0,0,0-1.21,0,1.51,1.51,0,0,0-.86.81,1.67,1.67,0,0,0-.17,1,2.09,2.09,0,0,0,.52,1,3.87,3.87,0,0,0,1.19.85,4.13,4.13,0,0,0,1.41.44,2,2,0,0,0,1.12-.2,1.63,1.63,0,0,0,.73-.76,1.68,1.68,0,0,0,.19-.77,1.54,1.54,0,0,0-.21-.74,1.92,1.92,0,0,0-.59-.62l1-2.1a3.66,3.66,0,0,1,1.37,1.3,3.36,3.36,0,0,1,.48,1.77A4.55,4.55,0,0,1,290.68,105.91Z"/><path class="b" d="M289.46,96.27l4.65,2.3L293,100.8l-10.73-5.31,1.07-2.17,4.1,2,.05-.09a2.61,2.61,0,0,1-.68-1.44,2.94,2.94,0,0,1,.35-1.72,3.15,3.15,0,0,1,1.08-1.29,2.86,2.86,0,0,1,1.53-.45,3.81,3.81,0,0,1,1.79.46l5.12,2.53-1.1,2.23-4.73-2.34a1.83,1.83,0,0,0-1.34-.19,1.53,1.53,0,0,0-.94.85,1.78,1.78,0,0,0-.2.9,1.52,1.52,0,0,0,.29.83A2.24,2.24,0,0,0,289.46,96.27Z"/><path class="b" d="M296.69,84.73l-4.62-2.28,1.1-2.23,8.05,4-1.06,2.14-1.46-.72,0,.08a2.68,2.68,0,0,1,.69,1.47,3.29,3.29,0,0,1-1.4,3,2.93,2.93,0,0,1-1.52.44,4.07,4.07,0,0,1-1.79-.46l-5.12-2.53,1.1-2.23,4.73,2.34a1.83,1.83,0,0,0,1.31.17,1.42,1.42,0,0,0,.91-.81,1.67,1.67,0,0,0,.19-.84,1.61,1.61,0,0,0-.27-.84A1.93,1.93,0,0,0,296.69,84.73Z"/><path class="b" d="M298.55,77.88l4.65,2.3-1.1,2.24-8.05-4,1.06-2.13,1.42.7,0-.09a2.53,2.53,0,0,1-.67-1.45,3.07,3.07,0,0,1,.34-1.73,3.21,3.21,0,0,1,1.09-1.28,2.86,2.86,0,0,1,1.53-.45,3.91,3.91,0,0,1,1.79.45L305.77,75l-1.1,2.23-4.73-2.34a1.83,1.83,0,0,0-1.34-.19,1.53,1.53,0,0,0-.94.85,1.8,1.8,0,0,0-.2.89,1.55,1.55,0,0,0,.3.81A2.12,2.12,0,0,0,298.55,77.88Z"/><path class="b" d="M306.64,73.24l-10.73-5.3,1.1-2.23L307.74,71Zm-1.32-3.16-2.67-1.33.16-.33L301,64.33l1.27-2.56,2.33,5.47-.26.52Zm3.8-1.87-4.67.64-.84-2.27,6.81-1Z"/><path class="a" d="M488.17,328.4l-12.29-12.29a1.72,1.72,0,0,0-2.94,1.22v6.61a1.74,1.74,0,0,1-1.73,1.73h-30a1.72,1.72,0,0,0-1.73,1.72v4.46a1.73,1.73,0,0,0,1.73,1.73h30a1.73,1.73,0,0,1,1.73,1.72v6.61a1.72,1.72,0,0,0,2.94,1.22l12.29-12.29A1.73,1.73,0,0,0,488.17,328.4Z"/><path class="a" d="M750.17,266.74V447.46a15.91,15.91,0,0,1-15.91,15.91H567.19a15.92,15.92,0,0,1-15.92-15.91V220.72a15.94,15.94,0,0,1,15.92-15.92H688.25v46a15.91,15.91,0,0,0,15.91,15.91Z"/><path class="l" d="M688.25,204.8l61.92,61.94h-46a15.91,15.91,0,0,1-15.91-15.91Z"/><path class="b" d="M619.09,331.65a11.21,11.21,0,0,1-1.2,5.39,8.31,8.31,0,0,1-3.25,3.39,9.74,9.74,0,0,1-9.24,0,8.28,8.28,0,0,1-3.24-3.39,12.76,12.76,0,0,1,0-10.76,8.28,8.28,0,0,1,3.24-3.39,9.78,9.78,0,0,1,9.24,0,8.31,8.31,0,0,1,3.25,3.39A11.17,11.17,0,0,1,619.09,331.65Zm-4.15,0a8.62,8.62,0,0,0-.61-3.45,4.74,4.74,0,0,0-1.71-2.14,4.62,4.62,0,0,0-6.89,2.14,10.09,10.09,0,0,0,0,6.91,4.77,4.77,0,0,0,6.89,2.14,4.74,4.74,0,0,0,1.71-2.14A8.64,8.64,0,0,0,614.94,331.65Z"/><path class="b" d="M622,341.33V326.82h3.91v2.53h.15a3.8,3.8,0,0,1,1.33-2.05,3.52,3.52,0,0,1,2.15-.69,5,5,0,0,1,.65,0,4.47,4.47,0,0,1,.62.1v3.57a7,7,0,0,0-1.7-.21,3.16,3.16,0,0,0-1.58.38,2.8,2.8,0,0,0-1.1,1.06,3,3,0,0,0-.4,1.57v8.21Z"/><path class="b" d="M634.94,325a2.18,2.18,0,0,1-1.54-.6,1.86,1.86,0,0,1-.64-1.43,1.89,1.89,0,0,1,.64-1.44,2.28,2.28,0,0,1,3.07,0,1.94,1.94,0,0,1,0,2.88A2.14,2.14,0,0,1,634.94,325Zm-2,16.38V326.82h4v14.51Z"/><path class="b" d="M646.68,347a9.53,9.53,0,0,1-3.35-.53,5.54,5.54,0,0,1-2.21-1.43,4.27,4.27,0,0,1-1.07-2l3.72-.5a2.29,2.29,0,0,0,.54.75,2.8,2.8,0,0,0,1,.58,4.26,4.26,0,0,0,1.48.23,3.55,3.55,0,0,0,2.17-.63,2.36,2.36,0,0,0,.86-2v-2.65h-.17a3.82,3.82,0,0,1-.8,1.14,4,4,0,0,1-1.36.88,5.13,5.13,0,0,1-2,.34,5.86,5.86,0,0,1-3-.76,5.38,5.38,0,0,1-2.13-2.33,9,9,0,0,1-.79-4,9.29,9.29,0,0,1,.81-4.11,5.71,5.71,0,0,1,2.14-2.48,5.47,5.47,0,0,1,2.93-.82,4.6,4.6,0,0,1,2,.41,4,4,0,0,1,1.33,1,6.7,6.7,0,0,1,.78,1.19h.15v-2.43h4v14.65a5,5,0,0,1-.9,3,5.54,5.54,0,0,1-2.51,1.84A10,10,0,0,1,646.68,347Zm.08-8.88a2.71,2.71,0,0,0,1.65-.49,3,3,0,0,0,1-1.4,5.68,5.68,0,0,0,.37-2.18,6.23,6.23,0,0,0-.36-2.22,3.27,3.27,0,0,0-1-1.46,2.65,2.65,0,0,0-1.66-.52,2.61,2.61,0,0,0-1.67.54,3.28,3.28,0,0,0-1,1.47,6.37,6.37,0,0,0-.35,2.19,5.85,5.85,0,0,0,.36,2.16,3,3,0,0,0,1,1.41A2.73,2.73,0,0,0,646.76,338.1Z"/><path class="b" d="M659,325a2.18,2.18,0,0,1-1.54-.6,1.86,1.86,0,0,1-.64-1.43,1.89,1.89,0,0,1,.64-1.44,2.28,2.28,0,0,1,3.07,0,1.94,1.94,0,0,1,0,2.88A2.14,2.14,0,0,1,659,325Zm-2,16.38V326.82h4v14.51Z"/><path class="b" d="M668.25,332.94v8.39h-4V326.82h3.84v2.56h.17a4.09,4.09,0,0,1,1.61-2,5,5,0,0,1,2.75-.74,5.12,5.12,0,0,1,2.64.66,4.46,4.46,0,0,1,1.74,1.88,6.32,6.32,0,0,1,.63,2.92v9.24h-4v-8.52a2.93,2.93,0,0,0-.68-2.09A2.44,2.44,0,0,0,671,330a2.92,2.92,0,0,0-1.44.35,2.43,2.43,0,0,0-1,1A3.44,3.44,0,0,0,668.25,332.94Z"/><path class="b" d="M684.9,341.6a6,6,0,0,1-2.47-.48,3.94,3.94,0,0,1-1.72-1.45,4.27,4.27,0,0,1-.63-2.39,4.22,4.22,0,0,1,.45-2,3.65,3.65,0,0,1,1.21-1.32,6,6,0,0,1,1.74-.75,13.28,13.28,0,0,1,2-.36c.85-.09,1.53-.17,2-.25a2.87,2.87,0,0,0,1.13-.36.8.8,0,0,0,.35-.7v-.05a1.76,1.76,0,0,0-.56-1.39,2.36,2.36,0,0,0-1.6-.49,2.85,2.85,0,0,0-1.72.47,2.2,2.2,0,0,0-.85,1.2l-3.73-.3a5,5,0,0,1,1.12-2.29,5.35,5.35,0,0,1,2.15-1.5,8.19,8.19,0,0,1,3-.52,9.27,9.27,0,0,1,2.32.28,6.14,6.14,0,0,1,2,.88,4.35,4.35,0,0,1,1.36,1.53,4.55,4.55,0,0,1,.5,2.22v9.79h-3.81v-2h-.12a4,4,0,0,1-.93,1.19,4.22,4.22,0,0,1-1.41.8A5.54,5.54,0,0,1,684.9,341.6Zm1.15-2.77a3.28,3.28,0,0,0,1.57-.36,2.7,2.7,0,0,0,1.07-1,2.47,2.47,0,0,0,.39-1.37V334.6a2,2,0,0,1-.52.22,6,6,0,0,1-.73.18l-.81.15-.74.1a5.2,5.2,0,0,0-1.24.33,2.18,2.18,0,0,0-.82.61,1.58,1.58,0,0,0-.29.95,1.43,1.43,0,0,0,.6,1.25A2.53,2.53,0,0,0,686.05,338.83Z"/><path class="b" d="M700.22,322v19.35h-4V322Z"/><path class="b" d="M591.48,358.74v3h-8.74v-3Zm-6.75-3.48h4v13.53a1.89,1.89,0,0,0,.17.87.9.9,0,0,0,.48.42,1.73,1.73,0,0,0,.71.13,3.66,3.66,0,0,0,.57,0l.43-.08.63,3c-.2.06-.48.14-.85.22a6.72,6.72,0,0,1-1.33.16,5.94,5.94,0,0,1-2.54-.39,3.53,3.53,0,0,1-1.7-1.38,4.2,4.2,0,0,1-.59-2.36Z"/><path class="b" d="M600.5,373.53a7.34,7.34,0,0,1-3.8-.94,6.31,6.31,0,0,1-2.47-2.62,9.29,9.29,0,0,1,0-7.85,6.33,6.33,0,0,1,2.47-2.63,8.15,8.15,0,0,1,7.6,0,6.33,6.33,0,0,1,2.47,2.63,9.29,9.29,0,0,1,0,7.85,6.31,6.31,0,0,1-2.47,2.62A7.31,7.31,0,0,1,600.5,373.53Zm0-3.11a2.43,2.43,0,0,0,1.67-.58,3.49,3.49,0,0,0,1-1.56,7.65,7.65,0,0,0,0-4.51,3.47,3.47,0,0,0-1-1.57,2.43,2.43,0,0,0-1.67-.58,2.5,2.5,0,0,0-1.69.58,3.5,3.5,0,0,0-1,1.57,7.65,7.65,0,0,0,0,4.51,3.52,3.52,0,0,0,1,1.56A2.5,2.5,0,0,0,600.52,370.42Z"/><path class="b" d="M610.27,373.25V358.74h3.9v2.53h.15a3.79,3.79,0,0,1,1.33-2,3.51,3.51,0,0,1,2.16-.7,5,5,0,0,1,.65,0,4.31,4.31,0,0,1,.61.1v3.58a5.49,5.49,0,0,0-.78-.16,7.72,7.72,0,0,0-.92-.06,3.27,3.27,0,0,0-1.58.38,3,3,0,0,0-1.1,1.06,3.13,3.13,0,0,0-.4,1.57v8.21Z"/><path class="b" d="M621.14,373.25V358.74H625v2.53h.15a3.75,3.75,0,0,1,1.34-2,3.46,3.46,0,0,1,2.15-.7,5,5,0,0,1,.65,0,4.47,4.47,0,0,1,.62.1v3.58a5.38,5.38,0,0,0-.79-.16,7.69,7.69,0,0,0-.91-.06,3.31,3.31,0,0,0-1.59.38,2.85,2.85,0,0,0-1.09,1.06,3,3,0,0,0-.4,1.57v8.21Z"/><path class="b" d="M638,373.53a7.64,7.64,0,0,1-3.85-.91,6.14,6.14,0,0,1-2.48-2.59,9.4,9.4,0,0,1,0-7.9,6.35,6.35,0,0,1,2.45-2.63,7.1,7.1,0,0,1,3.72-.95,7.53,7.53,0,0,1,2.67.46,6,6,0,0,1,2.18,1.37,6.41,6.41,0,0,1,1.45,2.3,9.41,9.41,0,0,1,.52,3.24V367H632.35v-2.49h8.47a3.11,3.11,0,0,0-.38-1.54,2.69,2.69,0,0,0-1-1.05,3,3,0,0,0-1.55-.39,3.11,3.11,0,0,0-1.62.43,3,3,0,0,0-1.1,1.12,3.18,3.18,0,0,0-.4,1.56V367a4.06,4.06,0,0,0,.4,1.87,2.76,2.76,0,0,0,1.14,1.2,3.35,3.35,0,0,0,1.74.43,3.69,3.69,0,0,0,1.23-.19,2.58,2.58,0,0,0,1-.57,2.53,2.53,0,0,0,.6-.92l3.72.24a5,5,0,0,1-1.16,2.34,5.77,5.77,0,0,1-2.24,1.55A8.46,8.46,0,0,1,638,373.53Z"/><path class="b" d="M651.26,364.86v8.39h-4V358.74h3.84v2.56h.17a4.14,4.14,0,0,1,1.61-2,5,5,0,0,1,2.75-.74,5.12,5.12,0,0,1,2.64.66A4.51,4.51,0,0,1,660,361.1a6.38,6.38,0,0,1,.62,2.91v9.24h-4v-8.52a3,3,0,0,0-.68-2.08,2.46,2.46,0,0,0-1.9-.75,2.78,2.78,0,0,0-1.43.35,2.37,2.37,0,0,0-1,1A3.44,3.44,0,0,0,651.26,364.86Z"/><path class="b" d="M671.49,358.74v3h-8.74v-3Zm-6.75-3.48h4v13.53a1.89,1.89,0,0,0,.17.87.9.9,0,0,0,.48.42,1.73,1.73,0,0,0,.71.13,3.66,3.66,0,0,0,.57,0l.43-.08.64,3c-.21.06-.49.14-.85.22a6.83,6.83,0,0,1-1.34.16,6,6,0,0,1-2.54-.39,3.58,3.58,0,0,1-1.7-1.38,4.2,4.2,0,0,1-.59-2.36Z"/><path class="b" d="M688.08,358.74v3h-9v-3Zm-6.91,14.51V357.69a5.11,5.11,0,0,1,.62-2.62,3.92,3.92,0,0,1,1.7-1.55,5.51,5.51,0,0,1,2.45-.52,8.89,8.89,0,0,1,1.69.14c.51.09.9.18,1.15.25l-.72,3-.58-.15a4,4,0,0,0-.7-.06,1.56,1.56,0,0,0-1.24.41,1.74,1.74,0,0,0-.35,1.15v15.48Z"/><path class="b" d="M692.57,356.87a2.18,2.18,0,0,1-1.54-.6,1.86,1.86,0,0,1-.64-1.43,1.89,1.89,0,0,1,.64-1.44,2.17,2.17,0,0,1,1.53-.6,2.2,2.2,0,0,1,1.54.59,1.94,1.94,0,0,1,0,2.88A2.14,2.14,0,0,1,692.57,356.87Zm-2,16.38V358.74h4v14.51Z"/><path class="b" d="M701.8,353.9v19.35h-4V353.9Z"/><path class="b" d="M711.62,373.53a7.67,7.67,0,0,1-3.85-.91,6.2,6.2,0,0,1-2.48-2.59,9.4,9.4,0,0,1,0-7.9,6.42,6.42,0,0,1,2.45-2.63,7.15,7.15,0,0,1,3.72-.95,7.58,7.58,0,0,1,2.68.46,5.94,5.94,0,0,1,2.17,1.37,6.41,6.41,0,0,1,1.45,2.3,9.18,9.18,0,0,1,.52,3.24V367H706v-2.49h8.46a3,3,0,0,0-.38-1.54,2.69,2.69,0,0,0-1-1.05,3,3,0,0,0-1.54-.39,3.1,3.1,0,0,0-2.73,1.55,3.29,3.29,0,0,0-.4,1.56V367a4.06,4.06,0,0,0,.4,1.87,2.87,2.87,0,0,0,1.14,1.2,3.36,3.36,0,0,0,1.75.43,3.67,3.67,0,0,0,1.22-.19,2.5,2.5,0,0,0,1-.57,2.53,2.53,0,0,0,.6-.92l3.72.24a5,5,0,0,1-1.15,2.34,5.73,5.73,0,0,1-2.25,1.55A8.42,8.42,0,0,1,711.62,373.53Z"/></svg>