<svg xmlns="http://www.w3.org/2000/svg" viewBox="0 0 800 500"><defs><style>.a{fill:#bcbec0;}.b{fill:#39b54a;}.c{fill:#009444;}.d{fill:#fff;}.e{fill:#414042;}</style></defs><rect class="a" x="413.79" y="169.08" width="281.13" height="245.33" rx="8"/><path class="b" d="M357.63,164.23V393.7a20.2,20.2,0,0,1-20.2,20.21H125.29a20.2,20.2,0,0,1-20.21-20.21V105.79a20.2,20.2,0,0,1,20.21-20.2H279V144a20.2,20.2,0,0,0,20.2,20.2Z"/><path class="c" d="M357.63,164.23H299.19A20.2,20.2,0,0,1,279,144V85.59Z"/><path class="d" d="M189.22,356.05V353.7h14v2.35h-5.64v15.73h-2.72V356.05Z"/><path class="d" d="M209.81,372.05a6.26,6.26,0,0,1-3.33-.87,6,6,0,0,1-2.2-2.45,9,9,0,0,1,0-7.36,5.88,5.88,0,0,1,2.2-2.45,6.74,6.74,0,0,1,6.66,0,5.91,5.91,0,0,1,2.21,2.45,9.07,9.07,0,0,1,0,7.36,6,6,0,0,1-2.21,2.45A6.26,6.26,0,0,1,209.81,372.05Zm0-2.22a3.15,3.15,0,0,0,2.05-.65,3.79,3.79,0,0,0,1.2-1.74,7,7,0,0,0,.4-2.39,7.09,7.09,0,0,0-.4-2.39,3.93,3.93,0,0,0-1.2-1.75,3.53,3.53,0,0,0-4.11,0,3.87,3.87,0,0,0-1.21,1.75,7.09,7.09,0,0,0-.39,2.39,7,7,0,0,0,.39,2.39,3.73,3.73,0,0,0,1.21,1.74A3.16,3.16,0,0,0,209.82,369.83Z"/><path class="d" d="M219.07,371.78V358.22h2.55v2.15h.14a3.32,3.32,0,0,1,1.31-1.72,3.75,3.75,0,0,1,2.13-.63h.59a5,5,0,0,1,.54.05v2.52c-.11,0-.3-.06-.57-.1a5.52,5.52,0,0,0-.81-.06,3.38,3.38,0,0,0-1.67.4,3.06,3.06,0,0,0-1.15,1.08,3,3,0,0,0-.42,1.58v8.28Z"/><path class="d" d="M228.62,371.78V358.22h2.55v2.15h.14a3.32,3.32,0,0,1,1.31-1.72,3.76,3.76,0,0,1,2.14-.63h.58a5,5,0,0,1,.54.05v2.52c-.11,0-.3-.06-.57-.1a5.52,5.52,0,0,0-.81-.06,3.34,3.34,0,0,0-1.66.4,2.91,2.91,0,0,0-1.58,2.66v8.28Z"/><path class="d" d="M243.52,372.05a6.66,6.66,0,0,1-3.45-.86,5.69,5.69,0,0,1-2.22-2.43,8.13,8.13,0,0,1-.78-3.67,8.27,8.27,0,0,1,.78-3.68,6,6,0,0,1,2.19-2.48,6.07,6.07,0,0,1,3.29-.89,6.74,6.74,0,0,1,2.23.38,5.32,5.32,0,0,1,1.93,1.19,5.64,5.64,0,0,1,1.35,2.11,8.8,8.8,0,0,1,.5,3.14v.93H238.56v-2h8.19a3.9,3.9,0,0,0-.42-1.84,3.26,3.26,0,0,0-1.19-1.28,3.36,3.36,0,0,0-1.79-.47,3.44,3.44,0,0,0-1.93.54,3.71,3.71,0,0,0-1.28,1.42,4.13,4.13,0,0,0-.44,1.88v1.55a5.12,5.12,0,0,0,.48,2.31,3.39,3.39,0,0,0,1.35,1.45,4.35,4.35,0,0,0,3.39.28,2.85,2.85,0,0,0,1.75-1.71l2.5.45a4.6,4.6,0,0,1-1.07,1.93,5.3,5.3,0,0,1-1.94,1.28A7.23,7.23,0,0,1,243.52,372.05Z"/><path class="d" d="M254.92,363.73v8h-2.64V358.22h2.53v2.2H255a3.83,3.83,0,0,1,1.47-1.72A4.51,4.51,0,0,1,259,358a4.84,4.84,0,0,1,2.42.58,3.91,3.91,0,0,1,1.62,1.72,6.22,6.22,0,0,1,.57,2.81v8.63H261v-8.31a3.3,3.3,0,0,0-.76-2.31,2.76,2.76,0,0,0-2.11-.83,3.2,3.2,0,0,0-1.63.4,2.73,2.73,0,0,0-1.12,1.16A3.76,3.76,0,0,0,254.92,363.73Z"/><path class="d" d="M273.45,358.22v2.12h-7.4v-2.12ZM268,355h2.64V367.8a2.33,2.33,0,0,0,.23,1.15,1.16,1.16,0,0,0,.6.52,2.28,2.28,0,0,0,.8.14,3,3,0,0,0,.55-.05l.37-.07.48,2.18a4.29,4.29,0,0,1-.65.18,5.23,5.23,0,0,1-1.06.1,4.68,4.68,0,0,1-1.95-.37,3.33,3.33,0,0,1-1.45-1.2,3.53,3.53,0,0,1-.56-2Z"/><path class="d" d="M176.24,249.75v-3.1l7.23-6.7c.62-.59,1.14-1.13,1.56-1.6a5.92,5.92,0,0,0,.95-1.41,3.42,3.42,0,0,0,.33-1.49,2.89,2.89,0,0,0-.4-1.55,2.85,2.85,0,0,0-1.12-1,3.57,3.57,0,0,0-1.59-.35,3.36,3.36,0,0,0-1.63.38A2.53,2.53,0,0,0,180.5,234a3.42,3.42,0,0,0-.38,1.68H176a6.52,6.52,0,0,1,.9-3.47,6.12,6.12,0,0,1,2.53-2.27,8.35,8.35,0,0,1,3.76-.8,8.83,8.83,0,0,1,3.8.76,6.19,6.19,0,0,1,2.53,2.13,5.54,5.54,0,0,1,.9,3.12,6,6,0,0,1-.45,2.27,9.68,9.68,0,0,1-1.6,2.49,36.26,36.26,0,0,1-3.25,3.27l-3,2.91v.14h8.54v3.51Z"/><path class="d" d="M201.81,250.2a7.7,7.7,0,0,1-4.4-1.27,7.88,7.88,0,0,1-2.83-3.62,17.06,17.06,0,0,1,0-11.37,8,8,0,0,1,11.62-3.56,7.88,7.88,0,0,1,2.83,3.56,14.36,14.36,0,0,1,1,5.67,14.78,14.78,0,0,1-1,5.71,7.87,7.87,0,0,1-2.82,3.62A7.57,7.57,0,0,1,201.81,250.2Zm0-3.57a3.13,3.13,0,0,0,2.79-1.75,10.43,10.43,0,0,0,1-5.27,13.09,13.09,0,0,0-.47-3.85,4.94,4.94,0,0,0-1.33-2.32,2.93,2.93,0,0,0-2-.77,3.16,3.16,0,0,0-2.78,1.74,10.43,10.43,0,0,0-1.05,5.2,13.86,13.86,0,0,0,.47,3.9,5.06,5.06,0,0,0,1.34,2.34A2.91,2.91,0,0,0,201.81,246.63Z"/><path class="d" d="M221.05,250.2a7.65,7.65,0,0,1-4.4-1.27,7.82,7.82,0,0,1-2.83-3.62,16.9,16.9,0,0,1,0-11.37,7.76,7.76,0,0,1,14.44,0,14.36,14.36,0,0,1,1,5.67,15,15,0,0,1-1,5.71,7.88,7.88,0,0,1-2.83,3.62A7.56,7.56,0,0,1,221.05,250.2Zm0-3.57a3.13,3.13,0,0,0,2.78-1.75,10.52,10.52,0,0,0,1-5.27,13.43,13.43,0,0,0-.47-3.85,5.12,5.12,0,0,0-1.33-2.32,3,3,0,0,0-2-.77,3.13,3.13,0,0,0-2.78,1.74,10.22,10.22,0,0,0-1.05,5.2,13.5,13.5,0,0,0,.47,3.9,5.05,5.05,0,0,0,1.33,2.34A2.93,2.93,0,0,0,221.05,246.63Z"/><path class="d" d="M240.28,250.2a7.68,7.68,0,0,1-4.4-1.27,7.88,7.88,0,0,1-2.83-3.62,14.77,14.77,0,0,1-1-5.7,14.53,14.53,0,0,1,1-5.67,7.76,7.76,0,0,1,14.44,0,14.35,14.35,0,0,1,1,5.67,14.78,14.78,0,0,1-1,5.71,7.93,7.93,0,0,1-2.82,3.62A7.6,7.6,0,0,1,240.28,250.2Zm0-3.57a3.15,3.15,0,0,0,2.79-1.75,10.54,10.54,0,0,0,1-5.27,13.43,13.43,0,0,0-.47-3.85,5.12,5.12,0,0,0-1.33-2.32,3,3,0,0,0-2-.77,3.14,3.14,0,0,0-2.78,1.74,10.43,10.43,0,0,0-1.05,5.2,13.86,13.86,0,0,0,.47,3.9,5,5,0,0,0,1.34,2.34A2.91,2.91,0,0,0,240.28,246.63Z"/><path class="d" d="M259.51,250.2a7.7,7.7,0,0,1-4.4-1.27,7.88,7.88,0,0,1-2.83-3.62,17.06,17.06,0,0,1,0-11.37,7.36,7.36,0,0,1,7.22-4.79,7.7,7.7,0,0,1,4.39,1.23,7.83,7.83,0,0,1,2.84,3.56,14.36,14.36,0,0,1,1,5.67,14.78,14.78,0,0,1-1,5.71,7.93,7.93,0,0,1-2.82,3.62A7.57,7.57,0,0,1,259.51,250.2Zm0-3.57a3.13,3.13,0,0,0,2.79-1.75,10.43,10.43,0,0,0,1-5.27,13.09,13.09,0,0,0-.47-3.85,5,5,0,0,0-1.33-2.32,2.93,2.93,0,0,0-2-.77,3.14,3.14,0,0,0-2.78,1.74,10.43,10.43,0,0,0-1.05,5.2,13.86,13.86,0,0,0,.47,3.9,5.06,5.06,0,0,0,1.34,2.34A2.91,2.91,0,0,0,259.51,246.63Z"/><path class="d" d="M271.6,241.4v-3.55h14v3.55Zm5.25,5.25V232.6h3.55v14.05Z"/><path class="d" d="M165.82,283.58a7.84,7.84,0,0,1-4-1,6.66,6.66,0,0,1-2.58-2.78,9.84,9.84,0,0,1,0-8.2,6.72,6.72,0,0,1,2.59-2.77,7.72,7.72,0,0,1,4-1,7.83,7.83,0,0,1,3.49.73,5.81,5.81,0,0,1,2.37,2,5.94,5.94,0,0,1,1,3.08h-4a3.14,3.14,0,0,0-.89-1.84,2.57,2.57,0,0,0-1.88-.7,2.76,2.76,0,0,0-1.71.53,3.39,3.39,0,0,0-1.14,1.54,6.61,6.61,0,0,0-.41,2.45,6.93,6.93,0,0,0,.4,2.48,3.4,3.4,0,0,0,1.14,1.56,2.82,2.82,0,0,0,1.72.54,2.77,2.77,0,0,0,1.3-.3,2.6,2.6,0,0,0,1-.87,3.39,3.39,0,0,0,.5-1.37h4a6.35,6.35,0,0,1-.95,3.07,5.88,5.88,0,0,1-2.34,2.07A7.87,7.87,0,0,1,165.82,283.58Z"/><path class="d" d="M179.57,274.47v8.82h-4.22V263h4.1v7.77h.18a4.36,4.36,0,0,1,1.67-2.12,5.12,5.12,0,0,1,2.89-.77,5.4,5.4,0,0,1,2.77.69,4.73,4.73,0,0,1,1.85,2,6.63,6.63,0,0,1,.65,3.07v9.71h-4.23v-9a3.06,3.06,0,0,0-.71-2.19,2.6,2.6,0,0,0-2-.78,3.13,3.13,0,0,0-1.52.36,2.53,2.53,0,0,0-1,1.07A3.65,3.65,0,0,0,179.57,274.47Z"/><path class="d" d="M197.14,283.57a6.32,6.32,0,0,1-2.6-.51,4.12,4.12,0,0,1-1.8-1.52,5.15,5.15,0,0,1-.2-4.65,4,4,0,0,1,1.27-1.39,6.24,6.24,0,0,1,1.84-.79,14.38,14.38,0,0,1,2.15-.38c.89-.09,1.61-.18,2.15-.26a3.08,3.08,0,0,0,1.18-.37.85.85,0,0,0,.37-.74v-.06a1.83,1.83,0,0,0-.59-1.45,2.47,2.47,0,0,0-1.68-.52,3,3,0,0,0-1.81.5,2.36,2.36,0,0,0-.9,1.26l-3.91-.32a5.3,5.3,0,0,1,1.18-2.41,5.67,5.67,0,0,1,2.25-1.57,8.85,8.85,0,0,1,3.21-.55,9.77,9.77,0,0,1,2.44.3,6.5,6.5,0,0,1,2.07.92,4.46,4.46,0,0,1,1.44,1.61,4.86,4.86,0,0,1,.52,2.33v10.29h-4v-2.12h-.11a4.32,4.32,0,0,1-1,1.26,4.37,4.37,0,0,1-1.48.84A6,6,0,0,1,197.14,283.57Zm1.21-2.91a3.52,3.52,0,0,0,1.65-.38,2.86,2.86,0,0,0,1.12-1,2.66,2.66,0,0,0,.41-1.44v-1.62a2.82,2.82,0,0,1-.54.23c-.23.07-.49.13-.77.19s-.57.11-.86.15l-.77.11a5.44,5.44,0,0,0-1.3.35,2.15,2.15,0,0,0-.87.64,1.63,1.63,0,0,0-.3,1,1.51,1.51,0,0,0,.63,1.31A2.68,2.68,0,0,0,198.35,280.66Z"/><path class="d" d="M209,283.29V268h4.1v2.66h.16a3.9,3.9,0,0,1,1.4-2.15,3.7,3.7,0,0,1,2.26-.73c.21,0,.44,0,.68,0s.46.07.65.11v3.75a6.14,6.14,0,0,0-.83-.16,8.51,8.51,0,0,0-1-.06,3.37,3.37,0,0,0-1.66.4,3,3,0,0,0-1.15,1.11,3.21,3.21,0,0,0-.42,1.65v8.63Z"/><path class="d" d="M224.35,283.57a6.32,6.32,0,0,1-2.6-.51,4.12,4.12,0,0,1-1.8-1.52,5.1,5.1,0,0,1-.19-4.65A3.85,3.85,0,0,1,221,275.5a6.07,6.07,0,0,1,1.83-.79,14.29,14.29,0,0,1,2.16-.38c.88-.09,1.6-.18,2.14-.26a3,3,0,0,0,1.18-.37.83.83,0,0,0,.37-.74v-.06a1.83,1.83,0,0,0-.59-1.45,2.44,2.44,0,0,0-1.67-.52,3,3,0,0,0-1.82.5,2.29,2.29,0,0,0-.89,1.26l-3.91-.32A5.19,5.19,0,0,1,221,270a5.67,5.67,0,0,1,2.25-1.57,8.86,8.86,0,0,1,3.22-.55,9.75,9.75,0,0,1,2.43.3,6.66,6.66,0,0,1,2.08.92,4.53,4.53,0,0,1,1.43,1.61,4.86,4.86,0,0,1,.53,2.33v10.29h-4v-2.12h-.12a4.32,4.32,0,0,1-1,1.26,4.41,4.41,0,0,1-1.47.84A6.1,6.1,0,0,1,224.35,283.57Zm1.21-2.91a3.52,3.52,0,0,0,1.65-.38,2.79,2.79,0,0,0,1.12-1,2.66,2.66,0,0,0,.41-1.44v-1.62a2.35,2.35,0,0,1-.54.23c-.23.07-.49.13-.77.19s-.57.11-.86.15l-.77.11a5.44,5.44,0,0,0-1.3.35,2,2,0,0,0-.86.64,1.57,1.57,0,0,0-.31,1,1.51,1.51,0,0,0,.63,1.31A2.68,2.68,0,0,0,225.56,280.66Z"/><path class="d" d="M243.11,283.58a7.84,7.84,0,0,1-4-1,6.66,6.66,0,0,1-2.58-2.78,9.84,9.84,0,0,1,0-8.2,6.72,6.72,0,0,1,2.59-2.77,7.72,7.72,0,0,1,4-1,7.83,7.83,0,0,1,3.49.73,5.81,5.81,0,0,1,2.37,2,5.94,5.94,0,0,1,1,3.08h-4a3.14,3.14,0,0,0-.89-1.84,2.57,2.57,0,0,0-1.88-.7,2.76,2.76,0,0,0-1.71.53,3.39,3.39,0,0,0-1.14,1.54,6.61,6.61,0,0,0-.41,2.45,6.93,6.93,0,0,0,.4,2.48,3.4,3.4,0,0,0,1.14,1.56,2.82,2.82,0,0,0,1.72.54,2.77,2.77,0,0,0,1.3-.3,2.6,2.6,0,0,0,1-.87,3.39,3.39,0,0,0,.5-1.37h4a6.35,6.35,0,0,1-.95,3.07,5.88,5.88,0,0,1-2.34,2.07A7.87,7.87,0,0,1,243.11,283.58Z"/><path class="d" d="M260.74,268v3.18h-9.18V268Zm-7.09-3.65h4.23V278.6a2,2,0,0,0,.17.91,1,1,0,0,0,.51.45,1.88,1.88,0,0,0,.74.13,4,4,0,0,0,.6,0l.46-.09.66,3.15-.89.23a7.51,7.51,0,0,1-1.4.16,6.44,6.44,0,0,1-2.68-.4,3.81,3.81,0,0,1-1.78-1.45,4.44,4.44,0,0,1-.62-2.48Z"/><path class="d" d="M270.28,283.58a8,8,0,0,1-4-1,6.44,6.44,0,0,1-2.61-2.71,9.94,9.94,0,0,1,0-8.31,6.83,6.83,0,0,1,2.58-2.77,7.49,7.49,0,0,1,3.9-1,8.11,8.11,0,0,1,2.82.48,6.48,6.48,0,0,1,2.28,1.45,6.58,6.58,0,0,1,1.52,2.41,9.55,9.55,0,0,1,.55,3.4v1.17H264.41v-2.63h8.89a3.18,3.18,0,0,0-.4-1.61,2.86,2.86,0,0,0-1.1-1.11,3.14,3.14,0,0,0-1.62-.4,3.19,3.19,0,0,0-2.86,1.62,3.36,3.36,0,0,0-.42,1.64v2.49a4.26,4.26,0,0,0,.42,2,3,3,0,0,0,1.19,1.27,3.61,3.61,0,0,0,1.84.45,4.06,4.06,0,0,0,1.29-.2,2.53,2.53,0,0,0,1-.6,2.61,2.61,0,0,0,.64-1l3.91.26a5.39,5.39,0,0,1-1.22,2.46,6.1,6.1,0,0,1-2.36,1.62A8.8,8.8,0,0,1,270.28,283.58Z"/><path class="d" d="M280,283.29V268h4.1v2.66h.15a4,4,0,0,1,1.4-2.15,3.75,3.75,0,0,1,2.27-.73c.21,0,.44,0,.68,0s.46.07.65.11v3.75a6.14,6.14,0,0,0-.83-.16,8.51,8.51,0,0,0-1-.06,3.34,3.34,0,0,0-1.66.4,3,3,0,0,0-1.15,1.11,3.12,3.12,0,0,0-.43,1.65v8.63Z"/><path class="d" d="M304.14,272.39l-3.87.24a2.07,2.07,0,0,0-.42-.9,2.48,2.48,0,0,0-.86-.65,3.09,3.09,0,0,0-1.27-.24,3.19,3.19,0,0,0-1.66.41,1.24,1.24,0,0,0-.67,1.1,1.15,1.15,0,0,0,.44.92,3.57,3.57,0,0,0,1.49.61l2.76.55a6.93,6.93,0,0,1,3.32,1.47,3.45,3.45,0,0,1,1.09,2.66,4.13,4.13,0,0,1-.88,2.63,5.62,5.62,0,0,1-2.4,1.76,9.16,9.16,0,0,1-3.51.63,8.24,8.24,0,0,1-4.82-1.26,5,5,0,0,1-2.1-3.45l4.16-.22a2.1,2.1,0,0,0,.92,1.4,3.2,3.2,0,0,0,1.85.49,3.27,3.27,0,0,0,1.79-.44,1.27,1.27,0,0,0,.69-1.11,1.17,1.17,0,0,0-.48-.95,3.51,3.51,0,0,0-1.47-.57l-2.64-.53a6.24,6.24,0,0,1-3.32-1.54,3.84,3.84,0,0,1-1.09-2.81,4.09,4.09,0,0,1,.8-2.53,5,5,0,0,1,2.25-1.64,9.33,9.33,0,0,1,3.41-.58,7.56,7.56,0,0,1,4.55,1.22A4.72,4.72,0,0,1,304.14,272.39Z"/><path class="e" d="M462.32,375.32V357.24h11.21v2.35H465v5.51h7.68v2.34H465v7.88Z"/><path class="e" d="M476.88,375.32V357.24h2.73V373h8.19v2.35Z"/><path class="e" d="M505.9,366.28a10.83,10.83,0,0,1-1.06,5,7.68,7.68,0,0,1-2.9,3.19,8.36,8.36,0,0,1-8.36,0,7.65,7.65,0,0,1-2.9-3.2,12.18,12.18,0,0,1,0-9.94,7.71,7.71,0,0,1,2.9-3.2,8.43,8.43,0,0,1,8.36,0,7.71,7.71,0,0,1,2.9,3.2A10.76,10.76,0,0,1,505.9,366.28Zm-2.7,0a8.78,8.78,0,0,0-.71-3.72,5.25,5.25,0,0,0-1.94-2.29,5.1,5.1,0,0,0-2.79-.78,5,5,0,0,0-2.78.78,5.25,5.25,0,0,0-1.94,2.29,10.1,10.1,0,0,0,0,7.44,5.27,5.27,0,0,0,1.94,2.3,5,5,0,0,0,2.78.78,5.1,5.1,0,0,0,2.79-.78,5.27,5.27,0,0,0,1.94-2.3A8.78,8.78,0,0,0,503.2,366.28Z"/><path class="e" d="M522,361.76v2.12h-7.4v-2.12Zm-5.42-3.25h2.64v12.83a2.31,2.31,0,0,0,.23,1.15,1.15,1.15,0,0,0,.6.52,2.28,2.28,0,0,0,.8.14,3,3,0,0,0,.55,0l.37-.07.48,2.18-.65.18a6.06,6.06,0,0,1-1.06.1,4.63,4.63,0,0,1-1.94-.37,3.35,3.35,0,0,1-1.46-1.2,3.53,3.53,0,0,1-.56-2Z"/><path class="e" d="M524.91,375.32V361.76h2.55v2.16h.14a3.29,3.29,0,0,1,1.31-1.73,3.75,3.75,0,0,1,2.13-.63l.59,0c.22,0,.4,0,.53,0v2.53a4.5,4.5,0,0,0-.56-.11,7.37,7.37,0,0,0-.82-.05,3.48,3.48,0,0,0-1.66.39,3,3,0,0,0-1.58,2.66v8.28Z"/><path class="e" d="M538.28,375.62a5.48,5.48,0,0,1-2.33-.48,3.89,3.89,0,0,1-1.65-1.4,4,4,0,0,1-.6-2.25,3.72,3.72,0,0,1,.44-1.89,3.26,3.26,0,0,1,1.19-1.17,6.26,6.26,0,0,1,1.68-.66q.93-.21,1.89-.33l2-.23a3,3,0,0,0,1.11-.31.74.74,0,0,0,.34-.69v-.06a2.36,2.36,0,0,0-.65-1.79,2.61,2.61,0,0,0-1.93-.64,3.37,3.37,0,0,0-2.09.59,3.2,3.2,0,0,0-1.06,1.3l-2.48-.56a4.8,4.8,0,0,1,1.3-2,5.15,5.15,0,0,1,2-1.11,7.53,7.53,0,0,1,2.34-.35,8.15,8.15,0,0,1,1.72.19,5,5,0,0,1,1.72.69,3.79,3.79,0,0,1,1.31,1.43,5,5,0,0,1,.51,2.42v9h-2.58v-1.85h-.1a3.79,3.79,0,0,1-.77,1,3.91,3.91,0,0,1-1.32.82A5,5,0,0,1,538.28,375.62Zm.57-2.12a3.81,3.81,0,0,0,1.88-.43,3.09,3.09,0,0,0,1.19-1.13,3,3,0,0,0,.41-1.51v-1.75a1.22,1.22,0,0,1-.54.26,7.94,7.94,0,0,1-.92.21l-1,.15-.82.11a6.3,6.3,0,0,0-1.39.32,2.54,2.54,0,0,0-1,.66A1.87,1.87,0,0,0,537,373,3.12,3.12,0,0,0,538.85,373.5Z"/><path class="e" d="M551.12,367.27v8.05h-2.64V361.76H551V364h.16a4,4,0,0,1,1.47-1.73,4.51,4.51,0,0,1,2.53-.65,4.85,4.85,0,0,1,2.43.58,3.87,3.87,0,0,1,1.61,1.71,6.13,6.13,0,0,1,.58,2.82v8.62h-2.64V367a3.27,3.27,0,0,0-.77-2.31,2.71,2.71,0,0,0-2.11-.84,3.36,3.36,0,0,0-1.63.4,2.91,2.91,0,0,0-1.12,1.16A3.88,3.88,0,0,0,551.12,367.27Z"/><path class="e" d="M573.49,365.07l-2.39.43a2.82,2.82,0,0,0-.48-.88,2.43,2.43,0,0,0-.87-.68,3.2,3.2,0,0,0-1.36-.26,3.24,3.24,0,0,0-1.87.5,1.48,1.48,0,0,0-.76,1.28,1.35,1.35,0,0,0,.51,1.1,4.14,4.14,0,0,0,1.62.68l2.16.49a5.78,5.78,0,0,1,2.78,1.33,3.1,3.1,0,0,1,.92,2.34,3.54,3.54,0,0,1-.7,2.17,4.71,4.71,0,0,1-1.95,1.49,7.23,7.23,0,0,1-2.89.53,6.51,6.51,0,0,1-3.72-1,4.13,4.13,0,0,1-1.76-2.78l2.55-.38a2.41,2.41,0,0,0,1,1.5,3.33,3.33,0,0,0,1.93.51,3.51,3.51,0,0,0,2.08-.55,1.59,1.59,0,0,0,.77-1.32,1.37,1.37,0,0,0-.47-1.07,3,3,0,0,0-1.44-.65l-2.3-.51A5.57,5.57,0,0,1,564,368a3.34,3.34,0,0,1-.9-2.4,3.4,3.4,0,0,1,.67-2.1,4.38,4.38,0,0,1,1.85-1.41,7,7,0,0,1,2.71-.5,5.58,5.58,0,0,1,3.46,1A4.43,4.43,0,0,1,573.49,365.07Z"/><path class="e" d="M580.59,375.62a5.52,5.52,0,0,1-2.33-.48,3.87,3.87,0,0,1-1.64-1.4,3.94,3.94,0,0,1-.61-2.25,3.72,3.72,0,0,1,.44-1.89,3.36,3.36,0,0,1,1.2-1.17,6.33,6.33,0,0,1,1.67-.66q.93-.21,1.89-.33l2-.23a3,3,0,0,0,1.1-.31.75.75,0,0,0,.35-.69v-.06a2.4,2.4,0,0,0-.65-1.79,2.65,2.65,0,0,0-1.93-.64,3.38,3.38,0,0,0-2.1.59,3.09,3.09,0,0,0-1.05,1.3l-2.48-.56a4.69,4.69,0,0,1,1.29-2,5.23,5.23,0,0,1,2-1.11,7.62,7.62,0,0,1,2.34-.35,8.25,8.25,0,0,1,1.73.19,4.89,4.89,0,0,1,1.71.69,3.79,3.79,0,0,1,1.31,1.43,5,5,0,0,1,.51,2.42v9h-2.57v-1.85h-.11a3.79,3.79,0,0,1-.77,1,4,4,0,0,1-1.31.82A5.09,5.09,0,0,1,580.59,375.62Zm.58-2.12a3.77,3.77,0,0,0,1.87-.43,3.09,3.09,0,0,0,1.19-1.13,2.89,2.89,0,0,0,.42-1.51v-1.75a1.33,1.33,0,0,1-.55.26,8.24,8.24,0,0,1-.91.21l-1,.15-.81.11a6.39,6.39,0,0,0-1.4.32,2.54,2.54,0,0,0-1,.66,1.89,1.89,0,0,0,.35,2.61A3.13,3.13,0,0,0,581.17,373.5Z"/><path class="e" d="M596.51,375.59a6.21,6.21,0,0,1-3.39-.89,5.83,5.83,0,0,1-2.17-2.48,8.2,8.2,0,0,1-.76-3.62A8.33,8.33,0,0,1,591,365a6,6,0,0,1,2.19-2.47,6.1,6.1,0,0,1,3.33-.89,6.42,6.42,0,0,1,2.76.57,5.08,5.08,0,0,1,2,1.59,4.85,4.85,0,0,1,.89,2.39h-2.57a3.06,3.06,0,0,0-1-1.64,2.85,2.85,0,0,0-2-.69,3.24,3.24,0,0,0-1.93.58,3.76,3.76,0,0,0-1.29,1.64,6.43,6.43,0,0,0-.46,2.51,6.62,6.62,0,0,0,.45,2.56,3.77,3.77,0,0,0,1.28,1.67,3.22,3.22,0,0,0,1.95.59,3.18,3.18,0,0,0,1.36-.28,2.76,2.76,0,0,0,1-.79,3.06,3.06,0,0,0,.59-1.26h2.57a5,5,0,0,1-.86,2.35,4.81,4.81,0,0,1-1.91,1.62A6.18,6.18,0,0,1,596.51,375.59Z"/><path class="e" d="M611.24,361.76v2.12h-7.41v-2.12Zm-5.42-3.25h2.64v12.83a2.31,2.31,0,0,0,.23,1.15,1.12,1.12,0,0,0,.6.52,2.26,2.26,0,0,0,.79.14,3.06,3.06,0,0,0,.56,0L611,373l.48,2.18-.66.18a5.84,5.84,0,0,1-1.05.1,4.68,4.68,0,0,1-1.95-.37,3.33,3.33,0,0,1-1.45-1.2,3.53,3.53,0,0,1-.56-2Z"/><path class="e" d="M615.49,359.67a1.64,1.64,0,0,1-1.18-.46,1.47,1.47,0,0,1-.49-1.11,1.49,1.49,0,0,1,.49-1.12,1.64,1.64,0,0,1,1.18-.46,1.61,1.61,0,0,1,1.17.46,1.51,1.51,0,0,1,0,2.23A1.61,1.61,0,0,1,615.49,359.67Zm-1.34,15.65V361.76h2.64v13.56Z"/><path class="e" d="M626.05,375.59a6.26,6.26,0,0,1-3.33-.87,5.92,5.92,0,0,1-2.2-2.44,9,9,0,0,1,0-7.37,5.88,5.88,0,0,1,2.2-2.45,6.81,6.81,0,0,1,6.66,0,5.91,5.91,0,0,1,2.21,2.45,9.09,9.09,0,0,1,0,7.37,5.94,5.94,0,0,1-2.21,2.44A6.26,6.26,0,0,1,626.05,375.59Zm0-2.21a3.2,3.2,0,0,0,2.05-.65,3.89,3.89,0,0,0,1.2-1.74,7.34,7.34,0,0,0,0-4.78,3.87,3.87,0,0,0-1.2-1.75,3.49,3.49,0,0,0-4.11,0,3.89,3.89,0,0,0-1.21,1.75,7.52,7.52,0,0,0,0,4.78,3.91,3.91,0,0,0,1.21,1.74A3.21,3.21,0,0,0,626.06,373.38Z"/><path class="e" d="M638,367.27v8.05h-2.64V361.76h2.53V364H638a3.86,3.86,0,0,1,1.47-1.73,4.51,4.51,0,0,1,2.53-.65,4.91,4.91,0,0,1,2.43.58,3.87,3.87,0,0,1,1.61,1.71,6.26,6.26,0,0,1,.58,2.82v8.62H644V367a3.27,3.27,0,0,0-.77-2.31,2.72,2.72,0,0,0-2.11-.84,3.33,3.33,0,0,0-1.63.4,2.85,2.85,0,0,0-1.12,1.16A3.88,3.88,0,0,0,638,367.27Z"/><path class="e" d="M488.43,262.26h5.3l5.6,13.65h.23l5.6-13.65h5.3v20.32h-4.17V269.35h-.17l-5.25,13.13H498l-5.26-13.18h-.17v13.28h-4.17Z"/><path class="e" d="M518.26,282.87a6.32,6.32,0,0,1-2.6-.51,4.12,4.12,0,0,1-1.8-1.52,5.1,5.1,0,0,1-.19-4.65,3.7,3.7,0,0,1,1.27-1.39,5.83,5.83,0,0,1,1.83-.79,13.14,13.14,0,0,1,2.16-.38c.88-.09,1.6-.18,2.14-.26a3,3,0,0,0,1.18-.38.81.81,0,0,0,.37-.73v-.06a1.84,1.84,0,0,0-.59-1.46,2.49,2.49,0,0,0-1.67-.51,2.93,2.93,0,0,0-1.82.5,2.3,2.3,0,0,0-.89,1.25l-3.91-.32a5.3,5.3,0,0,1,1.17-2.4,5.64,5.64,0,0,1,2.26-1.57,8.57,8.57,0,0,1,3.21-.55,9.75,9.75,0,0,1,2.43.3,6.23,6.23,0,0,1,2.08.92,4.58,4.58,0,0,1,1.43,1.6,4.87,4.87,0,0,1,.53,2.34v10.28h-4v-2.11h-.12a4.38,4.38,0,0,1-1,1.25,4.66,4.66,0,0,1-1.48.85A6.1,6.1,0,0,1,518.26,282.87Zm1.21-2.92a3.52,3.52,0,0,0,1.65-.37,2.81,2.81,0,0,0,1.12-1,2.61,2.61,0,0,0,.41-1.44v-1.62a2,2,0,0,1-.54.24c-.23.07-.49.13-.77.19l-.86.15-.77.11a5,5,0,0,0-1.3.35,2,2,0,0,0-.86.64,1.56,1.56,0,0,0-.31,1,1.52,1.52,0,0,0,.63,1.32A2.68,2.68,0,0,0,519.47,280Z"/><path class="e" d="M533.66,267.34l2.8,5.33,2.87-5.33h4.34L539.25,275l4.54,7.62h-4.32l-3-5.27-3,5.27h-4.37l4.52-7.62-4.36-7.62Z"/><path class="e" d="M561.45,262.26v20.32h-4.3V266.33H557l-4.66,2.92v-3.81l5-3.18Z"/><path class="e" d="M574.25,283a7.77,7.77,0,0,1-4.4-1.26,8,8,0,0,1-2.83-3.63,17.06,17.06,0,0,1,0-11.37,7.36,7.36,0,0,1,7.22-4.79,7.73,7.73,0,0,1,4.4,1.23,7.86,7.86,0,0,1,2.83,3.57,14.28,14.28,0,0,1,1,5.66,14.87,14.87,0,0,1-1,5.72,7.85,7.85,0,0,1-2.82,3.62A7.64,7.64,0,0,1,574.25,283Zm0-3.57a3.13,3.13,0,0,0,2.79-1.75,10.5,10.5,0,0,0,1-5.27,13.1,13.1,0,0,0-.48-3.85,4.86,4.86,0,0,0-1.33-2.31,2.89,2.89,0,0,0-2-.78,3.13,3.13,0,0,0-2.77,1.74,10.34,10.34,0,0,0-1.06,5.2,13.86,13.86,0,0,0,.47,3.9,5,5,0,0,0,1.34,2.35A2.92,2.92,0,0,0,574.25,279.46Z"/><path class="e" d="M585.21,279v-3.39l8.49-13.36h2.91v4.68h-1.72l-5.35,8.47v.15h12.05V279Zm9.76,3.57V278l.07-1.5V262.26h4v20.32Z"/><path class="e" d="M612.43,283a7.77,7.77,0,0,1-4.4-1.26,7.91,7.91,0,0,1-2.83-3.63,14.77,14.77,0,0,1-1-5.7,14.53,14.53,0,0,1,1-5.67,7.36,7.36,0,0,1,7.22-4.79,7.7,7.7,0,0,1,4.39,1.23,7.81,7.81,0,0,1,2.84,3.57,14.28,14.28,0,0,1,1,5.66,14.87,14.87,0,0,1-1,5.72,8,8,0,0,1-2.82,3.62A7.67,7.67,0,0,1,612.43,283Zm0-3.57a3.13,3.13,0,0,0,2.79-1.75,10.4,10.4,0,0,0,1-5.27,13.13,13.13,0,0,0-.47-3.85,4.94,4.94,0,0,0-1.33-2.31,2.89,2.89,0,0,0-2-.78,3.14,3.14,0,0,0-2.78,1.74,10.46,10.46,0,0,0-1,5.2,13.86,13.86,0,0,0,.47,3.9,5,5,0,0,0,1.34,2.35A2.9,2.9,0,0,0,612.43,279.46Z"/><path class="e" d="M488.82,316.42a7.8,7.8,0,0,1-4-1,6.66,6.66,0,0,1-2.58-2.78,9.74,9.74,0,0,1,0-8.2,6.79,6.79,0,0,1,2.59-2.77,7.7,7.7,0,0,1,4-1,8,8,0,0,1,3.49.73,5.81,5.81,0,0,1,2.37,2,5.93,5.93,0,0,1,1,3.08h-4a3.17,3.17,0,0,0-.89-1.84,2.57,2.57,0,0,0-1.88-.7,2.88,2.88,0,0,0-1.72.53A3.45,3.45,0,0,0,486,306a6.66,6.66,0,0,0-.41,2.46A7,7,0,0,0,486,311a3.37,3.37,0,0,0,1.14,1.55,3,3,0,0,0,3,.24,2.43,2.43,0,0,0,1-.87,3.21,3.21,0,0,0,.51-1.37h4a6.24,6.24,0,0,1-.94,3.07,5.88,5.88,0,0,1-2.34,2.07A7.74,7.74,0,0,1,488.82,316.42Z"/><path class="e" d="M502.57,307.3v8.82h-4.23V295.79h4.11v7.77h.18a4.4,4.4,0,0,1,1.67-2.12,5.12,5.12,0,0,1,2.89-.77,5.5,5.5,0,0,1,2.77.69,4.73,4.73,0,0,1,1.85,2,6.65,6.65,0,0,1,.65,3.07v9.71h-4.23v-8.95a3.1,3.1,0,0,0-.71-2.2,2.6,2.6,0,0,0-2-.78,3,3,0,0,0-1.52.37,2.59,2.59,0,0,0-1,1.06A3.78,3.78,0,0,0,502.57,307.3Z"/><path class="e" d="M520.14,316.41a6.32,6.32,0,0,1-2.6-.52,4.1,4.1,0,0,1-1.8-1.51,4.52,4.52,0,0,1-.66-2.52,4.42,4.42,0,0,1,.46-2.13,3.78,3.78,0,0,1,1.27-1.39,6.31,6.31,0,0,1,1.83-.8,13.52,13.52,0,0,1,2.16-.37c.89-.1,1.6-.18,2.15-.27a2.92,2.92,0,0,0,1.18-.37.82.82,0,0,0,.36-.73v-.06a1.81,1.81,0,0,0-.59-1.46,2.42,2.42,0,0,0-1.67-.52,3,3,0,0,0-1.81.5,2.43,2.43,0,0,0-.9,1.26l-3.91-.32a5.39,5.39,0,0,1,1.17-2.41,5.76,5.76,0,0,1,2.26-1.56,8.56,8.56,0,0,1,3.21-.56,9.77,9.77,0,0,1,2.44.3,6.4,6.4,0,0,1,2.07.93,4.43,4.43,0,0,1,1.44,1.6,4.87,4.87,0,0,1,.52,2.34v10.28h-4V314h-.12a4.12,4.12,0,0,1-1,1.26,4.37,4.37,0,0,1-1.48.84A6,6,0,0,1,520.14,316.41Zm1.21-2.92a3.64,3.64,0,0,0,1.65-.37,3,3,0,0,0,1.12-1,2.62,2.62,0,0,0,.4-1.44v-1.62a2,2,0,0,1-.54.23,6.2,6.2,0,0,1-.77.19c-.28.06-.57.11-.85.15l-.77.12a5,5,0,0,0-1.3.34,2.25,2.25,0,0,0-.87.64,1.63,1.63,0,0,0-.3,1,1.53,1.53,0,0,0,.63,1.32A2.68,2.68,0,0,0,521.35,313.49Z"/><path class="e" d="M532,316.12V300.87h4.1v2.66h.15a4,4,0,0,1,1.4-2.15,3.75,3.75,0,0,1,2.27-.72l.68,0c.25,0,.46.07.65.11v3.76a4.89,4.89,0,0,0-.83-.16,6.78,6.78,0,0,0-1-.07,3.34,3.34,0,0,0-1.66.4,3,3,0,0,0-1.15,1.12,3.15,3.15,0,0,0-.42,1.64v8.63Z"/><path class="e" d="M547.35,316.41a6.32,6.32,0,0,1-2.6-.52,4.1,4.1,0,0,1-1.8-1.51,4.52,4.52,0,0,1-.66-2.52,4.3,4.3,0,0,1,.47-2.13,3.7,3.7,0,0,1,1.27-1.39,6.08,6.08,0,0,1,1.83-.8,13.15,13.15,0,0,1,2.16-.37c.88-.1,1.6-.18,2.14-.27a2.92,2.92,0,0,0,1.18-.37.83.83,0,0,0,.37-.73v-.06a1.84,1.84,0,0,0-.59-1.46,2.45,2.45,0,0,0-1.68-.52,3,3,0,0,0-1.81.5,2.36,2.36,0,0,0-.89,1.26l-3.91-.32a5.19,5.19,0,0,1,1.17-2.41,5.65,5.65,0,0,1,2.25-1.56,8.63,8.63,0,0,1,3.21-.56,9.77,9.77,0,0,1,2.44.3,6.3,6.3,0,0,1,2.07.93,4.43,4.43,0,0,1,1.44,1.6,4.87,4.87,0,0,1,.52,2.34v10.28h-4V314h-.12a4.32,4.32,0,0,1-1,1.26,4.37,4.37,0,0,1-1.48.84A6,6,0,0,1,547.35,316.41Zm1.21-2.92a3.64,3.64,0,0,0,1.65-.37,3,3,0,0,0,1.12-1,2.63,2.63,0,0,0,.41-1.44v-1.62a2.3,2.3,0,0,1-.54.23,6.67,6.67,0,0,1-.77.19c-.29.06-.57.11-.86.15l-.77.12a5,5,0,0,0-1.3.34,2.14,2.14,0,0,0-.86.64,1.57,1.57,0,0,0-.31,1A1.53,1.53,0,0,0,547,313,2.68,2.68,0,0,0,548.56,313.49Z"/><path class="e" d="M566.11,316.42a7.8,7.8,0,0,1-4-1,6.66,6.66,0,0,1-2.58-2.78,9.74,9.74,0,0,1,0-8.2,6.79,6.79,0,0,1,2.59-2.77,7.7,7.7,0,0,1,4-1,8,8,0,0,1,3.49.73,5.81,5.81,0,0,1,2.37,2,6,6,0,0,1,1,3.08h-4a3.17,3.17,0,0,0-.89-1.84,2.57,2.57,0,0,0-1.88-.7,2.88,2.88,0,0,0-1.72.53,3.45,3.45,0,0,0-1.13,1.54,6.66,6.66,0,0,0-.41,2.46,7,7,0,0,0,.4,2.48,3.37,3.37,0,0,0,1.14,1.55,3,3,0,0,0,3,.24,2.43,2.43,0,0,0,1-.87,3.21,3.21,0,0,0,.51-1.37h4a6.35,6.35,0,0,1-.95,3.07,5.88,5.88,0,0,1-2.34,2.07A7.74,7.74,0,0,1,566.11,316.42Z"/><path class="e" d="M583.74,300.87v3.18h-9.18v-3.18Zm-7.09-3.65h4.22v14.21a1.88,1.88,0,0,0,.18.91,1,1,0,0,0,.5.45,2,2,0,0,0,.75.13,4,4,0,0,0,.6-.05l.46-.09.66,3.15c-.21.07-.51.14-.89.23a7.44,7.44,0,0,1-1.4.17,6.44,6.44,0,0,1-2.68-.41,3.81,3.81,0,0,1-1.78-1.45,4.44,4.44,0,0,1-.62-2.48Z"/><path class="e" d="M593.28,316.42a8,8,0,0,1-4-1,6.52,6.52,0,0,1-2.61-2.72,9,9,0,0,1-.91-4.18,8.87,8.87,0,0,1,.91-4.12,6.7,6.7,0,0,1,2.58-2.77,7.47,7.47,0,0,1,3.9-1,7.83,7.83,0,0,1,2.81.49,6.36,6.36,0,0,1,2.29,1.44,6.54,6.54,0,0,1,1.52,2.42,9.73,9.73,0,0,1,.55,3.4v1.16H587.4V307h8.9a3.3,3.3,0,0,0-.4-1.62,2.93,2.93,0,0,0-1.1-1.11,3.14,3.14,0,0,0-1.62-.4,3.21,3.21,0,0,0-3.28,3.27v2.49a4.25,4.25,0,0,0,.42,2,3,3,0,0,0,1.19,1.27,3.61,3.61,0,0,0,1.84.45,4.06,4.06,0,0,0,1.29-.2,2.6,2.6,0,0,0,1-.6,2.53,2.53,0,0,0,.64-1l3.91.26a5.39,5.39,0,0,1-1.22,2.46,6,6,0,0,1-2.36,1.62A8.8,8.8,0,0,1,593.28,316.42Z"/><path class="e" d="M603,316.12V300.87h4.09v2.66h.16a4,4,0,0,1,1.4-2.15,3.74,3.74,0,0,1,2.26-.72l.69,0c.24,0,.46.07.64.11v3.76a4.55,4.55,0,0,0-.82-.16,6.78,6.78,0,0,0-1-.07,3.34,3.34,0,0,0-1.66.4,3,3,0,0,0-1.16,1.12,3.15,3.15,0,0,0-.42,1.64v8.63Z"/><path class="e" d="M627.14,305.22l-3.87.24a2.09,2.09,0,0,0-.43-.9,2.3,2.3,0,0,0-.85-.64,2.94,2.94,0,0,0-1.27-.25,3.17,3.17,0,0,0-1.66.41,1.24,1.24,0,0,0-.67,1.1,1.17,1.17,0,0,0,.43.92,3.43,3.43,0,0,0,1.5.61l2.76.55a7,7,0,0,1,3.32,1.47,3.49,3.49,0,0,1,1.09,2.66,4.13,4.13,0,0,1-.88,2.63,5.85,5.85,0,0,1-2.4,1.77,9.16,9.16,0,0,1-3.51.63,8.24,8.24,0,0,1-4.82-1.27,4.91,4.91,0,0,1-2.1-3.45l4.16-.22a2.14,2.14,0,0,0,.91,1.41,3.89,3.89,0,0,0,3.65.05,1.33,1.33,0,0,0,.69-1.12,1.22,1.22,0,0,0-.48-.95,3.51,3.51,0,0,0-1.47-.57l-2.64-.52a6.32,6.32,0,0,1-3.32-1.55,3.82,3.82,0,0,1-1.09-2.81,4.11,4.11,0,0,1,.8-2.53,5,5,0,0,1,2.25-1.64,9.33,9.33,0,0,1,3.41-.58,7.49,7.49,0,0,1,4.55,1.23A4.68,4.68,0,0,1,627.14,305.22Z"/></svg>